M48
;DRILL file {KiCad 4.0.5+dfsg1-4} date Fri Oct  5 16:34:48 2018
;FORMAT={3:3/ absolute / metric / suppress leading zeros}
FMAT,2
METRIC,TZ
T1C0.300
T2C0.400
T3C0.500
T4C0.550
T5C0.600
T6C0.813
T7C1.001
T8C1.200
T9C2.301
T10C2.500
%
G90
G05
M71
T1
X75260Y-74950
X82121Y-69145
X84283Y-69585
X90300Y-69590
X119150Y-65580
T2
X52550Y-55370
X56830Y-58660
X62900Y-53400
X65600Y-55300
X67678Y-57766
X68375Y-60775
X70200Y-80790
X71800Y-51300
X75410Y-67220
X75470Y-76040
X76000Y-73190
X76630Y-77050
X77400Y-72790
X78260Y-55120
X79260Y-66890
X80310Y-54810
X80368Y-68701
X81149Y-68873
X82200Y-71590
X82540Y-74780
X82600Y-73590
X82800Y-50900
X82816Y-70707
X84000Y-77340
X84400Y-67590
X85000Y-72190
X88000Y-75590
X88125Y-58550
X91600Y-74190
X92800Y-74190
X93125Y-57350
X93912Y-70359
X94090Y-76410
X95800Y-51000
X96000Y-69990
X101410Y-70780
X103600Y-74300
X104830Y-84850
X104950Y-87150
X106260Y-62500
X107200Y-62400
X107513Y-70784
X107950Y-70113
X108385Y-74835
X108660Y-55420
X110850Y-55080
X111465Y-75516
X111800Y-74790
X112000Y-82390
X112350Y-84325
X113000Y-57600
X113500Y-76500
X113617Y-75194
X113900Y-81075
X114750Y-77192
X115000Y-70400
X115000Y-74390
X115200Y-67990
X115675Y-78800
X116100Y-84800
X116100Y-86500
X116200Y-65790
X116328Y-77397
X116900Y-88100
X118100Y-69800
X118200Y-89000
X118599Y-73453
X118600Y-84400
X119214Y-73964
X119290Y-75500
X119506Y-72563
X119800Y-83200
X119804Y-76299
X119875Y-57445
X119886Y-74636
X120400Y-59800
X120600Y-63200
X121412Y-60350
X121490Y-83140
X121550Y-61138
X121600Y-57800
X121600Y-63750
X121650Y-62451
X123004Y-83903
X123490Y-64250
X123510Y-73100
X124040Y-76200
X124350Y-80071
X124450Y-85606
X124475Y-55875
X125575Y-64775
X125600Y-63400
X125600Y-68450
X125800Y-86790
X126530Y-90510
X128125Y-63875
X128400Y-83800
X129600Y-85075
X130030Y-76470
X130550Y-68410
X131200Y-85800
X132000Y-65200
X132225Y-53975
X132672Y-65940
X132780Y-77830
X132854Y-67423
X133400Y-84400
X134200Y-61600
X134425Y-53600
X134600Y-72897
X134800Y-85800
X135000Y-71790
X135856Y-66837
X135858Y-73495
X136100Y-90700
X136200Y-60400
X136203Y-74291
X136500Y-67600
X137000Y-63400
X137200Y-64800
X137292Y-65721
X137300Y-68800
X138400Y-76600
X139600Y-60000
X139925Y-82425
X140075Y-55175
X140400Y-81675
X140600Y-85000
X141000Y-88100
X141400Y-78700
X141725Y-58625
X141750Y-73600
X141750Y-79825
X141963Y-64637
X142775Y-71125
X142800Y-58700
X143000Y-78200
X143800Y-73200
X144600Y-57200
X144700Y-88200
X144800Y-62900
X144900Y-68000
X145100Y-66200
X145700Y-83000
X146100Y-78500
X146600Y-61000
X146600Y-80600
X147200Y-75000
X147400Y-83500
T6
X57000Y-85600
X57000Y-87599
X59540Y-85600
X59540Y-87599
X95985Y-84133
X98525Y-84133
X140140Y-92750
X140140Y-95290
X140140Y-97830
X142680Y-92750
X142680Y-95290
X142680Y-97830
X148400Y-51780
X148400Y-56860
X148400Y-61940
X148400Y-67020
X148400Y-72100
X148400Y-77180
X148400Y-82260
X148400Y-87340
X148400Y-92420
X148400Y-97500
X148522Y-54320
X148522Y-59400
X148522Y-64480
X148522Y-69560
X148522Y-79720
X148522Y-84800
X148522Y-89880
X148522Y-94960
T7
X62402Y-70601
X62402Y-73141
X62402Y-75173
X62402Y-77713
X71660Y-87700
X74200Y-87700
X76232Y-87700
X78772Y-87700
T8
X74000Y-53000
X76540Y-53000
X79080Y-53000
X81620Y-53000
X84160Y-53000
X86700Y-53000
X89240Y-53000
X91780Y-53000
X94320Y-53000
X96860Y-53000
X99400Y-53000
X101940Y-53000
X104480Y-53000
X107020Y-53000
X109560Y-53000
X112100Y-53000
T9
X52271Y-90299
X59735Y-67045
X59735Y-80761
X64269Y-90299
X68104Y-90367
X81820Y-90367
T10
X68501Y-53000
X68501Y-84001
X143499Y-53000
X143499Y-84001
T3
X52068Y-52359G85X52718Y-52359
G05
X52068Y-59359G85X52718Y-59359
G05
X98299Y-97662G85X98299Y-97012
G05
X110850Y-97662G85X110850Y-97012
G05
T4
X55093Y-53209G85X55093Y-53509
G05
X55093Y-58209G85X55093Y-58509
G05
T5
X114760Y-92860G85X114760Y-93960
G05
X114760Y-97190G85X114760Y-97990
G05
X123400Y-92860G85X123400Y-93960
G05
X123400Y-97190G85X123400Y-97990
G05
T0
M30
