G04 #@! TF.FileFunction,Copper,L1,Top,Signal*
%FSLAX46Y46*%
G04 Gerber Fmt 4.6, Leading zero omitted, Abs format (unit mm)*
G04 Created by KiCad (PCBNEW 4.0.5+dfsg1-4) date Fri Oct  5 16:33:36 2018*
%MOMM*%
%LPD*%
G01*
G04 APERTURE LIST*
%ADD10C,0.100000*%
%ADD11O,1.000000X1.800000*%
%ADD12O,1.000000X2.100000*%
%ADD13R,0.300000X1.140000*%
%ADD14R,1.397000X1.397000*%
%ADD15C,1.397000*%
%ADD16R,0.500380X2.301240*%
%ADD17R,1.998980X2.499360*%
%ADD18R,0.400000X1.350000*%
%ADD19O,1.800000X1.550000*%
%ADD20C,1.501140*%
%ADD21C,2.999740*%
%ADD22C,1.524000*%
%ADD23C,2.700020*%
%ADD24R,1.350000X0.400000*%
%ADD25O,1.250000X1.250000*%
%ADD26O,1.550000X1.800000*%
%ADD27R,3.200000X1.000000*%
%ADD28O,1.800000X2.600000*%
%ADD29C,3.000000*%
%ADD30C,0.600000*%
%ADD31C,0.300000*%
%ADD32C,0.400000*%
%ADD33C,0.500000*%
%ADD34C,1.000000*%
%ADD35C,0.250000*%
G04 APERTURE END LIST*
D10*
D11*
X114760000Y-97590000D03*
X123400000Y-97590000D03*
D12*
X114760000Y-93410000D03*
X123400000Y-93410000D03*
D13*
X117330000Y-92840000D03*
X117830000Y-92840000D03*
X118330000Y-92840000D03*
X118830000Y-92840000D03*
X119330000Y-92840000D03*
X119830000Y-92840000D03*
X120330000Y-92840000D03*
X120830000Y-92840000D03*
X115730000Y-92840000D03*
X116030000Y-92840000D03*
X116530000Y-92840000D03*
X116830000Y-92840000D03*
X121330000Y-92840000D03*
X121630000Y-92840000D03*
X122130000Y-92840000D03*
X122430000Y-92840000D03*
D14*
X140140000Y-92750000D03*
D15*
X142680000Y-92750000D03*
X140140000Y-95290000D03*
X142680000Y-95290000D03*
X140140000Y-97830000D03*
X142680000Y-97830000D03*
D14*
X95984575Y-84132751D03*
D15*
X98524575Y-84132751D03*
D16*
X87899800Y-92150680D03*
X88699900Y-92150680D03*
X89500000Y-92150680D03*
X90300100Y-92150680D03*
X91100200Y-92150680D03*
D17*
X85049920Y-92249740D03*
X85049920Y-97748840D03*
X93950080Y-92249740D03*
X93950080Y-97748840D03*
D18*
X109800000Y-94637460D03*
X109150000Y-94637460D03*
X101799100Y-94637460D03*
X107850000Y-94637460D03*
X107200000Y-94637460D03*
X100499100Y-94637460D03*
X101149100Y-94637460D03*
X108500000Y-94637460D03*
X102449100Y-94637460D03*
X103099100Y-94637460D03*
D19*
X98299100Y-97337460D03*
X110850000Y-97337460D03*
D20*
X78772000Y-87700000D03*
X76232000Y-87700000D03*
X74200000Y-87700000D03*
X71660000Y-87700000D03*
D21*
X81820000Y-90367000D03*
X68104000Y-90367000D03*
D20*
X62402120Y-77712860D03*
X62402120Y-75172860D03*
X62402120Y-73140860D03*
X62402120Y-70600860D03*
D21*
X59735120Y-80760860D03*
X59735120Y-67044860D03*
D22*
X57000000Y-85600000D03*
X59540000Y-85600000D03*
X59540000Y-87598980D03*
X57000000Y-87598980D03*
D23*
X52270520Y-90299000D03*
X64269480Y-90299000D03*
D15*
X148400000Y-92420000D03*
X148521920Y-89880000D03*
X148400000Y-87340000D03*
X148521920Y-84800000D03*
X148400000Y-82260000D03*
X148521920Y-94960000D03*
X148521920Y-79720000D03*
D14*
X148400000Y-97500000D03*
D15*
X148400000Y-77180000D03*
X148400000Y-67020000D03*
X148521920Y-64480000D03*
X148400000Y-61940000D03*
X148521920Y-59400000D03*
X148400000Y-56860000D03*
X148521920Y-69560000D03*
X148521920Y-54320000D03*
D14*
X148400000Y-72100000D03*
D15*
X148400000Y-51780000D03*
D24*
X55092540Y-54559100D03*
X55092540Y-55209100D03*
X55092540Y-55859100D03*
X55092540Y-56509100D03*
X55092540Y-57159100D03*
D25*
X55092540Y-53359100D03*
X55092540Y-58359100D03*
D26*
X52392540Y-52359100D03*
X52392540Y-59359100D03*
D27*
X134130000Y-94400000D03*
X127330000Y-94400000D03*
X127330000Y-98400000D03*
X134130000Y-98400000D03*
D28*
X74000000Y-53000000D03*
X76540000Y-53000000D03*
X79080000Y-53000000D03*
X81620000Y-53000000D03*
X84160000Y-53000000D03*
X86700000Y-53000000D03*
X89240000Y-53000000D03*
X91780000Y-53000000D03*
X94320000Y-53000000D03*
X96860000Y-53000000D03*
X99400000Y-53000000D03*
X101940000Y-53000000D03*
X104480000Y-53000000D03*
X107020000Y-53000000D03*
X109560000Y-53000000D03*
X112100000Y-53000000D03*
D29*
X68500900Y-53000000D03*
X68500900Y-84000700D03*
X143499480Y-84000700D03*
X143499480Y-53000000D03*
D30*
X124449979Y-85605788D03*
X115200000Y-67990000D03*
X115000000Y-74390000D03*
X132853543Y-67423296D03*
X76000000Y-73190000D03*
X70200000Y-80790000D03*
X56830000Y-58660000D03*
X79260000Y-66890000D03*
X75410000Y-67220000D03*
X68375000Y-60775000D03*
X90300000Y-69590000D03*
X62900000Y-53400000D03*
X95800000Y-51000000D03*
X82800000Y-50900000D03*
X71800000Y-51300000D03*
X65600000Y-55300000D03*
X93125000Y-57350000D03*
X88125000Y-58550000D03*
X67677659Y-57766151D03*
X75470000Y-76040000D03*
X141400000Y-78700000D03*
X145700000Y-83000000D03*
X115675000Y-78800000D03*
X113900000Y-81075000D03*
X116900000Y-88100000D03*
X136200000Y-60400000D03*
X131200000Y-85800000D03*
X136100000Y-90700000D03*
X144700000Y-88200000D03*
X141000000Y-88100000D03*
X140600000Y-85000000D03*
X147400000Y-83500000D03*
X146600000Y-80600000D03*
X146100000Y-78500000D03*
X147200000Y-75000000D03*
X144900000Y-68000000D03*
X145100000Y-66200000D03*
X144800000Y-62900000D03*
X146600000Y-61000000D03*
X113500000Y-76500000D03*
X103600000Y-74300000D03*
X119800000Y-83200000D03*
X128400000Y-83800000D03*
X137000000Y-63400000D03*
X134800000Y-85800000D03*
X138400000Y-76600000D03*
X143800000Y-73200000D03*
X143000000Y-78200000D03*
X132000000Y-65200000D03*
X139600000Y-60000000D03*
X121600000Y-57800000D03*
X113000000Y-57600000D03*
X133400000Y-84400000D03*
X141963265Y-64636735D03*
X101410000Y-70780000D03*
X130550000Y-68410000D03*
X130030000Y-76470000D03*
X124040000Y-76200000D03*
X125600000Y-68450000D03*
X123510000Y-73100000D03*
X128125000Y-63875000D03*
X141725000Y-58625000D03*
X140075000Y-55175000D03*
X125575000Y-64775000D03*
X124475000Y-55875000D03*
X132225000Y-53975000D03*
X81148976Y-68873227D03*
X88000000Y-75590000D03*
X104950000Y-87150000D03*
X94090000Y-76410000D03*
X92800000Y-74190000D03*
X84400000Y-67590000D03*
X82600000Y-73590000D03*
X104830000Y-84850000D03*
X112000000Y-82390000D03*
X116100000Y-86500000D03*
X124349990Y-80070662D03*
X123003628Y-83902881D03*
X111800000Y-74789998D03*
X82120618Y-69144855D03*
X52550000Y-55370000D03*
X134200000Y-61600000D03*
X137200000Y-64800000D03*
X82540000Y-74780000D03*
X108385000Y-74835000D03*
X113616654Y-75194449D03*
X134425000Y-53600000D03*
X114749990Y-77191620D03*
X119290000Y-75500000D03*
X78260000Y-55120000D03*
X108660000Y-55420000D03*
X132780000Y-77830000D03*
X119875000Y-57445000D03*
X141750000Y-73600000D03*
X141750000Y-79825000D03*
X118200000Y-89000000D03*
X118600000Y-84400000D03*
X118598823Y-73452829D03*
X118100000Y-69800000D03*
X119150000Y-65580000D03*
X123490000Y-64250000D03*
X121600000Y-63750000D03*
X110850000Y-55080000D03*
X80310000Y-54810000D03*
X135856411Y-66837177D03*
X121649990Y-62450815D03*
X136203111Y-74291028D03*
X121549990Y-61137801D03*
X121412471Y-60349697D03*
X137300000Y-68800000D03*
X120400000Y-59800000D03*
X120600000Y-63200000D03*
X119804164Y-76298556D03*
X116327992Y-77397245D03*
X136500000Y-67600000D03*
X125600000Y-63400000D03*
X142775000Y-71125000D03*
X137291575Y-65720807D03*
X125800000Y-86790000D03*
X134600000Y-72897122D03*
X126530000Y-90510000D03*
X142800000Y-58700000D03*
X144600000Y-57200000D03*
X129600000Y-85075000D03*
X140400000Y-81675000D03*
X132672284Y-65939990D03*
X135857871Y-73494771D03*
X107950021Y-70113327D03*
X119214125Y-73964125D03*
X107512967Y-70783714D03*
X119885875Y-74635875D03*
X82816402Y-70706898D03*
X84282886Y-69585002D03*
X96000000Y-69990000D03*
X91600000Y-74190000D03*
X116200000Y-65790000D03*
X135000000Y-71790000D03*
X121490000Y-83140000D03*
X139925000Y-82425000D03*
X115000000Y-70400000D03*
X119506499Y-72562754D03*
X111464749Y-75516377D03*
X93911779Y-70358968D03*
X80367772Y-68700775D03*
X112350000Y-84325000D03*
X116100000Y-84800000D03*
X106260373Y-62500373D03*
X107200000Y-62400000D03*
X77400000Y-72790000D03*
X85000000Y-72190000D03*
X82200000Y-71590000D03*
X75260000Y-74950000D03*
X84000000Y-77340000D03*
X76630000Y-77050000D03*
D31*
X126950013Y-86654231D02*
X129204244Y-84400000D01*
X126950013Y-87309113D02*
X126950013Y-86654231D01*
X119400000Y-83400000D02*
X123940013Y-87940013D01*
X123940013Y-87940013D02*
X126319113Y-87940013D01*
X126319113Y-87940013D02*
X126950013Y-87309113D01*
X129204244Y-84400000D02*
X133400000Y-84400000D01*
X126475000Y-63875000D02*
X128125000Y-63875000D01*
X125575000Y-64775000D02*
X126475000Y-63875000D01*
X75410000Y-67220000D02*
X78930000Y-67220000D01*
X78930000Y-67220000D02*
X79260000Y-66890000D01*
X75400000Y-72590000D02*
X75410000Y-72580000D01*
X75410000Y-72580000D02*
X75410000Y-67220000D01*
X76000000Y-73190000D02*
X75400000Y-72590000D01*
X52392540Y-52359100D02*
X54092540Y-52359100D01*
X54092540Y-52359100D02*
X55092540Y-53359100D01*
X52392540Y-59359100D02*
X54092540Y-59359100D01*
X54092540Y-59359100D02*
X55092540Y-58359100D01*
X55092540Y-57159100D02*
X55092540Y-58359100D01*
X68325000Y-57825000D02*
X68325000Y-60750000D01*
X137310000Y-97120000D02*
X137310000Y-91910000D01*
X137310000Y-91910000D02*
X136100000Y-90700000D01*
X134130000Y-98400000D02*
X136030000Y-98400000D01*
X136030000Y-98400000D02*
X137310000Y-97120000D01*
X127330000Y-98400000D02*
X134130000Y-98400000D01*
X147230000Y-84190000D02*
X147400000Y-84020000D01*
X147400000Y-84020000D02*
X147400000Y-83500000D01*
X147230000Y-86440000D02*
X147230000Y-84190000D01*
X147250000Y-86460000D02*
X147230000Y-86440000D01*
X146850000Y-86860000D02*
X147250000Y-86460000D01*
X146850000Y-93830000D02*
X146850000Y-86860000D01*
X147281501Y-94261501D02*
X146850000Y-93830000D01*
X148521920Y-94960000D02*
X147823421Y-94261501D01*
X147823421Y-94261501D02*
X147281501Y-94261501D01*
X144800000Y-65900000D02*
X143226530Y-65900000D01*
X143226530Y-65900000D02*
X141963265Y-64636735D01*
X93125000Y-57350000D02*
X91925000Y-58550000D01*
X91925000Y-58550000D02*
X88549264Y-58550000D01*
X88549264Y-58550000D02*
X88125000Y-58550000D01*
X68325000Y-57825000D02*
X67775000Y-57825000D01*
X68700000Y-57825000D02*
X68325000Y-57825000D01*
X71550000Y-54975000D02*
X68700000Y-57825000D01*
X71550000Y-54250000D02*
X71550000Y-54975000D01*
X74000000Y-53000000D02*
X72800000Y-53000000D01*
X72800000Y-53000000D02*
X71550000Y-54250000D01*
X114266656Y-74790000D02*
X114266656Y-76741835D01*
X114266656Y-74790000D02*
X114266656Y-74726656D01*
X141400000Y-78700000D02*
X140800000Y-79300000D01*
X141300000Y-84300000D02*
X140600000Y-85000000D01*
X140800000Y-79300000D02*
X140800000Y-80200000D01*
X140800000Y-80200000D02*
X141100000Y-80500000D01*
X141100000Y-80500000D02*
X141100000Y-80900000D01*
X141100000Y-80900000D02*
X141300000Y-81100000D01*
X141300000Y-81100000D02*
X141300000Y-84300000D01*
X141000000Y-88100000D02*
X141000000Y-90200000D01*
X116900000Y-84300000D02*
X116900000Y-88100000D01*
X118000000Y-83200000D02*
X116900000Y-84300000D01*
X119800000Y-83200000D02*
X118000000Y-83200000D01*
X131200000Y-85800000D02*
X131200000Y-86500000D01*
X140600000Y-85000000D02*
X140600000Y-87700000D01*
X140600000Y-87700000D02*
X141000000Y-88100000D01*
X139900000Y-85800000D02*
X140600000Y-85100000D01*
X140600000Y-85100000D02*
X140600000Y-85000000D01*
X134800000Y-85800000D02*
X139900000Y-85800000D01*
X147200000Y-83300000D02*
X147400000Y-83500000D01*
X147200000Y-81500000D02*
X147200000Y-83300000D01*
X146600000Y-80900000D02*
X147200000Y-81500000D01*
X146600000Y-80600000D02*
X146600000Y-80900000D01*
X146100000Y-79900000D02*
X146600000Y-80400000D01*
X146100000Y-78500000D02*
X146100000Y-79900000D01*
X146100000Y-77500000D02*
X146100000Y-78500000D01*
X146200000Y-77400000D02*
X146100000Y-77500000D01*
X146200000Y-76000000D02*
X146200000Y-77400000D01*
X147200000Y-75000000D02*
X146200000Y-76000000D01*
X145100000Y-67800000D02*
X144900000Y-68000000D01*
X145100000Y-66200000D02*
X145100000Y-67800000D01*
X144800000Y-65900000D02*
X145100000Y-66200000D01*
X144800000Y-62900000D02*
X144800000Y-65900000D01*
X146600000Y-61000000D02*
X144800000Y-62800000D01*
X144800000Y-62800000D02*
X144800000Y-62900000D01*
X138400000Y-60000000D02*
X138000000Y-60400000D01*
X139600000Y-60000000D02*
X138400000Y-60000000D01*
X119600000Y-83400000D02*
X119800000Y-83200000D01*
X115675000Y-79675000D02*
X119400000Y-83400000D01*
X119400000Y-83400000D02*
X119600000Y-83400000D01*
X115675000Y-78800000D02*
X115675000Y-79675000D01*
X134800000Y-85800000D02*
X131200000Y-85800000D01*
X139600000Y-60000000D02*
X139600000Y-62273470D01*
X139600000Y-62273470D02*
X141963265Y-64636735D01*
X114266656Y-76741835D02*
X113825000Y-77183491D01*
X113825000Y-77183491D02*
X113825000Y-78550000D01*
X115425000Y-78550000D02*
X115675000Y-78800000D01*
X113825000Y-78550000D02*
X113825000Y-80825000D01*
X113825000Y-78550000D02*
X115425000Y-78550000D01*
X124475000Y-55775000D02*
X126600000Y-53650000D01*
X124475000Y-55775000D02*
X124475000Y-55875000D01*
X131900000Y-53650000D02*
X132225000Y-53975000D01*
X126600000Y-53650000D02*
X131900000Y-53650000D01*
X80449977Y-73732855D02*
X80449977Y-69572226D01*
X88000000Y-75590000D02*
X82307122Y-75590000D01*
X82307122Y-75590000D02*
X80449977Y-73732855D01*
X80449977Y-69572226D02*
X81148976Y-68873227D01*
X96812560Y-84990000D02*
X98972560Y-87150000D01*
X94090000Y-82267440D02*
X96812560Y-84990000D01*
X96812560Y-84990000D02*
X96812560Y-84960736D01*
X96812560Y-84960736D02*
X95984575Y-84132751D01*
X94090000Y-76410000D02*
X94090000Y-82267440D01*
X98972560Y-87150000D02*
X104525736Y-87150000D01*
X104525736Y-87150000D02*
X104950000Y-87150000D01*
X94800000Y-76190000D02*
X92800000Y-74190000D01*
X94800000Y-81990000D02*
X94800000Y-76190000D01*
X95400000Y-82590000D02*
X94800000Y-81990000D01*
X96981824Y-82590000D02*
X95400000Y-82590000D01*
X98524575Y-84132751D02*
X96981824Y-82590000D01*
X104830000Y-84850000D02*
X99241824Y-84850000D01*
X99241824Y-84850000D02*
X98524575Y-84132751D01*
X84400000Y-67990000D02*
X81549999Y-70840001D01*
X81549999Y-72539999D02*
X82600000Y-73590000D01*
X84400000Y-67590000D02*
X84400000Y-67990000D01*
X81549999Y-70840001D02*
X81549999Y-72539999D01*
X119700022Y-91500022D02*
X119829999Y-91629999D01*
X119829999Y-91629999D02*
X119830000Y-91970000D01*
X119830000Y-91970000D02*
X119830000Y-92840000D01*
X118900000Y-91500022D02*
X119700022Y-91500022D01*
X118499978Y-91500022D02*
X118900000Y-91500022D01*
X118900000Y-91500022D02*
X119200022Y-91500022D01*
X118830000Y-92840000D02*
X118830000Y-91570022D01*
X118830000Y-91570022D02*
X118900000Y-91500022D01*
X118330000Y-92840000D02*
X118330000Y-91670000D01*
X119200022Y-91500022D02*
X119330000Y-91630000D01*
X118330000Y-91670000D02*
X118499978Y-91500022D01*
X119330000Y-91630000D02*
X119330000Y-91970000D01*
X119330000Y-91970000D02*
X119330000Y-92840000D01*
X121330000Y-91700000D02*
X121930000Y-91700000D01*
X121930000Y-91700000D02*
X122130000Y-91900000D01*
X122130000Y-91900000D02*
X122130000Y-92840000D01*
X116830000Y-91800000D02*
X116830000Y-91700000D01*
X116830000Y-91700000D02*
X116830000Y-91470000D01*
X116030000Y-91870000D02*
X116200000Y-91700000D01*
X116200000Y-91700000D02*
X116830000Y-91700000D01*
X116030000Y-92840000D02*
X116030000Y-91870000D01*
X121330000Y-91700000D02*
X121330000Y-91970000D01*
X121330000Y-91330000D02*
X121330000Y-91700000D01*
X116830000Y-92840000D02*
X116830000Y-91800000D01*
X122130000Y-92840000D02*
X122430000Y-92840000D01*
X115730000Y-92840000D02*
X116030000Y-92840000D01*
X116830000Y-91470000D02*
X117299989Y-91000011D01*
X117299989Y-91000011D02*
X121000011Y-91000011D01*
X121000011Y-91000011D02*
X121330000Y-91330000D01*
X121330000Y-91970000D02*
X121330000Y-92840000D01*
X121330000Y-92840000D02*
X121630000Y-92840000D01*
X116530000Y-92840000D02*
X116830000Y-92840000D01*
D32*
X107400000Y-93000000D02*
X107200000Y-93200000D01*
X107200000Y-93200000D02*
X107200000Y-94637460D01*
X107600000Y-93000000D02*
X107400000Y-93000000D01*
X107850000Y-93250000D02*
X107600000Y-93000000D01*
X107850000Y-94637460D02*
X107850000Y-93250000D01*
D31*
X111700000Y-82690000D02*
X112000000Y-82390000D01*
X111700000Y-82700000D02*
X111700000Y-82690000D01*
X116100000Y-86500000D02*
X115500000Y-85900000D01*
X111400000Y-84200000D02*
X111700000Y-83900000D01*
X115500000Y-85900000D02*
X115500000Y-85600000D01*
X111700000Y-83900000D02*
X111700000Y-82700000D01*
X115500000Y-85600000D02*
X115200000Y-85300000D01*
X111400000Y-84800000D02*
X111400000Y-84200000D01*
X115200000Y-85300000D02*
X111900000Y-85300000D01*
X111900000Y-85300000D02*
X111400000Y-84800000D01*
X123003628Y-83902881D02*
X124349990Y-82556519D01*
X124349990Y-82556519D02*
X124349990Y-80070662D01*
X113212203Y-74789998D02*
X111800000Y-74789998D01*
X111800000Y-74789998D02*
X111194999Y-74789998D01*
D32*
X80999988Y-70265485D02*
X82120618Y-69144855D01*
X80999988Y-73239988D02*
X80999988Y-70265485D01*
X82540000Y-74780000D02*
X80999988Y-73239988D01*
X122550000Y-56450000D02*
X120870000Y-56450000D01*
X120870000Y-56450000D02*
X119875000Y-57445000D01*
X53360900Y-54559100D02*
X52550000Y-55370000D01*
X55092540Y-54559100D02*
X53360900Y-54559100D01*
D33*
X134200000Y-61800000D02*
X134200000Y-61600000D01*
X137200000Y-64800000D02*
X134200000Y-61800000D01*
X145750000Y-96142254D02*
X145750000Y-92640000D01*
X145750000Y-92640000D02*
X145750000Y-86975000D01*
D32*
X145640000Y-92750000D02*
X145750000Y-92640000D01*
X142680000Y-92750000D02*
X145640000Y-92750000D01*
D31*
X108684999Y-75134999D02*
X108385000Y-74835000D01*
X110849998Y-75134999D02*
X108684999Y-75134999D01*
X111194999Y-74789998D02*
X110849998Y-75134999D01*
X113616654Y-75194449D02*
X113212203Y-74789998D01*
D33*
X133625000Y-52800000D02*
X134025000Y-53200000D01*
X122550000Y-56450000D02*
X126200000Y-52800000D01*
X126200000Y-52800000D02*
X133625000Y-52800000D01*
X134025000Y-53200000D02*
X134425000Y-53600000D01*
D34*
X146763216Y-97155470D02*
X148055470Y-97155470D01*
X148055470Y-97155470D02*
X148400000Y-97500000D01*
D33*
X142150002Y-77910002D02*
X141750000Y-77510000D01*
X142150002Y-79424998D02*
X142150002Y-77910002D01*
X141750000Y-79825000D02*
X142150002Y-79424998D01*
D31*
X115600000Y-76590000D02*
X115351610Y-76590000D01*
X115351610Y-76590000D02*
X115049989Y-76891621D01*
X115049989Y-76891621D02*
X114749990Y-77191620D01*
X115600000Y-76590000D02*
X115440000Y-76750000D01*
X116690000Y-75500000D02*
X115600000Y-76590000D01*
D34*
X145977746Y-96370000D02*
X146763216Y-97155470D01*
D31*
X78260000Y-55120000D02*
X78270000Y-55120000D01*
X78270000Y-55120000D02*
X78630000Y-55480000D01*
X78630000Y-55480000D02*
X107970000Y-55480000D01*
X107970000Y-55480000D02*
X108030000Y-55420000D01*
X108030000Y-55420000D02*
X108660000Y-55420000D01*
X119290000Y-75500000D02*
X116690000Y-75500000D01*
D33*
X135110000Y-77510000D02*
X141750000Y-77510000D01*
X135110000Y-77510000D02*
X134790000Y-77830000D01*
X134790000Y-77830000D02*
X133290000Y-77830000D01*
X133290000Y-77830000D02*
X132780000Y-77830000D01*
X141750000Y-77510000D02*
X141750000Y-73600000D01*
X144375000Y-79750000D02*
X141825000Y-79750000D01*
X141825000Y-79750000D02*
X141750000Y-79825000D01*
X146525000Y-81900000D02*
X144375000Y-79750000D01*
X146525000Y-86200000D02*
X146525000Y-81900000D01*
X145750000Y-86975000D02*
X146525000Y-86200000D01*
X146763216Y-97155470D02*
X145750000Y-96142254D01*
D31*
X118600000Y-88600000D02*
X118200000Y-89000000D01*
X118600000Y-84400000D02*
X118600000Y-88600000D01*
X118100000Y-69800000D02*
X118598823Y-70298823D01*
X118598823Y-70298823D02*
X118598823Y-73028565D01*
X118598823Y-73028565D02*
X118598823Y-73452829D01*
X119780000Y-65570000D02*
X119160000Y-65570000D01*
X119160000Y-65570000D02*
X119150000Y-65580000D01*
X121600000Y-63750000D02*
X119780000Y-65570000D01*
X123490000Y-64250000D02*
X123090000Y-63850000D01*
X121700000Y-63850000D02*
X121600000Y-63750000D01*
X123090000Y-63850000D02*
X121700000Y-63850000D01*
X80310000Y-54810000D02*
X80734264Y-54810000D01*
X80734264Y-54810000D02*
X80904254Y-54979990D01*
X80904254Y-54979990D02*
X107762888Y-54979990D01*
X110780000Y-55010000D02*
X110850000Y-55080000D01*
X107762888Y-54979990D02*
X107962877Y-54780001D01*
X107962877Y-54780001D02*
X108329989Y-54780001D01*
X109230000Y-55010000D02*
X110780000Y-55010000D01*
X108329989Y-54780001D02*
X108479990Y-54630000D01*
X108479990Y-54630000D02*
X108850000Y-54630000D01*
X108850000Y-54630000D02*
X109230000Y-55010000D01*
X131470049Y-62450815D02*
X135556412Y-66537178D01*
X135556412Y-66537178D02*
X135856411Y-66837177D01*
X121649990Y-62450815D02*
X131470049Y-62450815D01*
X137150001Y-67205609D02*
X137150001Y-67912001D01*
X136507873Y-68554129D02*
X136507873Y-73986266D01*
X137150001Y-67912001D02*
X136507873Y-68554129D01*
X131082193Y-61137801D02*
X137150001Y-67205609D01*
X121549990Y-61137801D02*
X131082193Y-61137801D01*
X136507873Y-73986266D02*
X136203111Y-74291028D01*
X121836735Y-60349697D02*
X121412471Y-60349697D01*
X131001211Y-60349697D02*
X121836735Y-60349697D01*
X137650011Y-66998497D02*
X131001211Y-60349697D01*
X137650011Y-68449989D02*
X137650011Y-66998497D01*
X137300000Y-68800000D02*
X137650011Y-68449989D01*
X120600000Y-60000000D02*
X120400000Y-59800000D01*
X120600000Y-63200000D02*
X120600000Y-60000000D01*
X117426681Y-76298556D02*
X119379900Y-76298556D01*
X120228428Y-76298556D02*
X119804164Y-76298556D01*
X120398556Y-76298556D02*
X120228428Y-76298556D01*
X120400000Y-76300000D02*
X120398556Y-76298556D01*
X116327992Y-77397245D02*
X117426681Y-76298556D01*
X119379900Y-76298556D02*
X119804164Y-76298556D01*
X136075736Y-67600000D02*
X136500000Y-67600000D01*
X135624244Y-67600000D02*
X136075736Y-67600000D01*
X125600000Y-63400000D02*
X125899999Y-63100001D01*
X131124245Y-63100001D02*
X135624244Y-67600000D01*
X125899999Y-63100001D02*
X131124245Y-63100001D01*
X107020000Y-53000000D02*
X107020000Y-53830000D01*
X142670768Y-71100000D02*
X137591574Y-66020806D01*
X137591574Y-66020806D02*
X137291575Y-65720807D01*
X125800000Y-83590000D02*
X125800000Y-86790000D01*
X125000000Y-82790000D02*
X125800000Y-83590000D01*
X125000000Y-78390000D02*
X125000000Y-82790000D01*
X125400000Y-77990000D02*
X125000000Y-78390000D01*
X131400000Y-77990000D02*
X125400000Y-77990000D01*
X134600000Y-74790000D02*
X131400000Y-77990000D01*
X134600000Y-72897122D02*
X134600000Y-74790000D01*
X126560000Y-92830000D02*
X126560000Y-90540000D01*
X126560000Y-90540000D02*
X126530000Y-90510000D01*
X127330000Y-94400000D02*
X127330000Y-93600000D01*
X127330000Y-93600000D02*
X126560000Y-92830000D01*
X134130000Y-94400000D02*
X127330000Y-94400000D01*
X148521920Y-59400000D02*
X143500000Y-59400000D01*
X143500000Y-59400000D02*
X143480000Y-59380000D01*
X142800000Y-58700000D02*
X143480000Y-59380000D01*
X148400000Y-56860000D02*
X144940000Y-56860000D01*
X144940000Y-56860000D02*
X144600000Y-57200000D01*
X140400000Y-81675000D02*
X140699999Y-81974999D01*
X140699999Y-81974999D02*
X140699999Y-83165001D01*
X140699999Y-83165001D02*
X139040000Y-84825000D01*
X139040000Y-84825000D02*
X135000000Y-84825000D01*
X135000000Y-84825000D02*
X134750000Y-85075000D01*
X134750000Y-85075000D02*
X129600000Y-85075000D01*
X133257112Y-65939990D02*
X132672284Y-65939990D01*
X135857871Y-68540749D02*
X133257112Y-65939990D01*
X135857871Y-73494771D02*
X135857871Y-68540749D01*
X113397945Y-70113327D02*
X107950021Y-70113327D01*
X118953250Y-74225000D02*
X117509618Y-74225000D01*
X117509618Y-74225000D02*
X113397945Y-70113327D01*
X119214125Y-73964125D02*
X118953250Y-74225000D01*
X113149096Y-70783714D02*
X107512967Y-70783714D01*
X119885875Y-74635875D02*
X119671751Y-74849999D01*
X117215381Y-74849999D02*
X113149096Y-70783714D01*
X119671751Y-74849999D02*
X117215381Y-74849999D01*
X82816402Y-70619334D02*
X83850734Y-69585002D01*
X82816402Y-70706898D02*
X82816402Y-70619334D01*
X83850734Y-69585002D02*
X84282886Y-69585002D01*
X95200000Y-69990000D02*
X96000000Y-69990000D01*
X91899999Y-73290001D02*
X95200000Y-69990000D01*
X91600000Y-74190000D02*
X91899999Y-73890001D01*
X91899999Y-73890001D02*
X91899999Y-73290001D01*
X116800000Y-66390000D02*
X116200000Y-65790000D01*
X122200000Y-66390000D02*
X116800000Y-66390000D01*
X123000000Y-65590000D02*
X122200000Y-66390000D01*
X125800000Y-65590000D02*
X123000000Y-65590000D01*
X126800000Y-64590000D02*
X125800000Y-65590000D01*
X128600000Y-64590000D02*
X126800000Y-64590000D01*
X128800000Y-64390000D02*
X128600000Y-64590000D01*
X130000000Y-64390000D02*
X128800000Y-64390000D01*
X132200000Y-66590000D02*
X130000000Y-64390000D01*
X133200000Y-66590000D02*
X132200000Y-66590000D01*
X135000000Y-68390000D02*
X133200000Y-66590000D01*
X135000000Y-71790000D02*
X135000000Y-68390000D01*
X124792889Y-84890011D02*
X122815747Y-84890011D01*
X122815747Y-84890011D02*
X121490000Y-83564264D01*
X121490000Y-83564264D02*
X121490000Y-83140000D01*
X125099989Y-87051993D02*
X125099989Y-85197111D01*
X125099989Y-85197111D02*
X124792889Y-84890011D01*
X126450002Y-83774998D02*
X126450002Y-87102002D01*
X127100000Y-83125000D02*
X126450002Y-83774998D01*
X126450002Y-87102002D02*
X126112002Y-87440002D01*
X126112002Y-87440002D02*
X125487998Y-87440002D01*
X125487998Y-87440002D02*
X125099989Y-87051993D01*
X135900000Y-84275000D02*
X138500000Y-84275000D01*
X138500000Y-84275000D02*
X139925000Y-82850000D01*
X139925000Y-82850000D02*
X139925000Y-82425000D01*
X127100000Y-83125000D02*
X134750000Y-83125000D01*
X134750000Y-83125000D02*
X135900000Y-84275000D01*
X135900000Y-84275000D02*
X137275000Y-84275000D01*
X127950000Y-83125000D02*
X127100000Y-83125000D01*
X116575000Y-68825000D02*
X115000000Y-70400000D01*
X117600000Y-68825000D02*
X117375000Y-68825000D01*
X118400000Y-68825000D02*
X117600000Y-68825000D01*
X117600000Y-68825000D02*
X116575000Y-68825000D01*
X118400000Y-68825000D02*
X119506499Y-69931499D01*
X119506499Y-72138490D02*
X119506499Y-72562754D01*
X119506499Y-69931499D02*
X119506499Y-72138490D01*
D33*
X90500000Y-89000000D02*
X88475000Y-89000000D01*
X87900000Y-89575000D02*
X87900000Y-90699860D01*
X88475000Y-89000000D02*
X87900000Y-89575000D01*
X91100200Y-92150680D02*
X91100200Y-89600200D01*
X91100200Y-89600200D02*
X90500000Y-89000000D01*
X87900000Y-90699860D02*
X87899800Y-90700060D01*
X87899800Y-90700060D02*
X87899800Y-92150680D01*
X89300000Y-89800000D02*
X89500000Y-90000000D01*
X89500000Y-90000000D02*
X89500000Y-92150680D01*
X88900000Y-89800000D02*
X89300000Y-89800000D01*
X88700000Y-90000000D02*
X88900000Y-89800000D01*
X88700000Y-90699960D02*
X88700000Y-90000000D01*
X88699900Y-92150680D02*
X88699900Y-90700060D01*
X88699900Y-90700060D02*
X88700000Y-90699960D01*
D32*
X101799100Y-94637460D02*
X101799100Y-93662460D01*
X101799100Y-93662460D02*
X101736640Y-93600000D01*
X101736640Y-93600000D02*
X101268680Y-93600000D01*
X101268680Y-93600000D02*
X101149100Y-93719580D01*
X101149100Y-93719580D02*
X101149100Y-94637460D01*
X100499100Y-94637460D02*
X100499100Y-93100900D01*
X100499100Y-93100900D02*
X100800000Y-92800000D01*
X100800000Y-92800000D02*
X102800000Y-92800000D01*
X102800000Y-92800000D02*
X103099100Y-93099100D01*
X103099100Y-93099100D02*
X103099100Y-94637460D01*
X109200000Y-93000000D02*
X109150000Y-93050000D01*
X109150000Y-93050000D02*
X109150000Y-94637460D01*
X109600000Y-93000000D02*
X109200000Y-93000000D01*
X109800000Y-93200000D02*
X109600000Y-93000000D01*
X109800000Y-94637460D02*
X109800000Y-93200000D01*
D31*
X112650002Y-76701630D02*
X111464749Y-75516377D01*
X112650002Y-84024998D02*
X112650002Y-76701630D01*
X112350000Y-84325000D02*
X112650002Y-84024998D01*
X81792888Y-76490010D02*
X88192868Y-76490010D01*
X80367772Y-68700775D02*
X79949966Y-69118581D01*
X91099989Y-73582889D02*
X91099989Y-73170758D01*
X79949966Y-74647088D02*
X81792888Y-76490010D01*
X79949966Y-69118581D02*
X79949966Y-74647088D01*
X91099989Y-73170758D02*
X93911779Y-70358968D01*
X88192868Y-76490010D02*
X91099989Y-73582889D01*
X112700000Y-84675000D02*
X112350000Y-84325000D01*
X112700000Y-84675000D02*
X115975000Y-84675000D01*
X115975000Y-84675000D02*
X116100000Y-84800000D01*
X55092540Y-55209100D02*
X56067540Y-55209100D01*
X57879619Y-55679617D02*
X57897296Y-55697296D01*
X57408161Y-55309551D02*
X57405669Y-55320467D01*
X56067540Y-55209100D02*
X56506640Y-54770000D01*
X57405669Y-55320467D02*
X57405669Y-55331663D01*
X57434330Y-55260953D02*
X57431838Y-55271869D01*
X57825422Y-55726812D02*
X57835510Y-55721954D01*
X56506640Y-54770000D02*
X56970000Y-54770000D01*
X56970000Y-54770000D02*
X57420000Y-55220000D01*
X57431838Y-55238841D02*
X57434330Y-55249757D01*
X57803310Y-55729303D02*
X57814506Y-55729303D01*
X57814506Y-55729303D02*
X57825422Y-55726812D01*
X57835510Y-55721954D02*
X57844264Y-55714973D01*
X57792394Y-55726812D02*
X57803310Y-55729303D01*
X57405669Y-55331663D02*
X57408161Y-55342579D01*
X58491805Y-55961948D02*
X58462657Y-56022474D01*
X57420000Y-55220000D02*
X57426980Y-55228753D01*
X57426980Y-55228753D02*
X57431838Y-55238841D01*
X57413019Y-55299463D02*
X57408161Y-55309551D01*
X58732892Y-55285961D02*
X58774778Y-55338484D01*
X58533691Y-56333691D02*
X64700373Y-62500373D01*
X57434330Y-55249757D02*
X57434330Y-55260953D01*
X57431838Y-55271869D02*
X57426980Y-55281956D01*
X58818874Y-55464504D02*
X58818873Y-55531682D01*
X57420000Y-55361420D02*
X57773553Y-55714973D01*
X57426980Y-55281956D02*
X57413019Y-55299463D01*
X58818873Y-55531682D02*
X58803925Y-55597177D01*
X57408161Y-55342579D02*
X57413019Y-55352666D01*
X58803925Y-55597177D02*
X58774777Y-55657702D01*
X58421677Y-55214929D02*
X58487171Y-55199981D01*
X57413019Y-55352666D02*
X57420000Y-55361420D01*
X58732892Y-55710225D02*
X58533691Y-55909427D01*
X57773553Y-55714973D02*
X57782307Y-55721954D01*
X58803924Y-55399009D02*
X58818874Y-55464504D01*
X57782307Y-55721954D02*
X57792394Y-55726812D01*
X57844264Y-55714973D02*
X57879619Y-55679617D01*
X57897296Y-55697296D02*
X58308630Y-55285963D01*
X58774778Y-55338484D02*
X58803924Y-55399009D01*
X58447710Y-56155148D02*
X58462658Y-56220642D01*
X58487171Y-55199981D02*
X58554349Y-55199980D01*
X58462657Y-56022474D02*
X58447709Y-56087968D01*
X58308630Y-55285963D02*
X58361151Y-55244077D01*
X58361151Y-55244077D02*
X58421677Y-55214929D01*
X58554349Y-55199980D02*
X58619843Y-55214928D01*
X58619843Y-55214928D02*
X58680369Y-55244076D01*
X58680369Y-55244076D02*
X58732892Y-55285961D01*
X58774777Y-55657702D02*
X58732892Y-55710225D01*
X58533691Y-55909427D02*
X58491805Y-55961948D01*
X58447709Y-56087968D02*
X58447710Y-56155148D01*
X58462658Y-56220642D02*
X58491806Y-56281168D01*
X58491806Y-56281168D02*
X58533691Y-56333691D01*
X64700373Y-62500373D02*
X106260373Y-62500373D01*
X64470000Y-63190000D02*
X57139100Y-55859100D01*
X55092540Y-55859100D02*
X57139100Y-55859100D01*
X64470000Y-63190000D02*
X106490000Y-63190000D01*
X106490000Y-63190000D02*
X106900001Y-62779999D01*
X106900001Y-62779999D02*
X106900001Y-62699999D01*
X106900001Y-62699999D02*
X107200000Y-62400000D01*
X77350000Y-72840000D02*
X77400000Y-72790000D01*
X77350000Y-72940000D02*
X77350000Y-72840000D01*
X84400000Y-72790000D02*
X85000000Y-72190000D01*
X83400000Y-72790000D02*
X84400000Y-72790000D01*
X82200000Y-71590000D02*
X83400000Y-72790000D01*
X75639999Y-74650001D02*
X77350000Y-72940000D01*
X75260000Y-74950000D02*
X75559999Y-74650001D01*
X75559999Y-74650001D02*
X75639999Y-74650001D01*
X77600000Y-77390000D02*
X83950000Y-77390000D01*
X83950000Y-77390000D02*
X84000000Y-77340000D01*
X77260000Y-77050000D02*
X77600000Y-77390000D01*
X76630000Y-77050000D02*
X77260000Y-77050000D01*
D35*
G36*
X147278645Y-51029319D02*
X147076730Y-51515585D01*
X147076271Y-52042105D01*
X147277337Y-52528723D01*
X147649319Y-52901355D01*
X148068387Y-53075367D01*
X147773197Y-53197337D01*
X147400565Y-53569319D01*
X147198650Y-54055585D01*
X147198191Y-54582105D01*
X147399257Y-55068723D01*
X147771239Y-55441355D01*
X148068688Y-55564867D01*
X147651277Y-55737337D01*
X147303006Y-56085000D01*
X144940005Y-56085000D01*
X144940000Y-56084999D01*
X144702703Y-56132201D01*
X144643420Y-56143993D01*
X144447554Y-56274867D01*
X144416813Y-56274840D01*
X144076714Y-56415366D01*
X143816280Y-56675345D01*
X143675161Y-57015199D01*
X143674840Y-57383187D01*
X143815366Y-57723286D01*
X144075345Y-57983720D01*
X144415199Y-58124839D01*
X144783187Y-58125160D01*
X145123286Y-57984634D01*
X145383720Y-57724655D01*
X145420948Y-57635000D01*
X147303568Y-57635000D01*
X147649319Y-57981355D01*
X148068387Y-58155367D01*
X147773197Y-58277337D01*
X147424926Y-58625000D01*
X143821016Y-58625000D01*
X143725149Y-58529133D01*
X143725160Y-58516813D01*
X143584634Y-58176714D01*
X143324655Y-57916280D01*
X142984801Y-57775161D01*
X142616813Y-57774840D01*
X142276714Y-57915366D01*
X142016280Y-58175345D01*
X141875161Y-58515199D01*
X141874840Y-58883187D01*
X142015366Y-59223286D01*
X142275345Y-59483720D01*
X142615199Y-59624839D01*
X142628835Y-59624851D01*
X142951992Y-59948008D01*
X143203420Y-60116007D01*
X143500000Y-60175000D01*
X147425488Y-60175000D01*
X147771239Y-60521355D01*
X148052575Y-60638176D01*
X147711364Y-60779510D01*
X147649326Y-61012550D01*
X148400000Y-61763223D01*
X148414142Y-61749081D01*
X148590919Y-61925858D01*
X148576777Y-61940000D01*
X148590919Y-61954142D01*
X148414142Y-62130919D01*
X148400000Y-62116777D01*
X147649326Y-62867450D01*
X147711364Y-63100490D01*
X148080012Y-63230564D01*
X147773197Y-63357337D01*
X147400565Y-63729319D01*
X147198650Y-64215585D01*
X147198191Y-64742105D01*
X147399257Y-65228723D01*
X147771239Y-65601355D01*
X148068688Y-65724867D01*
X147651277Y-65897337D01*
X147278645Y-66269319D01*
X147076730Y-66755585D01*
X147076271Y-67282105D01*
X147277337Y-67768723D01*
X147649319Y-68141355D01*
X148068387Y-68315367D01*
X147773197Y-68437337D01*
X147400565Y-68809319D01*
X147198650Y-69295585D01*
X147198191Y-69822105D01*
X147399257Y-70308723D01*
X147771239Y-70681355D01*
X148000374Y-70776500D01*
X147577180Y-70776500D01*
X147347466Y-70871651D01*
X147171650Y-71047466D01*
X147076500Y-71277180D01*
X147076500Y-71818750D01*
X147232750Y-71975000D01*
X148275000Y-71975000D01*
X148275000Y-71955000D01*
X148525000Y-71955000D01*
X148525000Y-71975000D01*
X148545000Y-71975000D01*
X148545000Y-72225000D01*
X148525000Y-72225000D01*
X148525000Y-73267250D01*
X148681250Y-73423500D01*
X149222820Y-73423500D01*
X149300000Y-73391531D01*
X149300000Y-76208225D01*
X149150681Y-76058645D01*
X148664415Y-75856730D01*
X148137895Y-75856271D01*
X147651277Y-76057337D01*
X147278645Y-76429319D01*
X147076730Y-76915585D01*
X147076271Y-77442105D01*
X147277337Y-77928723D01*
X147649319Y-78301355D01*
X148068387Y-78475367D01*
X147773197Y-78597337D01*
X147400565Y-78969319D01*
X147198650Y-79455585D01*
X147198191Y-79982105D01*
X147399257Y-80468723D01*
X147771239Y-80841355D01*
X148068688Y-80964867D01*
X147651277Y-81137337D01*
X147289109Y-81498873D01*
X147266583Y-81465161D01*
X147143718Y-81281281D01*
X144993718Y-79131282D01*
X144709848Y-78941605D01*
X144375000Y-78875000D01*
X143025002Y-78875000D01*
X143025002Y-77910002D01*
X142958397Y-77575154D01*
X142885467Y-77466007D01*
X142768720Y-77291283D01*
X142625000Y-77147563D01*
X142625000Y-73904827D01*
X142674839Y-73784801D01*
X142675160Y-73416813D01*
X142534634Y-73076714D01*
X142274655Y-72816280D01*
X141934801Y-72675161D01*
X141566813Y-72674840D01*
X141226714Y-72815366D01*
X140966280Y-73075345D01*
X140825161Y-73415199D01*
X140824840Y-73783187D01*
X140875000Y-73904584D01*
X140875000Y-76635000D01*
X135110000Y-76635000D01*
X134830706Y-76690555D01*
X134775151Y-76701605D01*
X134491281Y-76891282D01*
X134427563Y-76955000D01*
X133531016Y-76955000D01*
X135148005Y-75338010D01*
X135148008Y-75338008D01*
X135316007Y-75086580D01*
X135375000Y-74790000D01*
X135375000Y-74709092D01*
X135418477Y-74814314D01*
X135678456Y-75074748D01*
X136018310Y-75215867D01*
X136386298Y-75216188D01*
X136726397Y-75075662D01*
X136986831Y-74815683D01*
X137127950Y-74475829D01*
X137127993Y-74426351D01*
X137223880Y-74282846D01*
X137233668Y-74233640D01*
X137282874Y-73986266D01*
X137282873Y-73986261D01*
X137282873Y-72381250D01*
X147076500Y-72381250D01*
X147076500Y-72922820D01*
X147171650Y-73152534D01*
X147347466Y-73328349D01*
X147577180Y-73423500D01*
X148118750Y-73423500D01*
X148275000Y-73267250D01*
X148275000Y-72225000D01*
X147232750Y-72225000D01*
X147076500Y-72381250D01*
X137282873Y-72381250D01*
X137282873Y-69724985D01*
X137483187Y-69725160D01*
X137823286Y-69584634D01*
X138083720Y-69324655D01*
X138224839Y-68984801D01*
X138224863Y-68957823D01*
X138366018Y-68746569D01*
X138425011Y-68449989D01*
X138425011Y-67950259D01*
X141896947Y-71422195D01*
X141990366Y-71648286D01*
X142250345Y-71908720D01*
X142590199Y-72049839D01*
X142958187Y-72050160D01*
X143298286Y-71909634D01*
X143558720Y-71649655D01*
X143699839Y-71309801D01*
X143700160Y-70941813D01*
X143559634Y-70601714D01*
X143299655Y-70341280D01*
X142959801Y-70200161D01*
X142866864Y-70200080D01*
X138216724Y-65549940D01*
X138216735Y-65537620D01*
X138076209Y-65197521D01*
X138048172Y-65169435D01*
X138124839Y-64984801D01*
X138125160Y-64616813D01*
X137984634Y-64276714D01*
X137724655Y-64016280D01*
X137603345Y-63965908D01*
X135385320Y-61747883D01*
X147064318Y-61747883D01*
X147092470Y-62273651D01*
X147239510Y-62628636D01*
X147472550Y-62690674D01*
X148223223Y-61940000D01*
X147472550Y-61189326D01*
X147239510Y-61251364D01*
X147064318Y-61747883D01*
X135385320Y-61747883D01*
X135125098Y-61487662D01*
X135125160Y-61416813D01*
X134984634Y-61076714D01*
X134724655Y-60816280D01*
X134384801Y-60675161D01*
X134016813Y-60674840D01*
X133676714Y-60815366D01*
X133416280Y-61075345D01*
X133275161Y-61415199D01*
X133275063Y-61527533D01*
X131872530Y-60125000D01*
X137791210Y-60125000D01*
X137836398Y-60116546D01*
X137878181Y-60089783D01*
X137906260Y-60048873D01*
X137916210Y-60000262D01*
X137925000Y-55800262D01*
X137916451Y-55754568D01*
X137889601Y-55712841D01*
X137848632Y-55684848D01*
X137800000Y-55675000D01*
X125600000Y-55675000D01*
X125554812Y-55683454D01*
X125513029Y-55710217D01*
X125484950Y-55751127D01*
X125475000Y-55799738D01*
X125467100Y-59574697D01*
X121945831Y-59574697D01*
X121937126Y-59565977D01*
X121597272Y-59424858D01*
X121245719Y-59424551D01*
X121184634Y-59276714D01*
X120924655Y-59016280D01*
X120584801Y-58875161D01*
X120216813Y-58874840D01*
X119876714Y-59015366D01*
X119616280Y-59275345D01*
X119475161Y-59615199D01*
X119474840Y-59983187D01*
X119615366Y-60323286D01*
X119825000Y-60533287D01*
X119825000Y-62666640D01*
X119816280Y-62675345D01*
X119675161Y-63015199D01*
X119674840Y-63383187D01*
X119815366Y-63723286D01*
X120075345Y-63983720D01*
X120213074Y-64040910D01*
X119521358Y-64732626D01*
X119334801Y-64655161D01*
X118966813Y-64654840D01*
X118626714Y-64795366D01*
X118366280Y-65055345D01*
X118225161Y-65395199D01*
X118224969Y-65615000D01*
X117125153Y-65615000D01*
X117125160Y-65606813D01*
X116984634Y-65266714D01*
X116724655Y-65006280D01*
X116384801Y-64865161D01*
X116016813Y-64864840D01*
X115676714Y-65005366D01*
X115416280Y-65265345D01*
X115275161Y-65605199D01*
X115274840Y-65973187D01*
X115415366Y-66313286D01*
X115675345Y-66573720D01*
X116015199Y-66714839D01*
X116028835Y-66714851D01*
X116251992Y-66938008D01*
X116503420Y-67106007D01*
X116800000Y-67165000D01*
X122200000Y-67165000D01*
X122496580Y-67106007D01*
X122748008Y-66938008D01*
X123321016Y-66365000D01*
X125800000Y-66365000D01*
X126096580Y-66306007D01*
X126348008Y-66138008D01*
X127121015Y-65365000D01*
X128600000Y-65365000D01*
X128896580Y-65306007D01*
X129107612Y-65165000D01*
X129678984Y-65165000D01*
X131651992Y-67138008D01*
X131903420Y-67306007D01*
X132200000Y-67365000D01*
X132878984Y-67365000D01*
X134225000Y-68711015D01*
X134225000Y-71256640D01*
X134216280Y-71265345D01*
X134075161Y-71605199D01*
X134074840Y-71973187D01*
X134124278Y-72092835D01*
X134076714Y-72112488D01*
X133816280Y-72372467D01*
X133675161Y-72712321D01*
X133674840Y-73080309D01*
X133815366Y-73420408D01*
X133825000Y-73430059D01*
X133825000Y-74468985D01*
X131078984Y-77215000D01*
X125400000Y-77215000D01*
X125103420Y-77273993D01*
X124851992Y-77441992D01*
X124851990Y-77441995D01*
X124451992Y-77841992D01*
X124283993Y-78093420D01*
X124225000Y-78390000D01*
X124225000Y-79145553D01*
X124166803Y-79145502D01*
X123826704Y-79286028D01*
X123566270Y-79546007D01*
X123425151Y-79885861D01*
X123424830Y-80253849D01*
X123565356Y-80593948D01*
X123574990Y-80603599D01*
X123574990Y-82235504D01*
X122832762Y-82977732D01*
X122820441Y-82977721D01*
X122480342Y-83118247D01*
X122414962Y-83183513D01*
X122415160Y-82956813D01*
X122274634Y-82616714D01*
X122014655Y-82356280D01*
X121674801Y-82215161D01*
X121306813Y-82214840D01*
X120966714Y-82355366D01*
X120706280Y-82615345D01*
X120565161Y-82955199D01*
X120564840Y-83323187D01*
X120705366Y-83663286D01*
X120741995Y-83699979D01*
X120773993Y-83860844D01*
X120941992Y-84112272D01*
X122267737Y-85438016D01*
X122267739Y-85438019D01*
X122482146Y-85581281D01*
X122519167Y-85606018D01*
X122815747Y-85665011D01*
X123524927Y-85665011D01*
X123524819Y-85788975D01*
X123665345Y-86129074D01*
X123925324Y-86389508D01*
X124265178Y-86530627D01*
X124324989Y-86530679D01*
X124324989Y-87051993D01*
X124383982Y-87348573D01*
X124551981Y-87600001D01*
X124939988Y-87988007D01*
X124939990Y-87988010D01*
X125191418Y-88156009D01*
X125240624Y-88165797D01*
X125487998Y-88215003D01*
X125488003Y-88215002D01*
X126112002Y-88215002D01*
X126408582Y-88156009D01*
X126660010Y-87988010D01*
X126998010Y-87650010D01*
X127166009Y-87398582D01*
X127225002Y-87102002D01*
X127225002Y-84096014D01*
X127421016Y-83900000D01*
X134428984Y-83900000D01*
X134664190Y-84135206D01*
X134451992Y-84276992D01*
X134451990Y-84276995D01*
X134428985Y-84300000D01*
X130133360Y-84300000D01*
X130124655Y-84291280D01*
X129784801Y-84150161D01*
X129416813Y-84149840D01*
X129076714Y-84290366D01*
X128816280Y-84550345D01*
X128675161Y-84890199D01*
X128674840Y-85258187D01*
X128815366Y-85598286D01*
X129075345Y-85858720D01*
X129415199Y-85999839D01*
X129783187Y-86000160D01*
X130123286Y-85859634D01*
X130132937Y-85850000D01*
X134750000Y-85850000D01*
X135046580Y-85791007D01*
X135298008Y-85623008D01*
X135321016Y-85600000D01*
X139040000Y-85600000D01*
X139336580Y-85541007D01*
X139588008Y-85373008D01*
X140539482Y-84421534D01*
X141374112Y-84421534D01*
X141696942Y-85202843D01*
X142294193Y-85801137D01*
X143074937Y-86125330D01*
X143920314Y-86126068D01*
X144701623Y-85803238D01*
X145299917Y-85205987D01*
X145624110Y-84425243D01*
X145624848Y-83579866D01*
X145302018Y-82798557D01*
X144704767Y-82200263D01*
X143924023Y-81876070D01*
X143078646Y-81875332D01*
X142297337Y-82198162D01*
X141699043Y-82795413D01*
X141374850Y-83576157D01*
X141374112Y-84421534D01*
X140539482Y-84421534D01*
X141248007Y-83713009D01*
X141416006Y-83461581D01*
X141474999Y-83165001D01*
X141474999Y-81975004D01*
X141475000Y-81974999D01*
X141424164Y-81719432D01*
X141416006Y-81678419D01*
X141325116Y-81542392D01*
X141325160Y-81491813D01*
X141184634Y-81151714D01*
X140924655Y-80891280D01*
X140584801Y-80750161D01*
X140216813Y-80749840D01*
X139876714Y-80890366D01*
X139616280Y-81150345D01*
X139475161Y-81490199D01*
X139475056Y-81610062D01*
X139401714Y-81640366D01*
X139141280Y-81900345D01*
X139000161Y-82240199D01*
X138999840Y-82608187D01*
X139020587Y-82658397D01*
X138178984Y-83500000D01*
X136221015Y-83500000D01*
X135428601Y-82707585D01*
X137798363Y-82707585D01*
X137843551Y-82699131D01*
X137885334Y-82672368D01*
X137913413Y-82631458D01*
X137923363Y-82582847D01*
X137932148Y-78385000D01*
X141275002Y-78385000D01*
X141275002Y-79020414D01*
X141226714Y-79040366D01*
X140966280Y-79300345D01*
X140825161Y-79640199D01*
X140824840Y-80008187D01*
X140965366Y-80348286D01*
X141225345Y-80608720D01*
X141565199Y-80749839D01*
X141933187Y-80750160D01*
X142236097Y-80625000D01*
X144012564Y-80625000D01*
X145650000Y-82262437D01*
X145650000Y-85837563D01*
X145131282Y-86356282D01*
X144941605Y-86640152D01*
X144875000Y-86975000D01*
X144875000Y-91925000D01*
X143726519Y-91925000D01*
X143430681Y-91628645D01*
X142944415Y-91426730D01*
X142417895Y-91426271D01*
X141931277Y-91627337D01*
X141558645Y-91999319D01*
X141475744Y-92198967D01*
X141475744Y-92051500D01*
X141432163Y-91819889D01*
X141295281Y-91607168D01*
X141086424Y-91464462D01*
X140838500Y-91414256D01*
X139441500Y-91414256D01*
X139209889Y-91457837D01*
X138997168Y-91594719D01*
X138854462Y-91803576D01*
X138804256Y-92051500D01*
X138804256Y-93448500D01*
X138847837Y-93680111D01*
X138984719Y-93892832D01*
X139193576Y-94035538D01*
X139441500Y-94085744D01*
X139588748Y-94085744D01*
X139391277Y-94167337D01*
X139018645Y-94539319D01*
X138816730Y-95025585D01*
X138816271Y-95552105D01*
X139017337Y-96038723D01*
X139389319Y-96411355D01*
X139747578Y-96560117D01*
X139391277Y-96707337D01*
X139018645Y-97079319D01*
X138816730Y-97565585D01*
X138816271Y-98092105D01*
X139017337Y-98578723D01*
X139389319Y-98951355D01*
X139875585Y-99153270D01*
X140402105Y-99153729D01*
X140888723Y-98952663D01*
X141084277Y-98757450D01*
X141929326Y-98757450D01*
X141991364Y-98990490D01*
X142487883Y-99165682D01*
X143013651Y-99137530D01*
X143368636Y-98990490D01*
X143430674Y-98757450D01*
X142680000Y-98006777D01*
X141929326Y-98757450D01*
X141084277Y-98757450D01*
X141261355Y-98580681D01*
X141403457Y-98238460D01*
X141519510Y-98518636D01*
X141752550Y-98580674D01*
X142503223Y-97830000D01*
X142856777Y-97830000D01*
X143607450Y-98580674D01*
X143840490Y-98518636D01*
X144015682Y-98022117D01*
X143987530Y-97496349D01*
X143840490Y-97141364D01*
X143607450Y-97079326D01*
X142856777Y-97830000D01*
X142503223Y-97830000D01*
X141752550Y-97079326D01*
X141519510Y-97141364D01*
X141412640Y-97444249D01*
X141262663Y-97081277D01*
X140890681Y-96708645D01*
X140532422Y-96559883D01*
X140888723Y-96412663D01*
X141261355Y-96040681D01*
X141410117Y-95682422D01*
X141557337Y-96038723D01*
X141929319Y-96411355D01*
X142271540Y-96553457D01*
X141991364Y-96669510D01*
X141929326Y-96902550D01*
X142680000Y-97653223D01*
X143430674Y-96902550D01*
X143368636Y-96669510D01*
X143065751Y-96562640D01*
X143428723Y-96412663D01*
X143801355Y-96040681D01*
X144003270Y-95554415D01*
X144003729Y-95027895D01*
X143802663Y-94541277D01*
X143430681Y-94168645D01*
X143072422Y-94019883D01*
X143428723Y-93872663D01*
X143726906Y-93575000D01*
X144875000Y-93575000D01*
X144875000Y-96142254D01*
X144886524Y-96200189D01*
X144852746Y-96370000D01*
X144938382Y-96800518D01*
X145182251Y-97165495D01*
X145967721Y-97950965D01*
X146332697Y-98194834D01*
X146763216Y-98280470D01*
X147079680Y-98280470D01*
X147107837Y-98430111D01*
X147244719Y-98642832D01*
X147453576Y-98785538D01*
X147701500Y-98835744D01*
X149098500Y-98835744D01*
X149300000Y-98797829D01*
X149300000Y-99300000D01*
X136213883Y-99300000D01*
X136259849Y-99254034D01*
X136355000Y-99024320D01*
X136355000Y-98681250D01*
X136198750Y-98525000D01*
X134255000Y-98525000D01*
X134255000Y-98545000D01*
X134005000Y-98545000D01*
X134005000Y-98525000D01*
X132061250Y-98525000D01*
X131905000Y-98681250D01*
X131905000Y-99024320D01*
X132000151Y-99254034D01*
X132046117Y-99300000D01*
X129413883Y-99300000D01*
X129459849Y-99254034D01*
X129555000Y-99024320D01*
X129555000Y-98681250D01*
X129398750Y-98525000D01*
X127455000Y-98525000D01*
X127455000Y-98545000D01*
X127205000Y-98545000D01*
X127205000Y-98525000D01*
X125261250Y-98525000D01*
X125105000Y-98681250D01*
X125105000Y-99024320D01*
X125200151Y-99254034D01*
X125246117Y-99300000D01*
X124925000Y-99300000D01*
X124925000Y-97775680D01*
X125105000Y-97775680D01*
X125105000Y-98118750D01*
X125261250Y-98275000D01*
X127205000Y-98275000D01*
X127205000Y-97431250D01*
X127455000Y-97431250D01*
X127455000Y-98275000D01*
X129398750Y-98275000D01*
X129555000Y-98118750D01*
X129555000Y-97775680D01*
X131905000Y-97775680D01*
X131905000Y-98118750D01*
X132061250Y-98275000D01*
X134005000Y-98275000D01*
X134005000Y-97431250D01*
X134255000Y-97431250D01*
X134255000Y-98275000D01*
X136198750Y-98275000D01*
X136355000Y-98118750D01*
X136355000Y-97775680D01*
X136259849Y-97545966D01*
X136084034Y-97370150D01*
X135854320Y-97275000D01*
X134411250Y-97275000D01*
X134255000Y-97431250D01*
X134005000Y-97431250D01*
X133848750Y-97275000D01*
X132405680Y-97275000D01*
X132175966Y-97370150D01*
X132000151Y-97545966D01*
X131905000Y-97775680D01*
X129555000Y-97775680D01*
X129459849Y-97545966D01*
X129284034Y-97370150D01*
X129054320Y-97275000D01*
X127611250Y-97275000D01*
X127455000Y-97431250D01*
X127205000Y-97431250D01*
X127048750Y-97275000D01*
X125605680Y-97275000D01*
X125375966Y-97370150D01*
X125200151Y-97545966D01*
X125105000Y-97775680D01*
X124925000Y-97775680D01*
X124925000Y-93900000D01*
X125092756Y-93900000D01*
X125092756Y-94900000D01*
X125136337Y-95131611D01*
X125273219Y-95344332D01*
X125482076Y-95487038D01*
X125730000Y-95537244D01*
X128930000Y-95537244D01*
X129161611Y-95493663D01*
X129374332Y-95356781D01*
X129498538Y-95175000D01*
X131964257Y-95175000D01*
X132073219Y-95344332D01*
X132282076Y-95487038D01*
X132530000Y-95537244D01*
X135730000Y-95537244D01*
X135961611Y-95493663D01*
X136174332Y-95356781D01*
X136317038Y-95147924D01*
X136367244Y-94900000D01*
X136367244Y-93900000D01*
X136323663Y-93668389D01*
X136186781Y-93455668D01*
X135977924Y-93312962D01*
X135730000Y-93262756D01*
X132530000Y-93262756D01*
X132298389Y-93306337D01*
X132085668Y-93443219D01*
X131961462Y-93625000D01*
X129495743Y-93625000D01*
X129386781Y-93455668D01*
X129177924Y-93312962D01*
X128930000Y-93262756D01*
X128018836Y-93262756D01*
X127878008Y-93051992D01*
X127878005Y-93051990D01*
X127335000Y-92508984D01*
X127335000Y-90983407D01*
X127454839Y-90694801D01*
X127455160Y-90326813D01*
X127314634Y-89986714D01*
X127054655Y-89726280D01*
X126714801Y-89585161D01*
X126346813Y-89584840D01*
X126006714Y-89725366D01*
X125746280Y-89985345D01*
X125605161Y-90325199D01*
X125604840Y-90693187D01*
X125745366Y-91033286D01*
X125785000Y-91072989D01*
X125785000Y-92830000D01*
X125843993Y-93126580D01*
X125934983Y-93262756D01*
X125730000Y-93262756D01*
X125498389Y-93306337D01*
X125285668Y-93443219D01*
X125142962Y-93652076D01*
X125092756Y-93900000D01*
X124925000Y-93900000D01*
X124925000Y-90590000D01*
X124916451Y-90544568D01*
X124889601Y-90502841D01*
X124848632Y-90474848D01*
X124800000Y-90465000D01*
X121561016Y-90465000D01*
X121548019Y-90452003D01*
X121296591Y-90284004D01*
X121000011Y-90225011D01*
X117299989Y-90225011D01*
X117003409Y-90284004D01*
X116751981Y-90452003D01*
X116738984Y-90465000D01*
X112600000Y-90465000D01*
X112554568Y-90473549D01*
X112512841Y-90500399D01*
X112484848Y-90541368D01*
X112475000Y-90590000D01*
X112475000Y-91865000D01*
X96925000Y-91865000D01*
X96925000Y-89183187D01*
X117274840Y-89183187D01*
X117415366Y-89523286D01*
X117675345Y-89783720D01*
X118015199Y-89924839D01*
X118383187Y-89925160D01*
X118723286Y-89784634D01*
X118983720Y-89524655D01*
X119124839Y-89184801D01*
X119124851Y-89171164D01*
X119148005Y-89148010D01*
X119148008Y-89148008D01*
X119316007Y-88896580D01*
X119375000Y-88600000D01*
X119375000Y-84933360D01*
X119383720Y-84924655D01*
X119524839Y-84584801D01*
X119525160Y-84216813D01*
X119384634Y-83876714D01*
X119124655Y-83616280D01*
X118784801Y-83475161D01*
X118416813Y-83474840D01*
X118076714Y-83615366D01*
X117816280Y-83875345D01*
X117675161Y-84215199D01*
X117674840Y-84583187D01*
X117815366Y-84923286D01*
X117825000Y-84932937D01*
X117825000Y-88154095D01*
X117676714Y-88215366D01*
X117416280Y-88475345D01*
X117275161Y-88815199D01*
X117274840Y-89183187D01*
X96925000Y-89183187D01*
X96925000Y-88390000D01*
X96916451Y-88344568D01*
X96889601Y-88302841D01*
X96848632Y-88274848D01*
X96800000Y-88265000D01*
X90944691Y-88265000D01*
X90834848Y-88191605D01*
X90500000Y-88125000D01*
X88475000Y-88125000D01*
X88140152Y-88191605D01*
X88030309Y-88265000D01*
X84925000Y-88265000D01*
X84925000Y-85990000D01*
X84916451Y-85944568D01*
X84889601Y-85902841D01*
X84848632Y-85874848D01*
X84800000Y-85865000D01*
X69553567Y-85865000D01*
X69703043Y-85803238D01*
X70301337Y-85205987D01*
X70625530Y-84425243D01*
X70626268Y-83579866D01*
X70303438Y-82798557D01*
X69706187Y-82200263D01*
X69704923Y-82199738D01*
X71475000Y-82199738D01*
X71483549Y-82245432D01*
X71510399Y-82287159D01*
X71551368Y-82315152D01*
X71600000Y-82325000D01*
X83800000Y-82325000D01*
X83845188Y-82316546D01*
X83886971Y-82289783D01*
X83915050Y-82248873D01*
X83925000Y-82200262D01*
X83933236Y-78264942D01*
X84183187Y-78265160D01*
X84523286Y-78124634D01*
X84783720Y-77864655D01*
X84924839Y-77524801D01*
X84925066Y-77265010D01*
X88192868Y-77265010D01*
X88489448Y-77206017D01*
X88740876Y-77038018D01*
X90940378Y-74838516D01*
X91075345Y-74973720D01*
X91415199Y-75114839D01*
X91783187Y-75115160D01*
X92123286Y-74974634D01*
X92199905Y-74898148D01*
X92275345Y-74973720D01*
X92615199Y-75114839D01*
X92628835Y-75114851D01*
X93352845Y-75838861D01*
X93306280Y-75885345D01*
X93165161Y-76225199D01*
X93164840Y-76593187D01*
X93305366Y-76933286D01*
X93315000Y-76942937D01*
X93315000Y-82267440D01*
X93373993Y-82564020D01*
X93541992Y-82815448D01*
X94648831Y-83922287D01*
X94648831Y-84831251D01*
X94692412Y-85062862D01*
X94829294Y-85275583D01*
X95038151Y-85418289D01*
X95286075Y-85468495D01*
X96195039Y-85468495D01*
X98424552Y-87698008D01*
X98675980Y-87866007D01*
X98972560Y-87925000D01*
X104416640Y-87925000D01*
X104425345Y-87933720D01*
X104765199Y-88074839D01*
X105133187Y-88075160D01*
X105473286Y-87934634D01*
X105733720Y-87674655D01*
X105874839Y-87334801D01*
X105875160Y-86966813D01*
X105734634Y-86626714D01*
X105474655Y-86366280D01*
X105134801Y-86225161D01*
X104766813Y-86224840D01*
X104426714Y-86365366D01*
X104417063Y-86375000D01*
X99293576Y-86375000D01*
X98374697Y-85456121D01*
X98781318Y-85456475D01*
X98945244Y-85566007D01*
X99241824Y-85625000D01*
X104296640Y-85625000D01*
X104305345Y-85633720D01*
X104645199Y-85774839D01*
X105013187Y-85775160D01*
X105353286Y-85634634D01*
X105613720Y-85374655D01*
X105754839Y-85034801D01*
X105755160Y-84666813D01*
X105614634Y-84326714D01*
X105354655Y-84066280D01*
X105014801Y-83925161D01*
X104646813Y-83924840D01*
X104306714Y-84065366D01*
X104297063Y-84075000D01*
X99848126Y-84075000D01*
X99848304Y-83870646D01*
X99647238Y-83384028D01*
X99275256Y-83011396D01*
X98788990Y-82809481D01*
X98296892Y-82809052D01*
X97687578Y-82199738D01*
X98157234Y-82199738D01*
X98165783Y-82245432D01*
X98192633Y-82287159D01*
X98233602Y-82315152D01*
X98282234Y-82325000D01*
X110482234Y-82325000D01*
X110527422Y-82316546D01*
X110569205Y-82289783D01*
X110597284Y-82248873D01*
X110607234Y-82200262D01*
X110616024Y-78000262D01*
X110607475Y-77954568D01*
X110580625Y-77912841D01*
X110539656Y-77884848D01*
X110491024Y-77875000D01*
X98291024Y-77875000D01*
X98245836Y-77883454D01*
X98204053Y-77910217D01*
X98175974Y-77951127D01*
X98166024Y-77999738D01*
X98157234Y-82199738D01*
X97687578Y-82199738D01*
X97529832Y-82041992D01*
X97278404Y-81873993D01*
X96981824Y-81815000D01*
X95721016Y-81815000D01*
X95575000Y-81668984D01*
X95575000Y-76190000D01*
X95516007Y-75893420D01*
X95348008Y-75641992D01*
X94724203Y-75018187D01*
X107459840Y-75018187D01*
X107600366Y-75358286D01*
X107860345Y-75618720D01*
X108200199Y-75759839D01*
X108252046Y-75759884D01*
X108388419Y-75851006D01*
X108417196Y-75856730D01*
X108684999Y-75910000D01*
X108685004Y-75909999D01*
X110626539Y-75909999D01*
X110680115Y-76039663D01*
X110940094Y-76300097D01*
X111279948Y-76441216D01*
X111293584Y-76441228D01*
X111875002Y-77022646D01*
X111875002Y-81464891D01*
X111816813Y-81464840D01*
X111476714Y-81605366D01*
X111216280Y-81865345D01*
X111075161Y-82205199D01*
X111075116Y-82257045D01*
X110983993Y-82393420D01*
X110925000Y-82690000D01*
X110925000Y-83578984D01*
X110851992Y-83651992D01*
X110683993Y-83903420D01*
X110625000Y-84200000D01*
X110625000Y-84800000D01*
X110683993Y-85096580D01*
X110851992Y-85348008D01*
X111351992Y-85848008D01*
X111603420Y-86016007D01*
X111900000Y-86075001D01*
X111900005Y-86075000D01*
X114759809Y-86075000D01*
X114783993Y-86196580D01*
X114951992Y-86448008D01*
X115174851Y-86670867D01*
X115174840Y-86683187D01*
X115315366Y-87023286D01*
X115575345Y-87283720D01*
X115915199Y-87424839D01*
X116283187Y-87425160D01*
X116623286Y-87284634D01*
X116883720Y-87024655D01*
X117024839Y-86684801D01*
X117025160Y-86316813D01*
X116884634Y-85976714D01*
X116624655Y-85716280D01*
X116465061Y-85650011D01*
X116623286Y-85584634D01*
X116883720Y-85324655D01*
X117024839Y-84984801D01*
X117025160Y-84616813D01*
X116884634Y-84276714D01*
X116624655Y-84016280D01*
X116284801Y-83875161D01*
X115916813Y-83874840D01*
X115855921Y-83900000D01*
X113425002Y-83900000D01*
X113425002Y-76701630D01*
X113366009Y-76405050D01*
X113198010Y-76153622D01*
X112609386Y-75564998D01*
X112768910Y-75564998D01*
X112832020Y-75717735D01*
X113091999Y-75978169D01*
X113431853Y-76119288D01*
X113799841Y-76119609D01*
X114139940Y-75979083D01*
X114400374Y-75719104D01*
X114541493Y-75379250D01*
X114541814Y-75011262D01*
X114401288Y-74671163D01*
X114141309Y-74410729D01*
X113801455Y-74269610D01*
X113787819Y-74269598D01*
X113760211Y-74241990D01*
X113508783Y-74073991D01*
X113212203Y-74014998D01*
X112333360Y-74014998D01*
X112324655Y-74006278D01*
X111984801Y-73865159D01*
X111616813Y-73864838D01*
X111276714Y-74005364D01*
X111267063Y-74014998D01*
X111194999Y-74014998D01*
X110898419Y-74073991D01*
X110646991Y-74241990D01*
X110528982Y-74359999D01*
X109189585Y-74359999D01*
X109169634Y-74311714D01*
X108909655Y-74051280D01*
X108569801Y-73910161D01*
X108201813Y-73909840D01*
X107861714Y-74050366D01*
X107601280Y-74310345D01*
X107460161Y-74650199D01*
X107459840Y-75018187D01*
X94724203Y-75018187D01*
X93725149Y-74019133D01*
X93725160Y-74006813D01*
X93584634Y-73666714D01*
X93324655Y-73406280D01*
X93010277Y-73275739D01*
X95319115Y-70966901D01*
X106587807Y-70966901D01*
X106728333Y-71307000D01*
X106988312Y-71567434D01*
X107328166Y-71708553D01*
X107696154Y-71708874D01*
X108036253Y-71568348D01*
X108045904Y-71558714D01*
X112828080Y-71558714D01*
X116189569Y-74920202D01*
X116141992Y-74951992D01*
X115260952Y-75833032D01*
X115104236Y-75864205D01*
X115055030Y-75873993D01*
X114803602Y-76041992D01*
X114803600Y-76041995D01*
X114579124Y-76266471D01*
X114566803Y-76266460D01*
X114226704Y-76406986D01*
X113966270Y-76666965D01*
X113825151Y-77006819D01*
X113824830Y-77374807D01*
X113965356Y-77714906D01*
X114225335Y-77975340D01*
X114565189Y-78116459D01*
X114933177Y-78116780D01*
X115273276Y-77976254D01*
X115480789Y-77769103D01*
X115543358Y-77920531D01*
X115803337Y-78180965D01*
X116143191Y-78322084D01*
X116511179Y-78322405D01*
X116851278Y-78181879D01*
X117111712Y-77921900D01*
X117252831Y-77582046D01*
X117252843Y-77568410D01*
X117747697Y-77073556D01*
X119270804Y-77073556D01*
X119279509Y-77082276D01*
X119619363Y-77223395D01*
X119987351Y-77223716D01*
X120327450Y-77083190D01*
X120337101Y-77073556D01*
X120392740Y-77073556D01*
X120400000Y-77075000D01*
X120696580Y-77016007D01*
X120948008Y-76848008D01*
X121116007Y-76596580D01*
X121175000Y-76300000D01*
X121116007Y-76003420D01*
X120948008Y-75751992D01*
X120946564Y-75750548D01*
X120695136Y-75582549D01*
X120398556Y-75523556D01*
X120337524Y-75523556D01*
X120328819Y-75514836D01*
X120255028Y-75484195D01*
X120409161Y-75420509D01*
X120669595Y-75160530D01*
X120810714Y-74820676D01*
X120811035Y-74452688D01*
X120670509Y-74112589D01*
X120410530Y-73852155D01*
X120118630Y-73730948D01*
X119998759Y-73440839D01*
X119941773Y-73383754D01*
X120029785Y-73347388D01*
X120290219Y-73087409D01*
X120431338Y-72747555D01*
X120431659Y-72379567D01*
X120291133Y-72039468D01*
X120281499Y-72029817D01*
X120281499Y-69931499D01*
X120222506Y-69634919D01*
X120054507Y-69383491D01*
X118948008Y-68276992D01*
X118696580Y-68108993D01*
X118400000Y-68050000D01*
X116575000Y-68050000D01*
X116278420Y-68108993D01*
X116026992Y-68276992D01*
X114829133Y-69474851D01*
X114816813Y-69474840D01*
X114476714Y-69615366D01*
X114236147Y-69855513D01*
X113945953Y-69565319D01*
X113694525Y-69397320D01*
X113397945Y-69338327D01*
X108483381Y-69338327D01*
X108474676Y-69329607D01*
X108134822Y-69188488D01*
X107766834Y-69188167D01*
X107426735Y-69328693D01*
X107166301Y-69588672D01*
X107025182Y-69928526D01*
X107025133Y-69984431D01*
X106989681Y-69999080D01*
X106729247Y-70259059D01*
X106588128Y-70598913D01*
X106587807Y-70966901D01*
X95319115Y-70966901D01*
X95501454Y-70784562D01*
X95815199Y-70914839D01*
X96183187Y-70915160D01*
X96523286Y-70774634D01*
X96783720Y-70514655D01*
X96924839Y-70174801D01*
X96925160Y-69806813D01*
X96784634Y-69466714D01*
X96524655Y-69206280D01*
X96184801Y-69065161D01*
X95816813Y-69064840D01*
X95476714Y-69205366D01*
X95467063Y-69215000D01*
X95200000Y-69215000D01*
X94903420Y-69273993D01*
X94651992Y-69441992D01*
X94477549Y-69616435D01*
X94436434Y-69575248D01*
X94096580Y-69434129D01*
X93728592Y-69433808D01*
X93388493Y-69574334D01*
X93128059Y-69834313D01*
X92986940Y-70174167D01*
X92986928Y-70187804D01*
X90551981Y-72622750D01*
X90383982Y-72874178D01*
X90324989Y-73170758D01*
X90324989Y-73261873D01*
X88652507Y-74934355D01*
X88524655Y-74806280D01*
X88184801Y-74665161D01*
X87816813Y-74664840D01*
X87476714Y-74805366D01*
X87467063Y-74815000D01*
X83464970Y-74815000D01*
X83465160Y-74596813D01*
X83324634Y-74256714D01*
X83283096Y-74215103D01*
X83383720Y-74114655D01*
X83524839Y-73774801D01*
X83525022Y-73565000D01*
X84400000Y-73565000D01*
X84696580Y-73506007D01*
X84948008Y-73338008D01*
X85170867Y-73115149D01*
X85183187Y-73115160D01*
X85523286Y-72974634D01*
X85783720Y-72714655D01*
X85924839Y-72374801D01*
X85925160Y-72006813D01*
X85784634Y-71666714D01*
X85524655Y-71406280D01*
X85184801Y-71265161D01*
X84816813Y-71264840D01*
X84476714Y-71405366D01*
X84216280Y-71665345D01*
X84075161Y-72005199D01*
X84075152Y-72015000D01*
X83721016Y-72015000D01*
X83239107Y-71533091D01*
X83339688Y-71491532D01*
X83600122Y-71231553D01*
X83741241Y-70891699D01*
X83741329Y-70790423D01*
X84044261Y-70487491D01*
X84098085Y-70509841D01*
X84466073Y-70510162D01*
X84806172Y-70369636D01*
X85066606Y-70109657D01*
X85207725Y-69769803D01*
X85208046Y-69401815D01*
X85067520Y-69061716D01*
X84807541Y-68801282D01*
X84720766Y-68765250D01*
X84948008Y-68538008D01*
X85116007Y-68286580D01*
X85141901Y-68156401D01*
X85183720Y-68114655D01*
X85324839Y-67774801D01*
X85325160Y-67406813D01*
X85184634Y-67066714D01*
X84924655Y-66806280D01*
X84584801Y-66665161D01*
X84216813Y-66664840D01*
X83876714Y-66805366D01*
X83616280Y-67065345D01*
X83475161Y-67405199D01*
X83474840Y-67773187D01*
X83488277Y-67805707D01*
X82788935Y-68505049D01*
X82645273Y-68361135D01*
X82305419Y-68220016D01*
X81937431Y-68219695D01*
X81842675Y-68258847D01*
X81673631Y-68089507D01*
X81333777Y-67948388D01*
X80965789Y-67948067D01*
X80935768Y-67960472D01*
X80892427Y-67917055D01*
X80552573Y-67775936D01*
X80184585Y-67775615D01*
X79844486Y-67916141D01*
X79584052Y-68176120D01*
X79442933Y-68515974D01*
X79442921Y-68529610D01*
X79401958Y-68570573D01*
X79233959Y-68822001D01*
X79174966Y-69118581D01*
X79174966Y-74647088D01*
X79233959Y-74943668D01*
X79401958Y-75195096D01*
X80821862Y-76615000D01*
X77921016Y-76615000D01*
X77808008Y-76501992D01*
X77556580Y-76333993D01*
X77260000Y-76275000D01*
X77163360Y-76275000D01*
X77154655Y-76266280D01*
X76814801Y-76125161D01*
X76446813Y-76124840D01*
X76106714Y-76265366D01*
X75846280Y-76525345D01*
X75705161Y-76865199D01*
X75704840Y-77233187D01*
X75845366Y-77573286D01*
X76105345Y-77833720D01*
X76204759Y-77875000D01*
X71608790Y-77875000D01*
X71563602Y-77883454D01*
X71521819Y-77910217D01*
X71493740Y-77951127D01*
X71483790Y-77999738D01*
X71475000Y-82199738D01*
X69704923Y-82199738D01*
X68925443Y-81876070D01*
X68080066Y-81875332D01*
X67298757Y-82198162D01*
X66700463Y-82795413D01*
X66376270Y-83576157D01*
X66375532Y-84421534D01*
X66698362Y-85202843D01*
X67295613Y-85801137D01*
X67449412Y-85865000D01*
X65525000Y-85865000D01*
X65525000Y-82590000D01*
X65516451Y-82544568D01*
X65489601Y-82502841D01*
X65448632Y-82474848D01*
X65400000Y-82465000D01*
X61035650Y-82465000D01*
X61535447Y-81966074D01*
X61859621Y-81185377D01*
X61860358Y-80340051D01*
X61537548Y-79558790D01*
X60940334Y-78960533D01*
X60159637Y-78636359D01*
X59314311Y-78635622D01*
X58533050Y-78958432D01*
X57934793Y-79555646D01*
X57610619Y-80336343D01*
X57609882Y-81181669D01*
X57932692Y-81962930D01*
X58433887Y-82465000D01*
X50700000Y-82465000D01*
X50700000Y-70873277D01*
X61026312Y-70873277D01*
X61235289Y-71379040D01*
X61621905Y-71766332D01*
X61873632Y-71870858D01*
X61623940Y-71974029D01*
X61236648Y-72360645D01*
X61026789Y-72866042D01*
X61026312Y-73413277D01*
X61235289Y-73919040D01*
X61472769Y-74156936D01*
X61236648Y-74392645D01*
X61026789Y-74898042D01*
X61026312Y-75445277D01*
X61235289Y-75951040D01*
X61621905Y-76338332D01*
X61873632Y-76442858D01*
X61623940Y-76546029D01*
X61236648Y-76932645D01*
X61026789Y-77438042D01*
X61026312Y-77985277D01*
X61235289Y-78491040D01*
X61621905Y-78878332D01*
X62127302Y-79088191D01*
X62674537Y-79088668D01*
X63180300Y-78879691D01*
X63567592Y-78493075D01*
X63777451Y-77987678D01*
X63777928Y-77440443D01*
X63568951Y-76934680D01*
X63182335Y-76547388D01*
X62930608Y-76442862D01*
X63180300Y-76339691D01*
X63567592Y-75953075D01*
X63777451Y-75447678D01*
X63777725Y-75133187D01*
X74334840Y-75133187D01*
X74475366Y-75473286D01*
X74735345Y-75733720D01*
X75075199Y-75874839D01*
X75443187Y-75875160D01*
X75783286Y-75734634D01*
X76043720Y-75474655D01*
X76147298Y-75225210D01*
X76188007Y-75198009D01*
X77732585Y-73653430D01*
X77923286Y-73574634D01*
X78183720Y-73314655D01*
X78324839Y-72974801D01*
X78325160Y-72606813D01*
X78184634Y-72266714D01*
X77924655Y-72006280D01*
X77584801Y-71865161D01*
X77216813Y-71864840D01*
X76876714Y-72005366D01*
X76616280Y-72265345D01*
X76475161Y-72605199D01*
X76475062Y-72718923D01*
X75253085Y-73940899D01*
X75127392Y-74024884D01*
X75076813Y-74024840D01*
X74736714Y-74165366D01*
X74476280Y-74425345D01*
X74335161Y-74765199D01*
X74334840Y-75133187D01*
X63777725Y-75133187D01*
X63777928Y-74900443D01*
X63568951Y-74394680D01*
X63331471Y-74156784D01*
X63567592Y-73921075D01*
X63777451Y-73415678D01*
X63777928Y-72868443D01*
X63568951Y-72362680D01*
X63182335Y-71975388D01*
X62930608Y-71870862D01*
X63180300Y-71767691D01*
X63567592Y-71381075D01*
X63777451Y-70875678D01*
X63777928Y-70328443D01*
X63568951Y-69822680D01*
X63182335Y-69435388D01*
X62676938Y-69225529D01*
X62129703Y-69225052D01*
X61623940Y-69434029D01*
X61236648Y-69820645D01*
X61026789Y-70326042D01*
X61026312Y-70873277D01*
X50700000Y-70873277D01*
X50700000Y-67465669D01*
X57609882Y-67465669D01*
X57932692Y-68246930D01*
X58529906Y-68845187D01*
X59310603Y-69169361D01*
X60155929Y-69170098D01*
X60937190Y-68847288D01*
X61535447Y-68250074D01*
X61859621Y-67469377D01*
X61860358Y-66624051D01*
X61537548Y-65842790D01*
X60940334Y-65244533D01*
X60159637Y-64920359D01*
X59314311Y-64919622D01*
X58533050Y-65242432D01*
X57934793Y-65839646D01*
X57610619Y-66620343D01*
X57609882Y-67465669D01*
X50700000Y-67465669D01*
X50700000Y-59703108D01*
X51009776Y-59703108D01*
X51198843Y-60215598D01*
X51569640Y-60616724D01*
X52050945Y-60841786D01*
X52267540Y-60721553D01*
X52267540Y-59484100D01*
X52517540Y-59484100D01*
X52517540Y-60721553D01*
X52734135Y-60841786D01*
X53215440Y-60616724D01*
X53586237Y-60215598D01*
X53775304Y-59703108D01*
X53636290Y-59484100D01*
X52517540Y-59484100D01*
X52267540Y-59484100D01*
X51148790Y-59484100D01*
X51009776Y-59703108D01*
X50700000Y-59703108D01*
X50700000Y-59015092D01*
X51009776Y-59015092D01*
X51148790Y-59234100D01*
X52267540Y-59234100D01*
X52267540Y-57996647D01*
X52517540Y-57996647D01*
X52517540Y-59234100D01*
X53636290Y-59234100D01*
X53775304Y-59015092D01*
X53650622Y-58677124D01*
X53883673Y-58677124D01*
X54012855Y-58989028D01*
X54336104Y-59354255D01*
X54774514Y-59567979D01*
X54967540Y-59446596D01*
X54967540Y-58484100D01*
X55217540Y-58484100D01*
X55217540Y-59446596D01*
X55410566Y-59567979D01*
X55848976Y-59354255D01*
X56172225Y-58989028D01*
X56301407Y-58677124D01*
X56179124Y-58484100D01*
X55217540Y-58484100D01*
X54967540Y-58484100D01*
X54005956Y-58484100D01*
X53883673Y-58677124D01*
X53650622Y-58677124D01*
X53586237Y-58502602D01*
X53215440Y-58101476D01*
X52734135Y-57876414D01*
X52517540Y-57996647D01*
X52267540Y-57996647D01*
X52050945Y-57876414D01*
X51569640Y-58101476D01*
X51198843Y-58502602D01*
X51009776Y-59015092D01*
X50700000Y-59015092D01*
X50700000Y-55553187D01*
X51624840Y-55553187D01*
X51765366Y-55893286D01*
X52025345Y-56153720D01*
X52365199Y-56294839D01*
X52733187Y-56295160D01*
X53073286Y-56154634D01*
X53333720Y-55894655D01*
X53434303Y-55652423D01*
X53702626Y-55384100D01*
X53780296Y-55384100D01*
X53780296Y-55409100D01*
X53804680Y-55538689D01*
X53780296Y-55659100D01*
X53780296Y-56059100D01*
X53804680Y-56188689D01*
X53780296Y-56309100D01*
X53780296Y-56709100D01*
X53800382Y-56815848D01*
X53792540Y-56834780D01*
X53792540Y-56902850D01*
X53822365Y-56932675D01*
X53823877Y-56940711D01*
X53960759Y-57153432D01*
X54115409Y-57259100D01*
X53948790Y-57259100D01*
X53792540Y-57415350D01*
X53792540Y-57483420D01*
X53887691Y-57713134D01*
X53980895Y-57806338D01*
X53883673Y-58041076D01*
X54005956Y-58234100D01*
X54967540Y-58234100D01*
X54967540Y-58214100D01*
X55217540Y-58214100D01*
X55217540Y-58234100D01*
X56179124Y-58234100D01*
X56301407Y-58041076D01*
X56204185Y-57806338D01*
X56297389Y-57713134D01*
X56392540Y-57483420D01*
X56392540Y-57415350D01*
X56236290Y-57259100D01*
X56067005Y-57259100D01*
X56211872Y-57165881D01*
X56354578Y-56957024D01*
X56358695Y-56936695D01*
X56392540Y-56902850D01*
X56392540Y-56834780D01*
X56383670Y-56813365D01*
X56404784Y-56709100D01*
X56404784Y-56634100D01*
X56818084Y-56634100D01*
X63921992Y-63738008D01*
X64173420Y-63906007D01*
X64470000Y-63965000D01*
X106490000Y-63965000D01*
X106786580Y-63906007D01*
X107038008Y-63738008D01*
X107448009Y-63328007D01*
X107475359Y-63287075D01*
X107723286Y-63184634D01*
X107983720Y-62924655D01*
X108124839Y-62584801D01*
X108125160Y-62216813D01*
X107984634Y-61876714D01*
X107724655Y-61616280D01*
X107384801Y-61475161D01*
X107016813Y-61474840D01*
X106676714Y-61615366D01*
X106636875Y-61655135D01*
X106445174Y-61575534D01*
X106077186Y-61575213D01*
X105737087Y-61715739D01*
X105727436Y-61725373D01*
X65021389Y-61725373D01*
X63295754Y-59999738D01*
X71875000Y-59999738D01*
X71883549Y-60045432D01*
X71910399Y-60087159D01*
X71951368Y-60115152D01*
X72000000Y-60125000D01*
X84200000Y-60125000D01*
X84245188Y-60116546D01*
X84286971Y-60089783D01*
X84315050Y-60048873D01*
X84325000Y-60000262D01*
X84332838Y-56255000D01*
X98043158Y-56255000D01*
X98035321Y-59999738D01*
X98043870Y-60045432D01*
X98070720Y-60087159D01*
X98111689Y-60115152D01*
X98160321Y-60125000D01*
X110360321Y-60125000D01*
X110405509Y-60116546D01*
X110447292Y-60089783D01*
X110475371Y-60048873D01*
X110485321Y-60000262D01*
X110490285Y-57628187D01*
X118949840Y-57628187D01*
X119090366Y-57968286D01*
X119350345Y-58228720D01*
X119690199Y-58369839D01*
X120058187Y-58370160D01*
X120398286Y-58229634D01*
X120658720Y-57969655D01*
X120759303Y-57727423D01*
X121211726Y-57275000D01*
X122298633Y-57275000D01*
X122550000Y-57324999D01*
X122884848Y-57258395D01*
X123168718Y-57068718D01*
X126562437Y-53675000D01*
X133262563Y-53675000D01*
X133406281Y-53818718D01*
X133406284Y-53818720D01*
X133590736Y-54003173D01*
X133640366Y-54123286D01*
X133900345Y-54383720D01*
X134240199Y-54524839D01*
X134608187Y-54525160D01*
X134948286Y-54384634D01*
X135208720Y-54124655D01*
X135349839Y-53784801D01*
X135350156Y-53420834D01*
X141374112Y-53420834D01*
X141696942Y-54202143D01*
X142294193Y-54800437D01*
X143074937Y-55124630D01*
X143920314Y-55125368D01*
X144701623Y-54802538D01*
X145299917Y-54205287D01*
X145624110Y-53424543D01*
X145624848Y-52579166D01*
X145302018Y-51797857D01*
X144704767Y-51199563D01*
X143924023Y-50875370D01*
X143078646Y-50874632D01*
X142297337Y-51197462D01*
X141699043Y-51794713D01*
X141374850Y-52575457D01*
X141374112Y-53420834D01*
X135350156Y-53420834D01*
X135350160Y-53416813D01*
X135209634Y-53076714D01*
X134949655Y-52816280D01*
X134828344Y-52765908D01*
X134643720Y-52581284D01*
X134643718Y-52581281D01*
X134243718Y-52181282D01*
X133959848Y-51991605D01*
X133625000Y-51925000D01*
X126200000Y-51925000D01*
X125865152Y-51991605D01*
X125581282Y-52181281D01*
X122137564Y-55625000D01*
X120870000Y-55625000D01*
X120554286Y-55687799D01*
X120286637Y-55866637D01*
X119592327Y-56560947D01*
X119351714Y-56660366D01*
X119091280Y-56920345D01*
X118950161Y-57260199D01*
X118949840Y-57628187D01*
X110490285Y-57628187D01*
X110493832Y-55933681D01*
X110665199Y-56004839D01*
X111033187Y-56005160D01*
X111373286Y-55864634D01*
X111633720Y-55604655D01*
X111774839Y-55264801D01*
X111775159Y-54898098D01*
X112100000Y-54962713D01*
X112683592Y-54846629D01*
X113178338Y-54516051D01*
X113508916Y-54021305D01*
X113625000Y-53437713D01*
X113625000Y-52562287D01*
X113508916Y-51978695D01*
X113178338Y-51483949D01*
X112683592Y-51153371D01*
X112100000Y-51037287D01*
X111516408Y-51153371D01*
X111021662Y-51483949D01*
X110830000Y-51770792D01*
X110638338Y-51483949D01*
X110143592Y-51153371D01*
X109560000Y-51037287D01*
X108976408Y-51153371D01*
X108481662Y-51483949D01*
X108290000Y-51770792D01*
X108098338Y-51483949D01*
X107603592Y-51153371D01*
X107020000Y-51037287D01*
X106436408Y-51153371D01*
X105941662Y-51483949D01*
X105750000Y-51770792D01*
X105558338Y-51483949D01*
X105063592Y-51153371D01*
X104480000Y-51037287D01*
X103896408Y-51153371D01*
X103401662Y-51483949D01*
X103210000Y-51770792D01*
X103018338Y-51483949D01*
X102523592Y-51153371D01*
X101940000Y-51037287D01*
X101356408Y-51153371D01*
X100861662Y-51483949D01*
X100670000Y-51770792D01*
X100478338Y-51483949D01*
X99983592Y-51153371D01*
X99400000Y-51037287D01*
X98816408Y-51153371D01*
X98321662Y-51483949D01*
X98130000Y-51770792D01*
X97938338Y-51483949D01*
X97443592Y-51153371D01*
X96860000Y-51037287D01*
X96276408Y-51153371D01*
X95781662Y-51483949D01*
X95590000Y-51770792D01*
X95398338Y-51483949D01*
X94903592Y-51153371D01*
X94320000Y-51037287D01*
X93736408Y-51153371D01*
X93241662Y-51483949D01*
X93050000Y-51770792D01*
X92858338Y-51483949D01*
X92363592Y-51153371D01*
X91780000Y-51037287D01*
X91196408Y-51153371D01*
X90701662Y-51483949D01*
X90510000Y-51770792D01*
X90318338Y-51483949D01*
X89823592Y-51153371D01*
X89240000Y-51037287D01*
X88656408Y-51153371D01*
X88161662Y-51483949D01*
X87970000Y-51770792D01*
X87778338Y-51483949D01*
X87283592Y-51153371D01*
X86700000Y-51037287D01*
X86116408Y-51153371D01*
X85621662Y-51483949D01*
X85424427Y-51779133D01*
X85149950Y-51433274D01*
X84628108Y-51143248D01*
X84521221Y-51118398D01*
X84285000Y-51236970D01*
X84285000Y-52875000D01*
X84305000Y-52875000D01*
X84305000Y-53125000D01*
X84285000Y-53125000D01*
X84285000Y-53145000D01*
X84035000Y-53145000D01*
X84035000Y-53125000D01*
X84015000Y-53125000D01*
X84015000Y-52875000D01*
X84035000Y-52875000D01*
X84035000Y-51236970D01*
X83798779Y-51118398D01*
X83691892Y-51143248D01*
X83170050Y-51433274D01*
X82895573Y-51779133D01*
X82698338Y-51483949D01*
X82203592Y-51153371D01*
X81620000Y-51037287D01*
X81036408Y-51153371D01*
X80541662Y-51483949D01*
X80350000Y-51770792D01*
X80158338Y-51483949D01*
X79663592Y-51153371D01*
X79080000Y-51037287D01*
X78496408Y-51153371D01*
X78001662Y-51483949D01*
X77810000Y-51770792D01*
X77618338Y-51483949D01*
X77123592Y-51153371D01*
X76540000Y-51037287D01*
X75956408Y-51153371D01*
X75461662Y-51483949D01*
X75264427Y-51779133D01*
X74989950Y-51433274D01*
X74468108Y-51143248D01*
X74361221Y-51118398D01*
X74125000Y-51236970D01*
X74125000Y-52875000D01*
X74145000Y-52875000D01*
X74145000Y-53125000D01*
X74125000Y-53125000D01*
X74125000Y-54763030D01*
X74361221Y-54881602D01*
X74468108Y-54856752D01*
X74989950Y-54566726D01*
X75264427Y-54220867D01*
X75461662Y-54516051D01*
X75956408Y-54846629D01*
X76540000Y-54962713D01*
X77123592Y-54846629D01*
X77467300Y-54616971D01*
X77335161Y-54935199D01*
X77334840Y-55303187D01*
X77475366Y-55643286D01*
X77507025Y-55675000D01*
X72008790Y-55675000D01*
X71963602Y-55683454D01*
X71921819Y-55710217D01*
X71893740Y-55751127D01*
X71883790Y-55799738D01*
X71875000Y-59999738D01*
X63295754Y-59999738D01*
X59399850Y-56103834D01*
X59420665Y-56063541D01*
X59429567Y-56051713D01*
X59435990Y-56045640D01*
X59438707Y-56039568D01*
X59473025Y-55993968D01*
X59502173Y-55933443D01*
X59516435Y-55878157D01*
X59519490Y-55872243D01*
X59520233Y-55863433D01*
X59523927Y-55849114D01*
X59529961Y-55835629D01*
X59534876Y-55828273D01*
X59536176Y-55821740D01*
X59559496Y-55769622D01*
X59574444Y-55704127D01*
X59576044Y-55647082D01*
X59577706Y-55640639D01*
X59576470Y-55631885D01*
X59576885Y-55617092D01*
X59579774Y-55602569D01*
X59582927Y-55594309D01*
X59582740Y-55587658D01*
X59593873Y-55531694D01*
X59593874Y-55464516D01*
X59582735Y-55408513D01*
X59582922Y-55401856D01*
X59579768Y-55393592D01*
X59576884Y-55379097D01*
X59576470Y-55364324D01*
X59577706Y-55355568D01*
X59576043Y-55349119D01*
X59574440Y-55292038D01*
X59559490Y-55226542D01*
X59536182Y-55174456D01*
X59534885Y-55167935D01*
X59529977Y-55160589D01*
X59523927Y-55147071D01*
X59520232Y-55132745D01*
X59519489Y-55123934D01*
X59516435Y-55118022D01*
X59502181Y-55062761D01*
X59473035Y-55002236D01*
X59438696Y-54956606D01*
X59435976Y-54950527D01*
X59429549Y-54944451D01*
X59420667Y-54932649D01*
X59413873Y-54919498D01*
X59411188Y-54911073D01*
X59406893Y-54905987D01*
X59380696Y-54855278D01*
X59338810Y-54802754D01*
X59295206Y-54765934D01*
X59291207Y-54760620D01*
X59283596Y-54756130D01*
X59272275Y-54746570D01*
X59262737Y-54735275D01*
X59258244Y-54727659D01*
X59252925Y-54723656D01*
X59216092Y-54680038D01*
X59163569Y-54638153D01*
X59112857Y-54611955D01*
X59107772Y-54607661D01*
X59099347Y-54604976D01*
X59086207Y-54598188D01*
X59074381Y-54589287D01*
X59068308Y-54582864D01*
X59062235Y-54580146D01*
X59016631Y-54545826D01*
X58956105Y-54516678D01*
X58900823Y-54502418D01*
X58894910Y-54499363D01*
X58886101Y-54498620D01*
X58871781Y-54494926D01*
X58858266Y-54488879D01*
X58850918Y-54483969D01*
X58844394Y-54482671D01*
X58792290Y-54459357D01*
X58726796Y-54444409D01*
X58669742Y-54442809D01*
X58663300Y-54441147D01*
X58654548Y-54442383D01*
X58639745Y-54441967D01*
X58625256Y-54439086D01*
X58616995Y-54435932D01*
X58610339Y-54436119D01*
X58554337Y-54424980D01*
X58487159Y-54424981D01*
X58431175Y-54436118D01*
X58424525Y-54435931D01*
X58416268Y-54439083D01*
X58401761Y-54441969D01*
X58386972Y-54442384D01*
X58378220Y-54441148D01*
X58371778Y-54442810D01*
X58314723Y-54444410D01*
X58249230Y-54459358D01*
X58197112Y-54482679D01*
X58190580Y-54483978D01*
X58183225Y-54488893D01*
X58169739Y-54494927D01*
X58155397Y-54498627D01*
X58146587Y-54499370D01*
X58140675Y-54502424D01*
X58085415Y-54516679D01*
X58024889Y-54545827D01*
X57979285Y-54580147D01*
X57973212Y-54582865D01*
X57967139Y-54589288D01*
X57955306Y-54598194D01*
X57915022Y-54619006D01*
X57518008Y-54221992D01*
X57266580Y-54053993D01*
X56970000Y-53995000D01*
X56506640Y-53995000D01*
X56302126Y-54035680D01*
X56224321Y-53914768D01*
X56207688Y-53903403D01*
X56301407Y-53677124D01*
X56179124Y-53484100D01*
X55217540Y-53484100D01*
X55217540Y-53504100D01*
X54967540Y-53504100D01*
X54967540Y-53484100D01*
X54005956Y-53484100D01*
X53883673Y-53677124D01*
X53907271Y-53734100D01*
X53360900Y-53734100D01*
X53045186Y-53796899D01*
X52777537Y-53975737D01*
X52267327Y-54485947D01*
X52026714Y-54585366D01*
X51766280Y-54845345D01*
X51625161Y-55185199D01*
X51624840Y-55553187D01*
X50700000Y-55553187D01*
X50700000Y-52703108D01*
X51009776Y-52703108D01*
X51198843Y-53215598D01*
X51569640Y-53616724D01*
X52050945Y-53841786D01*
X52267540Y-53721553D01*
X52267540Y-52484100D01*
X52517540Y-52484100D01*
X52517540Y-53721553D01*
X52734135Y-53841786D01*
X53215440Y-53616724D01*
X53396518Y-53420834D01*
X66375532Y-53420834D01*
X66698362Y-54202143D01*
X67295613Y-54800437D01*
X68076357Y-55124630D01*
X68921734Y-55125368D01*
X69703043Y-54802538D01*
X70301337Y-54205287D01*
X70625530Y-53424543D01*
X70625791Y-53125000D01*
X72475000Y-53125000D01*
X72475000Y-53525000D01*
X72638919Y-54099077D01*
X73010050Y-54566726D01*
X73531892Y-54856752D01*
X73638779Y-54881602D01*
X73875000Y-54763030D01*
X73875000Y-53125000D01*
X72475000Y-53125000D01*
X70625791Y-53125000D01*
X70626268Y-52579166D01*
X70583228Y-52475000D01*
X72475000Y-52475000D01*
X72475000Y-52875000D01*
X73875000Y-52875000D01*
X73875000Y-51236970D01*
X73638779Y-51118398D01*
X73531892Y-51143248D01*
X73010050Y-51433274D01*
X72638919Y-51900923D01*
X72475000Y-52475000D01*
X70583228Y-52475000D01*
X70303438Y-51797857D01*
X69706187Y-51199563D01*
X68925443Y-50875370D01*
X68080066Y-50874632D01*
X67298757Y-51197462D01*
X66700463Y-51794713D01*
X66376270Y-52575457D01*
X66375532Y-53420834D01*
X53396518Y-53420834D01*
X53586237Y-53215598D01*
X53650621Y-53041076D01*
X53883673Y-53041076D01*
X54005956Y-53234100D01*
X54967540Y-53234100D01*
X54967540Y-52271604D01*
X55217540Y-52271604D01*
X55217540Y-53234100D01*
X56179124Y-53234100D01*
X56301407Y-53041076D01*
X56172225Y-52729172D01*
X55848976Y-52363945D01*
X55410566Y-52150221D01*
X55217540Y-52271604D01*
X54967540Y-52271604D01*
X54774514Y-52150221D01*
X54336104Y-52363945D01*
X54012855Y-52729172D01*
X53883673Y-53041076D01*
X53650621Y-53041076D01*
X53775304Y-52703108D01*
X53636290Y-52484100D01*
X52517540Y-52484100D01*
X52267540Y-52484100D01*
X51148790Y-52484100D01*
X51009776Y-52703108D01*
X50700000Y-52703108D01*
X50700000Y-52015092D01*
X51009776Y-52015092D01*
X51148790Y-52234100D01*
X52267540Y-52234100D01*
X52267540Y-50996647D01*
X52517540Y-50996647D01*
X52517540Y-52234100D01*
X53636290Y-52234100D01*
X53775304Y-52015092D01*
X53586237Y-51502602D01*
X53215440Y-51101476D01*
X52734135Y-50876414D01*
X52517540Y-50996647D01*
X52267540Y-50996647D01*
X52050945Y-50876414D01*
X51569640Y-51101476D01*
X51198843Y-51502602D01*
X51009776Y-52015092D01*
X50700000Y-52015092D01*
X50700000Y-50700000D01*
X147608539Y-50700000D01*
X147278645Y-51029319D01*
X147278645Y-51029319D01*
G37*
X147278645Y-51029319D02*
X147076730Y-51515585D01*
X147076271Y-52042105D01*
X147277337Y-52528723D01*
X147649319Y-52901355D01*
X148068387Y-53075367D01*
X147773197Y-53197337D01*
X147400565Y-53569319D01*
X147198650Y-54055585D01*
X147198191Y-54582105D01*
X147399257Y-55068723D01*
X147771239Y-55441355D01*
X148068688Y-55564867D01*
X147651277Y-55737337D01*
X147303006Y-56085000D01*
X144940005Y-56085000D01*
X144940000Y-56084999D01*
X144702703Y-56132201D01*
X144643420Y-56143993D01*
X144447554Y-56274867D01*
X144416813Y-56274840D01*
X144076714Y-56415366D01*
X143816280Y-56675345D01*
X143675161Y-57015199D01*
X143674840Y-57383187D01*
X143815366Y-57723286D01*
X144075345Y-57983720D01*
X144415199Y-58124839D01*
X144783187Y-58125160D01*
X145123286Y-57984634D01*
X145383720Y-57724655D01*
X145420948Y-57635000D01*
X147303568Y-57635000D01*
X147649319Y-57981355D01*
X148068387Y-58155367D01*
X147773197Y-58277337D01*
X147424926Y-58625000D01*
X143821016Y-58625000D01*
X143725149Y-58529133D01*
X143725160Y-58516813D01*
X143584634Y-58176714D01*
X143324655Y-57916280D01*
X142984801Y-57775161D01*
X142616813Y-57774840D01*
X142276714Y-57915366D01*
X142016280Y-58175345D01*
X141875161Y-58515199D01*
X141874840Y-58883187D01*
X142015366Y-59223286D01*
X142275345Y-59483720D01*
X142615199Y-59624839D01*
X142628835Y-59624851D01*
X142951992Y-59948008D01*
X143203420Y-60116007D01*
X143500000Y-60175000D01*
X147425488Y-60175000D01*
X147771239Y-60521355D01*
X148052575Y-60638176D01*
X147711364Y-60779510D01*
X147649326Y-61012550D01*
X148400000Y-61763223D01*
X148414142Y-61749081D01*
X148590919Y-61925858D01*
X148576777Y-61940000D01*
X148590919Y-61954142D01*
X148414142Y-62130919D01*
X148400000Y-62116777D01*
X147649326Y-62867450D01*
X147711364Y-63100490D01*
X148080012Y-63230564D01*
X147773197Y-63357337D01*
X147400565Y-63729319D01*
X147198650Y-64215585D01*
X147198191Y-64742105D01*
X147399257Y-65228723D01*
X147771239Y-65601355D01*
X148068688Y-65724867D01*
X147651277Y-65897337D01*
X147278645Y-66269319D01*
X147076730Y-66755585D01*
X147076271Y-67282105D01*
X147277337Y-67768723D01*
X147649319Y-68141355D01*
X148068387Y-68315367D01*
X147773197Y-68437337D01*
X147400565Y-68809319D01*
X147198650Y-69295585D01*
X147198191Y-69822105D01*
X147399257Y-70308723D01*
X147771239Y-70681355D01*
X148000374Y-70776500D01*
X147577180Y-70776500D01*
X147347466Y-70871651D01*
X147171650Y-71047466D01*
X147076500Y-71277180D01*
X147076500Y-71818750D01*
X147232750Y-71975000D01*
X148275000Y-71975000D01*
X148275000Y-71955000D01*
X148525000Y-71955000D01*
X148525000Y-71975000D01*
X148545000Y-71975000D01*
X148545000Y-72225000D01*
X148525000Y-72225000D01*
X148525000Y-73267250D01*
X148681250Y-73423500D01*
X149222820Y-73423500D01*
X149300000Y-73391531D01*
X149300000Y-76208225D01*
X149150681Y-76058645D01*
X148664415Y-75856730D01*
X148137895Y-75856271D01*
X147651277Y-76057337D01*
X147278645Y-76429319D01*
X147076730Y-76915585D01*
X147076271Y-77442105D01*
X147277337Y-77928723D01*
X147649319Y-78301355D01*
X148068387Y-78475367D01*
X147773197Y-78597337D01*
X147400565Y-78969319D01*
X147198650Y-79455585D01*
X147198191Y-79982105D01*
X147399257Y-80468723D01*
X147771239Y-80841355D01*
X148068688Y-80964867D01*
X147651277Y-81137337D01*
X147289109Y-81498873D01*
X147266583Y-81465161D01*
X147143718Y-81281281D01*
X144993718Y-79131282D01*
X144709848Y-78941605D01*
X144375000Y-78875000D01*
X143025002Y-78875000D01*
X143025002Y-77910002D01*
X142958397Y-77575154D01*
X142885467Y-77466007D01*
X142768720Y-77291283D01*
X142625000Y-77147563D01*
X142625000Y-73904827D01*
X142674839Y-73784801D01*
X142675160Y-73416813D01*
X142534634Y-73076714D01*
X142274655Y-72816280D01*
X141934801Y-72675161D01*
X141566813Y-72674840D01*
X141226714Y-72815366D01*
X140966280Y-73075345D01*
X140825161Y-73415199D01*
X140824840Y-73783187D01*
X140875000Y-73904584D01*
X140875000Y-76635000D01*
X135110000Y-76635000D01*
X134830706Y-76690555D01*
X134775151Y-76701605D01*
X134491281Y-76891282D01*
X134427563Y-76955000D01*
X133531016Y-76955000D01*
X135148005Y-75338010D01*
X135148008Y-75338008D01*
X135316007Y-75086580D01*
X135375000Y-74790000D01*
X135375000Y-74709092D01*
X135418477Y-74814314D01*
X135678456Y-75074748D01*
X136018310Y-75215867D01*
X136386298Y-75216188D01*
X136726397Y-75075662D01*
X136986831Y-74815683D01*
X137127950Y-74475829D01*
X137127993Y-74426351D01*
X137223880Y-74282846D01*
X137233668Y-74233640D01*
X137282874Y-73986266D01*
X137282873Y-73986261D01*
X137282873Y-72381250D01*
X147076500Y-72381250D01*
X147076500Y-72922820D01*
X147171650Y-73152534D01*
X147347466Y-73328349D01*
X147577180Y-73423500D01*
X148118750Y-73423500D01*
X148275000Y-73267250D01*
X148275000Y-72225000D01*
X147232750Y-72225000D01*
X147076500Y-72381250D01*
X137282873Y-72381250D01*
X137282873Y-69724985D01*
X137483187Y-69725160D01*
X137823286Y-69584634D01*
X138083720Y-69324655D01*
X138224839Y-68984801D01*
X138224863Y-68957823D01*
X138366018Y-68746569D01*
X138425011Y-68449989D01*
X138425011Y-67950259D01*
X141896947Y-71422195D01*
X141990366Y-71648286D01*
X142250345Y-71908720D01*
X142590199Y-72049839D01*
X142958187Y-72050160D01*
X143298286Y-71909634D01*
X143558720Y-71649655D01*
X143699839Y-71309801D01*
X143700160Y-70941813D01*
X143559634Y-70601714D01*
X143299655Y-70341280D01*
X142959801Y-70200161D01*
X142866864Y-70200080D01*
X138216724Y-65549940D01*
X138216735Y-65537620D01*
X138076209Y-65197521D01*
X138048172Y-65169435D01*
X138124839Y-64984801D01*
X138125160Y-64616813D01*
X137984634Y-64276714D01*
X137724655Y-64016280D01*
X137603345Y-63965908D01*
X135385320Y-61747883D01*
X147064318Y-61747883D01*
X147092470Y-62273651D01*
X147239510Y-62628636D01*
X147472550Y-62690674D01*
X148223223Y-61940000D01*
X147472550Y-61189326D01*
X147239510Y-61251364D01*
X147064318Y-61747883D01*
X135385320Y-61747883D01*
X135125098Y-61487662D01*
X135125160Y-61416813D01*
X134984634Y-61076714D01*
X134724655Y-60816280D01*
X134384801Y-60675161D01*
X134016813Y-60674840D01*
X133676714Y-60815366D01*
X133416280Y-61075345D01*
X133275161Y-61415199D01*
X133275063Y-61527533D01*
X131872530Y-60125000D01*
X137791210Y-60125000D01*
X137836398Y-60116546D01*
X137878181Y-60089783D01*
X137906260Y-60048873D01*
X137916210Y-60000262D01*
X137925000Y-55800262D01*
X137916451Y-55754568D01*
X137889601Y-55712841D01*
X137848632Y-55684848D01*
X137800000Y-55675000D01*
X125600000Y-55675000D01*
X125554812Y-55683454D01*
X125513029Y-55710217D01*
X125484950Y-55751127D01*
X125475000Y-55799738D01*
X125467100Y-59574697D01*
X121945831Y-59574697D01*
X121937126Y-59565977D01*
X121597272Y-59424858D01*
X121245719Y-59424551D01*
X121184634Y-59276714D01*
X120924655Y-59016280D01*
X120584801Y-58875161D01*
X120216813Y-58874840D01*
X119876714Y-59015366D01*
X119616280Y-59275345D01*
X119475161Y-59615199D01*
X119474840Y-59983187D01*
X119615366Y-60323286D01*
X119825000Y-60533287D01*
X119825000Y-62666640D01*
X119816280Y-62675345D01*
X119675161Y-63015199D01*
X119674840Y-63383187D01*
X119815366Y-63723286D01*
X120075345Y-63983720D01*
X120213074Y-64040910D01*
X119521358Y-64732626D01*
X119334801Y-64655161D01*
X118966813Y-64654840D01*
X118626714Y-64795366D01*
X118366280Y-65055345D01*
X118225161Y-65395199D01*
X118224969Y-65615000D01*
X117125153Y-65615000D01*
X117125160Y-65606813D01*
X116984634Y-65266714D01*
X116724655Y-65006280D01*
X116384801Y-64865161D01*
X116016813Y-64864840D01*
X115676714Y-65005366D01*
X115416280Y-65265345D01*
X115275161Y-65605199D01*
X115274840Y-65973187D01*
X115415366Y-66313286D01*
X115675345Y-66573720D01*
X116015199Y-66714839D01*
X116028835Y-66714851D01*
X116251992Y-66938008D01*
X116503420Y-67106007D01*
X116800000Y-67165000D01*
X122200000Y-67165000D01*
X122496580Y-67106007D01*
X122748008Y-66938008D01*
X123321016Y-66365000D01*
X125800000Y-66365000D01*
X126096580Y-66306007D01*
X126348008Y-66138008D01*
X127121015Y-65365000D01*
X128600000Y-65365000D01*
X128896580Y-65306007D01*
X129107612Y-65165000D01*
X129678984Y-65165000D01*
X131651992Y-67138008D01*
X131903420Y-67306007D01*
X132200000Y-67365000D01*
X132878984Y-67365000D01*
X134225000Y-68711015D01*
X134225000Y-71256640D01*
X134216280Y-71265345D01*
X134075161Y-71605199D01*
X134074840Y-71973187D01*
X134124278Y-72092835D01*
X134076714Y-72112488D01*
X133816280Y-72372467D01*
X133675161Y-72712321D01*
X133674840Y-73080309D01*
X133815366Y-73420408D01*
X133825000Y-73430059D01*
X133825000Y-74468985D01*
X131078984Y-77215000D01*
X125400000Y-77215000D01*
X125103420Y-77273993D01*
X124851992Y-77441992D01*
X124851990Y-77441995D01*
X124451992Y-77841992D01*
X124283993Y-78093420D01*
X124225000Y-78390000D01*
X124225000Y-79145553D01*
X124166803Y-79145502D01*
X123826704Y-79286028D01*
X123566270Y-79546007D01*
X123425151Y-79885861D01*
X123424830Y-80253849D01*
X123565356Y-80593948D01*
X123574990Y-80603599D01*
X123574990Y-82235504D01*
X122832762Y-82977732D01*
X122820441Y-82977721D01*
X122480342Y-83118247D01*
X122414962Y-83183513D01*
X122415160Y-82956813D01*
X122274634Y-82616714D01*
X122014655Y-82356280D01*
X121674801Y-82215161D01*
X121306813Y-82214840D01*
X120966714Y-82355366D01*
X120706280Y-82615345D01*
X120565161Y-82955199D01*
X120564840Y-83323187D01*
X120705366Y-83663286D01*
X120741995Y-83699979D01*
X120773993Y-83860844D01*
X120941992Y-84112272D01*
X122267737Y-85438016D01*
X122267739Y-85438019D01*
X122482146Y-85581281D01*
X122519167Y-85606018D01*
X122815747Y-85665011D01*
X123524927Y-85665011D01*
X123524819Y-85788975D01*
X123665345Y-86129074D01*
X123925324Y-86389508D01*
X124265178Y-86530627D01*
X124324989Y-86530679D01*
X124324989Y-87051993D01*
X124383982Y-87348573D01*
X124551981Y-87600001D01*
X124939988Y-87988007D01*
X124939990Y-87988010D01*
X125191418Y-88156009D01*
X125240624Y-88165797D01*
X125487998Y-88215003D01*
X125488003Y-88215002D01*
X126112002Y-88215002D01*
X126408582Y-88156009D01*
X126660010Y-87988010D01*
X126998010Y-87650010D01*
X127166009Y-87398582D01*
X127225002Y-87102002D01*
X127225002Y-84096014D01*
X127421016Y-83900000D01*
X134428984Y-83900000D01*
X134664190Y-84135206D01*
X134451992Y-84276992D01*
X134451990Y-84276995D01*
X134428985Y-84300000D01*
X130133360Y-84300000D01*
X130124655Y-84291280D01*
X129784801Y-84150161D01*
X129416813Y-84149840D01*
X129076714Y-84290366D01*
X128816280Y-84550345D01*
X128675161Y-84890199D01*
X128674840Y-85258187D01*
X128815366Y-85598286D01*
X129075345Y-85858720D01*
X129415199Y-85999839D01*
X129783187Y-86000160D01*
X130123286Y-85859634D01*
X130132937Y-85850000D01*
X134750000Y-85850000D01*
X135046580Y-85791007D01*
X135298008Y-85623008D01*
X135321016Y-85600000D01*
X139040000Y-85600000D01*
X139336580Y-85541007D01*
X139588008Y-85373008D01*
X140539482Y-84421534D01*
X141374112Y-84421534D01*
X141696942Y-85202843D01*
X142294193Y-85801137D01*
X143074937Y-86125330D01*
X143920314Y-86126068D01*
X144701623Y-85803238D01*
X145299917Y-85205987D01*
X145624110Y-84425243D01*
X145624848Y-83579866D01*
X145302018Y-82798557D01*
X144704767Y-82200263D01*
X143924023Y-81876070D01*
X143078646Y-81875332D01*
X142297337Y-82198162D01*
X141699043Y-82795413D01*
X141374850Y-83576157D01*
X141374112Y-84421534D01*
X140539482Y-84421534D01*
X141248007Y-83713009D01*
X141416006Y-83461581D01*
X141474999Y-83165001D01*
X141474999Y-81975004D01*
X141475000Y-81974999D01*
X141424164Y-81719432D01*
X141416006Y-81678419D01*
X141325116Y-81542392D01*
X141325160Y-81491813D01*
X141184634Y-81151714D01*
X140924655Y-80891280D01*
X140584801Y-80750161D01*
X140216813Y-80749840D01*
X139876714Y-80890366D01*
X139616280Y-81150345D01*
X139475161Y-81490199D01*
X139475056Y-81610062D01*
X139401714Y-81640366D01*
X139141280Y-81900345D01*
X139000161Y-82240199D01*
X138999840Y-82608187D01*
X139020587Y-82658397D01*
X138178984Y-83500000D01*
X136221015Y-83500000D01*
X135428601Y-82707585D01*
X137798363Y-82707585D01*
X137843551Y-82699131D01*
X137885334Y-82672368D01*
X137913413Y-82631458D01*
X137923363Y-82582847D01*
X137932148Y-78385000D01*
X141275002Y-78385000D01*
X141275002Y-79020414D01*
X141226714Y-79040366D01*
X140966280Y-79300345D01*
X140825161Y-79640199D01*
X140824840Y-80008187D01*
X140965366Y-80348286D01*
X141225345Y-80608720D01*
X141565199Y-80749839D01*
X141933187Y-80750160D01*
X142236097Y-80625000D01*
X144012564Y-80625000D01*
X145650000Y-82262437D01*
X145650000Y-85837563D01*
X145131282Y-86356282D01*
X144941605Y-86640152D01*
X144875000Y-86975000D01*
X144875000Y-91925000D01*
X143726519Y-91925000D01*
X143430681Y-91628645D01*
X142944415Y-91426730D01*
X142417895Y-91426271D01*
X141931277Y-91627337D01*
X141558645Y-91999319D01*
X141475744Y-92198967D01*
X141475744Y-92051500D01*
X141432163Y-91819889D01*
X141295281Y-91607168D01*
X141086424Y-91464462D01*
X140838500Y-91414256D01*
X139441500Y-91414256D01*
X139209889Y-91457837D01*
X138997168Y-91594719D01*
X138854462Y-91803576D01*
X138804256Y-92051500D01*
X138804256Y-93448500D01*
X138847837Y-93680111D01*
X138984719Y-93892832D01*
X139193576Y-94035538D01*
X139441500Y-94085744D01*
X139588748Y-94085744D01*
X139391277Y-94167337D01*
X139018645Y-94539319D01*
X138816730Y-95025585D01*
X138816271Y-95552105D01*
X139017337Y-96038723D01*
X139389319Y-96411355D01*
X139747578Y-96560117D01*
X139391277Y-96707337D01*
X139018645Y-97079319D01*
X138816730Y-97565585D01*
X138816271Y-98092105D01*
X139017337Y-98578723D01*
X139389319Y-98951355D01*
X139875585Y-99153270D01*
X140402105Y-99153729D01*
X140888723Y-98952663D01*
X141084277Y-98757450D01*
X141929326Y-98757450D01*
X141991364Y-98990490D01*
X142487883Y-99165682D01*
X143013651Y-99137530D01*
X143368636Y-98990490D01*
X143430674Y-98757450D01*
X142680000Y-98006777D01*
X141929326Y-98757450D01*
X141084277Y-98757450D01*
X141261355Y-98580681D01*
X141403457Y-98238460D01*
X141519510Y-98518636D01*
X141752550Y-98580674D01*
X142503223Y-97830000D01*
X142856777Y-97830000D01*
X143607450Y-98580674D01*
X143840490Y-98518636D01*
X144015682Y-98022117D01*
X143987530Y-97496349D01*
X143840490Y-97141364D01*
X143607450Y-97079326D01*
X142856777Y-97830000D01*
X142503223Y-97830000D01*
X141752550Y-97079326D01*
X141519510Y-97141364D01*
X141412640Y-97444249D01*
X141262663Y-97081277D01*
X140890681Y-96708645D01*
X140532422Y-96559883D01*
X140888723Y-96412663D01*
X141261355Y-96040681D01*
X141410117Y-95682422D01*
X141557337Y-96038723D01*
X141929319Y-96411355D01*
X142271540Y-96553457D01*
X141991364Y-96669510D01*
X141929326Y-96902550D01*
X142680000Y-97653223D01*
X143430674Y-96902550D01*
X143368636Y-96669510D01*
X143065751Y-96562640D01*
X143428723Y-96412663D01*
X143801355Y-96040681D01*
X144003270Y-95554415D01*
X144003729Y-95027895D01*
X143802663Y-94541277D01*
X143430681Y-94168645D01*
X143072422Y-94019883D01*
X143428723Y-93872663D01*
X143726906Y-93575000D01*
X144875000Y-93575000D01*
X144875000Y-96142254D01*
X144886524Y-96200189D01*
X144852746Y-96370000D01*
X144938382Y-96800518D01*
X145182251Y-97165495D01*
X145967721Y-97950965D01*
X146332697Y-98194834D01*
X146763216Y-98280470D01*
X147079680Y-98280470D01*
X147107837Y-98430111D01*
X147244719Y-98642832D01*
X147453576Y-98785538D01*
X147701500Y-98835744D01*
X149098500Y-98835744D01*
X149300000Y-98797829D01*
X149300000Y-99300000D01*
X136213883Y-99300000D01*
X136259849Y-99254034D01*
X136355000Y-99024320D01*
X136355000Y-98681250D01*
X136198750Y-98525000D01*
X134255000Y-98525000D01*
X134255000Y-98545000D01*
X134005000Y-98545000D01*
X134005000Y-98525000D01*
X132061250Y-98525000D01*
X131905000Y-98681250D01*
X131905000Y-99024320D01*
X132000151Y-99254034D01*
X132046117Y-99300000D01*
X129413883Y-99300000D01*
X129459849Y-99254034D01*
X129555000Y-99024320D01*
X129555000Y-98681250D01*
X129398750Y-98525000D01*
X127455000Y-98525000D01*
X127455000Y-98545000D01*
X127205000Y-98545000D01*
X127205000Y-98525000D01*
X125261250Y-98525000D01*
X125105000Y-98681250D01*
X125105000Y-99024320D01*
X125200151Y-99254034D01*
X125246117Y-99300000D01*
X124925000Y-99300000D01*
X124925000Y-97775680D01*
X125105000Y-97775680D01*
X125105000Y-98118750D01*
X125261250Y-98275000D01*
X127205000Y-98275000D01*
X127205000Y-97431250D01*
X127455000Y-97431250D01*
X127455000Y-98275000D01*
X129398750Y-98275000D01*
X129555000Y-98118750D01*
X129555000Y-97775680D01*
X131905000Y-97775680D01*
X131905000Y-98118750D01*
X132061250Y-98275000D01*
X134005000Y-98275000D01*
X134005000Y-97431250D01*
X134255000Y-97431250D01*
X134255000Y-98275000D01*
X136198750Y-98275000D01*
X136355000Y-98118750D01*
X136355000Y-97775680D01*
X136259849Y-97545966D01*
X136084034Y-97370150D01*
X135854320Y-97275000D01*
X134411250Y-97275000D01*
X134255000Y-97431250D01*
X134005000Y-97431250D01*
X133848750Y-97275000D01*
X132405680Y-97275000D01*
X132175966Y-97370150D01*
X132000151Y-97545966D01*
X131905000Y-97775680D01*
X129555000Y-97775680D01*
X129459849Y-97545966D01*
X129284034Y-97370150D01*
X129054320Y-97275000D01*
X127611250Y-97275000D01*
X127455000Y-97431250D01*
X127205000Y-97431250D01*
X127048750Y-97275000D01*
X125605680Y-97275000D01*
X125375966Y-97370150D01*
X125200151Y-97545966D01*
X125105000Y-97775680D01*
X124925000Y-97775680D01*
X124925000Y-93900000D01*
X125092756Y-93900000D01*
X125092756Y-94900000D01*
X125136337Y-95131611D01*
X125273219Y-95344332D01*
X125482076Y-95487038D01*
X125730000Y-95537244D01*
X128930000Y-95537244D01*
X129161611Y-95493663D01*
X129374332Y-95356781D01*
X129498538Y-95175000D01*
X131964257Y-95175000D01*
X132073219Y-95344332D01*
X132282076Y-95487038D01*
X132530000Y-95537244D01*
X135730000Y-95537244D01*
X135961611Y-95493663D01*
X136174332Y-95356781D01*
X136317038Y-95147924D01*
X136367244Y-94900000D01*
X136367244Y-93900000D01*
X136323663Y-93668389D01*
X136186781Y-93455668D01*
X135977924Y-93312962D01*
X135730000Y-93262756D01*
X132530000Y-93262756D01*
X132298389Y-93306337D01*
X132085668Y-93443219D01*
X131961462Y-93625000D01*
X129495743Y-93625000D01*
X129386781Y-93455668D01*
X129177924Y-93312962D01*
X128930000Y-93262756D01*
X128018836Y-93262756D01*
X127878008Y-93051992D01*
X127878005Y-93051990D01*
X127335000Y-92508984D01*
X127335000Y-90983407D01*
X127454839Y-90694801D01*
X127455160Y-90326813D01*
X127314634Y-89986714D01*
X127054655Y-89726280D01*
X126714801Y-89585161D01*
X126346813Y-89584840D01*
X126006714Y-89725366D01*
X125746280Y-89985345D01*
X125605161Y-90325199D01*
X125604840Y-90693187D01*
X125745366Y-91033286D01*
X125785000Y-91072989D01*
X125785000Y-92830000D01*
X125843993Y-93126580D01*
X125934983Y-93262756D01*
X125730000Y-93262756D01*
X125498389Y-93306337D01*
X125285668Y-93443219D01*
X125142962Y-93652076D01*
X125092756Y-93900000D01*
X124925000Y-93900000D01*
X124925000Y-90590000D01*
X124916451Y-90544568D01*
X124889601Y-90502841D01*
X124848632Y-90474848D01*
X124800000Y-90465000D01*
X121561016Y-90465000D01*
X121548019Y-90452003D01*
X121296591Y-90284004D01*
X121000011Y-90225011D01*
X117299989Y-90225011D01*
X117003409Y-90284004D01*
X116751981Y-90452003D01*
X116738984Y-90465000D01*
X112600000Y-90465000D01*
X112554568Y-90473549D01*
X112512841Y-90500399D01*
X112484848Y-90541368D01*
X112475000Y-90590000D01*
X112475000Y-91865000D01*
X96925000Y-91865000D01*
X96925000Y-89183187D01*
X117274840Y-89183187D01*
X117415366Y-89523286D01*
X117675345Y-89783720D01*
X118015199Y-89924839D01*
X118383187Y-89925160D01*
X118723286Y-89784634D01*
X118983720Y-89524655D01*
X119124839Y-89184801D01*
X119124851Y-89171164D01*
X119148005Y-89148010D01*
X119148008Y-89148008D01*
X119316007Y-88896580D01*
X119375000Y-88600000D01*
X119375000Y-84933360D01*
X119383720Y-84924655D01*
X119524839Y-84584801D01*
X119525160Y-84216813D01*
X119384634Y-83876714D01*
X119124655Y-83616280D01*
X118784801Y-83475161D01*
X118416813Y-83474840D01*
X118076714Y-83615366D01*
X117816280Y-83875345D01*
X117675161Y-84215199D01*
X117674840Y-84583187D01*
X117815366Y-84923286D01*
X117825000Y-84932937D01*
X117825000Y-88154095D01*
X117676714Y-88215366D01*
X117416280Y-88475345D01*
X117275161Y-88815199D01*
X117274840Y-89183187D01*
X96925000Y-89183187D01*
X96925000Y-88390000D01*
X96916451Y-88344568D01*
X96889601Y-88302841D01*
X96848632Y-88274848D01*
X96800000Y-88265000D01*
X90944691Y-88265000D01*
X90834848Y-88191605D01*
X90500000Y-88125000D01*
X88475000Y-88125000D01*
X88140152Y-88191605D01*
X88030309Y-88265000D01*
X84925000Y-88265000D01*
X84925000Y-85990000D01*
X84916451Y-85944568D01*
X84889601Y-85902841D01*
X84848632Y-85874848D01*
X84800000Y-85865000D01*
X69553567Y-85865000D01*
X69703043Y-85803238D01*
X70301337Y-85205987D01*
X70625530Y-84425243D01*
X70626268Y-83579866D01*
X70303438Y-82798557D01*
X69706187Y-82200263D01*
X69704923Y-82199738D01*
X71475000Y-82199738D01*
X71483549Y-82245432D01*
X71510399Y-82287159D01*
X71551368Y-82315152D01*
X71600000Y-82325000D01*
X83800000Y-82325000D01*
X83845188Y-82316546D01*
X83886971Y-82289783D01*
X83915050Y-82248873D01*
X83925000Y-82200262D01*
X83933236Y-78264942D01*
X84183187Y-78265160D01*
X84523286Y-78124634D01*
X84783720Y-77864655D01*
X84924839Y-77524801D01*
X84925066Y-77265010D01*
X88192868Y-77265010D01*
X88489448Y-77206017D01*
X88740876Y-77038018D01*
X90940378Y-74838516D01*
X91075345Y-74973720D01*
X91415199Y-75114839D01*
X91783187Y-75115160D01*
X92123286Y-74974634D01*
X92199905Y-74898148D01*
X92275345Y-74973720D01*
X92615199Y-75114839D01*
X92628835Y-75114851D01*
X93352845Y-75838861D01*
X93306280Y-75885345D01*
X93165161Y-76225199D01*
X93164840Y-76593187D01*
X93305366Y-76933286D01*
X93315000Y-76942937D01*
X93315000Y-82267440D01*
X93373993Y-82564020D01*
X93541992Y-82815448D01*
X94648831Y-83922287D01*
X94648831Y-84831251D01*
X94692412Y-85062862D01*
X94829294Y-85275583D01*
X95038151Y-85418289D01*
X95286075Y-85468495D01*
X96195039Y-85468495D01*
X98424552Y-87698008D01*
X98675980Y-87866007D01*
X98972560Y-87925000D01*
X104416640Y-87925000D01*
X104425345Y-87933720D01*
X104765199Y-88074839D01*
X105133187Y-88075160D01*
X105473286Y-87934634D01*
X105733720Y-87674655D01*
X105874839Y-87334801D01*
X105875160Y-86966813D01*
X105734634Y-86626714D01*
X105474655Y-86366280D01*
X105134801Y-86225161D01*
X104766813Y-86224840D01*
X104426714Y-86365366D01*
X104417063Y-86375000D01*
X99293576Y-86375000D01*
X98374697Y-85456121D01*
X98781318Y-85456475D01*
X98945244Y-85566007D01*
X99241824Y-85625000D01*
X104296640Y-85625000D01*
X104305345Y-85633720D01*
X104645199Y-85774839D01*
X105013187Y-85775160D01*
X105353286Y-85634634D01*
X105613720Y-85374655D01*
X105754839Y-85034801D01*
X105755160Y-84666813D01*
X105614634Y-84326714D01*
X105354655Y-84066280D01*
X105014801Y-83925161D01*
X104646813Y-83924840D01*
X104306714Y-84065366D01*
X104297063Y-84075000D01*
X99848126Y-84075000D01*
X99848304Y-83870646D01*
X99647238Y-83384028D01*
X99275256Y-83011396D01*
X98788990Y-82809481D01*
X98296892Y-82809052D01*
X97687578Y-82199738D01*
X98157234Y-82199738D01*
X98165783Y-82245432D01*
X98192633Y-82287159D01*
X98233602Y-82315152D01*
X98282234Y-82325000D01*
X110482234Y-82325000D01*
X110527422Y-82316546D01*
X110569205Y-82289783D01*
X110597284Y-82248873D01*
X110607234Y-82200262D01*
X110616024Y-78000262D01*
X110607475Y-77954568D01*
X110580625Y-77912841D01*
X110539656Y-77884848D01*
X110491024Y-77875000D01*
X98291024Y-77875000D01*
X98245836Y-77883454D01*
X98204053Y-77910217D01*
X98175974Y-77951127D01*
X98166024Y-77999738D01*
X98157234Y-82199738D01*
X97687578Y-82199738D01*
X97529832Y-82041992D01*
X97278404Y-81873993D01*
X96981824Y-81815000D01*
X95721016Y-81815000D01*
X95575000Y-81668984D01*
X95575000Y-76190000D01*
X95516007Y-75893420D01*
X95348008Y-75641992D01*
X94724203Y-75018187D01*
X107459840Y-75018187D01*
X107600366Y-75358286D01*
X107860345Y-75618720D01*
X108200199Y-75759839D01*
X108252046Y-75759884D01*
X108388419Y-75851006D01*
X108417196Y-75856730D01*
X108684999Y-75910000D01*
X108685004Y-75909999D01*
X110626539Y-75909999D01*
X110680115Y-76039663D01*
X110940094Y-76300097D01*
X111279948Y-76441216D01*
X111293584Y-76441228D01*
X111875002Y-77022646D01*
X111875002Y-81464891D01*
X111816813Y-81464840D01*
X111476714Y-81605366D01*
X111216280Y-81865345D01*
X111075161Y-82205199D01*
X111075116Y-82257045D01*
X110983993Y-82393420D01*
X110925000Y-82690000D01*
X110925000Y-83578984D01*
X110851992Y-83651992D01*
X110683993Y-83903420D01*
X110625000Y-84200000D01*
X110625000Y-84800000D01*
X110683993Y-85096580D01*
X110851992Y-85348008D01*
X111351992Y-85848008D01*
X111603420Y-86016007D01*
X111900000Y-86075001D01*
X111900005Y-86075000D01*
X114759809Y-86075000D01*
X114783993Y-86196580D01*
X114951992Y-86448008D01*
X115174851Y-86670867D01*
X115174840Y-86683187D01*
X115315366Y-87023286D01*
X115575345Y-87283720D01*
X115915199Y-87424839D01*
X116283187Y-87425160D01*
X116623286Y-87284634D01*
X116883720Y-87024655D01*
X117024839Y-86684801D01*
X117025160Y-86316813D01*
X116884634Y-85976714D01*
X116624655Y-85716280D01*
X116465061Y-85650011D01*
X116623286Y-85584634D01*
X116883720Y-85324655D01*
X117024839Y-84984801D01*
X117025160Y-84616813D01*
X116884634Y-84276714D01*
X116624655Y-84016280D01*
X116284801Y-83875161D01*
X115916813Y-83874840D01*
X115855921Y-83900000D01*
X113425002Y-83900000D01*
X113425002Y-76701630D01*
X113366009Y-76405050D01*
X113198010Y-76153622D01*
X112609386Y-75564998D01*
X112768910Y-75564998D01*
X112832020Y-75717735D01*
X113091999Y-75978169D01*
X113431853Y-76119288D01*
X113799841Y-76119609D01*
X114139940Y-75979083D01*
X114400374Y-75719104D01*
X114541493Y-75379250D01*
X114541814Y-75011262D01*
X114401288Y-74671163D01*
X114141309Y-74410729D01*
X113801455Y-74269610D01*
X113787819Y-74269598D01*
X113760211Y-74241990D01*
X113508783Y-74073991D01*
X113212203Y-74014998D01*
X112333360Y-74014998D01*
X112324655Y-74006278D01*
X111984801Y-73865159D01*
X111616813Y-73864838D01*
X111276714Y-74005364D01*
X111267063Y-74014998D01*
X111194999Y-74014998D01*
X110898419Y-74073991D01*
X110646991Y-74241990D01*
X110528982Y-74359999D01*
X109189585Y-74359999D01*
X109169634Y-74311714D01*
X108909655Y-74051280D01*
X108569801Y-73910161D01*
X108201813Y-73909840D01*
X107861714Y-74050366D01*
X107601280Y-74310345D01*
X107460161Y-74650199D01*
X107459840Y-75018187D01*
X94724203Y-75018187D01*
X93725149Y-74019133D01*
X93725160Y-74006813D01*
X93584634Y-73666714D01*
X93324655Y-73406280D01*
X93010277Y-73275739D01*
X95319115Y-70966901D01*
X106587807Y-70966901D01*
X106728333Y-71307000D01*
X106988312Y-71567434D01*
X107328166Y-71708553D01*
X107696154Y-71708874D01*
X108036253Y-71568348D01*
X108045904Y-71558714D01*
X112828080Y-71558714D01*
X116189569Y-74920202D01*
X116141992Y-74951992D01*
X115260952Y-75833032D01*
X115104236Y-75864205D01*
X115055030Y-75873993D01*
X114803602Y-76041992D01*
X114803600Y-76041995D01*
X114579124Y-76266471D01*
X114566803Y-76266460D01*
X114226704Y-76406986D01*
X113966270Y-76666965D01*
X113825151Y-77006819D01*
X113824830Y-77374807D01*
X113965356Y-77714906D01*
X114225335Y-77975340D01*
X114565189Y-78116459D01*
X114933177Y-78116780D01*
X115273276Y-77976254D01*
X115480789Y-77769103D01*
X115543358Y-77920531D01*
X115803337Y-78180965D01*
X116143191Y-78322084D01*
X116511179Y-78322405D01*
X116851278Y-78181879D01*
X117111712Y-77921900D01*
X117252831Y-77582046D01*
X117252843Y-77568410D01*
X117747697Y-77073556D01*
X119270804Y-77073556D01*
X119279509Y-77082276D01*
X119619363Y-77223395D01*
X119987351Y-77223716D01*
X120327450Y-77083190D01*
X120337101Y-77073556D01*
X120392740Y-77073556D01*
X120400000Y-77075000D01*
X120696580Y-77016007D01*
X120948008Y-76848008D01*
X121116007Y-76596580D01*
X121175000Y-76300000D01*
X121116007Y-76003420D01*
X120948008Y-75751992D01*
X120946564Y-75750548D01*
X120695136Y-75582549D01*
X120398556Y-75523556D01*
X120337524Y-75523556D01*
X120328819Y-75514836D01*
X120255028Y-75484195D01*
X120409161Y-75420509D01*
X120669595Y-75160530D01*
X120810714Y-74820676D01*
X120811035Y-74452688D01*
X120670509Y-74112589D01*
X120410530Y-73852155D01*
X120118630Y-73730948D01*
X119998759Y-73440839D01*
X119941773Y-73383754D01*
X120029785Y-73347388D01*
X120290219Y-73087409D01*
X120431338Y-72747555D01*
X120431659Y-72379567D01*
X120291133Y-72039468D01*
X120281499Y-72029817D01*
X120281499Y-69931499D01*
X120222506Y-69634919D01*
X120054507Y-69383491D01*
X118948008Y-68276992D01*
X118696580Y-68108993D01*
X118400000Y-68050000D01*
X116575000Y-68050000D01*
X116278420Y-68108993D01*
X116026992Y-68276992D01*
X114829133Y-69474851D01*
X114816813Y-69474840D01*
X114476714Y-69615366D01*
X114236147Y-69855513D01*
X113945953Y-69565319D01*
X113694525Y-69397320D01*
X113397945Y-69338327D01*
X108483381Y-69338327D01*
X108474676Y-69329607D01*
X108134822Y-69188488D01*
X107766834Y-69188167D01*
X107426735Y-69328693D01*
X107166301Y-69588672D01*
X107025182Y-69928526D01*
X107025133Y-69984431D01*
X106989681Y-69999080D01*
X106729247Y-70259059D01*
X106588128Y-70598913D01*
X106587807Y-70966901D01*
X95319115Y-70966901D01*
X95501454Y-70784562D01*
X95815199Y-70914839D01*
X96183187Y-70915160D01*
X96523286Y-70774634D01*
X96783720Y-70514655D01*
X96924839Y-70174801D01*
X96925160Y-69806813D01*
X96784634Y-69466714D01*
X96524655Y-69206280D01*
X96184801Y-69065161D01*
X95816813Y-69064840D01*
X95476714Y-69205366D01*
X95467063Y-69215000D01*
X95200000Y-69215000D01*
X94903420Y-69273993D01*
X94651992Y-69441992D01*
X94477549Y-69616435D01*
X94436434Y-69575248D01*
X94096580Y-69434129D01*
X93728592Y-69433808D01*
X93388493Y-69574334D01*
X93128059Y-69834313D01*
X92986940Y-70174167D01*
X92986928Y-70187804D01*
X90551981Y-72622750D01*
X90383982Y-72874178D01*
X90324989Y-73170758D01*
X90324989Y-73261873D01*
X88652507Y-74934355D01*
X88524655Y-74806280D01*
X88184801Y-74665161D01*
X87816813Y-74664840D01*
X87476714Y-74805366D01*
X87467063Y-74815000D01*
X83464970Y-74815000D01*
X83465160Y-74596813D01*
X83324634Y-74256714D01*
X83283096Y-74215103D01*
X83383720Y-74114655D01*
X83524839Y-73774801D01*
X83525022Y-73565000D01*
X84400000Y-73565000D01*
X84696580Y-73506007D01*
X84948008Y-73338008D01*
X85170867Y-73115149D01*
X85183187Y-73115160D01*
X85523286Y-72974634D01*
X85783720Y-72714655D01*
X85924839Y-72374801D01*
X85925160Y-72006813D01*
X85784634Y-71666714D01*
X85524655Y-71406280D01*
X85184801Y-71265161D01*
X84816813Y-71264840D01*
X84476714Y-71405366D01*
X84216280Y-71665345D01*
X84075161Y-72005199D01*
X84075152Y-72015000D01*
X83721016Y-72015000D01*
X83239107Y-71533091D01*
X83339688Y-71491532D01*
X83600122Y-71231553D01*
X83741241Y-70891699D01*
X83741329Y-70790423D01*
X84044261Y-70487491D01*
X84098085Y-70509841D01*
X84466073Y-70510162D01*
X84806172Y-70369636D01*
X85066606Y-70109657D01*
X85207725Y-69769803D01*
X85208046Y-69401815D01*
X85067520Y-69061716D01*
X84807541Y-68801282D01*
X84720766Y-68765250D01*
X84948008Y-68538008D01*
X85116007Y-68286580D01*
X85141901Y-68156401D01*
X85183720Y-68114655D01*
X85324839Y-67774801D01*
X85325160Y-67406813D01*
X85184634Y-67066714D01*
X84924655Y-66806280D01*
X84584801Y-66665161D01*
X84216813Y-66664840D01*
X83876714Y-66805366D01*
X83616280Y-67065345D01*
X83475161Y-67405199D01*
X83474840Y-67773187D01*
X83488277Y-67805707D01*
X82788935Y-68505049D01*
X82645273Y-68361135D01*
X82305419Y-68220016D01*
X81937431Y-68219695D01*
X81842675Y-68258847D01*
X81673631Y-68089507D01*
X81333777Y-67948388D01*
X80965789Y-67948067D01*
X80935768Y-67960472D01*
X80892427Y-67917055D01*
X80552573Y-67775936D01*
X80184585Y-67775615D01*
X79844486Y-67916141D01*
X79584052Y-68176120D01*
X79442933Y-68515974D01*
X79442921Y-68529610D01*
X79401958Y-68570573D01*
X79233959Y-68822001D01*
X79174966Y-69118581D01*
X79174966Y-74647088D01*
X79233959Y-74943668D01*
X79401958Y-75195096D01*
X80821862Y-76615000D01*
X77921016Y-76615000D01*
X77808008Y-76501992D01*
X77556580Y-76333993D01*
X77260000Y-76275000D01*
X77163360Y-76275000D01*
X77154655Y-76266280D01*
X76814801Y-76125161D01*
X76446813Y-76124840D01*
X76106714Y-76265366D01*
X75846280Y-76525345D01*
X75705161Y-76865199D01*
X75704840Y-77233187D01*
X75845366Y-77573286D01*
X76105345Y-77833720D01*
X76204759Y-77875000D01*
X71608790Y-77875000D01*
X71563602Y-77883454D01*
X71521819Y-77910217D01*
X71493740Y-77951127D01*
X71483790Y-77999738D01*
X71475000Y-82199738D01*
X69704923Y-82199738D01*
X68925443Y-81876070D01*
X68080066Y-81875332D01*
X67298757Y-82198162D01*
X66700463Y-82795413D01*
X66376270Y-83576157D01*
X66375532Y-84421534D01*
X66698362Y-85202843D01*
X67295613Y-85801137D01*
X67449412Y-85865000D01*
X65525000Y-85865000D01*
X65525000Y-82590000D01*
X65516451Y-82544568D01*
X65489601Y-82502841D01*
X65448632Y-82474848D01*
X65400000Y-82465000D01*
X61035650Y-82465000D01*
X61535447Y-81966074D01*
X61859621Y-81185377D01*
X61860358Y-80340051D01*
X61537548Y-79558790D01*
X60940334Y-78960533D01*
X60159637Y-78636359D01*
X59314311Y-78635622D01*
X58533050Y-78958432D01*
X57934793Y-79555646D01*
X57610619Y-80336343D01*
X57609882Y-81181669D01*
X57932692Y-81962930D01*
X58433887Y-82465000D01*
X50700000Y-82465000D01*
X50700000Y-70873277D01*
X61026312Y-70873277D01*
X61235289Y-71379040D01*
X61621905Y-71766332D01*
X61873632Y-71870858D01*
X61623940Y-71974029D01*
X61236648Y-72360645D01*
X61026789Y-72866042D01*
X61026312Y-73413277D01*
X61235289Y-73919040D01*
X61472769Y-74156936D01*
X61236648Y-74392645D01*
X61026789Y-74898042D01*
X61026312Y-75445277D01*
X61235289Y-75951040D01*
X61621905Y-76338332D01*
X61873632Y-76442858D01*
X61623940Y-76546029D01*
X61236648Y-76932645D01*
X61026789Y-77438042D01*
X61026312Y-77985277D01*
X61235289Y-78491040D01*
X61621905Y-78878332D01*
X62127302Y-79088191D01*
X62674537Y-79088668D01*
X63180300Y-78879691D01*
X63567592Y-78493075D01*
X63777451Y-77987678D01*
X63777928Y-77440443D01*
X63568951Y-76934680D01*
X63182335Y-76547388D01*
X62930608Y-76442862D01*
X63180300Y-76339691D01*
X63567592Y-75953075D01*
X63777451Y-75447678D01*
X63777725Y-75133187D01*
X74334840Y-75133187D01*
X74475366Y-75473286D01*
X74735345Y-75733720D01*
X75075199Y-75874839D01*
X75443187Y-75875160D01*
X75783286Y-75734634D01*
X76043720Y-75474655D01*
X76147298Y-75225210D01*
X76188007Y-75198009D01*
X77732585Y-73653430D01*
X77923286Y-73574634D01*
X78183720Y-73314655D01*
X78324839Y-72974801D01*
X78325160Y-72606813D01*
X78184634Y-72266714D01*
X77924655Y-72006280D01*
X77584801Y-71865161D01*
X77216813Y-71864840D01*
X76876714Y-72005366D01*
X76616280Y-72265345D01*
X76475161Y-72605199D01*
X76475062Y-72718923D01*
X75253085Y-73940899D01*
X75127392Y-74024884D01*
X75076813Y-74024840D01*
X74736714Y-74165366D01*
X74476280Y-74425345D01*
X74335161Y-74765199D01*
X74334840Y-75133187D01*
X63777725Y-75133187D01*
X63777928Y-74900443D01*
X63568951Y-74394680D01*
X63331471Y-74156784D01*
X63567592Y-73921075D01*
X63777451Y-73415678D01*
X63777928Y-72868443D01*
X63568951Y-72362680D01*
X63182335Y-71975388D01*
X62930608Y-71870862D01*
X63180300Y-71767691D01*
X63567592Y-71381075D01*
X63777451Y-70875678D01*
X63777928Y-70328443D01*
X63568951Y-69822680D01*
X63182335Y-69435388D01*
X62676938Y-69225529D01*
X62129703Y-69225052D01*
X61623940Y-69434029D01*
X61236648Y-69820645D01*
X61026789Y-70326042D01*
X61026312Y-70873277D01*
X50700000Y-70873277D01*
X50700000Y-67465669D01*
X57609882Y-67465669D01*
X57932692Y-68246930D01*
X58529906Y-68845187D01*
X59310603Y-69169361D01*
X60155929Y-69170098D01*
X60937190Y-68847288D01*
X61535447Y-68250074D01*
X61859621Y-67469377D01*
X61860358Y-66624051D01*
X61537548Y-65842790D01*
X60940334Y-65244533D01*
X60159637Y-64920359D01*
X59314311Y-64919622D01*
X58533050Y-65242432D01*
X57934793Y-65839646D01*
X57610619Y-66620343D01*
X57609882Y-67465669D01*
X50700000Y-67465669D01*
X50700000Y-59703108D01*
X51009776Y-59703108D01*
X51198843Y-60215598D01*
X51569640Y-60616724D01*
X52050945Y-60841786D01*
X52267540Y-60721553D01*
X52267540Y-59484100D01*
X52517540Y-59484100D01*
X52517540Y-60721553D01*
X52734135Y-60841786D01*
X53215440Y-60616724D01*
X53586237Y-60215598D01*
X53775304Y-59703108D01*
X53636290Y-59484100D01*
X52517540Y-59484100D01*
X52267540Y-59484100D01*
X51148790Y-59484100D01*
X51009776Y-59703108D01*
X50700000Y-59703108D01*
X50700000Y-59015092D01*
X51009776Y-59015092D01*
X51148790Y-59234100D01*
X52267540Y-59234100D01*
X52267540Y-57996647D01*
X52517540Y-57996647D01*
X52517540Y-59234100D01*
X53636290Y-59234100D01*
X53775304Y-59015092D01*
X53650622Y-58677124D01*
X53883673Y-58677124D01*
X54012855Y-58989028D01*
X54336104Y-59354255D01*
X54774514Y-59567979D01*
X54967540Y-59446596D01*
X54967540Y-58484100D01*
X55217540Y-58484100D01*
X55217540Y-59446596D01*
X55410566Y-59567979D01*
X55848976Y-59354255D01*
X56172225Y-58989028D01*
X56301407Y-58677124D01*
X56179124Y-58484100D01*
X55217540Y-58484100D01*
X54967540Y-58484100D01*
X54005956Y-58484100D01*
X53883673Y-58677124D01*
X53650622Y-58677124D01*
X53586237Y-58502602D01*
X53215440Y-58101476D01*
X52734135Y-57876414D01*
X52517540Y-57996647D01*
X52267540Y-57996647D01*
X52050945Y-57876414D01*
X51569640Y-58101476D01*
X51198843Y-58502602D01*
X51009776Y-59015092D01*
X50700000Y-59015092D01*
X50700000Y-55553187D01*
X51624840Y-55553187D01*
X51765366Y-55893286D01*
X52025345Y-56153720D01*
X52365199Y-56294839D01*
X52733187Y-56295160D01*
X53073286Y-56154634D01*
X53333720Y-55894655D01*
X53434303Y-55652423D01*
X53702626Y-55384100D01*
X53780296Y-55384100D01*
X53780296Y-55409100D01*
X53804680Y-55538689D01*
X53780296Y-55659100D01*
X53780296Y-56059100D01*
X53804680Y-56188689D01*
X53780296Y-56309100D01*
X53780296Y-56709100D01*
X53800382Y-56815848D01*
X53792540Y-56834780D01*
X53792540Y-56902850D01*
X53822365Y-56932675D01*
X53823877Y-56940711D01*
X53960759Y-57153432D01*
X54115409Y-57259100D01*
X53948790Y-57259100D01*
X53792540Y-57415350D01*
X53792540Y-57483420D01*
X53887691Y-57713134D01*
X53980895Y-57806338D01*
X53883673Y-58041076D01*
X54005956Y-58234100D01*
X54967540Y-58234100D01*
X54967540Y-58214100D01*
X55217540Y-58214100D01*
X55217540Y-58234100D01*
X56179124Y-58234100D01*
X56301407Y-58041076D01*
X56204185Y-57806338D01*
X56297389Y-57713134D01*
X56392540Y-57483420D01*
X56392540Y-57415350D01*
X56236290Y-57259100D01*
X56067005Y-57259100D01*
X56211872Y-57165881D01*
X56354578Y-56957024D01*
X56358695Y-56936695D01*
X56392540Y-56902850D01*
X56392540Y-56834780D01*
X56383670Y-56813365D01*
X56404784Y-56709100D01*
X56404784Y-56634100D01*
X56818084Y-56634100D01*
X63921992Y-63738008D01*
X64173420Y-63906007D01*
X64470000Y-63965000D01*
X106490000Y-63965000D01*
X106786580Y-63906007D01*
X107038008Y-63738008D01*
X107448009Y-63328007D01*
X107475359Y-63287075D01*
X107723286Y-63184634D01*
X107983720Y-62924655D01*
X108124839Y-62584801D01*
X108125160Y-62216813D01*
X107984634Y-61876714D01*
X107724655Y-61616280D01*
X107384801Y-61475161D01*
X107016813Y-61474840D01*
X106676714Y-61615366D01*
X106636875Y-61655135D01*
X106445174Y-61575534D01*
X106077186Y-61575213D01*
X105737087Y-61715739D01*
X105727436Y-61725373D01*
X65021389Y-61725373D01*
X63295754Y-59999738D01*
X71875000Y-59999738D01*
X71883549Y-60045432D01*
X71910399Y-60087159D01*
X71951368Y-60115152D01*
X72000000Y-60125000D01*
X84200000Y-60125000D01*
X84245188Y-60116546D01*
X84286971Y-60089783D01*
X84315050Y-60048873D01*
X84325000Y-60000262D01*
X84332838Y-56255000D01*
X98043158Y-56255000D01*
X98035321Y-59999738D01*
X98043870Y-60045432D01*
X98070720Y-60087159D01*
X98111689Y-60115152D01*
X98160321Y-60125000D01*
X110360321Y-60125000D01*
X110405509Y-60116546D01*
X110447292Y-60089783D01*
X110475371Y-60048873D01*
X110485321Y-60000262D01*
X110490285Y-57628187D01*
X118949840Y-57628187D01*
X119090366Y-57968286D01*
X119350345Y-58228720D01*
X119690199Y-58369839D01*
X120058187Y-58370160D01*
X120398286Y-58229634D01*
X120658720Y-57969655D01*
X120759303Y-57727423D01*
X121211726Y-57275000D01*
X122298633Y-57275000D01*
X122550000Y-57324999D01*
X122884848Y-57258395D01*
X123168718Y-57068718D01*
X126562437Y-53675000D01*
X133262563Y-53675000D01*
X133406281Y-53818718D01*
X133406284Y-53818720D01*
X133590736Y-54003173D01*
X133640366Y-54123286D01*
X133900345Y-54383720D01*
X134240199Y-54524839D01*
X134608187Y-54525160D01*
X134948286Y-54384634D01*
X135208720Y-54124655D01*
X135349839Y-53784801D01*
X135350156Y-53420834D01*
X141374112Y-53420834D01*
X141696942Y-54202143D01*
X142294193Y-54800437D01*
X143074937Y-55124630D01*
X143920314Y-55125368D01*
X144701623Y-54802538D01*
X145299917Y-54205287D01*
X145624110Y-53424543D01*
X145624848Y-52579166D01*
X145302018Y-51797857D01*
X144704767Y-51199563D01*
X143924023Y-50875370D01*
X143078646Y-50874632D01*
X142297337Y-51197462D01*
X141699043Y-51794713D01*
X141374850Y-52575457D01*
X141374112Y-53420834D01*
X135350156Y-53420834D01*
X135350160Y-53416813D01*
X135209634Y-53076714D01*
X134949655Y-52816280D01*
X134828344Y-52765908D01*
X134643720Y-52581284D01*
X134643718Y-52581281D01*
X134243718Y-52181282D01*
X133959848Y-51991605D01*
X133625000Y-51925000D01*
X126200000Y-51925000D01*
X125865152Y-51991605D01*
X125581282Y-52181281D01*
X122137564Y-55625000D01*
X120870000Y-55625000D01*
X120554286Y-55687799D01*
X120286637Y-55866637D01*
X119592327Y-56560947D01*
X119351714Y-56660366D01*
X119091280Y-56920345D01*
X118950161Y-57260199D01*
X118949840Y-57628187D01*
X110490285Y-57628187D01*
X110493832Y-55933681D01*
X110665199Y-56004839D01*
X111033187Y-56005160D01*
X111373286Y-55864634D01*
X111633720Y-55604655D01*
X111774839Y-55264801D01*
X111775159Y-54898098D01*
X112100000Y-54962713D01*
X112683592Y-54846629D01*
X113178338Y-54516051D01*
X113508916Y-54021305D01*
X113625000Y-53437713D01*
X113625000Y-52562287D01*
X113508916Y-51978695D01*
X113178338Y-51483949D01*
X112683592Y-51153371D01*
X112100000Y-51037287D01*
X111516408Y-51153371D01*
X111021662Y-51483949D01*
X110830000Y-51770792D01*
X110638338Y-51483949D01*
X110143592Y-51153371D01*
X109560000Y-51037287D01*
X108976408Y-51153371D01*
X108481662Y-51483949D01*
X108290000Y-51770792D01*
X108098338Y-51483949D01*
X107603592Y-51153371D01*
X107020000Y-51037287D01*
X106436408Y-51153371D01*
X105941662Y-51483949D01*
X105750000Y-51770792D01*
X105558338Y-51483949D01*
X105063592Y-51153371D01*
X104480000Y-51037287D01*
X103896408Y-51153371D01*
X103401662Y-51483949D01*
X103210000Y-51770792D01*
X103018338Y-51483949D01*
X102523592Y-51153371D01*
X101940000Y-51037287D01*
X101356408Y-51153371D01*
X100861662Y-51483949D01*
X100670000Y-51770792D01*
X100478338Y-51483949D01*
X99983592Y-51153371D01*
X99400000Y-51037287D01*
X98816408Y-51153371D01*
X98321662Y-51483949D01*
X98130000Y-51770792D01*
X97938338Y-51483949D01*
X97443592Y-51153371D01*
X96860000Y-51037287D01*
X96276408Y-51153371D01*
X95781662Y-51483949D01*
X95590000Y-51770792D01*
X95398338Y-51483949D01*
X94903592Y-51153371D01*
X94320000Y-51037287D01*
X93736408Y-51153371D01*
X93241662Y-51483949D01*
X93050000Y-51770792D01*
X92858338Y-51483949D01*
X92363592Y-51153371D01*
X91780000Y-51037287D01*
X91196408Y-51153371D01*
X90701662Y-51483949D01*
X90510000Y-51770792D01*
X90318338Y-51483949D01*
X89823592Y-51153371D01*
X89240000Y-51037287D01*
X88656408Y-51153371D01*
X88161662Y-51483949D01*
X87970000Y-51770792D01*
X87778338Y-51483949D01*
X87283592Y-51153371D01*
X86700000Y-51037287D01*
X86116408Y-51153371D01*
X85621662Y-51483949D01*
X85424427Y-51779133D01*
X85149950Y-51433274D01*
X84628108Y-51143248D01*
X84521221Y-51118398D01*
X84285000Y-51236970D01*
X84285000Y-52875000D01*
X84305000Y-52875000D01*
X84305000Y-53125000D01*
X84285000Y-53125000D01*
X84285000Y-53145000D01*
X84035000Y-53145000D01*
X84035000Y-53125000D01*
X84015000Y-53125000D01*
X84015000Y-52875000D01*
X84035000Y-52875000D01*
X84035000Y-51236970D01*
X83798779Y-51118398D01*
X83691892Y-51143248D01*
X83170050Y-51433274D01*
X82895573Y-51779133D01*
X82698338Y-51483949D01*
X82203592Y-51153371D01*
X81620000Y-51037287D01*
X81036408Y-51153371D01*
X80541662Y-51483949D01*
X80350000Y-51770792D01*
X80158338Y-51483949D01*
X79663592Y-51153371D01*
X79080000Y-51037287D01*
X78496408Y-51153371D01*
X78001662Y-51483949D01*
X77810000Y-51770792D01*
X77618338Y-51483949D01*
X77123592Y-51153371D01*
X76540000Y-51037287D01*
X75956408Y-51153371D01*
X75461662Y-51483949D01*
X75264427Y-51779133D01*
X74989950Y-51433274D01*
X74468108Y-51143248D01*
X74361221Y-51118398D01*
X74125000Y-51236970D01*
X74125000Y-52875000D01*
X74145000Y-52875000D01*
X74145000Y-53125000D01*
X74125000Y-53125000D01*
X74125000Y-54763030D01*
X74361221Y-54881602D01*
X74468108Y-54856752D01*
X74989950Y-54566726D01*
X75264427Y-54220867D01*
X75461662Y-54516051D01*
X75956408Y-54846629D01*
X76540000Y-54962713D01*
X77123592Y-54846629D01*
X77467300Y-54616971D01*
X77335161Y-54935199D01*
X77334840Y-55303187D01*
X77475366Y-55643286D01*
X77507025Y-55675000D01*
X72008790Y-55675000D01*
X71963602Y-55683454D01*
X71921819Y-55710217D01*
X71893740Y-55751127D01*
X71883790Y-55799738D01*
X71875000Y-59999738D01*
X63295754Y-59999738D01*
X59399850Y-56103834D01*
X59420665Y-56063541D01*
X59429567Y-56051713D01*
X59435990Y-56045640D01*
X59438707Y-56039568D01*
X59473025Y-55993968D01*
X59502173Y-55933443D01*
X59516435Y-55878157D01*
X59519490Y-55872243D01*
X59520233Y-55863433D01*
X59523927Y-55849114D01*
X59529961Y-55835629D01*
X59534876Y-55828273D01*
X59536176Y-55821740D01*
X59559496Y-55769622D01*
X59574444Y-55704127D01*
X59576044Y-55647082D01*
X59577706Y-55640639D01*
X59576470Y-55631885D01*
X59576885Y-55617092D01*
X59579774Y-55602569D01*
X59582927Y-55594309D01*
X59582740Y-55587658D01*
X59593873Y-55531694D01*
X59593874Y-55464516D01*
X59582735Y-55408513D01*
X59582922Y-55401856D01*
X59579768Y-55393592D01*
X59576884Y-55379097D01*
X59576470Y-55364324D01*
X59577706Y-55355568D01*
X59576043Y-55349119D01*
X59574440Y-55292038D01*
X59559490Y-55226542D01*
X59536182Y-55174456D01*
X59534885Y-55167935D01*
X59529977Y-55160589D01*
X59523927Y-55147071D01*
X59520232Y-55132745D01*
X59519489Y-55123934D01*
X59516435Y-55118022D01*
X59502181Y-55062761D01*
X59473035Y-55002236D01*
X59438696Y-54956606D01*
X59435976Y-54950527D01*
X59429549Y-54944451D01*
X59420667Y-54932649D01*
X59413873Y-54919498D01*
X59411188Y-54911073D01*
X59406893Y-54905987D01*
X59380696Y-54855278D01*
X59338810Y-54802754D01*
X59295206Y-54765934D01*
X59291207Y-54760620D01*
X59283596Y-54756130D01*
X59272275Y-54746570D01*
X59262737Y-54735275D01*
X59258244Y-54727659D01*
X59252925Y-54723656D01*
X59216092Y-54680038D01*
X59163569Y-54638153D01*
X59112857Y-54611955D01*
X59107772Y-54607661D01*
X59099347Y-54604976D01*
X59086207Y-54598188D01*
X59074381Y-54589287D01*
X59068308Y-54582864D01*
X59062235Y-54580146D01*
X59016631Y-54545826D01*
X58956105Y-54516678D01*
X58900823Y-54502418D01*
X58894910Y-54499363D01*
X58886101Y-54498620D01*
X58871781Y-54494926D01*
X58858266Y-54488879D01*
X58850918Y-54483969D01*
X58844394Y-54482671D01*
X58792290Y-54459357D01*
X58726796Y-54444409D01*
X58669742Y-54442809D01*
X58663300Y-54441147D01*
X58654548Y-54442383D01*
X58639745Y-54441967D01*
X58625256Y-54439086D01*
X58616995Y-54435932D01*
X58610339Y-54436119D01*
X58554337Y-54424980D01*
X58487159Y-54424981D01*
X58431175Y-54436118D01*
X58424525Y-54435931D01*
X58416268Y-54439083D01*
X58401761Y-54441969D01*
X58386972Y-54442384D01*
X58378220Y-54441148D01*
X58371778Y-54442810D01*
X58314723Y-54444410D01*
X58249230Y-54459358D01*
X58197112Y-54482679D01*
X58190580Y-54483978D01*
X58183225Y-54488893D01*
X58169739Y-54494927D01*
X58155397Y-54498627D01*
X58146587Y-54499370D01*
X58140675Y-54502424D01*
X58085415Y-54516679D01*
X58024889Y-54545827D01*
X57979285Y-54580147D01*
X57973212Y-54582865D01*
X57967139Y-54589288D01*
X57955306Y-54598194D01*
X57915022Y-54619006D01*
X57518008Y-54221992D01*
X57266580Y-54053993D01*
X56970000Y-53995000D01*
X56506640Y-53995000D01*
X56302126Y-54035680D01*
X56224321Y-53914768D01*
X56207688Y-53903403D01*
X56301407Y-53677124D01*
X56179124Y-53484100D01*
X55217540Y-53484100D01*
X55217540Y-53504100D01*
X54967540Y-53504100D01*
X54967540Y-53484100D01*
X54005956Y-53484100D01*
X53883673Y-53677124D01*
X53907271Y-53734100D01*
X53360900Y-53734100D01*
X53045186Y-53796899D01*
X52777537Y-53975737D01*
X52267327Y-54485947D01*
X52026714Y-54585366D01*
X51766280Y-54845345D01*
X51625161Y-55185199D01*
X51624840Y-55553187D01*
X50700000Y-55553187D01*
X50700000Y-52703108D01*
X51009776Y-52703108D01*
X51198843Y-53215598D01*
X51569640Y-53616724D01*
X52050945Y-53841786D01*
X52267540Y-53721553D01*
X52267540Y-52484100D01*
X52517540Y-52484100D01*
X52517540Y-53721553D01*
X52734135Y-53841786D01*
X53215440Y-53616724D01*
X53396518Y-53420834D01*
X66375532Y-53420834D01*
X66698362Y-54202143D01*
X67295613Y-54800437D01*
X68076357Y-55124630D01*
X68921734Y-55125368D01*
X69703043Y-54802538D01*
X70301337Y-54205287D01*
X70625530Y-53424543D01*
X70625791Y-53125000D01*
X72475000Y-53125000D01*
X72475000Y-53525000D01*
X72638919Y-54099077D01*
X73010050Y-54566726D01*
X73531892Y-54856752D01*
X73638779Y-54881602D01*
X73875000Y-54763030D01*
X73875000Y-53125000D01*
X72475000Y-53125000D01*
X70625791Y-53125000D01*
X70626268Y-52579166D01*
X70583228Y-52475000D01*
X72475000Y-52475000D01*
X72475000Y-52875000D01*
X73875000Y-52875000D01*
X73875000Y-51236970D01*
X73638779Y-51118398D01*
X73531892Y-51143248D01*
X73010050Y-51433274D01*
X72638919Y-51900923D01*
X72475000Y-52475000D01*
X70583228Y-52475000D01*
X70303438Y-51797857D01*
X69706187Y-51199563D01*
X68925443Y-50875370D01*
X68080066Y-50874632D01*
X67298757Y-51197462D01*
X66700463Y-51794713D01*
X66376270Y-52575457D01*
X66375532Y-53420834D01*
X53396518Y-53420834D01*
X53586237Y-53215598D01*
X53650621Y-53041076D01*
X53883673Y-53041076D01*
X54005956Y-53234100D01*
X54967540Y-53234100D01*
X54967540Y-52271604D01*
X55217540Y-52271604D01*
X55217540Y-53234100D01*
X56179124Y-53234100D01*
X56301407Y-53041076D01*
X56172225Y-52729172D01*
X55848976Y-52363945D01*
X55410566Y-52150221D01*
X55217540Y-52271604D01*
X54967540Y-52271604D01*
X54774514Y-52150221D01*
X54336104Y-52363945D01*
X54012855Y-52729172D01*
X53883673Y-53041076D01*
X53650621Y-53041076D01*
X53775304Y-52703108D01*
X53636290Y-52484100D01*
X52517540Y-52484100D01*
X52267540Y-52484100D01*
X51148790Y-52484100D01*
X51009776Y-52703108D01*
X50700000Y-52703108D01*
X50700000Y-52015092D01*
X51009776Y-52015092D01*
X51148790Y-52234100D01*
X52267540Y-52234100D01*
X52267540Y-50996647D01*
X52517540Y-50996647D01*
X52517540Y-52234100D01*
X53636290Y-52234100D01*
X53775304Y-52015092D01*
X53586237Y-51502602D01*
X53215440Y-51101476D01*
X52734135Y-50876414D01*
X52517540Y-50996647D01*
X52267540Y-50996647D01*
X52050945Y-50876414D01*
X51569640Y-51101476D01*
X51198843Y-51502602D01*
X51009776Y-52015092D01*
X50700000Y-52015092D01*
X50700000Y-50700000D01*
X147608539Y-50700000D01*
X147278645Y-51029319D01*
G36*
X147076730Y-87075585D02*
X147076271Y-87602105D01*
X147277337Y-88088723D01*
X147649319Y-88461355D01*
X148068387Y-88635367D01*
X147773197Y-88757337D01*
X147400565Y-89129319D01*
X147198650Y-89615585D01*
X147198191Y-90142105D01*
X147399257Y-90628723D01*
X147771239Y-91001355D01*
X148068688Y-91124867D01*
X147651277Y-91297337D01*
X147278645Y-91669319D01*
X147076730Y-92155585D01*
X147076271Y-92682105D01*
X147277337Y-93168723D01*
X147649319Y-93541355D01*
X148052424Y-93708739D01*
X147833284Y-93799510D01*
X147771246Y-94032550D01*
X148521920Y-94783223D01*
X148536062Y-94769081D01*
X148712839Y-94945858D01*
X148698697Y-94960000D01*
X148712839Y-94974142D01*
X148536062Y-95150919D01*
X148521920Y-95136777D01*
X147771246Y-95887450D01*
X147809320Y-96030470D01*
X147229206Y-96030470D01*
X146773241Y-95574505D01*
X146625000Y-95475454D01*
X146625000Y-94767883D01*
X147186238Y-94767883D01*
X147214390Y-95293651D01*
X147361430Y-95648636D01*
X147594470Y-95710674D01*
X148345143Y-94960000D01*
X147594470Y-94209326D01*
X147361430Y-94271364D01*
X147186238Y-94767883D01*
X146625000Y-94767883D01*
X146625000Y-87337436D01*
X147143719Y-86818718D01*
X147248515Y-86661879D01*
X147076730Y-87075585D01*
X147076730Y-87075585D01*
G37*
X147076730Y-87075585D02*
X147076271Y-87602105D01*
X147277337Y-88088723D01*
X147649319Y-88461355D01*
X148068387Y-88635367D01*
X147773197Y-88757337D01*
X147400565Y-89129319D01*
X147198650Y-89615585D01*
X147198191Y-90142105D01*
X147399257Y-90628723D01*
X147771239Y-91001355D01*
X148068688Y-91124867D01*
X147651277Y-91297337D01*
X147278645Y-91669319D01*
X147076730Y-92155585D01*
X147076271Y-92682105D01*
X147277337Y-93168723D01*
X147649319Y-93541355D01*
X148052424Y-93708739D01*
X147833284Y-93799510D01*
X147771246Y-94032550D01*
X148521920Y-94783223D01*
X148536062Y-94769081D01*
X148712839Y-94945858D01*
X148698697Y-94960000D01*
X148712839Y-94974142D01*
X148536062Y-95150919D01*
X148521920Y-95136777D01*
X147771246Y-95887450D01*
X147809320Y-96030470D01*
X147229206Y-96030470D01*
X146773241Y-95574505D01*
X146625000Y-95475454D01*
X146625000Y-94767883D01*
X147186238Y-94767883D01*
X147214390Y-95293651D01*
X147361430Y-95648636D01*
X147594470Y-95710674D01*
X148345143Y-94960000D01*
X147594470Y-94209326D01*
X147361430Y-94271364D01*
X147186238Y-94767883D01*
X146625000Y-94767883D01*
X146625000Y-87337436D01*
X147143719Y-86818718D01*
X147248515Y-86661879D01*
X147076730Y-87075585D01*
G36*
X147649319Y-83381355D02*
X148068387Y-83555367D01*
X147773197Y-83677337D01*
X147400565Y-84049319D01*
X147400000Y-84050680D01*
X147400000Y-83131600D01*
X147649319Y-83381355D01*
X147649319Y-83381355D01*
G37*
X147649319Y-83381355D02*
X148068387Y-83555367D01*
X147773197Y-83677337D01*
X147400565Y-84049319D01*
X147400000Y-84050680D01*
X147400000Y-83131600D01*
X147649319Y-83381355D01*
G36*
X132116263Y-65188034D02*
X132005059Y-65299043D01*
X130581017Y-63875001D01*
X130803229Y-63875001D01*
X132116263Y-65188034D01*
X132116263Y-65188034D01*
G37*
X132116263Y-65188034D02*
X132005059Y-65299043D01*
X130581017Y-63875001D01*
X130803229Y-63875001D01*
X132116263Y-65188034D01*
M02*
