G04 #@! TF.FileFunction,Legend,Bot*
%FSLAX46Y46*%
G04 Gerber Fmt 4.6, Leading zero omitted, Abs format (unit mm)*
G04 Created by KiCad (PCBNEW 4.0.5+dfsg1-4) date Fri Oct  5 16:33:36 2018*
%MOMM*%
%LPD*%
G01*
G04 APERTURE LIST*
%ADD10C,0.100000*%
%ADD11C,0.150000*%
%ADD12C,0.120000*%
G04 APERTURE END LIST*
D10*
D11*
X82595239Y-96404762D02*
X82595239Y-98023810D01*
X82500000Y-98214286D01*
X82404762Y-98309524D01*
X82214286Y-98404762D01*
X81833334Y-98404762D01*
X81642858Y-98309524D01*
X81547619Y-98214286D01*
X81452381Y-98023810D01*
X81452381Y-96404762D01*
X80595239Y-98309524D02*
X80309524Y-98404762D01*
X79833334Y-98404762D01*
X79642858Y-98309524D01*
X79547620Y-98214286D01*
X79452381Y-98023810D01*
X79452381Y-97833333D01*
X79547620Y-97642857D01*
X79642858Y-97547619D01*
X79833334Y-97452381D01*
X80214286Y-97357143D01*
X80404762Y-97261905D01*
X80500001Y-97166667D01*
X80595239Y-96976190D01*
X80595239Y-96785714D01*
X80500001Y-96595238D01*
X80404762Y-96500000D01*
X80214286Y-96404762D01*
X79738096Y-96404762D01*
X79452381Y-96500000D01*
X77928572Y-97357143D02*
X77642858Y-97452381D01*
X77547619Y-97547619D01*
X77452381Y-97738095D01*
X77452381Y-98023810D01*
X77547619Y-98214286D01*
X77642858Y-98309524D01*
X77833334Y-98404762D01*
X78595239Y-98404762D01*
X78595239Y-96404762D01*
X77928572Y-96404762D01*
X77738096Y-96500000D01*
X77642858Y-96595238D01*
X77547619Y-96785714D01*
X77547619Y-96976190D01*
X77642858Y-97166667D01*
X77738096Y-97261905D01*
X77928572Y-97357143D01*
X78595239Y-97357143D01*
X75738096Y-98309524D02*
X75928572Y-98404762D01*
X76309524Y-98404762D01*
X76500000Y-98309524D01*
X76595239Y-98214286D01*
X76690477Y-98023810D01*
X76690477Y-97452381D01*
X76595239Y-97261905D01*
X76500000Y-97166667D01*
X76309524Y-97071429D01*
X75928572Y-97071429D01*
X75738096Y-97166667D01*
X74023810Y-98404762D02*
X74023810Y-97357143D01*
X74119048Y-97166667D01*
X74309524Y-97071429D01*
X74690476Y-97071429D01*
X74880953Y-97166667D01*
X74023810Y-98309524D02*
X74214286Y-98404762D01*
X74690476Y-98404762D01*
X74880953Y-98309524D01*
X74976191Y-98119048D01*
X74976191Y-97928571D01*
X74880953Y-97738095D01*
X74690476Y-97642857D01*
X74214286Y-97642857D01*
X74023810Y-97547619D01*
X73071429Y-98404762D02*
X73071429Y-96404762D01*
X73071429Y-97166667D02*
X72880952Y-97071429D01*
X72500000Y-97071429D01*
X72309524Y-97166667D01*
X72214286Y-97261905D01*
X72119048Y-97452381D01*
X72119048Y-98023810D01*
X72214286Y-98214286D01*
X72309524Y-98309524D01*
X72500000Y-98404762D01*
X72880952Y-98404762D01*
X73071429Y-98309524D01*
X70976190Y-98404762D02*
X71166666Y-98309524D01*
X71261905Y-98119048D01*
X71261905Y-96404762D01*
X69452381Y-98309524D02*
X69642857Y-98404762D01*
X70023809Y-98404762D01*
X70214286Y-98309524D01*
X70309524Y-98119048D01*
X70309524Y-97357143D01*
X70214286Y-97166667D01*
X70023809Y-97071429D01*
X69642857Y-97071429D01*
X69452381Y-97166667D01*
X69357143Y-97357143D01*
X69357143Y-97547619D01*
X70309524Y-97738095D01*
X67642857Y-98309524D02*
X67833333Y-98404762D01*
X68214285Y-98404762D01*
X68404761Y-98309524D01*
X68500000Y-98214286D01*
X68595238Y-98023810D01*
X68595238Y-97452381D01*
X68500000Y-97261905D01*
X68404761Y-97166667D01*
X68214285Y-97071429D01*
X67833333Y-97071429D01*
X67642857Y-97166667D01*
X66785714Y-98404762D02*
X66785714Y-97071429D01*
X66785714Y-97452381D02*
X66690475Y-97261905D01*
X66595237Y-97166667D01*
X66404761Y-97071429D01*
X66214285Y-97071429D01*
X64690476Y-98404762D02*
X64690476Y-97357143D01*
X64785714Y-97166667D01*
X64976190Y-97071429D01*
X65357142Y-97071429D01*
X65547619Y-97166667D01*
X64690476Y-98309524D02*
X64880952Y-98404762D01*
X65357142Y-98404762D01*
X65547619Y-98309524D01*
X65642857Y-98119048D01*
X65642857Y-97928571D01*
X65547619Y-97738095D01*
X65357142Y-97642857D01*
X64880952Y-97642857D01*
X64690476Y-97547619D01*
X62880952Y-98309524D02*
X63071428Y-98404762D01*
X63452380Y-98404762D01*
X63642856Y-98309524D01*
X63738095Y-98214286D01*
X63833333Y-98023810D01*
X63833333Y-97452381D01*
X63738095Y-97261905D01*
X63642856Y-97166667D01*
X63452380Y-97071429D01*
X63071428Y-97071429D01*
X62880952Y-97166667D01*
X62023809Y-98404762D02*
X62023809Y-96404762D01*
X61833332Y-97642857D02*
X61261904Y-98404762D01*
X61261904Y-97071429D02*
X62023809Y-97833333D01*
X59642856Y-98309524D02*
X59833332Y-98404762D01*
X60214284Y-98404762D01*
X60404761Y-98309524D01*
X60499999Y-98119048D01*
X60499999Y-97357143D01*
X60404761Y-97166667D01*
X60214284Y-97071429D01*
X59833332Y-97071429D01*
X59642856Y-97166667D01*
X59547618Y-97357143D01*
X59547618Y-97547619D01*
X60499999Y-97738095D01*
X58690475Y-98404762D02*
X58690475Y-97071429D01*
X58690475Y-97452381D02*
X58595236Y-97261905D01*
X58499998Y-97166667D01*
X58309522Y-97071429D01*
X58119046Y-97071429D01*
X56223809Y-97452381D02*
X55890476Y-98452381D01*
X55557142Y-97452381D01*
X55271428Y-97547619D02*
X55223809Y-97500000D01*
X55128571Y-97452381D01*
X54890475Y-97452381D01*
X54795237Y-97500000D01*
X54747618Y-97547619D01*
X54699999Y-97642857D01*
X54699999Y-97738095D01*
X54747618Y-97880952D01*
X55319047Y-98452381D01*
X54699999Y-98452381D01*
X54271428Y-98357143D02*
X54223809Y-98404762D01*
X54271428Y-98452381D01*
X54319047Y-98404762D01*
X54271428Y-98357143D01*
X54271428Y-98452381D01*
X53604762Y-97452381D02*
X53509523Y-97452381D01*
X53414285Y-97500000D01*
X53366666Y-97547619D01*
X53319047Y-97642857D01*
X53271428Y-97833333D01*
X53271428Y-98071429D01*
X53319047Y-98261905D01*
X53366666Y-98357143D01*
X53414285Y-98404762D01*
X53509523Y-98452381D01*
X53604762Y-98452381D01*
X53700000Y-98404762D01*
X53747619Y-98357143D01*
X53795238Y-98261905D01*
X53842857Y-98071429D01*
X53842857Y-97833333D01*
X53795238Y-97642857D01*
X53747619Y-97547619D01*
X53700000Y-97500000D01*
X53604762Y-97452381D01*
X144214286Y-65952381D02*
X144214286Y-64952381D01*
X143976191Y-64952381D01*
X143833333Y-65000000D01*
X143738095Y-65095238D01*
X143690476Y-65190476D01*
X143642857Y-65380952D01*
X143642857Y-65523810D01*
X143690476Y-65714286D01*
X143738095Y-65809524D01*
X143833333Y-65904762D01*
X143976191Y-65952381D01*
X144214286Y-65952381D01*
X142690476Y-65952381D02*
X143261905Y-65952381D01*
X142976191Y-65952381D02*
X142976191Y-64952381D01*
X143071429Y-65095238D01*
X143166667Y-65190476D01*
X143261905Y-65238095D01*
X142357143Y-64952381D02*
X141738095Y-64952381D01*
X142071429Y-65333333D01*
X141928571Y-65333333D01*
X141833333Y-65380952D01*
X141785714Y-65428571D01*
X141738095Y-65523810D01*
X141738095Y-65761905D01*
X141785714Y-65857143D01*
X141833333Y-65904762D01*
X141928571Y-65952381D01*
X142214286Y-65952381D01*
X142309524Y-65904762D01*
X142357143Y-65857143D01*
X142861905Y-71442381D02*
X142290476Y-71442381D01*
X142576191Y-72442381D02*
X142576191Y-71442381D01*
X142052381Y-71442381D02*
X141385714Y-72442381D01*
X141385714Y-71442381D02*
X142052381Y-72442381D01*
X142766666Y-80152381D02*
X143100000Y-79676190D01*
X143338095Y-80152381D02*
X143338095Y-79152381D01*
X142957142Y-79152381D01*
X142861904Y-79200000D01*
X142814285Y-79247619D01*
X142766666Y-79342857D01*
X142766666Y-79485714D01*
X142814285Y-79580952D01*
X142861904Y-79628571D01*
X142957142Y-79676190D01*
X143338095Y-79676190D01*
X142433333Y-79152381D02*
X141766666Y-80152381D01*
X141766666Y-79152381D02*
X142433333Y-80152381D01*
X144633333Y-57952381D02*
X144633333Y-56952381D01*
X144252380Y-56952381D01*
X144157142Y-57000000D01*
X144109523Y-57047619D01*
X144061904Y-57142857D01*
X144061904Y-57285714D01*
X144109523Y-57380952D01*
X144157142Y-57428571D01*
X144252380Y-57476190D01*
X144633333Y-57476190D01*
X143728571Y-56952381D02*
X143490476Y-57952381D01*
X143299999Y-57238095D01*
X143109523Y-57952381D01*
X142871428Y-56952381D01*
X141919047Y-57952381D02*
X142252381Y-57476190D01*
X142490476Y-57952381D02*
X142490476Y-56952381D01*
X142109523Y-56952381D01*
X142014285Y-57000000D01*
X141966666Y-57047619D01*
X141919047Y-57142857D01*
X141919047Y-57285714D01*
X141966666Y-57380952D01*
X142014285Y-57428571D01*
X142109523Y-57476190D01*
X142490476Y-57476190D01*
X115950000Y-82600000D02*
X115250000Y-82600000D01*
X115250000Y-83800000D02*
X115950000Y-83800000D01*
X66460000Y-77075000D02*
X65460000Y-77075000D01*
X65460000Y-78425000D02*
X66460000Y-78425000D01*
X65460000Y-72805000D02*
X66460000Y-72805000D01*
X66460000Y-71455000D02*
X65460000Y-71455000D01*
X127169496Y-54541946D02*
X126469496Y-54541946D01*
X126469496Y-55741946D02*
X127169496Y-55741946D01*
X111500000Y-86450000D02*
X111500000Y-87150000D01*
X112700000Y-87150000D02*
X112700000Y-86450000D01*
X111100000Y-88550000D02*
X111100000Y-87850000D01*
X109900000Y-87850000D02*
X109900000Y-88550000D01*
X98800000Y-74350000D02*
X98800000Y-73650000D01*
X97600000Y-73650000D02*
X97600000Y-74350000D01*
X124819496Y-58791946D02*
X124819496Y-58091946D01*
X123619496Y-58091946D02*
X123619496Y-58791946D01*
X113100000Y-68950000D02*
X113100000Y-69650000D01*
X114300000Y-69650000D02*
X114300000Y-68950000D01*
X72360000Y-66930000D02*
X72360000Y-66230000D01*
X71160000Y-66230000D02*
X71160000Y-66930000D01*
X140750000Y-78525000D02*
X140750000Y-80425000D01*
X139650000Y-78525000D02*
X139650000Y-80425000D01*
X140200000Y-79425000D02*
X140200000Y-79875000D01*
X139950000Y-79375000D02*
X140450000Y-79375000D01*
X140200000Y-79375000D02*
X139950000Y-79625000D01*
X139950000Y-79625000D02*
X140450000Y-79625000D01*
X140450000Y-79625000D02*
X140200000Y-79375000D01*
X140797767Y-71586035D02*
X140797767Y-73486035D01*
X139697767Y-71586035D02*
X139697767Y-73486035D01*
X140247767Y-72486035D02*
X140247767Y-72936035D01*
X139997767Y-72436035D02*
X140497767Y-72436035D01*
X140247767Y-72436035D02*
X139997767Y-72686035D01*
X139997767Y-72686035D02*
X140497767Y-72686035D01*
X140497767Y-72686035D02*
X140247767Y-72436035D01*
X140897767Y-64286035D02*
X140897767Y-66186035D01*
X139797767Y-64286035D02*
X139797767Y-66186035D01*
X140347767Y-65186035D02*
X140347767Y-65636035D01*
X140097767Y-65136035D02*
X140597767Y-65136035D01*
X140347767Y-65136035D02*
X140097767Y-65386035D01*
X140097767Y-65386035D02*
X140597767Y-65386035D01*
X140597767Y-65386035D02*
X140347767Y-65136035D01*
X140997767Y-56486035D02*
X140997767Y-58386035D01*
X139897767Y-56486035D02*
X139897767Y-58386035D01*
X140447767Y-57386035D02*
X140447767Y-57836035D01*
X140197767Y-57336035D02*
X140697767Y-57336035D01*
X140447767Y-57336035D02*
X140197767Y-57586035D01*
X140197767Y-57586035D02*
X140697767Y-57586035D01*
X140697767Y-57586035D02*
X140447767Y-57336035D01*
X111300000Y-70515000D02*
X110300000Y-70515000D01*
X110300000Y-71865000D02*
X111300000Y-71865000D01*
X139122767Y-80586035D02*
X139122767Y-79586035D01*
X137772767Y-79586035D02*
X137772767Y-80586035D01*
X137772767Y-72186035D02*
X137772767Y-73186035D01*
X139122767Y-73186035D02*
X139122767Y-72186035D01*
X137772767Y-64986035D02*
X137772767Y-65986035D01*
X139122767Y-65986035D02*
X139122767Y-64986035D01*
X137872767Y-56986035D02*
X137872767Y-57986035D01*
X139222767Y-57986035D02*
X139222767Y-56986035D01*
X141630000Y-76955000D02*
X142630000Y-76955000D01*
X142630000Y-75605000D02*
X141630000Y-75605000D01*
X107525000Y-64900000D02*
X107525000Y-65900000D01*
X108875000Y-65900000D02*
X108875000Y-64900000D01*
X105925000Y-64900000D02*
X105925000Y-65900000D01*
X107275000Y-65900000D02*
X107275000Y-64900000D01*
X113540000Y-55765000D02*
X112540000Y-55765000D01*
X112540000Y-57115000D02*
X113540000Y-57115000D01*
X107300000Y-85475000D02*
X108300000Y-85475000D01*
X108300000Y-84125000D02*
X107300000Y-84125000D01*
X108300000Y-82225000D02*
X107300000Y-82225000D01*
X107300000Y-83575000D02*
X108300000Y-83575000D01*
X105625000Y-87700000D02*
X105625000Y-88700000D01*
X106975000Y-88700000D02*
X106975000Y-87700000D01*
X107725000Y-87700000D02*
X107725000Y-88700000D01*
X109075000Y-88700000D02*
X109075000Y-87700000D01*
X94700000Y-75575000D02*
X95700000Y-75575000D01*
X95700000Y-74225000D02*
X94700000Y-74225000D01*
X94600000Y-73675000D02*
X95600000Y-73675000D01*
X95600000Y-72325000D02*
X94600000Y-72325000D01*
X103300000Y-79075000D02*
X104300000Y-79075000D01*
X104300000Y-77725000D02*
X103300000Y-77725000D01*
X122025000Y-77475000D02*
X122025000Y-76900000D01*
X132375000Y-77475000D02*
X132375000Y-76800000D01*
X132375000Y-67125000D02*
X132375000Y-67800000D01*
X122025000Y-67125000D02*
X122025000Y-67800000D01*
X122025000Y-77475000D02*
X122700000Y-77475000D01*
X122025000Y-67125000D02*
X122700000Y-67125000D01*
X132375000Y-67125000D02*
X131700000Y-67125000D01*
X132375000Y-77475000D02*
X131700000Y-77475000D01*
X122025000Y-76900000D02*
X120750000Y-76900000D01*
X115075000Y-90025000D02*
X115075000Y-89975000D01*
X119225000Y-90025000D02*
X119225000Y-89880000D01*
X119225000Y-84875000D02*
X119225000Y-85020000D01*
X115075000Y-84875000D02*
X115075000Y-85020000D01*
X115075000Y-90025000D02*
X119225000Y-90025000D01*
X115075000Y-84875000D02*
X119225000Y-84875000D01*
X115075000Y-89975000D02*
X113675000Y-89975000D01*
X125719496Y-56841946D02*
X125719496Y-60041946D01*
X125719496Y-60041946D02*
X128319496Y-60041946D01*
X128319496Y-60041946D02*
X128319496Y-56841946D01*
X128319496Y-56841946D02*
X125719496Y-56841946D01*
X116320000Y-81980000D02*
X117020000Y-81980000D01*
X117020000Y-80780000D02*
X116320000Y-80780000D01*
X103850000Y-71000000D02*
X104550000Y-71000000D01*
X104550000Y-69800000D02*
X103850000Y-69800000D01*
X135880000Y-77210000D02*
X135180000Y-77210000D01*
X135180000Y-78410000D02*
X135880000Y-78410000D01*
X101725000Y-76775000D02*
X101725000Y-76725000D01*
X105875000Y-76775000D02*
X105875000Y-76630000D01*
X105875000Y-71625000D02*
X105875000Y-71770000D01*
X101725000Y-71625000D02*
X101725000Y-71770000D01*
X101725000Y-76775000D02*
X105875000Y-76775000D01*
X101725000Y-71625000D02*
X105875000Y-71625000D01*
X101725000Y-76725000D02*
X100325000Y-76725000D01*
X122425000Y-86500000D02*
X122425000Y-87500000D01*
X123775000Y-87500000D02*
X123775000Y-86500000D01*
X111975000Y-80400000D02*
X111975000Y-79400000D01*
X110625000Y-79400000D02*
X110625000Y-80400000D01*
X109300000Y-77375000D02*
X110300000Y-77375000D01*
X110300000Y-76025000D02*
X109300000Y-76025000D01*
X111300000Y-84350000D02*
X111300000Y-83650000D01*
X110100000Y-83650000D02*
X110100000Y-84350000D01*
D12*
X71020000Y-80900000D02*
X71020000Y-79970000D01*
X71020000Y-77740000D02*
X71020000Y-78670000D01*
X71020000Y-77740000D02*
X74180000Y-77740000D01*
X71020000Y-80900000D02*
X72480000Y-80900000D01*
X71090000Y-76820000D02*
X71090000Y-75890000D01*
X71090000Y-73660000D02*
X71090000Y-74590000D01*
X71090000Y-73660000D02*
X74250000Y-73660000D01*
X71090000Y-76820000D02*
X72550000Y-76820000D01*
X77830000Y-73240000D02*
X77830000Y-72310000D01*
X77830000Y-70080000D02*
X77830000Y-71010000D01*
X77830000Y-70080000D02*
X80990000Y-70080000D01*
X77830000Y-73240000D02*
X79290000Y-73240000D01*
D11*
X65460000Y-75955000D02*
X66460000Y-75955000D01*
X66460000Y-74605000D02*
X65460000Y-74605000D01*
X84545000Y-74330000D02*
X84545000Y-73330000D01*
X83195000Y-73330000D02*
X83195000Y-74330000D01*
D12*
X78450000Y-74490000D02*
X80250000Y-74490000D01*
X80250000Y-77710000D02*
X77300000Y-77710000D01*
D11*
X124240000Y-89655000D02*
X123240000Y-89655000D01*
X123240000Y-91005000D02*
X124240000Y-91005000D01*
X113000000Y-72510000D02*
X112300000Y-72510000D01*
X112300000Y-73710000D02*
X113000000Y-73710000D01*
X74330000Y-66930000D02*
X74330000Y-66230000D01*
X73130000Y-66230000D02*
X73130000Y-66930000D01*
X91110000Y-71335000D02*
X86710000Y-71335000D01*
X92685000Y-65810000D02*
X86710000Y-65810000D01*
X81590000Y-67360000D02*
X82290000Y-67360000D01*
X82290000Y-66160000D02*
X81590000Y-66160000D01*
X119766666Y-81757143D02*
X119814285Y-81804762D01*
X119957142Y-81852381D01*
X120052380Y-81852381D01*
X120195238Y-81804762D01*
X120290476Y-81709524D01*
X120338095Y-81614286D01*
X120385714Y-81423810D01*
X120385714Y-81280952D01*
X120338095Y-81090476D01*
X120290476Y-80995238D01*
X120195238Y-80900000D01*
X120052380Y-80852381D01*
X119957142Y-80852381D01*
X119814285Y-80900000D01*
X119766666Y-80947619D01*
X118909523Y-80852381D02*
X119100000Y-80852381D01*
X119195238Y-80900000D01*
X119242857Y-80947619D01*
X119338095Y-81090476D01*
X119385714Y-81280952D01*
X119385714Y-81661905D01*
X119338095Y-81757143D01*
X119290476Y-81804762D01*
X119195238Y-81852381D01*
X119004761Y-81852381D01*
X118909523Y-81804762D01*
X118861904Y-81757143D01*
X118814285Y-81661905D01*
X118814285Y-81423810D01*
X118861904Y-81328571D01*
X118909523Y-81280952D01*
X119004761Y-81233333D01*
X119195238Y-81233333D01*
X119290476Y-81280952D01*
X119338095Y-81328571D01*
X119385714Y-81423810D01*
X66642857Y-79842381D02*
X66976191Y-79366190D01*
X67214286Y-79842381D02*
X67214286Y-78842381D01*
X66833333Y-78842381D01*
X66738095Y-78890000D01*
X66690476Y-78937619D01*
X66642857Y-79032857D01*
X66642857Y-79175714D01*
X66690476Y-79270952D01*
X66738095Y-79318571D01*
X66833333Y-79366190D01*
X67214286Y-79366190D01*
X65690476Y-79842381D02*
X66261905Y-79842381D01*
X65976191Y-79842381D02*
X65976191Y-78842381D01*
X66071429Y-78985238D01*
X66166667Y-79080476D01*
X66261905Y-79128095D01*
X65119048Y-79270952D02*
X65214286Y-79223333D01*
X65261905Y-79175714D01*
X65309524Y-79080476D01*
X65309524Y-79032857D01*
X65261905Y-78937619D01*
X65214286Y-78890000D01*
X65119048Y-78842381D01*
X64928571Y-78842381D01*
X64833333Y-78890000D01*
X64785714Y-78937619D01*
X64738095Y-79032857D01*
X64738095Y-79080476D01*
X64785714Y-79175714D01*
X64833333Y-79223333D01*
X64928571Y-79270952D01*
X65119048Y-79270952D01*
X65214286Y-79318571D01*
X65261905Y-79366190D01*
X65309524Y-79461429D01*
X65309524Y-79651905D01*
X65261905Y-79747143D01*
X65214286Y-79794762D01*
X65119048Y-79842381D01*
X64928571Y-79842381D01*
X64833333Y-79794762D01*
X64785714Y-79747143D01*
X64738095Y-79651905D01*
X64738095Y-79461429D01*
X64785714Y-79366190D01*
X64833333Y-79318571D01*
X64928571Y-79270952D01*
X66842857Y-70642381D02*
X67176191Y-70166190D01*
X67414286Y-70642381D02*
X67414286Y-69642381D01*
X67033333Y-69642381D01*
X66938095Y-69690000D01*
X66890476Y-69737619D01*
X66842857Y-69832857D01*
X66842857Y-69975714D01*
X66890476Y-70070952D01*
X66938095Y-70118571D01*
X67033333Y-70166190D01*
X67414286Y-70166190D01*
X65890476Y-70642381D02*
X66461905Y-70642381D01*
X66176191Y-70642381D02*
X66176191Y-69642381D01*
X66271429Y-69785238D01*
X66366667Y-69880476D01*
X66461905Y-69928095D01*
X65557143Y-69642381D02*
X64890476Y-69642381D01*
X65319048Y-70642381D01*
X126986162Y-54099089D02*
X127033781Y-54146708D01*
X127176638Y-54194327D01*
X127271876Y-54194327D01*
X127414734Y-54146708D01*
X127509972Y-54051470D01*
X127557591Y-53956232D01*
X127605210Y-53765756D01*
X127605210Y-53622898D01*
X127557591Y-53432422D01*
X127509972Y-53337184D01*
X127414734Y-53241946D01*
X127271876Y-53194327D01*
X127176638Y-53194327D01*
X127033781Y-53241946D01*
X126986162Y-53289565D01*
X126033781Y-54194327D02*
X126605210Y-54194327D01*
X126319496Y-54194327D02*
X126319496Y-53194327D01*
X126414734Y-53337184D01*
X126509972Y-53432422D01*
X126605210Y-53480041D01*
X112457143Y-89923334D02*
X112504762Y-89875715D01*
X112552381Y-89732858D01*
X112552381Y-89637620D01*
X112504762Y-89494762D01*
X112409524Y-89399524D01*
X112314286Y-89351905D01*
X112123810Y-89304286D01*
X111980952Y-89304286D01*
X111790476Y-89351905D01*
X111695238Y-89399524D01*
X111600000Y-89494762D01*
X111552381Y-89637620D01*
X111552381Y-89732858D01*
X111600000Y-89875715D01*
X111647619Y-89923334D01*
X111647619Y-90304286D02*
X111600000Y-90351905D01*
X111552381Y-90447143D01*
X111552381Y-90685239D01*
X111600000Y-90780477D01*
X111647619Y-90828096D01*
X111742857Y-90875715D01*
X111838095Y-90875715D01*
X111980952Y-90828096D01*
X112552381Y-90256667D01*
X112552381Y-90875715D01*
X110757143Y-91023334D02*
X110804762Y-90975715D01*
X110852381Y-90832858D01*
X110852381Y-90737620D01*
X110804762Y-90594762D01*
X110709524Y-90499524D01*
X110614286Y-90451905D01*
X110423810Y-90404286D01*
X110280952Y-90404286D01*
X110090476Y-90451905D01*
X109995238Y-90499524D01*
X109900000Y-90594762D01*
X109852381Y-90737620D01*
X109852381Y-90832858D01*
X109900000Y-90975715D01*
X109947619Y-91023334D01*
X109852381Y-91356667D02*
X109852381Y-91975715D01*
X110233333Y-91642381D01*
X110233333Y-91785239D01*
X110280952Y-91880477D01*
X110328571Y-91928096D01*
X110423810Y-91975715D01*
X110661905Y-91975715D01*
X110757143Y-91928096D01*
X110804762Y-91880477D01*
X110852381Y-91785239D01*
X110852381Y-91499524D01*
X110804762Y-91404286D01*
X110757143Y-91356667D01*
X98166666Y-71547143D02*
X98214285Y-71594762D01*
X98357142Y-71642381D01*
X98452380Y-71642381D01*
X98595238Y-71594762D01*
X98690476Y-71499524D01*
X98738095Y-71404286D01*
X98785714Y-71213810D01*
X98785714Y-71070952D01*
X98738095Y-70880476D01*
X98690476Y-70785238D01*
X98595238Y-70690000D01*
X98452380Y-70642381D01*
X98357142Y-70642381D01*
X98214285Y-70690000D01*
X98166666Y-70737619D01*
X97309523Y-70975714D02*
X97309523Y-71642381D01*
X97547619Y-70594762D02*
X97785714Y-71309048D01*
X97166666Y-71309048D01*
X123366666Y-55747143D02*
X123414285Y-55794762D01*
X123557142Y-55842381D01*
X123652380Y-55842381D01*
X123795238Y-55794762D01*
X123890476Y-55699524D01*
X123938095Y-55604286D01*
X123985714Y-55413810D01*
X123985714Y-55270952D01*
X123938095Y-55080476D01*
X123890476Y-54985238D01*
X123795238Y-54890000D01*
X123652380Y-54842381D01*
X123557142Y-54842381D01*
X123414285Y-54890000D01*
X123366666Y-54937619D01*
X122461904Y-54842381D02*
X122938095Y-54842381D01*
X122985714Y-55318571D01*
X122938095Y-55270952D01*
X122842857Y-55223333D01*
X122604761Y-55223333D01*
X122509523Y-55270952D01*
X122461904Y-55318571D01*
X122414285Y-55413810D01*
X122414285Y-55651905D01*
X122461904Y-55747143D01*
X122509523Y-55794762D01*
X122604761Y-55842381D01*
X122842857Y-55842381D01*
X122938095Y-55794762D01*
X122985714Y-55747143D01*
X113866666Y-72557143D02*
X113914285Y-72604762D01*
X114057142Y-72652381D01*
X114152380Y-72652381D01*
X114295238Y-72604762D01*
X114390476Y-72509524D01*
X114438095Y-72414286D01*
X114485714Y-72223810D01*
X114485714Y-72080952D01*
X114438095Y-71890476D01*
X114390476Y-71795238D01*
X114295238Y-71700000D01*
X114152380Y-71652381D01*
X114057142Y-71652381D01*
X113914285Y-71700000D01*
X113866666Y-71747619D01*
X113533333Y-71652381D02*
X112866666Y-71652381D01*
X113295238Y-72652381D01*
X71766666Y-63747143D02*
X71814285Y-63794762D01*
X71957142Y-63842381D01*
X72052380Y-63842381D01*
X72195238Y-63794762D01*
X72290476Y-63699524D01*
X72338095Y-63604286D01*
X72385714Y-63413810D01*
X72385714Y-63270952D01*
X72338095Y-63080476D01*
X72290476Y-62985238D01*
X72195238Y-62890000D01*
X72052380Y-62842381D01*
X71957142Y-62842381D01*
X71814285Y-62890000D01*
X71766666Y-62937619D01*
X71290476Y-63842381D02*
X71100000Y-63842381D01*
X71004761Y-63794762D01*
X70957142Y-63747143D01*
X70861904Y-63604286D01*
X70814285Y-63413810D01*
X70814285Y-63032857D01*
X70861904Y-62937619D01*
X70909523Y-62890000D01*
X71004761Y-62842381D01*
X71195238Y-62842381D01*
X71290476Y-62890000D01*
X71338095Y-62937619D01*
X71385714Y-63032857D01*
X71385714Y-63270952D01*
X71338095Y-63366190D01*
X71290476Y-63413810D01*
X71195238Y-63461429D01*
X71004761Y-63461429D01*
X70909523Y-63413810D01*
X70861904Y-63366190D01*
X70814285Y-63270952D01*
X141138095Y-82452381D02*
X141138095Y-81452381D01*
X140900000Y-81452381D01*
X140757142Y-81500000D01*
X140661904Y-81595238D01*
X140614285Y-81690476D01*
X140566666Y-81880952D01*
X140566666Y-82023810D01*
X140614285Y-82214286D01*
X140661904Y-82309524D01*
X140757142Y-82404762D01*
X140900000Y-82452381D01*
X141138095Y-82452381D01*
X139614285Y-82452381D02*
X140185714Y-82452381D01*
X139900000Y-82452381D02*
X139900000Y-81452381D01*
X139995238Y-81595238D01*
X140090476Y-81690476D01*
X140185714Y-81738095D01*
X141338095Y-70452381D02*
X141338095Y-69452381D01*
X141100000Y-69452381D01*
X140957142Y-69500000D01*
X140861904Y-69595238D01*
X140814285Y-69690476D01*
X140766666Y-69880952D01*
X140766666Y-70023810D01*
X140814285Y-70214286D01*
X140861904Y-70309524D01*
X140957142Y-70404762D01*
X141100000Y-70452381D01*
X141338095Y-70452381D01*
X140385714Y-69547619D02*
X140338095Y-69500000D01*
X140242857Y-69452381D01*
X140004761Y-69452381D01*
X139909523Y-69500000D01*
X139861904Y-69547619D01*
X139814285Y-69642857D01*
X139814285Y-69738095D01*
X139861904Y-69880952D01*
X140433333Y-70452381D01*
X139814285Y-70452381D01*
X141185862Y-63452381D02*
X141185862Y-62452381D01*
X140947767Y-62452381D01*
X140804909Y-62500000D01*
X140709671Y-62595238D01*
X140662052Y-62690476D01*
X140614433Y-62880952D01*
X140614433Y-63023810D01*
X140662052Y-63214286D01*
X140709671Y-63309524D01*
X140804909Y-63404762D01*
X140947767Y-63452381D01*
X141185862Y-63452381D01*
X140281100Y-62452381D02*
X139662052Y-62452381D01*
X139995386Y-62833333D01*
X139852528Y-62833333D01*
X139757290Y-62880952D01*
X139709671Y-62928571D01*
X139662052Y-63023810D01*
X139662052Y-63261905D01*
X139709671Y-63357143D01*
X139757290Y-63404762D01*
X139852528Y-63452381D01*
X140138243Y-63452381D01*
X140233481Y-63404762D01*
X140281100Y-63357143D01*
X141285862Y-55852381D02*
X141285862Y-54852381D01*
X141047767Y-54852381D01*
X140904909Y-54900000D01*
X140809671Y-54995238D01*
X140762052Y-55090476D01*
X140714433Y-55280952D01*
X140714433Y-55423810D01*
X140762052Y-55614286D01*
X140809671Y-55709524D01*
X140904909Y-55804762D01*
X141047767Y-55852381D01*
X141285862Y-55852381D01*
X139857290Y-55185714D02*
X139857290Y-55852381D01*
X140095386Y-54804762D02*
X140333481Y-55519048D01*
X139714433Y-55519048D01*
X114252381Y-70423334D02*
X113776190Y-70090000D01*
X114252381Y-69851905D02*
X113252381Y-69851905D01*
X113252381Y-70232858D01*
X113300000Y-70328096D01*
X113347619Y-70375715D01*
X113442857Y-70423334D01*
X113585714Y-70423334D01*
X113680952Y-70375715D01*
X113728571Y-70328096D01*
X113776190Y-70232858D01*
X113776190Y-69851905D01*
X114252381Y-71375715D02*
X114252381Y-70804286D01*
X114252381Y-71090000D02*
X113252381Y-71090000D01*
X113395238Y-70994762D01*
X113490476Y-70899524D01*
X113538095Y-70804286D01*
X138614433Y-83538416D02*
X138947767Y-83062225D01*
X139185862Y-83538416D02*
X139185862Y-82538416D01*
X138804909Y-82538416D01*
X138709671Y-82586035D01*
X138662052Y-82633654D01*
X138614433Y-82728892D01*
X138614433Y-82871749D01*
X138662052Y-82966987D01*
X138709671Y-83014606D01*
X138804909Y-83062225D01*
X139185862Y-83062225D01*
X138233481Y-82633654D02*
X138185862Y-82586035D01*
X138090624Y-82538416D01*
X137852528Y-82538416D01*
X137757290Y-82586035D01*
X137709671Y-82633654D01*
X137662052Y-82728892D01*
X137662052Y-82824130D01*
X137709671Y-82966987D01*
X138281100Y-83538416D01*
X137662052Y-83538416D01*
X138614433Y-70138416D02*
X138947767Y-69662225D01*
X139185862Y-70138416D02*
X139185862Y-69138416D01*
X138804909Y-69138416D01*
X138709671Y-69186035D01*
X138662052Y-69233654D01*
X138614433Y-69328892D01*
X138614433Y-69471749D01*
X138662052Y-69566987D01*
X138709671Y-69614606D01*
X138804909Y-69662225D01*
X139185862Y-69662225D01*
X138281100Y-69138416D02*
X137662052Y-69138416D01*
X137995386Y-69519368D01*
X137852528Y-69519368D01*
X137757290Y-69566987D01*
X137709671Y-69614606D01*
X137662052Y-69709845D01*
X137662052Y-69947940D01*
X137709671Y-70043178D01*
X137757290Y-70090797D01*
X137852528Y-70138416D01*
X138138243Y-70138416D01*
X138233481Y-70090797D01*
X138281100Y-70043178D01*
X138614433Y-62938416D02*
X138947767Y-62462225D01*
X139185862Y-62938416D02*
X139185862Y-61938416D01*
X138804909Y-61938416D01*
X138709671Y-61986035D01*
X138662052Y-62033654D01*
X138614433Y-62128892D01*
X138614433Y-62271749D01*
X138662052Y-62366987D01*
X138709671Y-62414606D01*
X138804909Y-62462225D01*
X139185862Y-62462225D01*
X137757290Y-62271749D02*
X137757290Y-62938416D01*
X137995386Y-61890797D02*
X138233481Y-62605083D01*
X137614433Y-62605083D01*
X138766666Y-54938416D02*
X139100000Y-54462225D01*
X139338095Y-54938416D02*
X139338095Y-53938416D01*
X138957142Y-53938416D01*
X138861904Y-53986035D01*
X138814285Y-54033654D01*
X138766666Y-54128892D01*
X138766666Y-54271749D01*
X138814285Y-54366987D01*
X138861904Y-54414606D01*
X138957142Y-54462225D01*
X139338095Y-54462225D01*
X137861904Y-53938416D02*
X138338095Y-53938416D01*
X138385714Y-54414606D01*
X138338095Y-54366987D01*
X138242857Y-54319368D01*
X138004761Y-54319368D01*
X137909523Y-54366987D01*
X137861904Y-54414606D01*
X137814285Y-54509845D01*
X137814285Y-54747940D01*
X137861904Y-54843178D01*
X137909523Y-54890797D01*
X138004761Y-54938416D01*
X138242857Y-54938416D01*
X138338095Y-54890797D01*
X138385714Y-54843178D01*
X142296666Y-74932381D02*
X142630000Y-74456190D01*
X142868095Y-74932381D02*
X142868095Y-73932381D01*
X142487142Y-73932381D01*
X142391904Y-73980000D01*
X142344285Y-74027619D01*
X142296666Y-74122857D01*
X142296666Y-74265714D01*
X142344285Y-74360952D01*
X142391904Y-74408571D01*
X142487142Y-74456190D01*
X142868095Y-74456190D01*
X141439523Y-73932381D02*
X141630000Y-73932381D01*
X141725238Y-73980000D01*
X141772857Y-74027619D01*
X141868095Y-74170476D01*
X141915714Y-74360952D01*
X141915714Y-74741905D01*
X141868095Y-74837143D01*
X141820476Y-74884762D01*
X141725238Y-74932381D01*
X141534761Y-74932381D01*
X141439523Y-74884762D01*
X141391904Y-74837143D01*
X141344285Y-74741905D01*
X141344285Y-74503810D01*
X141391904Y-74408571D01*
X141439523Y-74360952D01*
X141534761Y-74313333D01*
X141725238Y-74313333D01*
X141820476Y-74360952D01*
X141868095Y-74408571D01*
X141915714Y-74503810D01*
X108366666Y-68952381D02*
X108700000Y-68476190D01*
X108938095Y-68952381D02*
X108938095Y-67952381D01*
X108557142Y-67952381D01*
X108461904Y-68000000D01*
X108414285Y-68047619D01*
X108366666Y-68142857D01*
X108366666Y-68285714D01*
X108414285Y-68380952D01*
X108461904Y-68428571D01*
X108557142Y-68476190D01*
X108938095Y-68476190D01*
X108033333Y-67952381D02*
X107366666Y-67952381D01*
X107795238Y-68952381D01*
X105966666Y-68652381D02*
X106300000Y-68176190D01*
X106538095Y-68652381D02*
X106538095Y-67652381D01*
X106157142Y-67652381D01*
X106061904Y-67700000D01*
X106014285Y-67747619D01*
X105966666Y-67842857D01*
X105966666Y-67985714D01*
X106014285Y-68080952D01*
X106061904Y-68128571D01*
X106157142Y-68176190D01*
X106538095Y-68176190D01*
X105395238Y-68080952D02*
X105490476Y-68033333D01*
X105538095Y-67985714D01*
X105585714Y-67890476D01*
X105585714Y-67842857D01*
X105538095Y-67747619D01*
X105490476Y-67700000D01*
X105395238Y-67652381D01*
X105204761Y-67652381D01*
X105109523Y-67700000D01*
X105061904Y-67747619D01*
X105014285Y-67842857D01*
X105014285Y-67890476D01*
X105061904Y-67985714D01*
X105109523Y-68033333D01*
X105204761Y-68080952D01*
X105395238Y-68080952D01*
X105490476Y-68128571D01*
X105538095Y-68176190D01*
X105585714Y-68271429D01*
X105585714Y-68461905D01*
X105538095Y-68557143D01*
X105490476Y-68604762D01*
X105395238Y-68652381D01*
X105204761Y-68652381D01*
X105109523Y-68604762D01*
X105061904Y-68557143D01*
X105014285Y-68461905D01*
X105014285Y-68271429D01*
X105061904Y-68176190D01*
X105109523Y-68128571D01*
X105204761Y-68080952D01*
X113682857Y-58792381D02*
X114016191Y-58316190D01*
X114254286Y-58792381D02*
X114254286Y-57792381D01*
X113873333Y-57792381D01*
X113778095Y-57840000D01*
X113730476Y-57887619D01*
X113682857Y-57982857D01*
X113682857Y-58125714D01*
X113730476Y-58220952D01*
X113778095Y-58268571D01*
X113873333Y-58316190D01*
X114254286Y-58316190D01*
X112730476Y-58792381D02*
X113301905Y-58792381D01*
X113016191Y-58792381D02*
X113016191Y-57792381D01*
X113111429Y-57935238D01*
X113206667Y-58030476D01*
X113301905Y-58078095D01*
X112111429Y-57792381D02*
X112016190Y-57792381D01*
X111920952Y-57840000D01*
X111873333Y-57887619D01*
X111825714Y-57982857D01*
X111778095Y-58173333D01*
X111778095Y-58411429D01*
X111825714Y-58601905D01*
X111873333Y-58697143D01*
X111920952Y-58744762D01*
X112016190Y-58792381D01*
X112111429Y-58792381D01*
X112206667Y-58744762D01*
X112254286Y-58697143D01*
X112301905Y-58601905D01*
X112349524Y-58411429D01*
X112349524Y-58173333D01*
X112301905Y-57982857D01*
X112254286Y-57887619D01*
X112206667Y-57840000D01*
X112111429Y-57792381D01*
X104642857Y-85142381D02*
X104976191Y-84666190D01*
X105214286Y-85142381D02*
X105214286Y-84142381D01*
X104833333Y-84142381D01*
X104738095Y-84190000D01*
X104690476Y-84237619D01*
X104642857Y-84332857D01*
X104642857Y-84475714D01*
X104690476Y-84570952D01*
X104738095Y-84618571D01*
X104833333Y-84666190D01*
X105214286Y-84666190D01*
X103690476Y-85142381D02*
X104261905Y-85142381D01*
X103976191Y-85142381D02*
X103976191Y-84142381D01*
X104071429Y-84285238D01*
X104166667Y-84380476D01*
X104261905Y-84428095D01*
X102738095Y-85142381D02*
X103309524Y-85142381D01*
X103023810Y-85142381D02*
X103023810Y-84142381D01*
X103119048Y-84285238D01*
X103214286Y-84380476D01*
X103309524Y-84428095D01*
X104842857Y-83442381D02*
X105176191Y-82966190D01*
X105414286Y-83442381D02*
X105414286Y-82442381D01*
X105033333Y-82442381D01*
X104938095Y-82490000D01*
X104890476Y-82537619D01*
X104842857Y-82632857D01*
X104842857Y-82775714D01*
X104890476Y-82870952D01*
X104938095Y-82918571D01*
X105033333Y-82966190D01*
X105414286Y-82966190D01*
X103890476Y-83442381D02*
X104461905Y-83442381D01*
X104176191Y-83442381D02*
X104176191Y-82442381D01*
X104271429Y-82585238D01*
X104366667Y-82680476D01*
X104461905Y-82728095D01*
X103509524Y-82537619D02*
X103461905Y-82490000D01*
X103366667Y-82442381D01*
X103128571Y-82442381D01*
X103033333Y-82490000D01*
X102985714Y-82537619D01*
X102938095Y-82632857D01*
X102938095Y-82728095D01*
X102985714Y-82870952D01*
X103557143Y-83442381D01*
X102938095Y-83442381D01*
X104242857Y-90452381D02*
X104576191Y-89976190D01*
X104814286Y-90452381D02*
X104814286Y-89452381D01*
X104433333Y-89452381D01*
X104338095Y-89500000D01*
X104290476Y-89547619D01*
X104242857Y-89642857D01*
X104242857Y-89785714D01*
X104290476Y-89880952D01*
X104338095Y-89928571D01*
X104433333Y-89976190D01*
X104814286Y-89976190D01*
X103290476Y-90452381D02*
X103861905Y-90452381D01*
X103576191Y-90452381D02*
X103576191Y-89452381D01*
X103671429Y-89595238D01*
X103766667Y-89690476D01*
X103861905Y-89738095D01*
X102957143Y-89452381D02*
X102338095Y-89452381D01*
X102671429Y-89833333D01*
X102528571Y-89833333D01*
X102433333Y-89880952D01*
X102385714Y-89928571D01*
X102338095Y-90023810D01*
X102338095Y-90261905D01*
X102385714Y-90357143D01*
X102433333Y-90404762D01*
X102528571Y-90452381D01*
X102814286Y-90452381D01*
X102909524Y-90404762D01*
X102957143Y-90357143D01*
X108242857Y-91452381D02*
X108576191Y-90976190D01*
X108814286Y-91452381D02*
X108814286Y-90452381D01*
X108433333Y-90452381D01*
X108338095Y-90500000D01*
X108290476Y-90547619D01*
X108242857Y-90642857D01*
X108242857Y-90785714D01*
X108290476Y-90880952D01*
X108338095Y-90928571D01*
X108433333Y-90976190D01*
X108814286Y-90976190D01*
X107290476Y-91452381D02*
X107861905Y-91452381D01*
X107576191Y-91452381D02*
X107576191Y-90452381D01*
X107671429Y-90595238D01*
X107766667Y-90690476D01*
X107861905Y-90738095D01*
X106433333Y-90785714D02*
X106433333Y-91452381D01*
X106671429Y-90404762D02*
X106909524Y-91119048D01*
X106290476Y-91119048D01*
X92142857Y-75452381D02*
X92476191Y-74976190D01*
X92714286Y-75452381D02*
X92714286Y-74452381D01*
X92333333Y-74452381D01*
X92238095Y-74500000D01*
X92190476Y-74547619D01*
X92142857Y-74642857D01*
X92142857Y-74785714D01*
X92190476Y-74880952D01*
X92238095Y-74928571D01*
X92333333Y-74976190D01*
X92714286Y-74976190D01*
X91190476Y-75452381D02*
X91761905Y-75452381D01*
X91476191Y-75452381D02*
X91476191Y-74452381D01*
X91571429Y-74595238D01*
X91666667Y-74690476D01*
X91761905Y-74738095D01*
X90285714Y-74452381D02*
X90761905Y-74452381D01*
X90809524Y-74928571D01*
X90761905Y-74880952D01*
X90666667Y-74833333D01*
X90428571Y-74833333D01*
X90333333Y-74880952D01*
X90285714Y-74928571D01*
X90238095Y-75023810D01*
X90238095Y-75261905D01*
X90285714Y-75357143D01*
X90333333Y-75404762D01*
X90428571Y-75452381D01*
X90666667Y-75452381D01*
X90761905Y-75404762D01*
X90809524Y-75357143D01*
X92142857Y-73452381D02*
X92476191Y-72976190D01*
X92714286Y-73452381D02*
X92714286Y-72452381D01*
X92333333Y-72452381D01*
X92238095Y-72500000D01*
X92190476Y-72547619D01*
X92142857Y-72642857D01*
X92142857Y-72785714D01*
X92190476Y-72880952D01*
X92238095Y-72928571D01*
X92333333Y-72976190D01*
X92714286Y-72976190D01*
X91190476Y-73452381D02*
X91761905Y-73452381D01*
X91476191Y-73452381D02*
X91476191Y-72452381D01*
X91571429Y-72595238D01*
X91666667Y-72690476D01*
X91761905Y-72738095D01*
X90333333Y-72452381D02*
X90523810Y-72452381D01*
X90619048Y-72500000D01*
X90666667Y-72547619D01*
X90761905Y-72690476D01*
X90809524Y-72880952D01*
X90809524Y-73261905D01*
X90761905Y-73357143D01*
X90714286Y-73404762D01*
X90619048Y-73452381D01*
X90428571Y-73452381D01*
X90333333Y-73404762D01*
X90285714Y-73357143D01*
X90238095Y-73261905D01*
X90238095Y-73023810D01*
X90285714Y-72928571D01*
X90333333Y-72880952D01*
X90428571Y-72833333D01*
X90619048Y-72833333D01*
X90714286Y-72880952D01*
X90761905Y-72928571D01*
X90809524Y-73023810D01*
X104442857Y-80552381D02*
X104776191Y-80076190D01*
X105014286Y-80552381D02*
X105014286Y-79552381D01*
X104633333Y-79552381D01*
X104538095Y-79600000D01*
X104490476Y-79647619D01*
X104442857Y-79742857D01*
X104442857Y-79885714D01*
X104490476Y-79980952D01*
X104538095Y-80028571D01*
X104633333Y-80076190D01*
X105014286Y-80076190D01*
X103490476Y-80552381D02*
X104061905Y-80552381D01*
X103776191Y-80552381D02*
X103776191Y-79552381D01*
X103871429Y-79695238D01*
X103966667Y-79790476D01*
X104061905Y-79838095D01*
X103014286Y-80552381D02*
X102823810Y-80552381D01*
X102728571Y-80504762D01*
X102680952Y-80457143D01*
X102585714Y-80314286D01*
X102538095Y-80123810D01*
X102538095Y-79742857D01*
X102585714Y-79647619D01*
X102633333Y-79600000D01*
X102728571Y-79552381D01*
X102919048Y-79552381D01*
X103014286Y-79600000D01*
X103061905Y-79647619D01*
X103109524Y-79742857D01*
X103109524Y-79980952D01*
X103061905Y-80076190D01*
X103014286Y-80123810D01*
X102919048Y-80171429D01*
X102728571Y-80171429D01*
X102633333Y-80123810D01*
X102585714Y-80076190D01*
X102538095Y-79980952D01*
X127961905Y-79202381D02*
X127961905Y-80011905D01*
X127914286Y-80107143D01*
X127866667Y-80154762D01*
X127771429Y-80202381D01*
X127580952Y-80202381D01*
X127485714Y-80154762D01*
X127438095Y-80107143D01*
X127390476Y-80011905D01*
X127390476Y-79202381D01*
X126390476Y-80202381D02*
X126961905Y-80202381D01*
X126676191Y-80202381D02*
X126676191Y-79202381D01*
X126771429Y-79345238D01*
X126866667Y-79440476D01*
X126961905Y-79488095D01*
X117911905Y-90402381D02*
X117911905Y-91211905D01*
X117864286Y-91307143D01*
X117816667Y-91354762D01*
X117721429Y-91402381D01*
X117530952Y-91402381D01*
X117435714Y-91354762D01*
X117388095Y-91307143D01*
X117340476Y-91211905D01*
X117340476Y-90402381D01*
X116911905Y-90497619D02*
X116864286Y-90450000D01*
X116769048Y-90402381D01*
X116530952Y-90402381D01*
X116435714Y-90450000D01*
X116388095Y-90497619D01*
X116340476Y-90592857D01*
X116340476Y-90688095D01*
X116388095Y-90830952D01*
X116959524Y-91402381D01*
X116340476Y-91402381D01*
X127495687Y-61318136D02*
X127495687Y-61794327D01*
X127829020Y-60794327D02*
X127495687Y-61318136D01*
X127162353Y-60794327D01*
X126305210Y-61794327D02*
X126876639Y-61794327D01*
X126590925Y-61794327D02*
X126590925Y-60794327D01*
X126686163Y-60937184D01*
X126781401Y-61032422D01*
X126876639Y-61080041D01*
X119642857Y-83557143D02*
X119690476Y-83604762D01*
X119833333Y-83652381D01*
X119928571Y-83652381D01*
X120071429Y-83604762D01*
X120166667Y-83509524D01*
X120214286Y-83414286D01*
X120261905Y-83223810D01*
X120261905Y-83080952D01*
X120214286Y-82890476D01*
X120166667Y-82795238D01*
X120071429Y-82700000D01*
X119928571Y-82652381D01*
X119833333Y-82652381D01*
X119690476Y-82700000D01*
X119642857Y-82747619D01*
X118690476Y-83652381D02*
X119261905Y-83652381D01*
X118976191Y-83652381D02*
X118976191Y-82652381D01*
X119071429Y-82795238D01*
X119166667Y-82890476D01*
X119261905Y-82938095D01*
X118071429Y-82652381D02*
X117976190Y-82652381D01*
X117880952Y-82700000D01*
X117833333Y-82747619D01*
X117785714Y-82842857D01*
X117738095Y-83033333D01*
X117738095Y-83271429D01*
X117785714Y-83461905D01*
X117833333Y-83557143D01*
X117880952Y-83604762D01*
X117976190Y-83652381D01*
X118071429Y-83652381D01*
X118166667Y-83604762D01*
X118214286Y-83557143D01*
X118261905Y-83461905D01*
X118309524Y-83271429D01*
X118309524Y-83033333D01*
X118261905Y-82842857D01*
X118214286Y-82747619D01*
X118166667Y-82700000D01*
X118071429Y-82652381D01*
X100842857Y-70747143D02*
X100890476Y-70794762D01*
X101033333Y-70842381D01*
X101128571Y-70842381D01*
X101271429Y-70794762D01*
X101366667Y-70699524D01*
X101414286Y-70604286D01*
X101461905Y-70413810D01*
X101461905Y-70270952D01*
X101414286Y-70080476D01*
X101366667Y-69985238D01*
X101271429Y-69890000D01*
X101128571Y-69842381D01*
X101033333Y-69842381D01*
X100890476Y-69890000D01*
X100842857Y-69937619D01*
X99890476Y-70842381D02*
X100461905Y-70842381D01*
X100176191Y-70842381D02*
X100176191Y-69842381D01*
X100271429Y-69985238D01*
X100366667Y-70080476D01*
X100461905Y-70128095D01*
X98938095Y-70842381D02*
X99509524Y-70842381D01*
X99223810Y-70842381D02*
X99223810Y-69842381D01*
X99319048Y-69985238D01*
X99414286Y-70080476D01*
X99509524Y-70128095D01*
X136142857Y-79947143D02*
X136190476Y-79994762D01*
X136333333Y-80042381D01*
X136428571Y-80042381D01*
X136571429Y-79994762D01*
X136666667Y-79899524D01*
X136714286Y-79804286D01*
X136761905Y-79613810D01*
X136761905Y-79470952D01*
X136714286Y-79280476D01*
X136666667Y-79185238D01*
X136571429Y-79090000D01*
X136428571Y-79042381D01*
X136333333Y-79042381D01*
X136190476Y-79090000D01*
X136142857Y-79137619D01*
X135190476Y-80042381D02*
X135761905Y-80042381D01*
X135476191Y-80042381D02*
X135476191Y-79042381D01*
X135571429Y-79185238D01*
X135666667Y-79280476D01*
X135761905Y-79328095D01*
X134809524Y-79137619D02*
X134761905Y-79090000D01*
X134666667Y-79042381D01*
X134428571Y-79042381D01*
X134333333Y-79090000D01*
X134285714Y-79137619D01*
X134238095Y-79232857D01*
X134238095Y-79328095D01*
X134285714Y-79470952D01*
X134857143Y-80042381D01*
X134238095Y-80042381D01*
X101161905Y-77252381D02*
X101161905Y-78061905D01*
X101114286Y-78157143D01*
X101066667Y-78204762D01*
X100971429Y-78252381D01*
X100780952Y-78252381D01*
X100685714Y-78204762D01*
X100638095Y-78157143D01*
X100590476Y-78061905D01*
X100590476Y-77252381D01*
X100209524Y-77252381D02*
X99590476Y-77252381D01*
X99923810Y-77633333D01*
X99780952Y-77633333D01*
X99685714Y-77680952D01*
X99638095Y-77728571D01*
X99590476Y-77823810D01*
X99590476Y-78061905D01*
X99638095Y-78157143D01*
X99685714Y-78204762D01*
X99780952Y-78252381D01*
X100066667Y-78252381D01*
X100161905Y-78204762D01*
X100209524Y-78157143D01*
X123642857Y-84752381D02*
X123976191Y-84276190D01*
X124214286Y-84752381D02*
X124214286Y-83752381D01*
X123833333Y-83752381D01*
X123738095Y-83800000D01*
X123690476Y-83847619D01*
X123642857Y-83942857D01*
X123642857Y-84085714D01*
X123690476Y-84180952D01*
X123738095Y-84228571D01*
X123833333Y-84276190D01*
X124214286Y-84276190D01*
X123261905Y-83847619D02*
X123214286Y-83800000D01*
X123119048Y-83752381D01*
X122880952Y-83752381D01*
X122785714Y-83800000D01*
X122738095Y-83847619D01*
X122690476Y-83942857D01*
X122690476Y-84038095D01*
X122738095Y-84180952D01*
X123309524Y-84752381D01*
X122690476Y-84752381D01*
X122071429Y-83752381D02*
X121976190Y-83752381D01*
X121880952Y-83800000D01*
X121833333Y-83847619D01*
X121785714Y-83942857D01*
X121738095Y-84133333D01*
X121738095Y-84371429D01*
X121785714Y-84561905D01*
X121833333Y-84657143D01*
X121880952Y-84704762D01*
X121976190Y-84752381D01*
X122071429Y-84752381D01*
X122166667Y-84704762D01*
X122214286Y-84657143D01*
X122261905Y-84561905D01*
X122309524Y-84371429D01*
X122309524Y-84133333D01*
X122261905Y-83942857D01*
X122214286Y-83847619D01*
X122166667Y-83800000D01*
X122071429Y-83752381D01*
X114442857Y-78642381D02*
X114776191Y-78166190D01*
X115014286Y-78642381D02*
X115014286Y-77642381D01*
X114633333Y-77642381D01*
X114538095Y-77690000D01*
X114490476Y-77737619D01*
X114442857Y-77832857D01*
X114442857Y-77975714D01*
X114490476Y-78070952D01*
X114538095Y-78118571D01*
X114633333Y-78166190D01*
X115014286Y-78166190D01*
X114061905Y-77737619D02*
X114014286Y-77690000D01*
X113919048Y-77642381D01*
X113680952Y-77642381D01*
X113585714Y-77690000D01*
X113538095Y-77737619D01*
X113490476Y-77832857D01*
X113490476Y-77928095D01*
X113538095Y-78070952D01*
X114109524Y-78642381D01*
X113490476Y-78642381D01*
X112538095Y-78642381D02*
X113109524Y-78642381D01*
X112823810Y-78642381D02*
X112823810Y-77642381D01*
X112919048Y-77785238D01*
X113014286Y-77880476D01*
X113109524Y-77928095D01*
X110442857Y-75252381D02*
X110776191Y-74776190D01*
X111014286Y-75252381D02*
X111014286Y-74252381D01*
X110633333Y-74252381D01*
X110538095Y-74300000D01*
X110490476Y-74347619D01*
X110442857Y-74442857D01*
X110442857Y-74585714D01*
X110490476Y-74680952D01*
X110538095Y-74728571D01*
X110633333Y-74776190D01*
X111014286Y-74776190D01*
X110061905Y-74347619D02*
X110014286Y-74300000D01*
X109919048Y-74252381D01*
X109680952Y-74252381D01*
X109585714Y-74300000D01*
X109538095Y-74347619D01*
X109490476Y-74442857D01*
X109490476Y-74538095D01*
X109538095Y-74680952D01*
X110109524Y-75252381D01*
X109490476Y-75252381D01*
X109109524Y-74347619D02*
X109061905Y-74300000D01*
X108966667Y-74252381D01*
X108728571Y-74252381D01*
X108633333Y-74300000D01*
X108585714Y-74347619D01*
X108538095Y-74442857D01*
X108538095Y-74538095D01*
X108585714Y-74680952D01*
X109157143Y-75252381D01*
X108538095Y-75252381D01*
X112657143Y-82747143D02*
X112704762Y-82699524D01*
X112752381Y-82556667D01*
X112752381Y-82461429D01*
X112704762Y-82318571D01*
X112609524Y-82223333D01*
X112514286Y-82175714D01*
X112323810Y-82128095D01*
X112180952Y-82128095D01*
X111990476Y-82175714D01*
X111895238Y-82223333D01*
X111800000Y-82318571D01*
X111752381Y-82461429D01*
X111752381Y-82556667D01*
X111800000Y-82699524D01*
X111847619Y-82747143D01*
X112752381Y-83699524D02*
X112752381Y-83128095D01*
X112752381Y-83413809D02*
X111752381Y-83413809D01*
X111895238Y-83318571D01*
X111990476Y-83223333D01*
X112038095Y-83128095D01*
X111752381Y-84032857D02*
X111752381Y-84651905D01*
X112133333Y-84318571D01*
X112133333Y-84461429D01*
X112180952Y-84556667D01*
X112228571Y-84604286D01*
X112323810Y-84651905D01*
X112561905Y-84651905D01*
X112657143Y-84604286D01*
X112704762Y-84556667D01*
X112752381Y-84461429D01*
X112752381Y-84175714D01*
X112704762Y-84080476D01*
X112657143Y-84032857D01*
X75695238Y-79937619D02*
X75790476Y-79890000D01*
X75885714Y-79794762D01*
X76028571Y-79651905D01*
X76123810Y-79604286D01*
X76219048Y-79604286D01*
X76171429Y-79842381D02*
X76266667Y-79794762D01*
X76361905Y-79699524D01*
X76409524Y-79509048D01*
X76409524Y-79175714D01*
X76361905Y-78985238D01*
X76266667Y-78890000D01*
X76171429Y-78842381D01*
X75980952Y-78842381D01*
X75885714Y-78890000D01*
X75790476Y-78985238D01*
X75742857Y-79175714D01*
X75742857Y-79509048D01*
X75790476Y-79699524D01*
X75885714Y-79794762D01*
X75980952Y-79842381D01*
X76171429Y-79842381D01*
X74790476Y-79842381D02*
X75361905Y-79842381D01*
X75076191Y-79842381D02*
X75076191Y-78842381D01*
X75171429Y-78985238D01*
X75266667Y-79080476D01*
X75361905Y-79128095D01*
X70295238Y-73737619D02*
X70390476Y-73690000D01*
X70485714Y-73594762D01*
X70628571Y-73451905D01*
X70723810Y-73404286D01*
X70819048Y-73404286D01*
X70771429Y-73642381D02*
X70866667Y-73594762D01*
X70961905Y-73499524D01*
X71009524Y-73309048D01*
X71009524Y-72975714D01*
X70961905Y-72785238D01*
X70866667Y-72690000D01*
X70771429Y-72642381D01*
X70580952Y-72642381D01*
X70485714Y-72690000D01*
X70390476Y-72785238D01*
X70342857Y-72975714D01*
X70342857Y-73309048D01*
X70390476Y-73499524D01*
X70485714Y-73594762D01*
X70580952Y-73642381D01*
X70771429Y-73642381D01*
X69961905Y-72737619D02*
X69914286Y-72690000D01*
X69819048Y-72642381D01*
X69580952Y-72642381D01*
X69485714Y-72690000D01*
X69438095Y-72737619D01*
X69390476Y-72832857D01*
X69390476Y-72928095D01*
X69438095Y-73070952D01*
X70009524Y-73642381D01*
X69390476Y-73642381D01*
X76495238Y-70537619D02*
X76590476Y-70490000D01*
X76685714Y-70394762D01*
X76828571Y-70251905D01*
X76923810Y-70204286D01*
X77019048Y-70204286D01*
X76971429Y-70442381D02*
X77066667Y-70394762D01*
X77161905Y-70299524D01*
X77209524Y-70109048D01*
X77209524Y-69775714D01*
X77161905Y-69585238D01*
X77066667Y-69490000D01*
X76971429Y-69442381D01*
X76780952Y-69442381D01*
X76685714Y-69490000D01*
X76590476Y-69585238D01*
X76542857Y-69775714D01*
X76542857Y-70109048D01*
X76590476Y-70299524D01*
X76685714Y-70394762D01*
X76780952Y-70442381D01*
X76971429Y-70442381D01*
X76209524Y-69442381D02*
X75590476Y-69442381D01*
X75923810Y-69823333D01*
X75780952Y-69823333D01*
X75685714Y-69870952D01*
X75638095Y-69918571D01*
X75590476Y-70013810D01*
X75590476Y-70251905D01*
X75638095Y-70347143D01*
X75685714Y-70394762D01*
X75780952Y-70442381D01*
X76066667Y-70442381D01*
X76161905Y-70394762D01*
X76209524Y-70347143D01*
X66842857Y-74242381D02*
X67176191Y-73766190D01*
X67414286Y-74242381D02*
X67414286Y-73242381D01*
X67033333Y-73242381D01*
X66938095Y-73290000D01*
X66890476Y-73337619D01*
X66842857Y-73432857D01*
X66842857Y-73575714D01*
X66890476Y-73670952D01*
X66938095Y-73718571D01*
X67033333Y-73766190D01*
X67414286Y-73766190D01*
X66461905Y-73337619D02*
X66414286Y-73290000D01*
X66319048Y-73242381D01*
X66080952Y-73242381D01*
X65985714Y-73290000D01*
X65938095Y-73337619D01*
X65890476Y-73432857D01*
X65890476Y-73528095D01*
X65938095Y-73670952D01*
X66509524Y-74242381D01*
X65890476Y-74242381D01*
X65033333Y-73575714D02*
X65033333Y-74242381D01*
X65271429Y-73194762D02*
X65509524Y-73909048D01*
X64890476Y-73909048D01*
X84842857Y-77442381D02*
X85176191Y-76966190D01*
X85414286Y-77442381D02*
X85414286Y-76442381D01*
X85033333Y-76442381D01*
X84938095Y-76490000D01*
X84890476Y-76537619D01*
X84842857Y-76632857D01*
X84842857Y-76775714D01*
X84890476Y-76870952D01*
X84938095Y-76918571D01*
X85033333Y-76966190D01*
X85414286Y-76966190D01*
X84461905Y-76537619D02*
X84414286Y-76490000D01*
X84319048Y-76442381D01*
X84080952Y-76442381D01*
X83985714Y-76490000D01*
X83938095Y-76537619D01*
X83890476Y-76632857D01*
X83890476Y-76728095D01*
X83938095Y-76870952D01*
X84509524Y-77442381D01*
X83890476Y-77442381D01*
X83033333Y-76442381D02*
X83223810Y-76442381D01*
X83319048Y-76490000D01*
X83366667Y-76537619D01*
X83461905Y-76680476D01*
X83509524Y-76870952D01*
X83509524Y-77251905D01*
X83461905Y-77347143D01*
X83414286Y-77394762D01*
X83319048Y-77442381D01*
X83128571Y-77442381D01*
X83033333Y-77394762D01*
X82985714Y-77347143D01*
X82938095Y-77251905D01*
X82938095Y-77013810D01*
X82985714Y-76918571D01*
X83033333Y-76870952D01*
X83128571Y-76823333D01*
X83319048Y-76823333D01*
X83414286Y-76870952D01*
X83461905Y-76918571D01*
X83509524Y-77013810D01*
X80111905Y-78452381D02*
X80111905Y-79261905D01*
X80064286Y-79357143D01*
X80016667Y-79404762D01*
X79921429Y-79452381D01*
X79730952Y-79452381D01*
X79635714Y-79404762D01*
X79588095Y-79357143D01*
X79540476Y-79261905D01*
X79540476Y-78452381D01*
X78635714Y-78785714D02*
X78635714Y-79452381D01*
X78873810Y-78404762D02*
X79111905Y-79119048D01*
X78492857Y-79119048D01*
X128142857Y-91042381D02*
X128476191Y-90566190D01*
X128714286Y-91042381D02*
X128714286Y-90042381D01*
X128333333Y-90042381D01*
X128238095Y-90090000D01*
X128190476Y-90137619D01*
X128142857Y-90232857D01*
X128142857Y-90375714D01*
X128190476Y-90470952D01*
X128238095Y-90518571D01*
X128333333Y-90566190D01*
X128714286Y-90566190D01*
X127761905Y-90137619D02*
X127714286Y-90090000D01*
X127619048Y-90042381D01*
X127380952Y-90042381D01*
X127285714Y-90090000D01*
X127238095Y-90137619D01*
X127190476Y-90232857D01*
X127190476Y-90328095D01*
X127238095Y-90470952D01*
X127809524Y-91042381D01*
X127190476Y-91042381D01*
X126857143Y-90042381D02*
X126238095Y-90042381D01*
X126571429Y-90423333D01*
X126428571Y-90423333D01*
X126333333Y-90470952D01*
X126285714Y-90518571D01*
X126238095Y-90613810D01*
X126238095Y-90851905D01*
X126285714Y-90947143D01*
X126333333Y-90994762D01*
X126428571Y-91042381D01*
X126714286Y-91042381D01*
X126809524Y-90994762D01*
X126857143Y-90947143D01*
X113292857Y-71567143D02*
X113340476Y-71614762D01*
X113483333Y-71662381D01*
X113578571Y-71662381D01*
X113721429Y-71614762D01*
X113816667Y-71519524D01*
X113864286Y-71424286D01*
X113911905Y-71233810D01*
X113911905Y-71090952D01*
X113864286Y-70900476D01*
X113816667Y-70805238D01*
X113721429Y-70710000D01*
X113578571Y-70662381D01*
X113483333Y-70662381D01*
X113340476Y-70710000D01*
X113292857Y-70757619D01*
X112340476Y-71662381D02*
X112911905Y-71662381D01*
X112626191Y-71662381D02*
X112626191Y-70662381D01*
X112721429Y-70805238D01*
X112816667Y-70900476D01*
X112911905Y-70948095D01*
X111483333Y-70995714D02*
X111483333Y-71662381D01*
X111721429Y-70614762D02*
X111959524Y-71329048D01*
X111340476Y-71329048D01*
X73966666Y-63747143D02*
X74014285Y-63794762D01*
X74157142Y-63842381D01*
X74252380Y-63842381D01*
X74395238Y-63794762D01*
X74490476Y-63699524D01*
X74538095Y-63604286D01*
X74585714Y-63413810D01*
X74585714Y-63270952D01*
X74538095Y-63080476D01*
X74490476Y-62985238D01*
X74395238Y-62890000D01*
X74252380Y-62842381D01*
X74157142Y-62842381D01*
X74014285Y-62890000D01*
X73966666Y-62937619D01*
X73395238Y-63270952D02*
X73490476Y-63223333D01*
X73538095Y-63175714D01*
X73585714Y-63080476D01*
X73585714Y-63032857D01*
X73538095Y-62937619D01*
X73490476Y-62890000D01*
X73395238Y-62842381D01*
X73204761Y-62842381D01*
X73109523Y-62890000D01*
X73061904Y-62937619D01*
X73014285Y-63032857D01*
X73014285Y-63080476D01*
X73061904Y-63175714D01*
X73109523Y-63223333D01*
X73204761Y-63270952D01*
X73395238Y-63270952D01*
X73490476Y-63318571D01*
X73538095Y-63366190D01*
X73585714Y-63461429D01*
X73585714Y-63651905D01*
X73538095Y-63747143D01*
X73490476Y-63794762D01*
X73395238Y-63842381D01*
X73204761Y-63842381D01*
X73109523Y-63794762D01*
X73061904Y-63747143D01*
X73014285Y-63651905D01*
X73014285Y-63461429D01*
X73061904Y-63366190D01*
X73109523Y-63318571D01*
X73204761Y-63270952D01*
X89671905Y-64512381D02*
X89671905Y-65321905D01*
X89624286Y-65417143D01*
X89576667Y-65464762D01*
X89481429Y-65512381D01*
X89290952Y-65512381D01*
X89195714Y-65464762D01*
X89148095Y-65417143D01*
X89100476Y-65321905D01*
X89100476Y-64512381D01*
X88148095Y-64512381D02*
X88624286Y-64512381D01*
X88671905Y-64988571D01*
X88624286Y-64940952D01*
X88529048Y-64893333D01*
X88290952Y-64893333D01*
X88195714Y-64940952D01*
X88148095Y-64988571D01*
X88100476Y-65083810D01*
X88100476Y-65321905D01*
X88148095Y-65417143D01*
X88195714Y-65464762D01*
X88290952Y-65512381D01*
X88529048Y-65512381D01*
X88624286Y-65464762D01*
X88671905Y-65417143D01*
X82582857Y-69017143D02*
X82630476Y-69064762D01*
X82773333Y-69112381D01*
X82868571Y-69112381D01*
X83011429Y-69064762D01*
X83106667Y-68969524D01*
X83154286Y-68874286D01*
X83201905Y-68683810D01*
X83201905Y-68540952D01*
X83154286Y-68350476D01*
X83106667Y-68255238D01*
X83011429Y-68160000D01*
X82868571Y-68112381D01*
X82773333Y-68112381D01*
X82630476Y-68160000D01*
X82582857Y-68207619D01*
X81630476Y-69112381D02*
X82201905Y-69112381D01*
X81916191Y-69112381D02*
X81916191Y-68112381D01*
X82011429Y-68255238D01*
X82106667Y-68350476D01*
X82201905Y-68398095D01*
X80725714Y-68112381D02*
X81201905Y-68112381D01*
X81249524Y-68588571D01*
X81201905Y-68540952D01*
X81106667Y-68493333D01*
X80868571Y-68493333D01*
X80773333Y-68540952D01*
X80725714Y-68588571D01*
X80678095Y-68683810D01*
X80678095Y-68921905D01*
X80725714Y-69017143D01*
X80773333Y-69064762D01*
X80868571Y-69112381D01*
X81106667Y-69112381D01*
X81201905Y-69064762D01*
X81249524Y-69017143D01*
M02*
