G04 #@! TF.FileFunction,Copper,L2,Bot,Signal*
%FSLAX46Y46*%
G04 Gerber Fmt 4.6, Leading zero omitted, Abs format (unit mm)*
G04 Created by KiCad (PCBNEW 4.0.5+dfsg1-4) date Fri Oct  5 16:33:36 2018*
%MOMM*%
%LPD*%
G01*
G04 APERTURE LIST*
%ADD10C,0.100000*%
%ADD11R,1.200000X0.750000*%
%ADD12R,1.200000X0.900000*%
%ADD13O,1.000000X1.800000*%
%ADD14O,1.000000X2.100000*%
%ADD15R,0.750000X1.200000*%
%ADD16R,1.397000X1.397000*%
%ADD17C,1.397000*%
%ADD18R,0.797560X0.797560*%
%ADD19R,0.900000X1.200000*%
%ADD20R,1.500000X0.550000*%
%ADD21R,0.550000X1.500000*%
%ADD22R,1.550000X0.600000*%
%ADD23R,1.200000X1.400000*%
%ADD24O,1.800000X1.550000*%
%ADD25C,1.501140*%
%ADD26C,2.999740*%
%ADD27C,1.524000*%
%ADD28C,2.700020*%
%ADD29O,1.250000X1.250000*%
%ADD30O,1.550000X1.800000*%
%ADD31R,1.900000X0.800000*%
%ADD32R,1.560000X0.650000*%
%ADD33O,1.800000X2.600000*%
%ADD34C,3.000000*%
%ADD35R,1.500000X0.450000*%
%ADD36C,0.600000*%
%ADD37C,0.300000*%
%ADD38C,1.000000*%
%ADD39C,0.400000*%
%ADD40C,0.500000*%
%ADD41C,0.250000*%
G04 APERTURE END LIST*
D10*
D11*
X116550000Y-83200000D03*
X114650000Y-83200000D03*
D12*
X64860000Y-77750000D03*
X67060000Y-77750000D03*
X67060000Y-72130000D03*
X64860000Y-72130000D03*
D13*
X114760000Y-97590000D03*
X123400000Y-97590000D03*
D14*
X114760000Y-93410000D03*
X123400000Y-93410000D03*
D11*
X127769496Y-55141946D03*
X125869496Y-55141946D03*
D15*
X112100000Y-85850000D03*
X112100000Y-87750000D03*
X110500000Y-89150000D03*
X110500000Y-87250000D03*
X98200000Y-74950000D03*
X98200000Y-73050000D03*
X124219496Y-59391946D03*
X124219496Y-57491946D03*
X113700000Y-68350000D03*
X113700000Y-70250000D03*
X71760000Y-67530000D03*
X71760000Y-65630000D03*
D16*
X140140000Y-92750000D03*
D17*
X142680000Y-92750000D03*
X140140000Y-95290000D03*
X142680000Y-95290000D03*
X140140000Y-97830000D03*
X142680000Y-97830000D03*
D18*
X140200000Y-80374300D03*
X140200000Y-78875700D03*
X140247767Y-73435335D03*
X140247767Y-71936735D03*
X140347767Y-66135335D03*
X140347767Y-64636735D03*
X140447767Y-58335335D03*
X140447767Y-56836735D03*
D12*
X109700000Y-71190000D03*
X111900000Y-71190000D03*
D19*
X138447767Y-78986035D03*
X138447767Y-81186035D03*
X138447767Y-73786035D03*
X138447767Y-71586035D03*
X138447767Y-66586035D03*
X138447767Y-64386035D03*
X138547767Y-58586035D03*
X138547767Y-56386035D03*
D12*
X143230000Y-76280000D03*
X141030000Y-76280000D03*
D19*
X108200000Y-66500000D03*
X108200000Y-64300000D03*
X106600000Y-66500000D03*
X106600000Y-64300000D03*
D12*
X111940000Y-56440000D03*
X114140000Y-56440000D03*
X108900000Y-84800000D03*
X106700000Y-84800000D03*
X106700000Y-82900000D03*
X108900000Y-82900000D03*
D19*
X106300000Y-89300000D03*
X106300000Y-87100000D03*
X108400000Y-89300000D03*
X108400000Y-87100000D03*
D12*
X96300000Y-74900000D03*
X94100000Y-74900000D03*
X96200000Y-73000000D03*
X94000000Y-73000000D03*
X104900000Y-78400000D03*
X102700000Y-78400000D03*
D20*
X121500000Y-76300000D03*
X121500000Y-75500000D03*
X121500000Y-74700000D03*
X121500000Y-73900000D03*
X121500000Y-73100000D03*
X121500000Y-72300000D03*
X121500000Y-71500000D03*
X121500000Y-70700000D03*
X121500000Y-69900000D03*
X121500000Y-69100000D03*
X121500000Y-68300000D03*
D21*
X123200000Y-66600000D03*
X124000000Y-66600000D03*
X124800000Y-66600000D03*
X125600000Y-66600000D03*
X126400000Y-66600000D03*
X127200000Y-66600000D03*
X128000000Y-66600000D03*
X128800000Y-66600000D03*
X129600000Y-66600000D03*
X130400000Y-66600000D03*
X131200000Y-66600000D03*
D20*
X132900000Y-68300000D03*
X132900000Y-69100000D03*
X132900000Y-69900000D03*
X132900000Y-70700000D03*
X132900000Y-71500000D03*
X132900000Y-72300000D03*
X132900000Y-73100000D03*
X132900000Y-73900000D03*
X132900000Y-74700000D03*
X132900000Y-75500000D03*
X132900000Y-76300000D03*
D21*
X131200000Y-78000000D03*
X130400000Y-78000000D03*
X129600000Y-78000000D03*
X128800000Y-78000000D03*
X128000000Y-78000000D03*
X127200000Y-78000000D03*
X126400000Y-78000000D03*
X125600000Y-78000000D03*
X124800000Y-78000000D03*
X124000000Y-78000000D03*
X123200000Y-78000000D03*
D22*
X114450000Y-89355000D03*
X114450000Y-88085000D03*
X114450000Y-86815000D03*
X114450000Y-85545000D03*
X119850000Y-85545000D03*
X119850000Y-86815000D03*
X119850000Y-88085000D03*
X119850000Y-89355000D03*
D23*
X127819496Y-57341946D03*
X127819496Y-59541946D03*
X126219496Y-57341946D03*
X126219496Y-59541946D03*
D16*
X95984575Y-84132751D03*
D17*
X98524575Y-84132751D03*
D11*
X115720000Y-81380000D03*
X117620000Y-81380000D03*
X103250000Y-70400000D03*
X105150000Y-70400000D03*
X136480000Y-77810000D03*
X134580000Y-77810000D03*
D24*
X98299100Y-97337460D03*
X110850000Y-97337460D03*
D25*
X78772000Y-87700000D03*
X76232000Y-87700000D03*
X74200000Y-87700000D03*
X71660000Y-87700000D03*
D26*
X81820000Y-90367000D03*
X68104000Y-90367000D03*
D25*
X62402120Y-77712860D03*
X62402120Y-75172860D03*
X62402120Y-73140860D03*
X62402120Y-70600860D03*
D26*
X59735120Y-80760860D03*
X59735120Y-67044860D03*
D27*
X57000000Y-85600000D03*
X59540000Y-85600000D03*
X59540000Y-87598980D03*
X57000000Y-87598980D03*
D28*
X52270520Y-90299000D03*
X64269480Y-90299000D03*
D17*
X148400000Y-92420000D03*
X148521920Y-89880000D03*
X148400000Y-87340000D03*
X148521920Y-84800000D03*
X148400000Y-82260000D03*
X148521920Y-94960000D03*
X148521920Y-79720000D03*
D16*
X148400000Y-97500000D03*
D17*
X148400000Y-77180000D03*
X148400000Y-67020000D03*
X148521920Y-64480000D03*
X148400000Y-61940000D03*
X148521920Y-59400000D03*
X148400000Y-56860000D03*
X148521920Y-69560000D03*
X148521920Y-54320000D03*
D16*
X148400000Y-72100000D03*
D17*
X148400000Y-51780000D03*
D22*
X101100000Y-76105000D03*
X101100000Y-74835000D03*
X101100000Y-73565000D03*
X101100000Y-72295000D03*
X106500000Y-72295000D03*
X106500000Y-73565000D03*
X106500000Y-74835000D03*
X106500000Y-76105000D03*
D29*
X55092540Y-53359100D03*
X55092540Y-58359100D03*
D30*
X52392540Y-52359100D03*
X52392540Y-59359100D03*
D19*
X123100000Y-88100000D03*
X123100000Y-85900000D03*
X111300000Y-78800000D03*
X111300000Y-81000000D03*
D12*
X110900000Y-76700000D03*
X108700000Y-76700000D03*
D15*
X110700000Y-84950000D03*
X110700000Y-83050000D03*
D31*
X73280000Y-78370000D03*
X73280000Y-80270000D03*
X70280000Y-79320000D03*
X73350000Y-74290000D03*
X73350000Y-76190000D03*
X70350000Y-75240000D03*
X80090000Y-70710000D03*
X80090000Y-72610000D03*
X77090000Y-71660000D03*
D12*
X67060000Y-75280000D03*
X64860000Y-75280000D03*
D19*
X83870000Y-72730000D03*
X83870000Y-74930000D03*
D32*
X78000000Y-77050000D03*
X78000000Y-76100000D03*
X78000000Y-75150000D03*
X80700000Y-75150000D03*
X80700000Y-77050000D03*
X80700000Y-76100000D03*
D12*
X122640000Y-90330000D03*
X124840000Y-90330000D03*
D11*
X113600000Y-73110000D03*
X111700000Y-73110000D03*
D15*
X73730000Y-67530000D03*
X73730000Y-65630000D03*
D33*
X74000000Y-53000000D03*
X76540000Y-53000000D03*
X79080000Y-53000000D03*
X81620000Y-53000000D03*
X84160000Y-53000000D03*
X86700000Y-53000000D03*
X89240000Y-53000000D03*
X91780000Y-53000000D03*
X94320000Y-53000000D03*
X96860000Y-53000000D03*
X99400000Y-53000000D03*
X101940000Y-53000000D03*
X104480000Y-53000000D03*
X107020000Y-53000000D03*
X109560000Y-53000000D03*
X112100000Y-53000000D03*
D34*
X68500900Y-53000000D03*
X68500900Y-84000700D03*
X143499480Y-84000700D03*
X143499480Y-53000000D03*
D35*
X91860000Y-66335000D03*
X91860000Y-66985000D03*
X91860000Y-67635000D03*
X91860000Y-68285000D03*
X91860000Y-68935000D03*
X91860000Y-69585000D03*
X91860000Y-70235000D03*
X91860000Y-70885000D03*
X85960000Y-70885000D03*
X85960000Y-70235000D03*
X85960000Y-69585000D03*
X85960000Y-68935000D03*
X85960000Y-68285000D03*
X85960000Y-67635000D03*
X85960000Y-66985000D03*
X85960000Y-66335000D03*
D11*
X80990000Y-66760000D03*
X82890000Y-66760000D03*
D36*
X124449979Y-85605788D03*
X115200000Y-67990000D03*
X115000000Y-74390000D03*
X132853543Y-67423296D03*
X76000000Y-73190000D03*
X70200000Y-80790000D03*
X56830000Y-58660000D03*
X79260000Y-66890000D03*
X75410000Y-67220000D03*
X68375000Y-60775000D03*
X90300000Y-69590000D03*
X62900000Y-53400000D03*
X95800000Y-51000000D03*
X82800000Y-50900000D03*
X71800000Y-51300000D03*
X65600000Y-55300000D03*
X93125000Y-57350000D03*
X88125000Y-58550000D03*
X67677659Y-57766151D03*
X75470000Y-76040000D03*
X141400000Y-78700000D03*
X145700000Y-83000000D03*
X115675000Y-78800000D03*
X113900000Y-81075000D03*
X116900000Y-88100000D03*
X136200000Y-60400000D03*
X131200000Y-85800000D03*
X136100000Y-90700000D03*
X144700000Y-88200000D03*
X141000000Y-88100000D03*
X140600000Y-85000000D03*
X147400000Y-83500000D03*
X146600000Y-80600000D03*
X146100000Y-78500000D03*
X147200000Y-75000000D03*
X144900000Y-68000000D03*
X145100000Y-66200000D03*
X144800000Y-62900000D03*
X146600000Y-61000000D03*
X113500000Y-76500000D03*
X103600000Y-74300000D03*
X119800000Y-83200000D03*
X128400000Y-83800000D03*
X137000000Y-63400000D03*
X134800000Y-85800000D03*
X138400000Y-76600000D03*
X143800000Y-73200000D03*
X143000000Y-78200000D03*
X132000000Y-65200000D03*
X139600000Y-60000000D03*
X121600000Y-57800000D03*
X113000000Y-57600000D03*
X133400000Y-84400000D03*
X141963265Y-64636735D03*
X101410000Y-70780000D03*
X130550000Y-68410000D03*
X130030000Y-76470000D03*
X124040000Y-76200000D03*
X125600000Y-68450000D03*
X123510000Y-73100000D03*
X128125000Y-63875000D03*
X141725000Y-58625000D03*
X140075000Y-55175000D03*
X125575000Y-64775000D03*
X124475000Y-55875000D03*
X132225000Y-53975000D03*
X81148976Y-68873227D03*
X88000000Y-75590000D03*
X104950000Y-87150000D03*
X94090000Y-76410000D03*
X92800000Y-74190000D03*
X84400000Y-67590000D03*
X82600000Y-73590000D03*
X104830000Y-84850000D03*
X112000000Y-82390000D03*
X116100000Y-86500000D03*
X124349990Y-80070662D03*
X123003628Y-83902881D03*
X111800000Y-74789998D03*
X82120618Y-69144855D03*
X52550000Y-55370000D03*
X134200000Y-61600000D03*
X137200000Y-64800000D03*
X82540000Y-74780000D03*
X108385000Y-74835000D03*
X113616654Y-75194449D03*
X134425000Y-53600000D03*
X114749990Y-77191620D03*
X119290000Y-75500000D03*
X78260000Y-55120000D03*
X108660000Y-55420000D03*
X132780000Y-77830000D03*
X119875000Y-57445000D03*
X141750000Y-73600000D03*
X141750000Y-79825000D03*
X118200000Y-89000000D03*
X118600000Y-84400000D03*
X118598823Y-73452829D03*
X118100000Y-69800000D03*
X119150000Y-65580000D03*
X123490000Y-64250000D03*
X121600000Y-63750000D03*
X110850000Y-55080000D03*
X80310000Y-54810000D03*
X135856411Y-66837177D03*
X121649990Y-62450815D03*
X136203111Y-74291028D03*
X121549990Y-61137801D03*
X121412471Y-60349697D03*
X137300000Y-68800000D03*
X120400000Y-59800000D03*
X120600000Y-63200000D03*
X119804164Y-76298556D03*
X116327992Y-77397245D03*
X136500000Y-67600000D03*
X125600000Y-63400000D03*
X142775000Y-71125000D03*
X137291575Y-65720807D03*
X125800000Y-86790000D03*
X134600000Y-72897122D03*
X126530000Y-90510000D03*
X142800000Y-58700000D03*
X144600000Y-57200000D03*
X129600000Y-85075000D03*
X140400000Y-81675000D03*
X132672284Y-65939990D03*
X135857871Y-73494771D03*
X107950021Y-70113327D03*
X119214125Y-73964125D03*
X107512967Y-70783714D03*
X119885875Y-74635875D03*
X82816402Y-70706898D03*
X84282886Y-69585002D03*
X96000000Y-69990000D03*
X91600000Y-74190000D03*
X116200000Y-65790000D03*
X135000000Y-71790000D03*
X121490000Y-83140000D03*
X139925000Y-82425000D03*
X115000000Y-70400000D03*
X119506499Y-72562754D03*
X111464749Y-75516377D03*
X93911779Y-70358968D03*
X80367772Y-68700775D03*
X112350000Y-84325000D03*
X116100000Y-84800000D03*
X106260373Y-62500373D03*
X107200000Y-62400000D03*
X77400000Y-72790000D03*
X85000000Y-72190000D03*
X82200000Y-71590000D03*
X75260000Y-74950000D03*
X84000000Y-77340000D03*
X76630000Y-77050000D03*
D37*
X114735000Y-67990000D02*
X115200000Y-67990000D01*
X113700000Y-68350000D02*
X114375000Y-68350000D01*
X114375000Y-68350000D02*
X114735000Y-67990000D01*
X115000000Y-73610000D02*
X115000000Y-74390000D01*
X113600000Y-73110000D02*
X114500000Y-73110000D01*
X114500000Y-73110000D02*
X115000000Y-73610000D01*
X91860000Y-70235000D02*
X91860000Y-70885000D01*
X124000000Y-79458648D02*
X124000000Y-78000000D01*
X123699988Y-79758660D02*
X124000000Y-79458648D01*
X123699988Y-80382664D02*
X123699988Y-79758660D01*
X125320664Y-80720664D02*
X124037988Y-80720664D01*
X128400000Y-83800000D02*
X125320664Y-80720664D01*
X124037988Y-80720664D02*
X123699988Y-80382664D01*
X132900000Y-68300000D02*
X132900000Y-67469753D01*
X132900000Y-67469753D02*
X132853543Y-67423296D01*
X134200000Y-65600000D02*
X134200000Y-66600000D01*
X134200000Y-66600000D02*
X133376704Y-67423296D01*
X133376704Y-67423296D02*
X132853543Y-67423296D01*
X78000000Y-76100000D02*
X75530000Y-76100000D01*
X75530000Y-76100000D02*
X75470000Y-76040000D01*
X78000000Y-73590000D02*
X76400000Y-73590000D01*
X76400000Y-73590000D02*
X76000000Y-73190000D01*
X78200000Y-73390000D02*
X78000000Y-73590000D01*
X78200000Y-73250000D02*
X78200000Y-73390000D01*
X80090000Y-72610000D02*
X78840000Y-72610000D01*
X78840000Y-72610000D02*
X78200000Y-73250000D01*
X72210000Y-80790000D02*
X70200000Y-80790000D01*
X73280000Y-80270000D02*
X72730000Y-80270000D01*
X72730000Y-80270000D02*
X72210000Y-80790000D01*
X128125000Y-63875000D02*
X128125000Y-63775000D01*
X131725000Y-59925000D02*
X131725000Y-55875000D01*
X128125000Y-63775000D02*
X131400000Y-60500000D01*
X131400000Y-60250000D02*
X131725000Y-59925000D01*
X131400000Y-60500000D02*
X131400000Y-60250000D01*
X131725000Y-55875000D02*
X132300000Y-55300000D01*
X132300000Y-55300000D02*
X132225000Y-55225000D01*
X132225000Y-55225000D02*
X132225000Y-53975000D01*
X56529100Y-58359100D02*
X56830000Y-58660000D01*
X55092540Y-58359100D02*
X56529100Y-58359100D01*
X79960000Y-66890000D02*
X79260000Y-66890000D01*
X80990000Y-66760000D02*
X80090000Y-66760000D01*
X80090000Y-66760000D02*
X79960000Y-66890000D01*
X74715000Y-67220000D02*
X75410000Y-67220000D01*
X73730000Y-67530000D02*
X74405000Y-67530000D01*
X74405000Y-67530000D02*
X74715000Y-67220000D01*
X71760000Y-67530000D02*
X73730000Y-67530000D01*
X91860000Y-69585000D02*
X90305000Y-69585000D01*
X90305000Y-69585000D02*
X90300000Y-69590000D01*
X91860000Y-69585000D02*
X91860000Y-70885000D01*
X80910000Y-66840000D02*
X80990000Y-66760000D01*
X62900000Y-53400000D02*
X62100000Y-53400000D01*
X59900000Y-55600000D02*
X59900000Y-56300000D01*
X62100000Y-53400000D02*
X59900000Y-55600000D01*
X82800000Y-50900000D02*
X95700000Y-50900000D01*
X95700000Y-50900000D02*
X95800000Y-51000000D01*
X72500000Y-51300000D02*
X72900000Y-50900000D01*
X72900000Y-50900000D02*
X82800000Y-50900000D01*
X71800000Y-51300000D02*
X72500000Y-51300000D01*
X62900000Y-53400000D02*
X64500000Y-53400000D01*
X64500000Y-53400000D02*
X67100000Y-50800000D01*
X71300000Y-50800000D02*
X71800000Y-51300000D01*
X67100000Y-50800000D02*
X71300000Y-50800000D01*
X65600000Y-54200000D02*
X64800000Y-53400000D01*
X64800000Y-53400000D02*
X62900000Y-53400000D01*
X65600000Y-55300000D02*
X65600000Y-54200000D01*
X67677659Y-57277659D02*
X65700000Y-55300000D01*
X67677659Y-57766151D02*
X67677659Y-57277659D01*
X84160000Y-53000000D02*
X84160000Y-54600000D01*
X84160000Y-54600000D02*
X88100000Y-58540000D01*
X132800000Y-83800000D02*
X130800000Y-83800000D01*
X133400000Y-84400000D02*
X132800000Y-83800000D01*
X130800000Y-83800000D02*
X128400000Y-83800000D01*
X75320000Y-76190000D02*
X75470000Y-76040000D01*
X73350000Y-76190000D02*
X75320000Y-76190000D01*
X141900000Y-78200000D02*
X141400000Y-78700000D01*
X143000000Y-78200000D02*
X141900000Y-78200000D01*
X146500000Y-83500000D02*
X146000000Y-83000000D01*
X146000000Y-83000000D02*
X145700000Y-83000000D01*
X147400000Y-83500000D02*
X146500000Y-83500000D01*
X148400000Y-72100000D02*
X148400000Y-73800000D01*
X148400000Y-73800000D02*
X147200000Y-75000000D01*
X135900000Y-90500000D02*
X136100000Y-90700000D01*
X131200000Y-85800000D02*
X135900000Y-90500000D01*
X141100000Y-88200000D02*
X144700000Y-88200000D01*
X141000000Y-88100000D02*
X141100000Y-88200000D01*
X145400000Y-73200000D02*
X147200000Y-75000000D01*
X143800000Y-73200000D02*
X145400000Y-73200000D01*
X148400000Y-61940000D02*
X147540000Y-61940000D01*
X147540000Y-61940000D02*
X146600000Y-61000000D01*
X138100000Y-60300000D02*
X136300000Y-60300000D01*
X138400000Y-60000000D02*
X138100000Y-60300000D01*
X139600000Y-60000000D02*
X138400000Y-60000000D01*
X113500000Y-78200000D02*
X113500000Y-76500000D01*
X113900000Y-78600000D02*
X113500000Y-78200000D01*
X113900000Y-81075000D02*
X113900000Y-78600000D01*
X103600000Y-71425000D02*
X103600000Y-74300000D01*
X103250000Y-70400000D02*
X103250000Y-71075000D01*
X103250000Y-71075000D02*
X103600000Y-71425000D01*
X137200000Y-63200000D02*
X137000000Y-63400000D01*
X139609812Y-63200000D02*
X137200000Y-63200000D01*
X140347767Y-64636735D02*
X140347767Y-63937955D01*
X140347767Y-63937955D02*
X139609812Y-63200000D01*
X133400000Y-84400000D02*
X134800000Y-85800000D01*
X137215000Y-76400000D02*
X138200000Y-76400000D01*
X138200000Y-76400000D02*
X138400000Y-76600000D01*
X136480000Y-77810000D02*
X136480000Y-77135000D01*
X136480000Y-77135000D02*
X137215000Y-76400000D01*
X143800000Y-74960000D02*
X143800000Y-73200000D01*
X143230000Y-76280000D02*
X143230000Y-75530000D01*
X143230000Y-75530000D02*
X143800000Y-74960000D01*
X143230000Y-77970000D02*
X143000000Y-78200000D01*
X143230000Y-76280000D02*
X143230000Y-77970000D01*
X133800000Y-65200000D02*
X132000000Y-65200000D01*
X134200000Y-65600000D02*
X136600000Y-63200000D01*
X134200000Y-65600000D02*
X133800000Y-65200000D01*
X136600000Y-63200000D02*
X139609812Y-63200000D01*
X140000000Y-59600000D02*
X139600000Y-60000000D01*
X141725000Y-58625000D02*
X140750000Y-59600000D01*
X140750000Y-59600000D02*
X140000000Y-59600000D01*
X123236442Y-57800000D02*
X121600000Y-57800000D01*
X124219496Y-57491946D02*
X123544496Y-57491946D01*
X123544496Y-57491946D02*
X123236442Y-57800000D01*
X113730000Y-57600000D02*
X113000000Y-57600000D01*
X114140000Y-56440000D02*
X114140000Y-57190000D01*
X114140000Y-57190000D02*
X113730000Y-57600000D01*
X136480000Y-77810000D02*
X136480000Y-79185000D01*
X136480000Y-79185000D02*
X136265000Y-79400000D01*
X140347767Y-64636735D02*
X141963265Y-64636735D01*
X101880000Y-71250000D02*
X101410000Y-70780000D01*
X102145000Y-71250000D02*
X101100000Y-72295000D01*
X102995000Y-70400000D02*
X102145000Y-71250000D01*
X102145000Y-71250000D02*
X101880000Y-71250000D01*
X136480000Y-77810000D02*
X137380000Y-77810000D01*
X137380000Y-77810000D02*
X137590000Y-77600000D01*
X137590000Y-77600000D02*
X138100000Y-77600000D01*
X138140000Y-77640000D02*
X141720000Y-77640000D01*
X141720000Y-77640000D02*
X143080000Y-76280000D01*
X138100000Y-77600000D02*
X138140000Y-77640000D01*
X143080000Y-76280000D02*
X143230000Y-76280000D01*
X130750000Y-79400000D02*
X134510000Y-79400000D01*
X134510000Y-79400000D02*
X135700000Y-79400000D01*
D38*
X136265000Y-79400000D02*
X134510000Y-79400000D01*
D37*
X131740000Y-68410000D02*
X130550000Y-68410000D01*
X132900000Y-68300000D02*
X131850000Y-68300000D01*
X131850000Y-68300000D02*
X131740000Y-68410000D01*
X130400000Y-76840000D02*
X130030000Y-76470000D01*
X130400000Y-78000000D02*
X130400000Y-76840000D01*
X124000000Y-78000000D02*
X124000000Y-76240000D01*
X124000000Y-76240000D02*
X124040000Y-76200000D01*
X125600000Y-66600000D02*
X125600000Y-68450000D01*
X125600000Y-68680000D02*
X125600000Y-68450000D01*
X122550000Y-73100000D02*
X123510000Y-73100000D01*
X121500000Y-73100000D02*
X122550000Y-73100000D01*
X115720000Y-81380000D02*
X114205000Y-81380000D01*
X114205000Y-81380000D02*
X113900000Y-81075000D01*
X115720000Y-81380000D02*
X115495000Y-81380000D01*
X115495000Y-81380000D02*
X114650000Y-82225000D01*
X114650000Y-82225000D02*
X114650000Y-83200000D01*
X130400000Y-79050000D02*
X130750000Y-79400000D01*
X130400000Y-78000000D02*
X130400000Y-79050000D01*
X141725000Y-57350000D02*
X141725000Y-58625000D01*
X141211735Y-56836735D02*
X141725000Y-57350000D01*
X140447767Y-56836735D02*
X141211735Y-56836735D01*
X140075000Y-55765188D02*
X140075000Y-55175000D01*
X140447767Y-56836735D02*
X140447767Y-56137955D01*
X140447767Y-56137955D02*
X140075000Y-55765188D01*
X125575000Y-65525000D02*
X125575000Y-64775000D01*
X125600000Y-66600000D02*
X125600000Y-65550000D01*
X125600000Y-65550000D02*
X125575000Y-65525000D01*
X124219496Y-57491946D02*
X124219496Y-56130504D01*
X124219496Y-56130504D02*
X124475000Y-55875000D01*
X125869496Y-55141946D02*
X125208054Y-55141946D01*
X125208054Y-55141946D02*
X124475000Y-55875000D01*
X114450000Y-85545000D02*
X114450000Y-83400000D01*
X114450000Y-83400000D02*
X114650000Y-83200000D01*
X103250000Y-70400000D02*
X102995000Y-70400000D01*
X114925000Y-85545000D02*
X114450000Y-85545000D01*
X80632203Y-69390000D02*
X81148976Y-68873227D01*
X65170000Y-73190000D02*
X70000000Y-73190000D01*
X64860000Y-72880000D02*
X65170000Y-73190000D01*
X70000000Y-73190000D02*
X73800000Y-69390000D01*
X73800000Y-69390000D02*
X80632203Y-69390000D01*
X88000000Y-75590000D02*
X93410000Y-75590000D01*
X93410000Y-75590000D02*
X94100000Y-74900000D01*
X94100000Y-74900000D02*
X94100000Y-76400000D01*
X94100000Y-76400000D02*
X94090000Y-76410000D01*
X62402120Y-73140860D02*
X64599140Y-73140860D01*
X64599140Y-73140860D02*
X64860000Y-72880000D01*
X64860000Y-72880000D02*
X64860000Y-72130000D01*
D38*
X62402120Y-70600860D02*
X62402120Y-73140860D01*
D37*
X104950000Y-87150000D02*
X106250000Y-87150000D01*
X106250000Y-87150000D02*
X106300000Y-87100000D01*
X92800000Y-74190000D02*
X92800000Y-73765736D01*
X92800000Y-73765736D02*
X92561067Y-73526803D01*
X92561067Y-73526803D02*
X92550009Y-73526803D01*
X89096803Y-73526803D02*
X92550009Y-73526803D01*
X87010000Y-67635000D02*
X88080000Y-68705000D01*
X88080000Y-72510000D02*
X89096803Y-73526803D01*
X88080000Y-68705000D02*
X88080000Y-72510000D01*
X93109254Y-73000000D02*
X92566230Y-73543024D01*
X94000000Y-73000000D02*
X93109254Y-73000000D01*
X92550009Y-73526803D02*
X92566230Y-73543024D01*
X85960000Y-67635000D02*
X87010000Y-67635000D01*
X85960000Y-67635000D02*
X84445000Y-67635000D01*
X84445000Y-67635000D02*
X84400000Y-67590000D01*
X82200000Y-74105000D02*
X82200000Y-73990000D01*
X82200000Y-73990000D02*
X82600000Y-73590000D01*
X80700000Y-75150000D02*
X81155000Y-75150000D01*
X81155000Y-75150000D02*
X82200000Y-74105000D01*
X104830000Y-84850000D02*
X106650000Y-84850000D01*
X106650000Y-84850000D02*
X106700000Y-84800000D01*
X106600000Y-84900000D02*
X106700000Y-84800000D01*
X93275000Y-73000000D02*
X93300000Y-73000000D01*
X93300000Y-73000000D02*
X94000000Y-73000000D01*
X140247767Y-71936735D02*
X140063265Y-71936735D01*
X140063265Y-71936735D02*
X139000000Y-73000000D01*
X139000000Y-73000000D02*
X139000000Y-73233802D01*
X139000000Y-73233802D02*
X138447767Y-73786035D01*
X140200000Y-78875700D02*
X138558102Y-78875700D01*
X138558102Y-78875700D02*
X138447767Y-78986035D01*
X111300000Y-81000000D02*
X111300000Y-81690000D01*
X111300000Y-81690000D02*
X112000000Y-82390000D01*
X116100000Y-88900000D02*
X116100000Y-86500000D01*
X116000000Y-89000000D02*
X116100000Y-88900000D01*
X115645000Y-89355000D02*
X116000000Y-89000000D01*
X114450000Y-89355000D02*
X115645000Y-89355000D01*
X114450000Y-89355000D02*
X112900000Y-89355000D01*
X112900000Y-89355000D02*
X112545000Y-89355000D01*
X112340000Y-89150000D02*
X112000000Y-89150000D01*
X112000000Y-89150000D02*
X110500000Y-89150000D01*
X112545000Y-89355000D02*
X112340000Y-89150000D01*
X110500000Y-89150000D02*
X108550000Y-89150000D01*
X108550000Y-89150000D02*
X108400000Y-89300000D01*
X124800000Y-78000000D02*
X124800000Y-79620652D01*
X124800000Y-79620652D02*
X124349990Y-80070662D01*
X119850000Y-85545000D02*
X121361509Y-85545000D01*
X121361509Y-85545000D02*
X122703629Y-84202880D01*
X122703629Y-84202880D02*
X123003628Y-83902881D01*
X119905000Y-85600000D02*
X119850000Y-85545000D01*
X118045000Y-85545000D02*
X116550000Y-84050000D01*
X116550000Y-84050000D02*
X116550000Y-83200000D01*
X119850000Y-85545000D02*
X118045000Y-85545000D01*
X119375000Y-85545000D02*
X119850000Y-85545000D01*
D39*
X111800000Y-73985000D02*
X111800000Y-74789998D01*
X111700000Y-73110000D02*
X111700000Y-73885000D01*
X111700000Y-73885000D02*
X111800000Y-73985000D01*
X71760000Y-65630000D02*
X73730000Y-65630000D01*
X82120618Y-67529382D02*
X82120618Y-69144855D01*
X82890000Y-66760000D02*
X82120618Y-67529382D01*
X134200000Y-55600000D02*
X134500000Y-55300000D01*
X134200000Y-58575000D02*
X134200000Y-55600000D01*
X110720000Y-73110000D02*
X109700000Y-72090000D01*
X109700000Y-72090000D02*
X109700000Y-71190000D01*
X111700000Y-73110000D02*
X110720000Y-73110000D01*
X85960000Y-66335000D02*
X87110000Y-66335000D01*
X87110000Y-66335000D02*
X88980000Y-68205000D01*
X88980000Y-68205000D02*
X88980000Y-71230000D01*
X88980000Y-71230000D02*
X89640000Y-71890000D01*
X89640000Y-71890000D02*
X92870000Y-71890000D01*
X92870000Y-71890000D02*
X93260000Y-71500000D01*
X101720000Y-69090000D02*
X104615000Y-69090000D01*
X93260000Y-71500000D02*
X99310000Y-71500000D01*
X99310000Y-71500000D02*
X101720000Y-69090000D01*
X104615000Y-69090000D02*
X105150000Y-69625000D01*
X105150000Y-69625000D02*
X105150000Y-70400000D01*
X82380000Y-64930000D02*
X82890000Y-65440000D01*
X82890000Y-65440000D02*
X82890000Y-66760000D01*
X75205000Y-64930000D02*
X82380000Y-64930000D01*
X73730000Y-65630000D02*
X74505000Y-65630000D01*
X74505000Y-65630000D02*
X75205000Y-64930000D01*
X58240000Y-60010000D02*
X63860000Y-65630000D01*
X63860000Y-65630000D02*
X73730000Y-65630000D01*
X54610000Y-60010000D02*
X58240000Y-60010000D01*
X53880000Y-59280000D02*
X54610000Y-60010000D01*
X53880000Y-58630000D02*
X53880000Y-59280000D01*
X53540000Y-58290000D02*
X53880000Y-58630000D01*
X53540000Y-56360000D02*
X53540000Y-58290000D01*
X52550000Y-55370000D02*
X53540000Y-56360000D01*
D40*
X134841060Y-68408940D02*
X134841060Y-66158940D01*
X134200000Y-60500000D02*
X134200000Y-58575000D01*
X134200000Y-60500000D02*
X134200000Y-61600000D01*
X134150000Y-69100000D02*
X134841060Y-68408940D01*
X134841060Y-66158940D02*
X135724989Y-65275011D01*
X137000000Y-64800000D02*
X137200000Y-64800000D01*
X135724989Y-65275011D02*
X136524989Y-65275011D01*
X136524989Y-65275011D02*
X137000000Y-64800000D01*
X132900000Y-69100000D02*
X134150000Y-69100000D01*
D39*
X82540000Y-74780000D02*
X82540000Y-75940000D01*
X82540000Y-75940000D02*
X82700000Y-76100000D01*
X84745000Y-66335000D02*
X84320000Y-66760000D01*
X84320000Y-66760000D02*
X82890000Y-66760000D01*
X85960000Y-66335000D02*
X84745000Y-66335000D01*
X119850000Y-89355000D02*
X121665000Y-89355000D01*
X121665000Y-89355000D02*
X122640000Y-90330000D01*
X80700000Y-76100000D02*
X82700000Y-76100000D01*
X82700000Y-76100000D02*
X83870000Y-74930000D01*
X122750000Y-71400000D02*
X123700000Y-71400000D01*
X121500000Y-71500000D02*
X122650000Y-71500000D01*
X122650000Y-71500000D02*
X122750000Y-71400000D01*
D37*
X106500000Y-74835000D02*
X108385000Y-74835000D01*
X114749990Y-76327785D02*
X114749990Y-76767356D01*
X113616654Y-75194449D02*
X114749990Y-76327785D01*
X114749990Y-76767356D02*
X114749990Y-77191620D01*
D40*
X134425000Y-53600000D02*
X134425000Y-55225000D01*
D37*
X109560000Y-56420000D02*
X109560000Y-55390000D01*
X111390002Y-58250002D02*
X109560000Y-56420000D01*
X113312002Y-58250002D02*
X111390002Y-58250002D01*
X113461993Y-58100011D02*
X113312002Y-58250002D01*
X119219989Y-58100011D02*
X113461993Y-58100011D01*
X119875000Y-57445000D02*
X119219989Y-58100011D01*
X134580000Y-77810000D02*
X132800000Y-77810000D01*
X132800000Y-77810000D02*
X132780000Y-77830000D01*
X114749990Y-77191620D02*
X114749990Y-79349990D01*
X117620000Y-80620000D02*
X117620000Y-81380000D01*
X114749990Y-79349990D02*
X115200000Y-79800000D01*
X115200000Y-79800000D02*
X115815000Y-79800000D01*
X115815000Y-79800000D02*
X116215000Y-80200000D01*
X116215000Y-80200000D02*
X117200000Y-80200000D01*
X117200000Y-80200000D02*
X117620000Y-80620000D01*
X130050000Y-69100000D02*
X129010000Y-69100000D01*
X109560000Y-55390000D02*
X109530000Y-55420000D01*
X109530000Y-55420000D02*
X108660000Y-55420000D01*
X121500000Y-75500000D02*
X119290000Y-75500000D01*
X121500000Y-75500000D02*
X123290000Y-75500000D01*
X123290000Y-75500000D02*
X125075000Y-75500000D01*
X123340000Y-76810000D02*
X123340000Y-75550000D01*
X123340000Y-75550000D02*
X123290000Y-75500000D01*
X123200000Y-78000000D02*
X123200000Y-76950000D01*
X123200000Y-76950000D02*
X123340000Y-76810000D01*
X76540000Y-53400000D02*
X78260000Y-55120000D01*
X109560000Y-55390000D02*
X109560000Y-55210000D01*
X76540000Y-53000000D02*
X76540000Y-53400000D01*
X131200000Y-78000000D02*
X131970000Y-78000000D01*
X131970000Y-78000000D02*
X132140000Y-77830000D01*
X132140000Y-77830000D02*
X132780000Y-77830000D01*
X109560000Y-55210000D02*
X109560000Y-53000000D01*
X118300000Y-82735000D02*
X118300001Y-84100001D01*
X118300001Y-84100001D02*
X118600000Y-84400000D01*
X117620000Y-81380000D02*
X117620000Y-82055000D01*
X117620000Y-82055000D02*
X118300000Y-82735000D01*
D40*
X141750000Y-73600000D02*
X140412432Y-73600000D01*
X140412432Y-73600000D02*
X140247767Y-73435335D01*
X141750000Y-79825000D02*
X141200700Y-80374300D01*
X141200700Y-80374300D02*
X140200000Y-80374300D01*
D37*
X131200000Y-76575000D02*
X130050000Y-75425000D01*
X131200000Y-76625000D02*
X131200000Y-76575000D01*
X131200000Y-78000000D02*
X131200000Y-76625000D01*
X124800000Y-66600000D02*
X124800000Y-69650000D01*
X132900000Y-69100000D02*
X130050000Y-69100000D01*
X134425000Y-55225000D02*
X134500000Y-55300000D01*
X119850000Y-89355000D02*
X118555000Y-89355000D01*
X118555000Y-89355000D02*
X118200000Y-89000000D01*
X134500000Y-55300000D02*
X137611732Y-55300000D01*
X137611732Y-55300000D02*
X138547767Y-56236035D01*
X138547767Y-56236035D02*
X138547767Y-56386035D01*
X105150000Y-70400000D02*
X105150000Y-71075000D01*
X105150000Y-71075000D02*
X104800000Y-71425000D01*
X104800000Y-71425000D02*
X104800000Y-74600000D01*
X104800000Y-74600000D02*
X105035000Y-74835000D01*
X105035000Y-74835000D02*
X106500000Y-74835000D01*
X118598823Y-73452829D02*
X118564124Y-73487528D01*
X128837013Y-84324989D02*
X131714989Y-84324989D01*
X118600064Y-75921576D02*
X119190042Y-76511554D01*
X118564124Y-73487528D02*
X118564124Y-74721392D01*
X131714989Y-84324989D02*
X140140000Y-92750000D01*
X119190042Y-76632920D02*
X123777797Y-81220675D01*
X128712001Y-84450001D02*
X128837013Y-84324989D01*
X118564124Y-74721392D02*
X118600064Y-74757332D01*
X119190042Y-76511554D02*
X119190042Y-76632920D01*
X118600064Y-74757332D02*
X118600064Y-75921576D01*
X127501468Y-84450001D02*
X128712001Y-84450001D01*
X124272142Y-81220675D02*
X127501468Y-84450001D01*
X123777797Y-81220675D02*
X124272142Y-81220675D01*
X121500000Y-68300000D02*
X119600000Y-68300000D01*
X119600000Y-68300000D02*
X118100000Y-69800000D01*
X136814244Y-95290000D02*
X123744941Y-82220697D01*
X120450000Y-69900000D02*
X121500000Y-69900000D01*
X117424990Y-74996502D02*
X117424990Y-72925010D01*
X118190021Y-76925777D02*
X117600044Y-76335800D01*
X123744941Y-82220697D02*
X123138577Y-82220697D01*
X117600043Y-75171555D02*
X117424990Y-74996502D01*
X118190022Y-77272142D02*
X118190021Y-76925777D01*
X117424990Y-72925010D02*
X120450000Y-69900000D01*
X123138577Y-82220697D02*
X118190022Y-77272142D01*
X140140000Y-95290000D02*
X136814244Y-95290000D01*
X117600044Y-76335800D02*
X117600043Y-75171555D01*
X123537830Y-82720708D02*
X122931466Y-82720708D01*
X116924979Y-72625021D02*
X120450000Y-69100000D01*
X120450000Y-69100000D02*
X121500000Y-69100000D01*
X116924979Y-75203613D02*
X116924979Y-72625021D01*
X117100033Y-75378667D02*
X116924979Y-75203613D01*
X117690011Y-77479253D02*
X117690011Y-77132889D01*
X137377122Y-96560000D02*
X123537830Y-82720708D01*
X142680000Y-95290000D02*
X141410000Y-96560000D01*
X117100033Y-76542911D02*
X117100033Y-75378667D01*
X117690011Y-77132889D02*
X117100033Y-76542911D01*
X122931466Y-82720708D02*
X117690011Y-77479253D01*
X141410000Y-96560000D02*
X137377122Y-96560000D01*
X121600000Y-63750000D02*
X121600000Y-65310000D01*
X122724353Y-83220717D02*
X123240717Y-83220717D01*
X123240717Y-83220717D02*
X137850000Y-97830000D01*
X137850000Y-97830000D02*
X140140000Y-97830000D01*
X116600022Y-76750022D02*
X117190000Y-77340000D01*
X116400020Y-75385776D02*
X116600022Y-75585778D01*
X116600022Y-75585778D02*
X116600022Y-76750022D01*
X116400021Y-70509979D02*
X116400020Y-75385776D01*
X121600000Y-65310000D02*
X116400021Y-70509979D01*
X117190000Y-77686364D02*
X122724353Y-83220717D01*
X117190000Y-77340000D02*
X117190000Y-77686364D01*
X112800000Y-66590000D02*
X118140000Y-66590000D01*
X118140000Y-66590000D02*
X119150000Y-65580000D01*
X112000000Y-67390000D02*
X112800000Y-66590000D01*
X112000000Y-70340000D02*
X112000000Y-67390000D01*
X111900000Y-71190000D02*
X111900000Y-70440000D01*
X111900000Y-70440000D02*
X112000000Y-70340000D01*
X147090000Y-92420000D02*
X148400000Y-92420000D01*
X144330000Y-98370000D02*
X144330000Y-95180000D01*
X144330000Y-95180000D02*
X147090000Y-92420000D01*
X143480000Y-99220000D02*
X144330000Y-98370000D01*
X140542172Y-99220000D02*
X143480000Y-99220000D01*
X140140000Y-97830000D02*
X140140000Y-98817828D01*
X140140000Y-98817828D02*
X140542172Y-99220000D01*
X124000000Y-65550000D02*
X123460000Y-65010000D01*
X124000000Y-66600000D02*
X124000000Y-65550000D01*
X123460000Y-64280000D02*
X123490000Y-64250000D01*
X123460000Y-65010000D02*
X123460000Y-64280000D01*
X138447767Y-66586035D02*
X139897067Y-66586035D01*
X139897067Y-66586035D02*
X140347767Y-66135335D01*
X138547767Y-58586035D02*
X140197067Y-58586035D01*
X140197067Y-58586035D02*
X140447767Y-58335335D01*
X110850000Y-55080000D02*
X110850000Y-55350000D01*
X110850000Y-55350000D02*
X111940000Y-56440000D01*
X79290000Y-54810000D02*
X80310000Y-54810000D01*
X79080000Y-53000000D02*
X79080000Y-54600000D01*
X79080000Y-54600000D02*
X79290000Y-54810000D01*
X112100000Y-53000000D02*
X112100000Y-56280000D01*
X112100000Y-56280000D02*
X111940000Y-56440000D01*
X109112001Y-60749999D02*
X110152002Y-61790000D01*
X110152002Y-61790000D02*
X120989175Y-61790000D01*
X120989175Y-61790000D02*
X121649990Y-62450815D01*
X134748543Y-69900000D02*
X135556412Y-69092131D01*
X135556412Y-67137176D02*
X135856411Y-66837177D01*
X135556412Y-69092131D02*
X135556412Y-67137176D01*
X132900000Y-69900000D02*
X134748543Y-69900000D01*
X81620000Y-53000000D02*
X81620000Y-54600000D01*
X81620000Y-54600000D02*
X82200000Y-55180000D01*
X82200000Y-55180000D02*
X83400000Y-55180000D01*
X83400000Y-55180000D02*
X88969999Y-60749999D01*
X88969999Y-60749999D02*
X109112001Y-60749999D01*
X93549988Y-60249988D02*
X88900000Y-55600000D01*
X86700000Y-53000000D02*
X86700000Y-54600000D01*
X86700000Y-54600000D02*
X87700000Y-55600000D01*
X87700000Y-55600000D02*
X88900000Y-55600000D01*
X110206925Y-61137801D02*
X109319112Y-60249988D01*
X121549990Y-61137801D02*
X110206925Y-61137801D01*
X109319112Y-60249988D02*
X93549988Y-60249988D01*
X135778847Y-74291028D02*
X136203111Y-74291028D01*
X135758972Y-74291028D02*
X135778847Y-74291028D01*
X135350000Y-74700000D02*
X135758972Y-74291028D01*
X132900000Y-74700000D02*
X135350000Y-74700000D01*
X134042878Y-71500000D02*
X132900000Y-71500000D01*
X134402880Y-71139998D02*
X134042878Y-71500000D01*
X134960002Y-71139998D02*
X134402880Y-71139998D01*
X137300000Y-68800000D02*
X134960002Y-71139998D01*
X105749977Y-59749977D02*
X101200000Y-55200000D01*
X100000000Y-55200000D02*
X101200000Y-55200000D01*
X99400000Y-53000000D02*
X99400000Y-54600000D01*
X99400000Y-54600000D02*
X100000000Y-55200000D01*
X120988207Y-60349697D02*
X120887903Y-60450001D01*
X120887903Y-60450001D02*
X110226247Y-60450001D01*
X110226247Y-60450001D02*
X109526223Y-59749977D01*
X121412471Y-60349697D02*
X120988207Y-60349697D01*
X109526223Y-59749977D02*
X105749977Y-59749977D01*
X101940000Y-53000000D02*
X101940000Y-54600000D01*
X117600000Y-59800000D02*
X120400000Y-59800000D01*
X101940000Y-54600000D02*
X102740000Y-55400000D01*
X102740000Y-55400000D02*
X103940000Y-55400000D01*
X103940000Y-55400000D02*
X107789966Y-59249966D01*
X107789966Y-59249966D02*
X109733334Y-59249966D01*
X110283368Y-59800000D02*
X117600000Y-59800000D01*
X109733334Y-59249966D02*
X110283368Y-59800000D01*
X120600000Y-65000000D02*
X120600000Y-63200000D01*
X120600000Y-65602878D02*
X120600000Y-65000000D01*
X117202878Y-69000000D02*
X115900010Y-70302868D01*
X117202878Y-69000000D02*
X120600000Y-65602878D01*
X116100011Y-77169264D02*
X116327992Y-77397245D01*
X115900010Y-75592888D02*
X116100011Y-75792889D01*
X115900010Y-70302868D02*
X115900010Y-75592888D01*
X116100011Y-75792889D02*
X116100011Y-77169264D01*
X121500000Y-76300000D02*
X119805608Y-76300000D01*
X119805608Y-76300000D02*
X119804164Y-76298556D01*
X104480000Y-53000000D02*
X104480000Y-54600000D01*
X104480000Y-54600000D02*
X106289510Y-56409510D01*
X106289510Y-56409510D02*
X107600000Y-56409510D01*
X107600000Y-56409510D02*
X110440513Y-59250023D01*
X113876215Y-59100033D02*
X121400033Y-59100033D01*
X123200000Y-66125000D02*
X123200000Y-66600000D01*
X110440513Y-59250023D02*
X113726225Y-59250023D01*
X113726225Y-59250023D02*
X113876215Y-59100033D01*
X122625000Y-65550000D02*
X123200000Y-66125000D01*
X121400033Y-59100033D02*
X122625000Y-60325000D01*
X122625000Y-60325000D02*
X122625000Y-65550000D01*
X132900000Y-70700000D02*
X132960013Y-70639987D01*
X136500000Y-68024264D02*
X136500000Y-67600000D01*
X136500000Y-68855665D02*
X136500000Y-68024264D01*
X134715678Y-70639987D02*
X136500000Y-68855665D01*
X132960013Y-70639987D02*
X134715678Y-70639987D01*
X121900022Y-58600022D02*
X125600000Y-62300000D01*
X125600000Y-62300000D02*
X125600000Y-62975736D01*
X125600000Y-62975736D02*
X125600000Y-63400000D01*
X110647625Y-58750013D02*
X113519113Y-58750013D01*
X113519113Y-58750013D02*
X113669104Y-58600022D01*
X113669104Y-58600022D02*
X121900022Y-58600022D01*
X107020000Y-55122388D02*
X110647625Y-58750013D01*
X107020000Y-53000000D02*
X107020000Y-55122388D01*
X145300000Y-89535470D02*
X139999870Y-89535470D01*
X145300000Y-89535470D02*
X145644530Y-89880000D01*
X145644530Y-89880000D02*
X148521920Y-89880000D01*
X133764390Y-83299990D02*
X129771504Y-83299990D01*
X125600000Y-79050000D02*
X125600000Y-78000000D01*
X139999870Y-89535470D02*
X133764390Y-83299990D01*
X129771504Y-83299990D02*
X125600000Y-79128486D01*
X125600000Y-79128486D02*
X125600000Y-79050000D01*
X129978619Y-82799979D02*
X133971501Y-82799979D01*
X147473888Y-86995470D02*
X148461716Y-86995470D01*
X126400000Y-78000000D02*
X126400000Y-79221360D01*
X133971501Y-82799979D02*
X138166992Y-86995470D01*
X138166992Y-86995470D02*
X147473888Y-86995470D01*
X126400000Y-79221360D02*
X129978619Y-82799979D01*
X145749329Y-85850701D02*
X146700030Y-84900000D01*
X146700030Y-84900000D02*
X146800030Y-84800000D01*
X146800030Y-84800000D02*
X148521920Y-84800000D01*
X127200000Y-78000000D02*
X127200000Y-79314238D01*
X127200000Y-79314238D02*
X130185731Y-82299969D01*
X130185731Y-82299969D02*
X134178613Y-82299969D01*
X134178613Y-82299969D02*
X138178644Y-86300000D01*
X138178644Y-86300000D02*
X145300030Y-86300000D01*
X145300030Y-86300000D02*
X145749329Y-85850701D01*
X148583636Y-84455470D02*
X148428166Y-84300000D01*
X148521920Y-69560000D02*
X147240000Y-69560000D01*
X147240000Y-69560000D02*
X145675000Y-71125000D01*
X145675000Y-71125000D02*
X142775000Y-71125000D01*
X142775000Y-73900000D02*
X142775000Y-71125000D01*
X141500000Y-75175000D02*
X142775000Y-73900000D01*
X135525000Y-75175000D02*
X141500000Y-75175000D01*
X135400000Y-75300000D02*
X135525000Y-75175000D01*
X132900000Y-75500000D02*
X135200000Y-75500000D01*
X135200000Y-75500000D02*
X135400000Y-75300000D01*
X138447767Y-64536035D02*
X137291575Y-65692227D01*
X137291575Y-65692227D02*
X137291575Y-65720807D01*
X138447767Y-64386035D02*
X138447767Y-64536035D01*
X141464244Y-67020000D02*
X148400000Y-67020000D01*
X135734245Y-72749999D02*
X141464244Y-67020000D01*
X135709127Y-72749999D02*
X135734245Y-72749999D01*
X135250002Y-73209124D02*
X135250002Y-72987996D01*
X135519113Y-72940013D02*
X135709127Y-72749999D01*
X134559126Y-73900000D02*
X135250002Y-73209124D01*
X135250002Y-72987996D02*
X135297985Y-72940013D01*
X132900000Y-73900000D02*
X134559126Y-73900000D01*
X135297985Y-72940013D02*
X135519113Y-72940013D01*
X125800000Y-88790000D02*
X126530000Y-89520000D01*
X126530000Y-89520000D02*
X126530000Y-90510000D01*
X125800000Y-86790000D02*
X125800000Y-88790000D01*
X134397122Y-73100000D02*
X134600000Y-72897122D01*
X132900000Y-73100000D02*
X134397122Y-73100000D01*
X135057120Y-72440002D02*
X134600000Y-72897122D01*
X148521920Y-64480000D02*
X143297122Y-64480000D01*
X135312002Y-72440002D02*
X135057120Y-72440002D01*
X135502016Y-72249988D02*
X135312002Y-72440002D01*
X135527134Y-72249988D02*
X135502016Y-72249988D01*
X143297122Y-64480000D02*
X135527134Y-72249988D01*
X124840000Y-90330000D02*
X126350000Y-90330000D01*
X126350000Y-90330000D02*
X126530000Y-90510000D01*
X142500001Y-58999999D02*
X142800000Y-58700000D01*
X140300041Y-61199958D02*
X142500001Y-58999999D01*
X134146523Y-62824989D02*
X135771558Y-61199958D01*
X128000000Y-66600000D02*
X128000000Y-65192878D01*
X130367889Y-62824989D02*
X134146523Y-62824989D01*
X135771558Y-61199958D02*
X140300041Y-61199958D01*
X128000000Y-65192878D02*
X130367889Y-62824989D01*
X135978668Y-61699968D02*
X140900032Y-61699968D01*
X144600000Y-57624264D02*
X144600000Y-57200000D01*
X144600000Y-58000000D02*
X144600000Y-57624264D01*
X134353634Y-63325000D02*
X135978668Y-61699968D01*
X128800000Y-66600000D02*
X128800000Y-65100000D01*
X130575000Y-63325000D02*
X134353634Y-63325000D01*
X140900032Y-61699968D02*
X144600000Y-58000000D01*
X128800000Y-65100000D02*
X130575000Y-63325000D01*
X145900010Y-58607110D02*
X145900010Y-57200000D01*
X148521920Y-54320000D02*
X145900010Y-56941910D01*
X145900010Y-57200000D02*
X145900010Y-57021910D01*
X145900010Y-56941910D02*
X145900010Y-57200000D01*
X141807131Y-62699989D02*
X145900010Y-58607110D01*
X136392889Y-62699989D02*
X141807131Y-62699989D01*
X130400000Y-65550000D02*
X131450010Y-64499990D01*
X130400000Y-66600000D02*
X130400000Y-65550000D01*
X131450010Y-64499990D02*
X134592888Y-64499990D01*
X134592888Y-64499990D02*
X136392889Y-62699989D01*
X148400000Y-51780000D02*
X145400000Y-54780000D01*
X145400000Y-54780000D02*
X145400000Y-54860000D01*
X145399999Y-58140001D02*
X145400000Y-54860000D01*
X136185778Y-62199978D02*
X141340022Y-62199978D01*
X134410756Y-63975000D02*
X136185778Y-62199978D01*
X130775000Y-63975000D02*
X134410756Y-63975000D01*
X141340022Y-62199978D02*
X145399999Y-58140001D01*
X129925000Y-64825000D02*
X130775000Y-63975000D01*
X129925000Y-64825000D02*
X130150008Y-64599992D01*
X129600000Y-65150000D02*
X129925000Y-64825000D01*
X129600000Y-65550000D02*
X129600000Y-65150000D01*
X129600000Y-66600000D02*
X129600000Y-65550000D01*
X123345686Y-81720686D02*
X123952052Y-81720686D01*
X129175736Y-85075000D02*
X129600000Y-85075000D01*
X120250000Y-78625000D02*
X123345686Y-81720686D01*
X127306366Y-85075000D02*
X129175736Y-85075000D01*
X123952052Y-81720686D02*
X127306366Y-85075000D01*
X121500000Y-70700000D02*
X120389648Y-70700000D01*
X117925001Y-74789391D02*
X118100053Y-74964443D01*
X118100053Y-76128687D02*
X118690031Y-76718665D01*
X120389648Y-70700000D02*
X117925001Y-73164647D01*
X118690031Y-77065031D02*
X120250000Y-78625000D01*
X118690031Y-76718665D02*
X118690031Y-77065031D01*
X118100053Y-74964443D02*
X118100053Y-76128687D01*
X117925001Y-73164647D02*
X117925001Y-74789391D01*
X120250000Y-78625000D02*
X120900000Y-79275000D01*
X139686732Y-81675000D02*
X140400000Y-81675000D01*
X138447767Y-81186035D02*
X139197767Y-81186035D01*
X139197767Y-81186035D02*
X139686732Y-81675000D01*
X138433802Y-81200000D02*
X138447767Y-81186035D01*
X132435010Y-65939990D02*
X132672284Y-65939990D01*
X131200000Y-66600000D02*
X131775000Y-66600000D01*
X131775000Y-66600000D02*
X132435010Y-65939990D01*
X138447767Y-71586035D02*
X138213965Y-71586035D01*
X138213965Y-71586035D02*
X136305229Y-73494771D01*
X136305229Y-73494771D02*
X135857871Y-73494771D01*
X140130000Y-76280000D02*
X141030000Y-76280000D01*
X139749989Y-75899989D02*
X140130000Y-76280000D01*
X137007889Y-75899989D02*
X139749989Y-75899989D01*
X136607878Y-76300000D02*
X137007889Y-75899989D01*
X132900000Y-76300000D02*
X136607878Y-76300000D01*
X107981451Y-70081897D02*
X107950021Y-70113327D01*
X107981451Y-66718549D02*
X107981451Y-70081897D01*
X108200000Y-66500000D02*
X107981451Y-66718549D01*
X121500000Y-73900000D02*
X119278250Y-73900000D01*
X119278250Y-73900000D02*
X119214125Y-73964125D01*
X106600000Y-66500000D02*
X107300011Y-67200011D01*
X107300011Y-70570758D02*
X107512967Y-70783714D01*
X107300011Y-67200011D02*
X107300011Y-70570758D01*
X121500000Y-74700000D02*
X119950000Y-74700000D01*
X119950000Y-74700000D02*
X119885875Y-74635875D01*
X106500000Y-76105000D02*
X105425000Y-76105000D01*
X105425000Y-76105000D02*
X104900000Y-76630000D01*
X104900000Y-77650000D02*
X104900000Y-78400000D01*
X104900000Y-76630000D02*
X104900000Y-77650000D01*
X101100000Y-76105000D02*
X102175000Y-76105000D01*
X102175000Y-76105000D02*
X102700000Y-76630000D01*
X102700000Y-76630000D02*
X102700000Y-78400000D01*
X82813300Y-70710000D02*
X82816402Y-70706898D01*
X80090000Y-70710000D02*
X82813300Y-70710000D01*
X85960000Y-69585000D02*
X84282888Y-69585000D01*
X84282888Y-69585000D02*
X84282886Y-69585002D01*
X100600000Y-67790000D02*
X98600000Y-69790000D01*
X96000000Y-69990000D02*
X98400000Y-69990000D01*
X98400000Y-69990000D02*
X98600000Y-69790000D01*
X88400000Y-74190000D02*
X91600000Y-74190000D01*
X87600000Y-73390000D02*
X88400000Y-74190000D01*
X87400000Y-73390000D02*
X87600000Y-73390000D01*
X105200000Y-67790000D02*
X100600000Y-67790000D01*
X106800000Y-69390000D02*
X105200000Y-67790000D01*
X106800000Y-69790000D02*
X106800000Y-69390000D01*
X106800000Y-70789998D02*
X106800000Y-69790000D01*
X107600000Y-71590000D02*
X107443715Y-71433715D01*
X108000000Y-71590000D02*
X107600000Y-71590000D01*
X107443715Y-71433715D02*
X107200966Y-71433715D01*
X106862966Y-70852966D02*
X106800000Y-70789998D01*
X107200966Y-71433715D02*
X106862966Y-71095715D01*
X106862966Y-71095715D02*
X106862966Y-70852966D01*
X111000000Y-68090825D02*
X108400000Y-70690825D01*
X112000000Y-65790000D02*
X111000000Y-66790000D01*
X116200000Y-65790000D02*
X112000000Y-65790000D01*
X111000000Y-66790000D02*
X111000000Y-68090825D01*
X108400000Y-70690825D02*
X108400000Y-71190000D01*
X108400000Y-71190000D02*
X108000000Y-71590000D01*
X134460000Y-71790000D02*
X135000000Y-71790000D01*
X132900000Y-72300000D02*
X133950000Y-72300000D01*
X133950000Y-72300000D02*
X134460000Y-71790000D01*
X84800000Y-78190000D02*
X82920000Y-78190000D01*
X82920000Y-78190000D02*
X81780000Y-77050000D01*
X81780000Y-77050000D02*
X80700000Y-77050000D01*
X86200000Y-76790000D02*
X84800000Y-78190000D01*
X86200000Y-74590000D02*
X86200000Y-76790000D01*
X87400000Y-73390000D02*
X86200000Y-74590000D01*
X87400000Y-69975000D02*
X87400000Y-73390000D01*
X85960000Y-69585000D02*
X87010000Y-69585000D01*
X87010000Y-69585000D02*
X87400000Y-69975000D01*
X73700001Y-78790001D02*
X78959999Y-78790001D01*
X73280000Y-78370000D02*
X73700001Y-78790001D01*
X78959999Y-78790001D02*
X80700000Y-77050000D01*
X113000000Y-74139988D02*
X113739988Y-74139988D01*
X110900000Y-76700000D02*
X111800000Y-76700000D01*
X112450002Y-74689986D02*
X113000000Y-74139988D01*
X111800000Y-76700000D02*
X112450002Y-76049998D01*
X112450002Y-76049998D02*
X112450002Y-74689986D01*
X113739988Y-74139988D02*
X115400000Y-75800000D01*
X115400000Y-75800000D02*
X115400000Y-77474264D01*
X115400000Y-77474264D02*
X121065736Y-83140000D01*
X121065736Y-83140000D02*
X121490000Y-83140000D01*
X110900000Y-76700000D02*
X110900000Y-78400000D01*
X110900000Y-78400000D02*
X111300000Y-78800000D01*
X144837002Y-78200000D02*
X140412025Y-82624977D01*
X144837002Y-78200000D02*
X145857002Y-77180000D01*
X145857002Y-77180000D02*
X148400000Y-77180000D01*
X129600000Y-78000000D02*
X129600000Y-79300000D01*
X129600000Y-79300000D02*
X130925000Y-80625000D01*
X130925000Y-80625000D02*
X134625001Y-80625000D01*
X134625001Y-80625000D02*
X136624979Y-82624977D01*
X136624979Y-82624977D02*
X140335799Y-82624977D01*
X140412025Y-82624977D02*
X140335799Y-82624977D01*
X140335799Y-82624977D02*
X140124977Y-82624977D01*
X140124977Y-82624977D02*
X139925000Y-82425000D01*
X144024124Y-79720000D02*
X148521920Y-79720000D01*
X140619136Y-83124988D02*
X143544124Y-80200000D01*
X143544124Y-80200000D02*
X144024124Y-79720000D01*
X128800000Y-78000000D02*
X128800000Y-79500000D01*
X128800000Y-79500000D02*
X130450000Y-81150000D01*
X130450000Y-81150000D02*
X134442880Y-81150000D01*
X134442880Y-81150000D02*
X136417868Y-83124988D01*
X136417868Y-83124988D02*
X140619136Y-83124988D01*
X145200000Y-81715470D02*
X145400000Y-81915470D01*
X144884530Y-81400000D02*
X145200000Y-81715470D01*
X145200000Y-81715470D02*
X145744530Y-82260000D01*
X145744530Y-82260000D02*
X148400000Y-82260000D01*
X134385718Y-81799958D02*
X135500000Y-82914240D01*
X128000000Y-79407116D02*
X130392842Y-81799958D01*
X130392842Y-81799958D02*
X134385718Y-81799958D01*
X128000000Y-78000000D02*
X128000000Y-79407116D01*
X135500000Y-82914240D02*
X136210757Y-83624999D01*
X136210757Y-83624999D02*
X140826247Y-83624999D01*
X140826247Y-83624999D02*
X143051246Y-81400000D01*
X143051246Y-81400000D02*
X144884530Y-81400000D01*
X135500000Y-82914240D02*
X135642880Y-83057120D01*
X101100000Y-74835000D02*
X98315000Y-74835000D01*
X98315000Y-74835000D02*
X98200000Y-74950000D01*
X96300000Y-74900000D02*
X98150000Y-74900000D01*
X98150000Y-74900000D02*
X98200000Y-74950000D01*
X96365000Y-74835000D02*
X96300000Y-74900000D01*
X99050000Y-73050000D02*
X99565000Y-73565000D01*
X99565000Y-73565000D02*
X101100000Y-73565000D01*
X98200000Y-73050000D02*
X99050000Y-73050000D01*
X98200000Y-73050000D02*
X96250000Y-73050000D01*
X96250000Y-73050000D02*
X96200000Y-73000000D01*
X115000000Y-70400000D02*
X113850000Y-70400000D01*
X113850000Y-70400000D02*
X113700000Y-70250000D01*
X119769253Y-72300000D02*
X119506499Y-72562754D01*
X121500000Y-72300000D02*
X119769253Y-72300000D01*
D40*
X73280000Y-86080000D02*
X77152000Y-86080000D01*
X77152000Y-86080000D02*
X78772000Y-87700000D01*
X71660000Y-87700000D02*
X73280000Y-86080000D01*
X76232000Y-87700000D02*
X74200000Y-87700000D01*
X57000000Y-85600000D02*
X57000000Y-87598980D01*
X59540000Y-85600000D02*
X59540000Y-87598980D01*
D37*
X111464749Y-75404749D02*
X111464749Y-75516377D01*
X106500000Y-72295000D02*
X108355000Y-72295000D01*
X108355000Y-72295000D02*
X111464749Y-75404749D01*
X106500000Y-72295000D02*
X106299990Y-72094990D01*
X94292801Y-70739990D02*
X93911779Y-70358968D01*
X98850010Y-70739990D02*
X94292801Y-70739990D01*
X101200000Y-68390000D02*
X98850010Y-70739990D01*
X104692878Y-68390000D02*
X101200000Y-68390000D01*
X106299990Y-69997112D02*
X104692878Y-68390000D01*
X106299990Y-72094990D02*
X106299990Y-69997112D01*
X67060000Y-72130000D02*
X70450010Y-68739990D01*
X70450010Y-68739990D02*
X80328557Y-68739990D01*
X80328557Y-68739990D02*
X80367772Y-68700775D01*
X110700000Y-83050000D02*
X111075000Y-83050000D01*
X111075000Y-83050000D02*
X112350000Y-84325000D01*
X108900000Y-82900000D02*
X110550000Y-82900000D01*
X110550000Y-82900000D02*
X110700000Y-83050000D01*
X116100000Y-85500000D02*
X116100000Y-84800000D01*
X118685000Y-88085000D02*
X116100000Y-85500000D01*
X119850000Y-88085000D02*
X118685000Y-88085000D01*
X119850000Y-88085000D02*
X123085000Y-88085000D01*
X123085000Y-88085000D02*
X123100000Y-88100000D01*
X106600000Y-62840000D02*
X106260373Y-62500373D01*
X106600000Y-64300000D02*
X106600000Y-62840000D01*
X108200000Y-64300000D02*
X108200000Y-63400000D01*
X108200000Y-63400000D02*
X107200000Y-62400000D01*
X127200000Y-66600000D02*
X127200000Y-62800000D01*
X127200000Y-62800000D02*
X128075000Y-61925000D01*
X128075000Y-61925000D02*
X128075000Y-61550000D01*
X128075000Y-61550000D02*
X129100000Y-60525000D01*
X129100000Y-60525000D02*
X129100000Y-57722450D01*
X129100000Y-57722450D02*
X128719496Y-57341946D01*
X128719496Y-57341946D02*
X127819496Y-57341946D01*
X127819496Y-57341946D02*
X127819496Y-55191946D01*
X127819496Y-55191946D02*
X127769496Y-55141946D01*
X126400000Y-65550000D02*
X126400000Y-66600000D01*
X126219496Y-60212374D02*
X127200010Y-61192888D01*
X127200010Y-61907112D02*
X126400000Y-62707122D01*
X127200010Y-61192888D02*
X127200010Y-61907112D01*
X126400000Y-62707122D02*
X126400000Y-65550000D01*
X126219496Y-59541946D02*
X126219496Y-60212374D01*
X124219496Y-59391946D02*
X126069496Y-59391946D01*
X126069496Y-59391946D02*
X126219496Y-59541946D01*
X121085000Y-86815000D02*
X122000000Y-85900000D01*
X122000000Y-85900000D02*
X123100000Y-85900000D01*
X119850000Y-86815000D02*
X121085000Y-86815000D01*
X119850000Y-86815000D02*
X118775000Y-86815000D01*
X109200000Y-74300000D02*
X109200000Y-76200000D01*
X109200000Y-76200000D02*
X108700000Y-76700000D01*
X108765000Y-73865000D02*
X109200000Y-74300000D01*
X108555000Y-73865000D02*
X108765000Y-73865000D01*
X107690000Y-73565000D02*
X107990000Y-73865000D01*
X107990000Y-73865000D02*
X108555000Y-73865000D01*
X106500000Y-73565000D02*
X107690000Y-73565000D01*
X114450000Y-88085000D02*
X113185000Y-88085000D01*
X113185000Y-88085000D02*
X112850000Y-87750000D01*
X112850000Y-87750000D02*
X112100000Y-87750000D01*
X110500000Y-87250000D02*
X111600000Y-87250000D01*
X111600000Y-87250000D02*
X112100000Y-87750000D01*
X112100000Y-87750000D02*
X112150000Y-87750000D01*
X108400000Y-87100000D02*
X110350000Y-87100000D01*
X110350000Y-87100000D02*
X110500000Y-87250000D01*
X106300000Y-89300000D02*
X106300000Y-89200000D01*
X106300000Y-89200000D02*
X108400000Y-87100000D01*
X112760000Y-86200000D02*
X113375000Y-86815000D01*
X112760000Y-86200000D02*
X112450000Y-86200000D01*
X112450000Y-86200000D02*
X112100000Y-85850000D01*
X113375000Y-86815000D02*
X114450000Y-86815000D01*
X110700000Y-84950000D02*
X111200000Y-84950000D01*
X111200000Y-84950000D02*
X112100000Y-85850000D01*
X108900000Y-84800000D02*
X110550000Y-84800000D01*
X110550000Y-84800000D02*
X110700000Y-84950000D01*
X112100000Y-85625000D02*
X112100000Y-85850000D01*
X106900000Y-82900000D02*
X108800000Y-84800000D01*
X108800000Y-84800000D02*
X108900000Y-84800000D01*
X106700000Y-82900000D02*
X106900000Y-82900000D01*
X70280000Y-79320000D02*
X67880000Y-79320000D01*
X67880000Y-79320000D02*
X67060000Y-78500000D01*
X67060000Y-78500000D02*
X67060000Y-77750000D01*
X82200000Y-71590000D02*
X78760000Y-71590000D01*
X78760000Y-71590000D02*
X78690000Y-71660000D01*
X78690000Y-71660000D02*
X77090000Y-71660000D01*
X77090000Y-71660000D02*
X77090000Y-72390000D01*
X77400000Y-72790000D02*
X77090000Y-72480000D01*
X77090000Y-72480000D02*
X77090000Y-72390000D01*
X85000000Y-72190000D02*
X84410000Y-72190000D01*
X84410000Y-72190000D02*
X83870000Y-72730000D01*
X73350000Y-74290000D02*
X74600000Y-74290000D01*
X74600000Y-74290000D02*
X75260000Y-74950000D01*
X70350000Y-75240000D02*
X67100000Y-75240000D01*
X67100000Y-75240000D02*
X67060000Y-75280000D01*
X84000000Y-77340000D02*
X85650001Y-75689999D01*
X83459998Y-69681368D02*
X83459998Y-69437998D01*
X85650001Y-75689999D02*
X85650001Y-71877999D01*
X85650001Y-71877999D02*
X85232003Y-71460001D01*
X85232003Y-71460001D02*
X84670001Y-71460001D01*
X84670001Y-71460001D02*
X84100000Y-70890000D01*
X83962996Y-68935000D02*
X85960000Y-68935000D01*
X84100000Y-70890000D02*
X84100000Y-70321370D01*
X84100000Y-70321370D02*
X83459998Y-69681368D01*
X83459998Y-69437998D02*
X83962996Y-68935000D01*
X76380000Y-77300000D02*
X76630000Y-77050000D01*
X76630000Y-77050000D02*
X78000000Y-77050000D01*
X70540000Y-77300000D02*
X76380000Y-77300000D01*
X69830000Y-76590000D02*
X70540000Y-77300000D01*
X65270000Y-76590000D02*
X69830000Y-76590000D01*
X64860000Y-77750000D02*
X64860000Y-77000000D01*
X64860000Y-77000000D02*
X65270000Y-76590000D01*
X62402120Y-77712860D02*
X64822860Y-77712860D01*
X64822860Y-77712860D02*
X64860000Y-77750000D01*
X83466404Y-71125472D02*
X83466404Y-70394896D01*
X79130000Y-74020000D02*
X81207996Y-74020000D01*
X82959987Y-69230887D02*
X83905874Y-68285000D01*
X83047772Y-71544104D02*
X83466404Y-71125472D01*
X78000000Y-75150000D02*
X79130000Y-74020000D01*
X81207996Y-74020000D02*
X83047772Y-72180224D01*
X83466404Y-70394896D02*
X82959987Y-69888479D01*
X83047772Y-72180224D02*
X83047772Y-71544104D01*
X82959987Y-69888479D02*
X82959987Y-69230887D01*
X83905874Y-68285000D02*
X85960000Y-68285000D01*
X71630000Y-72910000D02*
X74680000Y-72910000D01*
X74680000Y-72910000D02*
X76920000Y-75150000D01*
X76920000Y-75150000D02*
X78000000Y-75150000D01*
X70600000Y-73940000D02*
X71630000Y-72910000D01*
X65450000Y-73940000D02*
X70600000Y-73940000D01*
X64860000Y-75280000D02*
X64860000Y-74530000D01*
X64860000Y-74530000D02*
X65450000Y-73940000D01*
X62402120Y-75172860D02*
X64752860Y-75172860D01*
X64752860Y-75172860D02*
X64860000Y-75280000D01*
G36*
X124648751Y-68529879D02*
X124682382Y-68713123D01*
X124750966Y-68886344D01*
X124851889Y-69042946D01*
X124959436Y-69154314D01*
X125032343Y-69243707D01*
X125152646Y-69343230D01*
X125289988Y-69417491D01*
X125439138Y-69463660D01*
X125594415Y-69479981D01*
X125749905Y-69465830D01*
X125899685Y-69421747D01*
X126038051Y-69349411D01*
X126159731Y-69251578D01*
X126254537Y-69138593D01*
X126322625Y-69073753D01*
X126430017Y-68921515D01*
X126505794Y-68751318D01*
X126547070Y-68569643D01*
X126550041Y-68356848D01*
X126548685Y-68350000D01*
X129600704Y-68350000D01*
X129598751Y-68489879D01*
X129632382Y-68673123D01*
X129700966Y-68846344D01*
X129801889Y-69002946D01*
X129931307Y-69136962D01*
X130084291Y-69243289D01*
X130255013Y-69317876D01*
X130436972Y-69357882D01*
X130623236Y-69361784D01*
X130806710Y-69329432D01*
X130850000Y-69312641D01*
X130850000Y-75987438D01*
X130769760Y-75866667D01*
X130638483Y-75734470D01*
X130484029Y-75630290D01*
X130312282Y-75558094D01*
X130129783Y-75520632D01*
X129943482Y-75519332D01*
X129760478Y-75554242D01*
X129587739Y-75624033D01*
X129431846Y-75726046D01*
X129298736Y-75856397D01*
X129193480Y-76010119D01*
X129120087Y-76181359D01*
X129105497Y-76250000D01*
X124988042Y-76250000D01*
X124990041Y-76106848D01*
X124953854Y-75924091D01*
X124882859Y-75751844D01*
X124779760Y-75596667D01*
X124648483Y-75464470D01*
X124494029Y-75360290D01*
X124322282Y-75288094D01*
X124139783Y-75250632D01*
X123953482Y-75249332D01*
X123770478Y-75284242D01*
X123597739Y-75354033D01*
X123441846Y-75456046D01*
X123350000Y-75545988D01*
X123350000Y-74037555D01*
X123396972Y-74047882D01*
X123583236Y-74051784D01*
X123766710Y-74019432D01*
X123940406Y-73952060D01*
X124097709Y-73852233D01*
X124232625Y-73723753D01*
X124340017Y-73571515D01*
X124415794Y-73401318D01*
X124457070Y-73219643D01*
X124460041Y-73006848D01*
X124423854Y-72824091D01*
X124352859Y-72651844D01*
X124249760Y-72496667D01*
X124118483Y-72364470D01*
X123964029Y-72260290D01*
X123792282Y-72188094D01*
X123609783Y-72150632D01*
X123423482Y-72149332D01*
X123350000Y-72163349D01*
X123350000Y-68350000D01*
X124651263Y-68350000D01*
X124648751Y-68529879D01*
X124648751Y-68529879D01*
G37*
X124648751Y-68529879D02*
X124682382Y-68713123D01*
X124750966Y-68886344D01*
X124851889Y-69042946D01*
X124959436Y-69154314D01*
X125032343Y-69243707D01*
X125152646Y-69343230D01*
X125289988Y-69417491D01*
X125439138Y-69463660D01*
X125594415Y-69479981D01*
X125749905Y-69465830D01*
X125899685Y-69421747D01*
X126038051Y-69349411D01*
X126159731Y-69251578D01*
X126254537Y-69138593D01*
X126322625Y-69073753D01*
X126430017Y-68921515D01*
X126505794Y-68751318D01*
X126547070Y-68569643D01*
X126550041Y-68356848D01*
X126548685Y-68350000D01*
X129600704Y-68350000D01*
X129598751Y-68489879D01*
X129632382Y-68673123D01*
X129700966Y-68846344D01*
X129801889Y-69002946D01*
X129931307Y-69136962D01*
X130084291Y-69243289D01*
X130255013Y-69317876D01*
X130436972Y-69357882D01*
X130623236Y-69361784D01*
X130806710Y-69329432D01*
X130850000Y-69312641D01*
X130850000Y-75987438D01*
X130769760Y-75866667D01*
X130638483Y-75734470D01*
X130484029Y-75630290D01*
X130312282Y-75558094D01*
X130129783Y-75520632D01*
X129943482Y-75519332D01*
X129760478Y-75554242D01*
X129587739Y-75624033D01*
X129431846Y-75726046D01*
X129298736Y-75856397D01*
X129193480Y-76010119D01*
X129120087Y-76181359D01*
X129105497Y-76250000D01*
X124988042Y-76250000D01*
X124990041Y-76106848D01*
X124953854Y-75924091D01*
X124882859Y-75751844D01*
X124779760Y-75596667D01*
X124648483Y-75464470D01*
X124494029Y-75360290D01*
X124322282Y-75288094D01*
X124139783Y-75250632D01*
X123953482Y-75249332D01*
X123770478Y-75284242D01*
X123597739Y-75354033D01*
X123441846Y-75456046D01*
X123350000Y-75545988D01*
X123350000Y-74037555D01*
X123396972Y-74047882D01*
X123583236Y-74051784D01*
X123766710Y-74019432D01*
X123940406Y-73952060D01*
X124097709Y-73852233D01*
X124232625Y-73723753D01*
X124340017Y-73571515D01*
X124415794Y-73401318D01*
X124457070Y-73219643D01*
X124460041Y-73006848D01*
X124423854Y-72824091D01*
X124352859Y-72651844D01*
X124249760Y-72496667D01*
X124118483Y-72364470D01*
X123964029Y-72260290D01*
X123792282Y-72188094D01*
X123609783Y-72150632D01*
X123423482Y-72149332D01*
X123350000Y-72163349D01*
X123350000Y-68350000D01*
X124651263Y-68350000D01*
X124648751Y-68529879D01*
D41*
G36*
X147649319Y-93541355D02*
X148052424Y-93708739D01*
X147833284Y-93799510D01*
X147771246Y-94032550D01*
X148521920Y-94783223D01*
X148536062Y-94769081D01*
X148712839Y-94945858D01*
X148698697Y-94960000D01*
X148712839Y-94974142D01*
X148536062Y-95150919D01*
X148521920Y-95136777D01*
X147771246Y-95887450D01*
X147833284Y-96120490D01*
X147957323Y-96164256D01*
X147701500Y-96164256D01*
X147469889Y-96207837D01*
X147257168Y-96344719D01*
X147114462Y-96553576D01*
X147064256Y-96801500D01*
X147064256Y-98198500D01*
X147107837Y-98430111D01*
X147244719Y-98642832D01*
X147453576Y-98785538D01*
X147701500Y-98835744D01*
X149098500Y-98835744D01*
X149300000Y-98797829D01*
X149300000Y-99300000D01*
X144496015Y-99300000D01*
X144878005Y-98918010D01*
X144878008Y-98918008D01*
X145046007Y-98666580D01*
X145063483Y-98578723D01*
X145105001Y-98370000D01*
X145105000Y-98369995D01*
X145105000Y-95501016D01*
X145838132Y-94767883D01*
X147186238Y-94767883D01*
X147214390Y-95293651D01*
X147361430Y-95648636D01*
X147594470Y-95710674D01*
X148345143Y-94960000D01*
X147594470Y-94209326D01*
X147361430Y-94271364D01*
X147186238Y-94767883D01*
X145838132Y-94767883D01*
X147357245Y-93248770D01*
X147649319Y-93541355D01*
X147649319Y-93541355D01*
G37*
X147649319Y-93541355D02*
X148052424Y-93708739D01*
X147833284Y-93799510D01*
X147771246Y-94032550D01*
X148521920Y-94783223D01*
X148536062Y-94769081D01*
X148712839Y-94945858D01*
X148698697Y-94960000D01*
X148712839Y-94974142D01*
X148536062Y-95150919D01*
X148521920Y-95136777D01*
X147771246Y-95887450D01*
X147833284Y-96120490D01*
X147957323Y-96164256D01*
X147701500Y-96164256D01*
X147469889Y-96207837D01*
X147257168Y-96344719D01*
X147114462Y-96553576D01*
X147064256Y-96801500D01*
X147064256Y-98198500D01*
X147107837Y-98430111D01*
X147244719Y-98642832D01*
X147453576Y-98785538D01*
X147701500Y-98835744D01*
X149098500Y-98835744D01*
X149300000Y-98797829D01*
X149300000Y-99300000D01*
X144496015Y-99300000D01*
X144878005Y-98918010D01*
X144878008Y-98918008D01*
X145046007Y-98666580D01*
X145063483Y-98578723D01*
X145105001Y-98370000D01*
X145105000Y-98369995D01*
X145105000Y-95501016D01*
X145838132Y-94767883D01*
X147186238Y-94767883D01*
X147214390Y-95293651D01*
X147361430Y-95648636D01*
X147594470Y-95710674D01*
X148345143Y-94960000D01*
X147594470Y-94209326D01*
X147361430Y-94271364D01*
X147186238Y-94767883D01*
X145838132Y-94767883D01*
X147357245Y-93248770D01*
X147649319Y-93541355D01*
G36*
X142870919Y-97815858D02*
X142856777Y-97830000D01*
X142870919Y-97844142D01*
X142694142Y-98020919D01*
X142680000Y-98006777D01*
X142665858Y-98020919D01*
X142489081Y-97844142D01*
X142503223Y-97830000D01*
X142489081Y-97815858D01*
X142665858Y-97639081D01*
X142680000Y-97653223D01*
X142694142Y-97639081D01*
X142870919Y-97815858D01*
X142870919Y-97815858D01*
G37*
X142870919Y-97815858D02*
X142856777Y-97830000D01*
X142870919Y-97844142D01*
X142694142Y-98020919D01*
X142680000Y-98006777D01*
X142665858Y-98020919D01*
X142489081Y-97844142D01*
X142503223Y-97830000D01*
X142489081Y-97815858D01*
X142665858Y-97639081D01*
X142680000Y-97653223D01*
X142694142Y-97639081D01*
X142870919Y-97815858D01*
G36*
X139451860Y-90083475D02*
X139451862Y-90083478D01*
X139617767Y-90194332D01*
X139703290Y-90251477D01*
X139999870Y-90310470D01*
X144978984Y-90310470D01*
X145096522Y-90428008D01*
X145347950Y-90596007D01*
X145644530Y-90655000D01*
X147425488Y-90655000D01*
X147771239Y-91001355D01*
X148068688Y-91124867D01*
X147651277Y-91297337D01*
X147303006Y-91645000D01*
X147090000Y-91645000D01*
X146793420Y-91703993D01*
X146541992Y-91871992D01*
X146541990Y-91871995D01*
X143823143Y-94590841D01*
X143802663Y-94541277D01*
X143430681Y-94168645D01*
X143072422Y-94019883D01*
X143428723Y-93872663D01*
X143801355Y-93500681D01*
X144003270Y-93014415D01*
X144003729Y-92487895D01*
X143802663Y-92001277D01*
X143430681Y-91628645D01*
X142944415Y-91426730D01*
X142417895Y-91426271D01*
X141931277Y-91627337D01*
X141558645Y-91999319D01*
X141475744Y-92198967D01*
X141475744Y-92051500D01*
X141432163Y-91819889D01*
X141295281Y-91607168D01*
X141086424Y-91464462D01*
X140838500Y-91414256D01*
X139900272Y-91414256D01*
X132561006Y-84074990D01*
X133443374Y-84074990D01*
X139451860Y-90083475D01*
X139451860Y-90083475D01*
G37*
X139451860Y-90083475D02*
X139451862Y-90083478D01*
X139617767Y-90194332D01*
X139703290Y-90251477D01*
X139999870Y-90310470D01*
X144978984Y-90310470D01*
X145096522Y-90428008D01*
X145347950Y-90596007D01*
X145644530Y-90655000D01*
X147425488Y-90655000D01*
X147771239Y-91001355D01*
X148068688Y-91124867D01*
X147651277Y-91297337D01*
X147303006Y-91645000D01*
X147090000Y-91645000D01*
X146793420Y-91703993D01*
X146541992Y-91871992D01*
X146541990Y-91871995D01*
X143823143Y-94590841D01*
X143802663Y-94541277D01*
X143430681Y-94168645D01*
X143072422Y-94019883D01*
X143428723Y-93872663D01*
X143801355Y-93500681D01*
X144003270Y-93014415D01*
X144003729Y-92487895D01*
X143802663Y-92001277D01*
X143430681Y-91628645D01*
X142944415Y-91426730D01*
X142417895Y-91426271D01*
X141931277Y-91627337D01*
X141558645Y-91999319D01*
X141475744Y-92198967D01*
X141475744Y-92051500D01*
X141432163Y-91819889D01*
X141295281Y-91607168D01*
X141086424Y-91464462D01*
X140838500Y-91414256D01*
X139900272Y-91414256D01*
X132561006Y-84074990D01*
X133443374Y-84074990D01*
X139451860Y-90083475D01*
G36*
X138804256Y-92510272D02*
X138804256Y-93448500D01*
X138847837Y-93680111D01*
X138984719Y-93892832D01*
X139193576Y-94035538D01*
X139441500Y-94085744D01*
X139588748Y-94085744D01*
X139391277Y-94167337D01*
X139043006Y-94515000D01*
X137135259Y-94515000D01*
X128470260Y-85850000D01*
X129066640Y-85850000D01*
X129075345Y-85858720D01*
X129415199Y-85999839D01*
X129783187Y-86000160D01*
X130123286Y-85859634D01*
X130383720Y-85599655D01*
X130524839Y-85259801D01*
X130524978Y-85099989D01*
X131393973Y-85099989D01*
X138804256Y-92510272D01*
X138804256Y-92510272D01*
G37*
X138804256Y-92510272D02*
X138804256Y-93448500D01*
X138847837Y-93680111D01*
X138984719Y-93892832D01*
X139193576Y-94035538D01*
X139441500Y-94085744D01*
X139588748Y-94085744D01*
X139391277Y-94167337D01*
X139043006Y-94515000D01*
X137135259Y-94515000D01*
X128470260Y-85850000D01*
X129066640Y-85850000D01*
X129075345Y-85858720D01*
X129415199Y-85999839D01*
X129783187Y-86000160D01*
X130123286Y-85859634D01*
X130383720Y-85599655D01*
X130524839Y-85259801D01*
X130524978Y-85099989D01*
X131393973Y-85099989D01*
X138804256Y-92510272D01*
G36*
X147278645Y-51029319D02*
X147076730Y-51515585D01*
X147076301Y-52007683D01*
X145599022Y-53484962D01*
X145624110Y-53424543D01*
X145624848Y-52579166D01*
X145302018Y-51797857D01*
X144704767Y-51199563D01*
X143924023Y-50875370D01*
X143078646Y-50874632D01*
X142297337Y-51197462D01*
X141699043Y-51794713D01*
X141374850Y-52575457D01*
X141374112Y-53420834D01*
X141696942Y-54202143D01*
X142294193Y-54800437D01*
X143074937Y-55124630D01*
X143920314Y-55125368D01*
X144625000Y-54834198D01*
X144625000Y-56275022D01*
X144416813Y-56274840D01*
X144076714Y-56415366D01*
X143816280Y-56675345D01*
X143675161Y-57015199D01*
X143674840Y-57383187D01*
X143805230Y-57698754D01*
X143456065Y-58047919D01*
X143324655Y-57916280D01*
X142984801Y-57775161D01*
X142616813Y-57774840D01*
X142276714Y-57915366D01*
X142016280Y-58175345D01*
X141875161Y-58515199D01*
X141875149Y-58528836D01*
X141436541Y-58967444D01*
X141483791Y-58734115D01*
X141483791Y-57936555D01*
X141440210Y-57704944D01*
X141370044Y-57595902D01*
X141376397Y-57589549D01*
X141471547Y-57359835D01*
X141471547Y-57117985D01*
X141315297Y-56961735D01*
X140572767Y-56961735D01*
X140572767Y-56981735D01*
X140322767Y-56981735D01*
X140322767Y-56961735D01*
X140302767Y-56961735D01*
X140302767Y-56711735D01*
X140322767Y-56711735D01*
X140322767Y-55969205D01*
X140572767Y-55969205D01*
X140572767Y-56711735D01*
X141315297Y-56711735D01*
X141471547Y-56555485D01*
X141471547Y-56313635D01*
X141376397Y-56083921D01*
X141200581Y-55908106D01*
X140970867Y-55812955D01*
X140729017Y-55812955D01*
X140572767Y-55969205D01*
X140322767Y-55969205D01*
X140166517Y-55812955D01*
X139924667Y-55812955D01*
X139694953Y-55908106D01*
X139635011Y-55968048D01*
X139635011Y-55786035D01*
X139591430Y-55554424D01*
X139454548Y-55341703D01*
X139245691Y-55198997D01*
X138997767Y-55148791D01*
X138556539Y-55148791D01*
X138159740Y-54751992D01*
X137908312Y-54583993D01*
X137611732Y-54525000D01*
X135300000Y-54525000D01*
X135300000Y-53904827D01*
X135349839Y-53784801D01*
X135350160Y-53416813D01*
X135209634Y-53076714D01*
X134949655Y-52816280D01*
X134609801Y-52675161D01*
X134241813Y-52674840D01*
X133901714Y-52815366D01*
X133641280Y-53075345D01*
X133500161Y-53415199D01*
X133499840Y-53783187D01*
X133550000Y-53904584D01*
X133550000Y-55116366D01*
X133437799Y-55284286D01*
X133375000Y-55600000D01*
X133375000Y-58323631D01*
X133325000Y-58575000D01*
X133325000Y-61295173D01*
X133275161Y-61415199D01*
X133274840Y-61783187D01*
X133385080Y-62049989D01*
X130367894Y-62049989D01*
X130367889Y-62049988D01*
X130126479Y-62098008D01*
X130071309Y-62108982D01*
X129836305Y-62266007D01*
X129819881Y-62276981D01*
X127975000Y-64121862D01*
X127975000Y-63121016D01*
X128623008Y-62473008D01*
X128791007Y-62221580D01*
X128850000Y-61925000D01*
X128850000Y-61871016D01*
X129648008Y-61073008D01*
X129816007Y-60821580D01*
X129875000Y-60525000D01*
X129875000Y-57722450D01*
X129816007Y-57425870D01*
X129648008Y-57174442D01*
X129267504Y-56793938D01*
X129056740Y-56653110D01*
X129056740Y-56641946D01*
X129013159Y-56410335D01*
X128876277Y-56197614D01*
X128677241Y-56061618D01*
X128813828Y-55973727D01*
X128956534Y-55764870D01*
X129006740Y-55516946D01*
X129006740Y-54766946D01*
X128963159Y-54535335D01*
X128826277Y-54322614D01*
X128617420Y-54179908D01*
X128369496Y-54129702D01*
X127169496Y-54129702D01*
X126937885Y-54173283D01*
X126829476Y-54243042D01*
X126823530Y-54237096D01*
X126593816Y-54141946D01*
X126150746Y-54141946D01*
X125994496Y-54298196D01*
X125994496Y-55016946D01*
X126014496Y-55016946D01*
X126014496Y-55266946D01*
X125994496Y-55266946D01*
X125994496Y-55286946D01*
X125744496Y-55286946D01*
X125744496Y-55266946D01*
X124800746Y-55266946D01*
X124644496Y-55423196D01*
X124644496Y-55641266D01*
X124739647Y-55870980D01*
X124915462Y-56046796D01*
X125145176Y-56141946D01*
X125242328Y-56141946D01*
X125175164Y-56185165D01*
X125032458Y-56394022D01*
X125023701Y-56437267D01*
X124948530Y-56362097D01*
X124718816Y-56266946D01*
X124500746Y-56266946D01*
X124344496Y-56423196D01*
X124344496Y-57366946D01*
X124364496Y-57366946D01*
X124364496Y-57616946D01*
X124344496Y-57616946D01*
X124344496Y-57636946D01*
X124094496Y-57636946D01*
X124094496Y-57616946D01*
X123375746Y-57616946D01*
X123219496Y-57773196D01*
X123219496Y-58216266D01*
X123314646Y-58445980D01*
X123320469Y-58451803D01*
X123257458Y-58544022D01*
X123207252Y-58791946D01*
X123207252Y-58811236D01*
X122448030Y-58052014D01*
X122196602Y-57884015D01*
X121900022Y-57825022D01*
X120718777Y-57825022D01*
X120799839Y-57629801D01*
X120800160Y-57261813D01*
X120659634Y-56921714D01*
X120505816Y-56767626D01*
X123219496Y-56767626D01*
X123219496Y-57210696D01*
X123375746Y-57366946D01*
X124094496Y-57366946D01*
X124094496Y-56423196D01*
X123938246Y-56266946D01*
X123720176Y-56266946D01*
X123490462Y-56362097D01*
X123314646Y-56537912D01*
X123219496Y-56767626D01*
X120505816Y-56767626D01*
X120399655Y-56661280D01*
X120059801Y-56520161D01*
X119691813Y-56519840D01*
X119351714Y-56660366D01*
X119091280Y-56920345D01*
X118950161Y-57260199D01*
X118950149Y-57273835D01*
X118898973Y-57325011D01*
X115188872Y-57325011D01*
X115269849Y-57244034D01*
X115365000Y-57014320D01*
X115365000Y-56721250D01*
X115208750Y-56565000D01*
X114265000Y-56565000D01*
X114265000Y-56585000D01*
X114015000Y-56585000D01*
X114015000Y-56565000D01*
X113995000Y-56565000D01*
X113995000Y-56315000D01*
X114015000Y-56315000D01*
X114015000Y-55521250D01*
X114265000Y-55521250D01*
X114265000Y-56315000D01*
X115208750Y-56315000D01*
X115365000Y-56158750D01*
X115365000Y-55865680D01*
X115269849Y-55635966D01*
X115094034Y-55460150D01*
X114864320Y-55365000D01*
X114421250Y-55365000D01*
X114265000Y-55521250D01*
X114015000Y-55521250D01*
X113858750Y-55365000D01*
X113415680Y-55365000D01*
X113185966Y-55460150D01*
X113037371Y-55608746D01*
X112996781Y-55545668D01*
X112875000Y-55462459D01*
X112875000Y-54718735D01*
X112988905Y-54642626D01*
X124644496Y-54642626D01*
X124644496Y-54860696D01*
X124800746Y-55016946D01*
X125744496Y-55016946D01*
X125744496Y-54298196D01*
X125588246Y-54141946D01*
X125145176Y-54141946D01*
X124915462Y-54237096D01*
X124739647Y-54412912D01*
X124644496Y-54642626D01*
X112988905Y-54642626D01*
X113178338Y-54516051D01*
X113508916Y-54021305D01*
X113625000Y-53437713D01*
X113625000Y-52562287D01*
X113508916Y-51978695D01*
X113178338Y-51483949D01*
X112683592Y-51153371D01*
X112100000Y-51037287D01*
X111516408Y-51153371D01*
X111021662Y-51483949D01*
X110830000Y-51770792D01*
X110638338Y-51483949D01*
X110143592Y-51153371D01*
X109560000Y-51037287D01*
X108976408Y-51153371D01*
X108481662Y-51483949D01*
X108290000Y-51770792D01*
X108098338Y-51483949D01*
X107603592Y-51153371D01*
X107020000Y-51037287D01*
X106436408Y-51153371D01*
X105941662Y-51483949D01*
X105750000Y-51770792D01*
X105558338Y-51483949D01*
X105063592Y-51153371D01*
X104480000Y-51037287D01*
X103896408Y-51153371D01*
X103401662Y-51483949D01*
X103210000Y-51770792D01*
X103018338Y-51483949D01*
X102523592Y-51153371D01*
X101940000Y-51037287D01*
X101356408Y-51153371D01*
X100861662Y-51483949D01*
X100670000Y-51770792D01*
X100478338Y-51483949D01*
X99983592Y-51153371D01*
X99400000Y-51037287D01*
X98816408Y-51153371D01*
X98321662Y-51483949D01*
X98130000Y-51770792D01*
X97938338Y-51483949D01*
X97443592Y-51153371D01*
X96860000Y-51037287D01*
X96276408Y-51153371D01*
X95781662Y-51483949D01*
X95590000Y-51770792D01*
X95398338Y-51483949D01*
X94903592Y-51153371D01*
X94320000Y-51037287D01*
X93736408Y-51153371D01*
X93241662Y-51483949D01*
X93050000Y-51770792D01*
X92858338Y-51483949D01*
X92363592Y-51153371D01*
X91780000Y-51037287D01*
X91196408Y-51153371D01*
X90701662Y-51483949D01*
X90510000Y-51770792D01*
X90318338Y-51483949D01*
X89823592Y-51153371D01*
X89240000Y-51037287D01*
X88656408Y-51153371D01*
X88161662Y-51483949D01*
X87970000Y-51770792D01*
X87778338Y-51483949D01*
X87283592Y-51153371D01*
X86700000Y-51037287D01*
X86116408Y-51153371D01*
X85621662Y-51483949D01*
X85424427Y-51779133D01*
X85149950Y-51433274D01*
X84628108Y-51143248D01*
X84521221Y-51118398D01*
X84285000Y-51236970D01*
X84285000Y-52875000D01*
X84305000Y-52875000D01*
X84305000Y-53125000D01*
X84285000Y-53125000D01*
X84285000Y-53145000D01*
X84035000Y-53145000D01*
X84035000Y-53125000D01*
X84015000Y-53125000D01*
X84015000Y-52875000D01*
X84035000Y-52875000D01*
X84035000Y-51236970D01*
X83798779Y-51118398D01*
X83691892Y-51143248D01*
X83170050Y-51433274D01*
X82895573Y-51779133D01*
X82698338Y-51483949D01*
X82203592Y-51153371D01*
X81620000Y-51037287D01*
X81036408Y-51153371D01*
X80541662Y-51483949D01*
X80350000Y-51770792D01*
X80158338Y-51483949D01*
X79663592Y-51153371D01*
X79080000Y-51037287D01*
X78496408Y-51153371D01*
X78001662Y-51483949D01*
X77810000Y-51770792D01*
X77618338Y-51483949D01*
X77123592Y-51153371D01*
X76540000Y-51037287D01*
X75956408Y-51153371D01*
X75461662Y-51483949D01*
X75264427Y-51779133D01*
X74989950Y-51433274D01*
X74468108Y-51143248D01*
X74361221Y-51118398D01*
X74125000Y-51236970D01*
X74125000Y-52875000D01*
X74145000Y-52875000D01*
X74145000Y-53125000D01*
X74125000Y-53125000D01*
X74125000Y-54763030D01*
X74361221Y-54881602D01*
X74468108Y-54856752D01*
X74989950Y-54566726D01*
X75264427Y-54220867D01*
X75461662Y-54516051D01*
X75956408Y-54846629D01*
X76540000Y-54962713D01*
X76929267Y-54885283D01*
X77334851Y-55290867D01*
X77334840Y-55303187D01*
X77475366Y-55643286D01*
X77735345Y-55903720D01*
X78075199Y-56044839D01*
X78443187Y-56045160D01*
X78783286Y-55904634D01*
X79043720Y-55644655D01*
X79085390Y-55544301D01*
X79290000Y-55585000D01*
X79776640Y-55585000D01*
X79785345Y-55593720D01*
X80125199Y-55734839D01*
X80493187Y-55735160D01*
X80833286Y-55594634D01*
X81093720Y-55334655D01*
X81142108Y-55218124D01*
X81651992Y-55728008D01*
X81903420Y-55896007D01*
X82200000Y-55955000D01*
X83078984Y-55955000D01*
X88421991Y-61298007D01*
X88673419Y-61466006D01*
X88969999Y-61524999D01*
X106895419Y-61524999D01*
X106676714Y-61615366D01*
X106636875Y-61655135D01*
X106445174Y-61575534D01*
X106077186Y-61575213D01*
X105737087Y-61715739D01*
X105476653Y-61975718D01*
X105335534Y-62315572D01*
X105335213Y-62683560D01*
X105475739Y-63023659D01*
X105701299Y-63249614D01*
X105562962Y-63452076D01*
X105512756Y-63700000D01*
X105512756Y-64900000D01*
X105556337Y-65131611D01*
X105693219Y-65344332D01*
X105773790Y-65399384D01*
X105705668Y-65443219D01*
X105562962Y-65652076D01*
X105512756Y-65900000D01*
X105512756Y-67084801D01*
X105496580Y-67073993D01*
X105200000Y-67015000D01*
X100600000Y-67015000D01*
X100303420Y-67073993D01*
X100051992Y-67241992D01*
X98078984Y-69215000D01*
X96533360Y-69215000D01*
X96524655Y-69206280D01*
X96184801Y-69065161D01*
X95816813Y-69064840D01*
X95476714Y-69205366D01*
X95216280Y-69465345D01*
X95075161Y-69805199D01*
X95075022Y-69964990D01*
X94749842Y-69964990D01*
X94696413Y-69835682D01*
X94436434Y-69575248D01*
X94096580Y-69434129D01*
X93728592Y-69433808D01*
X93388493Y-69574334D01*
X93188664Y-69773814D01*
X93139849Y-69655966D01*
X93073139Y-69589256D01*
X93197038Y-69407924D01*
X93210677Y-69340573D01*
X93235000Y-69316250D01*
X93235000Y-69235680D01*
X93232930Y-69230683D01*
X93247244Y-69160000D01*
X93247244Y-68710000D01*
X93227737Y-68606329D01*
X93247244Y-68510000D01*
X93247244Y-68060000D01*
X93227737Y-67956329D01*
X93247244Y-67860000D01*
X93247244Y-67410000D01*
X93227737Y-67306329D01*
X93247244Y-67210000D01*
X93247244Y-66760000D01*
X93227737Y-66656329D01*
X93247244Y-66560000D01*
X93247244Y-66110000D01*
X93203663Y-65878389D01*
X93066781Y-65665668D01*
X92857924Y-65522962D01*
X92610000Y-65472756D01*
X91110000Y-65472756D01*
X90878389Y-65516337D01*
X90665668Y-65653219D01*
X90522962Y-65862076D01*
X90472756Y-66110000D01*
X90472756Y-66560000D01*
X90492263Y-66663671D01*
X90472756Y-66760000D01*
X90472756Y-67210000D01*
X90492263Y-67313671D01*
X90472756Y-67410000D01*
X90472756Y-67860000D01*
X90492263Y-67963671D01*
X90472756Y-68060000D01*
X90472756Y-68510000D01*
X90492263Y-68613671D01*
X90472756Y-68710000D01*
X90472756Y-69160000D01*
X90486373Y-69232366D01*
X90485000Y-69235680D01*
X90485000Y-69316250D01*
X90506133Y-69337383D01*
X90516337Y-69391611D01*
X90644827Y-69591290D01*
X90580151Y-69655966D01*
X90507578Y-69831172D01*
X90485000Y-69853750D01*
X90485000Y-69966250D01*
X90507578Y-69988828D01*
X90580151Y-70164034D01*
X90651117Y-70235000D01*
X90580151Y-70305966D01*
X90507578Y-70481172D01*
X90485000Y-70503750D01*
X90485000Y-70616250D01*
X90507578Y-70638828D01*
X90580151Y-70814034D01*
X90755966Y-70989850D01*
X90774435Y-70997500D01*
X90641250Y-70997500D01*
X90573750Y-71065000D01*
X89981726Y-71065000D01*
X89805000Y-70888274D01*
X89805000Y-68205000D01*
X89742201Y-67889286D01*
X89563363Y-67621637D01*
X87693363Y-65751637D01*
X87425714Y-65572799D01*
X87110000Y-65510000D01*
X86893916Y-65510000D01*
X86710000Y-65472756D01*
X85210000Y-65472756D01*
X85012067Y-65510000D01*
X84745000Y-65510000D01*
X84429286Y-65572799D01*
X84161637Y-65751637D01*
X83978274Y-65935000D01*
X83938486Y-65935000D01*
X83737924Y-65797962D01*
X83715000Y-65793320D01*
X83715000Y-65440000D01*
X83652201Y-65124286D01*
X83473363Y-64856637D01*
X82963363Y-64346637D01*
X82695714Y-64167799D01*
X82380000Y-64105000D01*
X75205000Y-64105000D01*
X74889286Y-64167799D01*
X74621637Y-64346637D01*
X74455336Y-64512938D01*
X74352924Y-64442962D01*
X74105000Y-64392756D01*
X73355000Y-64392756D01*
X73123389Y-64436337D01*
X72910668Y-64573219D01*
X72767962Y-64782076D01*
X72763320Y-64805000D01*
X72729907Y-64805000D01*
X72728663Y-64798389D01*
X72591781Y-64585668D01*
X72382924Y-64442962D01*
X72135000Y-64392756D01*
X71385000Y-64392756D01*
X71153389Y-64436337D01*
X70940668Y-64573219D01*
X70797962Y-64782076D01*
X70793320Y-64805000D01*
X64201726Y-64805000D01*
X58823363Y-59426637D01*
X58555714Y-59247799D01*
X58240000Y-59185000D01*
X55998777Y-59185000D01*
X56172225Y-58989028D01*
X56301407Y-58677124D01*
X56179124Y-58484100D01*
X55217540Y-58484100D01*
X55217540Y-58504100D01*
X54967540Y-58504100D01*
X54967540Y-58484100D01*
X54947540Y-58484100D01*
X54947540Y-58234100D01*
X54967540Y-58234100D01*
X54967540Y-57271604D01*
X55217540Y-57271604D01*
X55217540Y-58234100D01*
X56179124Y-58234100D01*
X56301407Y-58041076D01*
X56172225Y-57729172D01*
X55848976Y-57363945D01*
X55410566Y-57150221D01*
X55217540Y-57271604D01*
X54967540Y-57271604D01*
X54774514Y-57150221D01*
X54365000Y-57349858D01*
X54365000Y-56360000D01*
X54302201Y-56044286D01*
X54123363Y-55776637D01*
X53434053Y-55087327D01*
X53334634Y-54846714D01*
X53074655Y-54586280D01*
X52734801Y-54445161D01*
X52366813Y-54444840D01*
X52026714Y-54585366D01*
X51766280Y-54845345D01*
X51625161Y-55185199D01*
X51624840Y-55553187D01*
X51765366Y-55893286D01*
X52025345Y-56153720D01*
X52267577Y-56254303D01*
X52715000Y-56701726D01*
X52715000Y-57887036D01*
X52517540Y-57996647D01*
X52517540Y-59234100D01*
X52537540Y-59234100D01*
X52537540Y-59484100D01*
X52517540Y-59484100D01*
X52517540Y-60721553D01*
X52734135Y-60841786D01*
X53215440Y-60616724D01*
X53586237Y-60215598D01*
X53603117Y-60169843D01*
X54026637Y-60593363D01*
X54294286Y-60772201D01*
X54610000Y-60835000D01*
X57898274Y-60835000D01*
X63276637Y-66213363D01*
X63544286Y-66392201D01*
X63860000Y-66455000D01*
X70790093Y-66455000D01*
X70791337Y-66461611D01*
X70861096Y-66570020D01*
X70855150Y-66575966D01*
X70760000Y-66805680D01*
X70760000Y-67248750D01*
X70916250Y-67405000D01*
X71635000Y-67405000D01*
X71635000Y-67385000D01*
X71885000Y-67385000D01*
X71885000Y-67405000D01*
X72603750Y-67405000D01*
X72745000Y-67263750D01*
X72886250Y-67405000D01*
X73605000Y-67405000D01*
X73605000Y-67385000D01*
X73855000Y-67385000D01*
X73855000Y-67405000D01*
X74573750Y-67405000D01*
X74730000Y-67248750D01*
X74730000Y-67041250D01*
X79765000Y-67041250D01*
X79765000Y-67259320D01*
X79860151Y-67489034D01*
X80035966Y-67664850D01*
X80265680Y-67760000D01*
X80708750Y-67760000D01*
X80865000Y-67603750D01*
X80865000Y-66885000D01*
X79921250Y-66885000D01*
X79765000Y-67041250D01*
X74730000Y-67041250D01*
X74730000Y-66805680D01*
X74634850Y-66575966D01*
X74629027Y-66570143D01*
X74692038Y-66477924D01*
X74704725Y-66415272D01*
X74820714Y-66392201D01*
X75017548Y-66260680D01*
X79765000Y-66260680D01*
X79765000Y-66478750D01*
X79921250Y-66635000D01*
X80865000Y-66635000D01*
X80865000Y-65916250D01*
X80708750Y-65760000D01*
X80265680Y-65760000D01*
X80035966Y-65855150D01*
X79860151Y-66030966D01*
X79765000Y-66260680D01*
X75017548Y-66260680D01*
X75088363Y-66213363D01*
X75546726Y-65755000D01*
X82038274Y-65755000D01*
X82065000Y-65781726D01*
X82065000Y-65790093D01*
X82058389Y-65791337D01*
X81949980Y-65861096D01*
X81944034Y-65855150D01*
X81714320Y-65760000D01*
X81271250Y-65760000D01*
X81115000Y-65916250D01*
X81115000Y-66635000D01*
X81135000Y-66635000D01*
X81135000Y-66885000D01*
X81115000Y-66885000D01*
X81115000Y-67603750D01*
X81271250Y-67760000D01*
X81295618Y-67760000D01*
X81295618Y-67948355D01*
X80965789Y-67948067D01*
X80935768Y-67960472D01*
X80892427Y-67917055D01*
X80552573Y-67775936D01*
X80184585Y-67775615D01*
X79844486Y-67916141D01*
X79795552Y-67964990D01*
X74730000Y-67964990D01*
X74730000Y-67811250D01*
X74573750Y-67655000D01*
X73855000Y-67655000D01*
X73855000Y-67675000D01*
X73605000Y-67675000D01*
X73605000Y-67655000D01*
X72886250Y-67655000D01*
X72745000Y-67796250D01*
X72603750Y-67655000D01*
X71885000Y-67655000D01*
X71885000Y-67675000D01*
X71635000Y-67675000D01*
X71635000Y-67655000D01*
X70916250Y-67655000D01*
X70760000Y-67811250D01*
X70760000Y-67964990D01*
X70450010Y-67964990D01*
X70153430Y-68023983D01*
X69902002Y-68191982D01*
X67051228Y-71042756D01*
X66460000Y-71042756D01*
X66228389Y-71086337D01*
X66015668Y-71223219D01*
X65960616Y-71303790D01*
X65916781Y-71235668D01*
X65707924Y-71092962D01*
X65460000Y-71042756D01*
X64260000Y-71042756D01*
X64028389Y-71086337D01*
X63815668Y-71223219D01*
X63672962Y-71432076D01*
X63622756Y-71680000D01*
X63622756Y-72365860D01*
X63570265Y-72365860D01*
X63568951Y-72362680D01*
X63527120Y-72320776D01*
X63527120Y-71421476D01*
X63567592Y-71381075D01*
X63777451Y-70875678D01*
X63777928Y-70328443D01*
X63568951Y-69822680D01*
X63182335Y-69435388D01*
X62676938Y-69225529D01*
X62129703Y-69225052D01*
X61623940Y-69434029D01*
X61236648Y-69820645D01*
X61026789Y-70326042D01*
X61026312Y-70873277D01*
X61235289Y-71379040D01*
X61277120Y-71420944D01*
X61277120Y-72320244D01*
X61236648Y-72360645D01*
X61026789Y-72866042D01*
X61026312Y-73413277D01*
X61235289Y-73919040D01*
X61472769Y-74156936D01*
X61236648Y-74392645D01*
X61026789Y-74898042D01*
X61026312Y-75445277D01*
X61235289Y-75951040D01*
X61621905Y-76338332D01*
X61873632Y-76442858D01*
X61623940Y-76546029D01*
X61236648Y-76932645D01*
X61026789Y-77438042D01*
X61026312Y-77985277D01*
X61235289Y-78491040D01*
X61621905Y-78878332D01*
X62127302Y-79088191D01*
X62674537Y-79088668D01*
X63180300Y-78879691D01*
X63567592Y-78493075D01*
X63569757Y-78487860D01*
X63702532Y-78487860D01*
X63803219Y-78644332D01*
X64012076Y-78787038D01*
X64260000Y-78837244D01*
X65460000Y-78837244D01*
X65691611Y-78793663D01*
X65904332Y-78656781D01*
X65959384Y-78576210D01*
X66003219Y-78644332D01*
X66212076Y-78787038D01*
X66357262Y-78816439D01*
X66511992Y-79048008D01*
X67331992Y-79868008D01*
X67583420Y-80036007D01*
X67880000Y-80095000D01*
X68828605Y-80095000D01*
X68873219Y-80164332D01*
X69082076Y-80307038D01*
X69330000Y-80357244D01*
X71230000Y-80357244D01*
X71461611Y-80313663D01*
X71674332Y-80176781D01*
X71763106Y-80046856D01*
X71861250Y-80145000D01*
X73155000Y-80145000D01*
X73155000Y-80125000D01*
X73405000Y-80125000D01*
X73405000Y-80145000D01*
X74698750Y-80145000D01*
X74855000Y-79988750D01*
X74855000Y-79745680D01*
X74780160Y-79565001D01*
X78959999Y-79565001D01*
X79256579Y-79506008D01*
X79508007Y-79338009D01*
X80833772Y-78012244D01*
X81480000Y-78012244D01*
X81619903Y-77985919D01*
X82371990Y-78738005D01*
X82371992Y-78738008D01*
X82614190Y-78899840D01*
X82623420Y-78906007D01*
X82920000Y-78965000D01*
X84800000Y-78965000D01*
X85096580Y-78906007D01*
X85348008Y-78738008D01*
X86748008Y-77338008D01*
X86916007Y-77086580D01*
X86975000Y-76790000D01*
X86975000Y-74911016D01*
X87500000Y-74386016D01*
X87789931Y-74675947D01*
X87476714Y-74805366D01*
X87216280Y-75065345D01*
X87075161Y-75405199D01*
X87074840Y-75773187D01*
X87215366Y-76113286D01*
X87475345Y-76373720D01*
X87815199Y-76514839D01*
X88183187Y-76515160D01*
X88523286Y-76374634D01*
X88532937Y-76365000D01*
X93165039Y-76365000D01*
X93164840Y-76593187D01*
X93305366Y-76933286D01*
X93565345Y-77193720D01*
X93905199Y-77334839D01*
X94273187Y-77335160D01*
X94613286Y-77194634D01*
X94873720Y-76934655D01*
X95014839Y-76594801D01*
X95015160Y-76226813D01*
X94900578Y-75949502D01*
X94931611Y-75943663D01*
X95144332Y-75806781D01*
X95199384Y-75726210D01*
X95243219Y-75794332D01*
X95452076Y-75937038D01*
X95700000Y-75987244D01*
X96900000Y-75987244D01*
X97131611Y-75943663D01*
X97275878Y-75850830D01*
X97368219Y-75994332D01*
X97577076Y-76137038D01*
X97825000Y-76187244D01*
X98575000Y-76187244D01*
X98806611Y-76143663D01*
X99019332Y-76006781D01*
X99162038Y-75797924D01*
X99200094Y-75610000D01*
X99727245Y-75610000D01*
X99687756Y-75805000D01*
X99687756Y-76405000D01*
X99731337Y-76636611D01*
X99868219Y-76849332D01*
X100077076Y-76992038D01*
X100325000Y-77042244D01*
X101875000Y-77042244D01*
X101925000Y-77032836D01*
X101925000Y-77345685D01*
X101868389Y-77356337D01*
X101655668Y-77493219D01*
X101512962Y-77702076D01*
X101462756Y-77950000D01*
X101462756Y-78850000D01*
X101506337Y-79081611D01*
X101643219Y-79294332D01*
X101852076Y-79437038D01*
X102100000Y-79487244D01*
X103300000Y-79487244D01*
X103531611Y-79443663D01*
X103744332Y-79306781D01*
X103799384Y-79226210D01*
X103843219Y-79294332D01*
X104052076Y-79437038D01*
X104300000Y-79487244D01*
X105500000Y-79487244D01*
X105731611Y-79443663D01*
X105944332Y-79306781D01*
X106087038Y-79097924D01*
X106137244Y-78850000D01*
X106137244Y-77950000D01*
X106093663Y-77718389D01*
X105956781Y-77505668D01*
X105747924Y-77362962D01*
X105675000Y-77348194D01*
X105675000Y-77032119D01*
X105725000Y-77042244D01*
X107275000Y-77042244D01*
X107462756Y-77006915D01*
X107462756Y-77150000D01*
X107506337Y-77381611D01*
X107643219Y-77594332D01*
X107852076Y-77737038D01*
X108100000Y-77787244D01*
X109300000Y-77787244D01*
X109531611Y-77743663D01*
X109744332Y-77606781D01*
X109799384Y-77526210D01*
X109843219Y-77594332D01*
X110052076Y-77737038D01*
X110125000Y-77751806D01*
X110125000Y-78400000D01*
X110183993Y-78696580D01*
X110212756Y-78739627D01*
X110212756Y-79400000D01*
X110256337Y-79631611D01*
X110393219Y-79844332D01*
X110473790Y-79899384D01*
X110405668Y-79943219D01*
X110262962Y-80152076D01*
X110212756Y-80400000D01*
X110212756Y-81600000D01*
X110255258Y-81825879D01*
X110093389Y-81856337D01*
X109910483Y-81974034D01*
X109747924Y-81862962D01*
X109500000Y-81812756D01*
X108300000Y-81812756D01*
X108068389Y-81856337D01*
X107855668Y-81993219D01*
X107800616Y-82073790D01*
X107756781Y-82005668D01*
X107547924Y-81862962D01*
X107300000Y-81812756D01*
X106100000Y-81812756D01*
X105868389Y-81856337D01*
X105655668Y-81993219D01*
X105512962Y-82202076D01*
X105462756Y-82450000D01*
X105462756Y-83350000D01*
X105506337Y-83581611D01*
X105643219Y-83794332D01*
X105723790Y-83849384D01*
X105655668Y-83893219D01*
X105531462Y-84075000D01*
X105363360Y-84075000D01*
X105354655Y-84066280D01*
X105014801Y-83925161D01*
X104646813Y-83924840D01*
X104306714Y-84065366D01*
X104046280Y-84325345D01*
X103905161Y-84665199D01*
X103904840Y-85033187D01*
X104045366Y-85373286D01*
X104305345Y-85633720D01*
X104645199Y-85774839D01*
X105013187Y-85775160D01*
X105353286Y-85634634D01*
X105362937Y-85625000D01*
X105598605Y-85625000D01*
X105643219Y-85694332D01*
X105852076Y-85837038D01*
X105979075Y-85862756D01*
X105850000Y-85862756D01*
X105618389Y-85906337D01*
X105405668Y-86043219D01*
X105262962Y-86252076D01*
X105258049Y-86276338D01*
X105134801Y-86225161D01*
X104766813Y-86224840D01*
X104426714Y-86365366D01*
X104166280Y-86625345D01*
X104025161Y-86965199D01*
X104024840Y-87333187D01*
X104165366Y-87673286D01*
X104425345Y-87933720D01*
X104765199Y-88074839D01*
X105133187Y-88075160D01*
X105303441Y-88004813D01*
X105393219Y-88144332D01*
X105473790Y-88199384D01*
X105405668Y-88243219D01*
X105262962Y-88452076D01*
X105212756Y-88700000D01*
X105212756Y-89900000D01*
X105256337Y-90131611D01*
X105393219Y-90344332D01*
X105602076Y-90487038D01*
X105850000Y-90537244D01*
X106750000Y-90537244D01*
X106981611Y-90493663D01*
X107194332Y-90356781D01*
X107337038Y-90147924D01*
X107348633Y-90090667D01*
X107356337Y-90131611D01*
X107493219Y-90344332D01*
X107702076Y-90487038D01*
X107950000Y-90537244D01*
X108850000Y-90537244D01*
X109081611Y-90493663D01*
X109294332Y-90356781D01*
X109437038Y-90147924D01*
X109482181Y-89925000D01*
X109520685Y-89925000D01*
X109531337Y-89981611D01*
X109668219Y-90194332D01*
X109877076Y-90337038D01*
X110125000Y-90387244D01*
X110875000Y-90387244D01*
X111106611Y-90343663D01*
X111319332Y-90206781D01*
X111462038Y-89997924D01*
X111476806Y-89925000D01*
X112029905Y-89925000D01*
X112248420Y-90071007D01*
X112545000Y-90130001D01*
X112545005Y-90130000D01*
X113263103Y-90130000D01*
X113427076Y-90242038D01*
X113675000Y-90292244D01*
X115225000Y-90292244D01*
X115456611Y-90248663D01*
X115641019Y-90130000D01*
X115645000Y-90130000D01*
X115941580Y-90071007D01*
X116193008Y-89903008D01*
X116648008Y-89448008D01*
X116816007Y-89196580D01*
X116875000Y-88900000D01*
X116875000Y-87371016D01*
X117706884Y-88202900D01*
X117676714Y-88215366D01*
X117416280Y-88475345D01*
X117275161Y-88815199D01*
X117274840Y-89183187D01*
X117415366Y-89523286D01*
X117675345Y-89783720D01*
X118015199Y-89924839D01*
X118039696Y-89924860D01*
X118258420Y-90071007D01*
X118555000Y-90130000D01*
X118663103Y-90130000D01*
X118827076Y-90242038D01*
X119075000Y-90292244D01*
X120625000Y-90292244D01*
X120856611Y-90248663D01*
X120963316Y-90180000D01*
X121323274Y-90180000D01*
X121402756Y-90259482D01*
X121402756Y-90465000D01*
X112600000Y-90465000D01*
X112554568Y-90473549D01*
X112512841Y-90500399D01*
X112484848Y-90541368D01*
X112475000Y-90590000D01*
X112475000Y-91865000D01*
X96925000Y-91865000D01*
X96925000Y-88390000D01*
X96916451Y-88344568D01*
X96889601Y-88302841D01*
X96848632Y-88274848D01*
X96800000Y-88265000D01*
X84925000Y-88265000D01*
X84925000Y-85990000D01*
X84916451Y-85944568D01*
X84889601Y-85902841D01*
X84848632Y-85874848D01*
X84800000Y-85865000D01*
X78174436Y-85865000D01*
X77770718Y-85461282D01*
X77486848Y-85271605D01*
X77454406Y-85265152D01*
X77152000Y-85205000D01*
X73280000Y-85205000D01*
X72977594Y-85265152D01*
X72945152Y-85271605D01*
X72661282Y-85461282D01*
X72257564Y-85865000D01*
X69553567Y-85865000D01*
X69703043Y-85803238D01*
X70301337Y-85205987D01*
X70625530Y-84425243D01*
X70626268Y-83579866D01*
X70566102Y-83434251D01*
X94648831Y-83434251D01*
X94648831Y-84831251D01*
X94692412Y-85062862D01*
X94829294Y-85275583D01*
X95038151Y-85418289D01*
X95286075Y-85468495D01*
X96683075Y-85468495D01*
X96914686Y-85424914D01*
X97127407Y-85288032D01*
X97270113Y-85079175D01*
X97320319Y-84831251D01*
X97320319Y-84684003D01*
X97401912Y-84881474D01*
X97773894Y-85254106D01*
X98260160Y-85456021D01*
X98786680Y-85456480D01*
X99273298Y-85255414D01*
X99645930Y-84883432D01*
X99847845Y-84397166D01*
X99848304Y-83870646D01*
X99647238Y-83384028D01*
X99275256Y-83011396D01*
X98788990Y-82809481D01*
X98262470Y-82809022D01*
X97775852Y-83010088D01*
X97403220Y-83382070D01*
X97320319Y-83581718D01*
X97320319Y-83434251D01*
X97276738Y-83202640D01*
X97139856Y-82989919D01*
X96930999Y-82847213D01*
X96683075Y-82797007D01*
X95286075Y-82797007D01*
X95054464Y-82840588D01*
X94841743Y-82977470D01*
X94699037Y-83186327D01*
X94648831Y-83434251D01*
X70566102Y-83434251D01*
X70303438Y-82798557D01*
X69706187Y-82200263D01*
X68925443Y-81876070D01*
X68080066Y-81875332D01*
X67298757Y-82198162D01*
X66700463Y-82795413D01*
X66376270Y-83576157D01*
X66375532Y-84421534D01*
X66698362Y-85202843D01*
X67295613Y-85801137D01*
X67449412Y-85865000D01*
X65525000Y-85865000D01*
X65525000Y-82590000D01*
X65516451Y-82544568D01*
X65489601Y-82502841D01*
X65448632Y-82474848D01*
X65400000Y-82465000D01*
X61035650Y-82465000D01*
X61535447Y-81966074D01*
X61859621Y-81185377D01*
X61860173Y-80551250D01*
X71705000Y-80551250D01*
X71705000Y-80794320D01*
X71800151Y-81024034D01*
X71975966Y-81199850D01*
X72205680Y-81295000D01*
X72998750Y-81295000D01*
X73155000Y-81138750D01*
X73155000Y-80395000D01*
X73405000Y-80395000D01*
X73405000Y-81138750D01*
X73561250Y-81295000D01*
X74354320Y-81295000D01*
X74584034Y-81199850D01*
X74759849Y-81024034D01*
X74855000Y-80794320D01*
X74855000Y-80551250D01*
X74698750Y-80395000D01*
X73405000Y-80395000D01*
X73155000Y-80395000D01*
X71861250Y-80395000D01*
X71705000Y-80551250D01*
X61860173Y-80551250D01*
X61860358Y-80340051D01*
X61537548Y-79558790D01*
X60940334Y-78960533D01*
X60159637Y-78636359D01*
X59314311Y-78635622D01*
X58533050Y-78958432D01*
X57934793Y-79555646D01*
X57610619Y-80336343D01*
X57609882Y-81181669D01*
X57932692Y-81962930D01*
X58433887Y-82465000D01*
X50700000Y-82465000D01*
X50700000Y-67465669D01*
X57609882Y-67465669D01*
X57932692Y-68246930D01*
X58529906Y-68845187D01*
X59310603Y-69169361D01*
X60155929Y-69170098D01*
X60937190Y-68847288D01*
X61535447Y-68250074D01*
X61859621Y-67469377D01*
X61860358Y-66624051D01*
X61537548Y-65842790D01*
X60940334Y-65244533D01*
X60159637Y-64920359D01*
X59314311Y-64919622D01*
X58533050Y-65242432D01*
X57934793Y-65839646D01*
X57610619Y-66620343D01*
X57609882Y-67465669D01*
X50700000Y-67465669D01*
X50700000Y-59703108D01*
X51009776Y-59703108D01*
X51198843Y-60215598D01*
X51569640Y-60616724D01*
X52050945Y-60841786D01*
X52267540Y-60721553D01*
X52267540Y-59484100D01*
X51148790Y-59484100D01*
X51009776Y-59703108D01*
X50700000Y-59703108D01*
X50700000Y-59015092D01*
X51009776Y-59015092D01*
X51148790Y-59234100D01*
X52267540Y-59234100D01*
X52267540Y-57996647D01*
X52050945Y-57876414D01*
X51569640Y-58101476D01*
X51198843Y-58502602D01*
X51009776Y-59015092D01*
X50700000Y-59015092D01*
X50700000Y-52703108D01*
X51009776Y-52703108D01*
X51198843Y-53215598D01*
X51569640Y-53616724D01*
X52050945Y-53841786D01*
X52267540Y-53721553D01*
X52267540Y-52484100D01*
X52517540Y-52484100D01*
X52517540Y-53721553D01*
X52734135Y-53841786D01*
X53086271Y-53677124D01*
X53883673Y-53677124D01*
X54012855Y-53989028D01*
X54336104Y-54354255D01*
X54774514Y-54567979D01*
X54967540Y-54446596D01*
X54967540Y-53484100D01*
X55217540Y-53484100D01*
X55217540Y-54446596D01*
X55410566Y-54567979D01*
X55848976Y-54354255D01*
X56172225Y-53989028D01*
X56301407Y-53677124D01*
X56179124Y-53484100D01*
X55217540Y-53484100D01*
X54967540Y-53484100D01*
X54005956Y-53484100D01*
X53883673Y-53677124D01*
X53086271Y-53677124D01*
X53215440Y-53616724D01*
X53396518Y-53420834D01*
X66375532Y-53420834D01*
X66698362Y-54202143D01*
X67295613Y-54800437D01*
X68076357Y-55124630D01*
X68921734Y-55125368D01*
X69703043Y-54802538D01*
X70301337Y-54205287D01*
X70625530Y-53424543D01*
X70625791Y-53125000D01*
X72475000Y-53125000D01*
X72475000Y-53525000D01*
X72638919Y-54099077D01*
X73010050Y-54566726D01*
X73531892Y-54856752D01*
X73638779Y-54881602D01*
X73875000Y-54763030D01*
X73875000Y-53125000D01*
X72475000Y-53125000D01*
X70625791Y-53125000D01*
X70626268Y-52579166D01*
X70583228Y-52475000D01*
X72475000Y-52475000D01*
X72475000Y-52875000D01*
X73875000Y-52875000D01*
X73875000Y-51236970D01*
X73638779Y-51118398D01*
X73531892Y-51143248D01*
X73010050Y-51433274D01*
X72638919Y-51900923D01*
X72475000Y-52475000D01*
X70583228Y-52475000D01*
X70303438Y-51797857D01*
X69706187Y-51199563D01*
X68925443Y-50875370D01*
X68080066Y-50874632D01*
X67298757Y-51197462D01*
X66700463Y-51794713D01*
X66376270Y-52575457D01*
X66375532Y-53420834D01*
X53396518Y-53420834D01*
X53586237Y-53215598D01*
X53650621Y-53041076D01*
X53883673Y-53041076D01*
X54005956Y-53234100D01*
X54967540Y-53234100D01*
X54967540Y-52271604D01*
X55217540Y-52271604D01*
X55217540Y-53234100D01*
X56179124Y-53234100D01*
X56301407Y-53041076D01*
X56172225Y-52729172D01*
X55848976Y-52363945D01*
X55410566Y-52150221D01*
X55217540Y-52271604D01*
X54967540Y-52271604D01*
X54774514Y-52150221D01*
X54336104Y-52363945D01*
X54012855Y-52729172D01*
X53883673Y-53041076D01*
X53650621Y-53041076D01*
X53775304Y-52703108D01*
X53636290Y-52484100D01*
X52517540Y-52484100D01*
X52267540Y-52484100D01*
X51148790Y-52484100D01*
X51009776Y-52703108D01*
X50700000Y-52703108D01*
X50700000Y-52015092D01*
X51009776Y-52015092D01*
X51148790Y-52234100D01*
X52267540Y-52234100D01*
X52267540Y-50996647D01*
X52517540Y-50996647D01*
X52517540Y-52234100D01*
X53636290Y-52234100D01*
X53775304Y-52015092D01*
X53586237Y-51502602D01*
X53215440Y-51101476D01*
X52734135Y-50876414D01*
X52517540Y-50996647D01*
X52267540Y-50996647D01*
X52050945Y-50876414D01*
X51569640Y-51101476D01*
X51198843Y-51502602D01*
X51009776Y-52015092D01*
X50700000Y-52015092D01*
X50700000Y-50700000D01*
X147608539Y-50700000D01*
X147278645Y-51029319D01*
X147278645Y-51029319D01*
G37*
X147278645Y-51029319D02*
X147076730Y-51515585D01*
X147076301Y-52007683D01*
X145599022Y-53484962D01*
X145624110Y-53424543D01*
X145624848Y-52579166D01*
X145302018Y-51797857D01*
X144704767Y-51199563D01*
X143924023Y-50875370D01*
X143078646Y-50874632D01*
X142297337Y-51197462D01*
X141699043Y-51794713D01*
X141374850Y-52575457D01*
X141374112Y-53420834D01*
X141696942Y-54202143D01*
X142294193Y-54800437D01*
X143074937Y-55124630D01*
X143920314Y-55125368D01*
X144625000Y-54834198D01*
X144625000Y-56275022D01*
X144416813Y-56274840D01*
X144076714Y-56415366D01*
X143816280Y-56675345D01*
X143675161Y-57015199D01*
X143674840Y-57383187D01*
X143805230Y-57698754D01*
X143456065Y-58047919D01*
X143324655Y-57916280D01*
X142984801Y-57775161D01*
X142616813Y-57774840D01*
X142276714Y-57915366D01*
X142016280Y-58175345D01*
X141875161Y-58515199D01*
X141875149Y-58528836D01*
X141436541Y-58967444D01*
X141483791Y-58734115D01*
X141483791Y-57936555D01*
X141440210Y-57704944D01*
X141370044Y-57595902D01*
X141376397Y-57589549D01*
X141471547Y-57359835D01*
X141471547Y-57117985D01*
X141315297Y-56961735D01*
X140572767Y-56961735D01*
X140572767Y-56981735D01*
X140322767Y-56981735D01*
X140322767Y-56961735D01*
X140302767Y-56961735D01*
X140302767Y-56711735D01*
X140322767Y-56711735D01*
X140322767Y-55969205D01*
X140572767Y-55969205D01*
X140572767Y-56711735D01*
X141315297Y-56711735D01*
X141471547Y-56555485D01*
X141471547Y-56313635D01*
X141376397Y-56083921D01*
X141200581Y-55908106D01*
X140970867Y-55812955D01*
X140729017Y-55812955D01*
X140572767Y-55969205D01*
X140322767Y-55969205D01*
X140166517Y-55812955D01*
X139924667Y-55812955D01*
X139694953Y-55908106D01*
X139635011Y-55968048D01*
X139635011Y-55786035D01*
X139591430Y-55554424D01*
X139454548Y-55341703D01*
X139245691Y-55198997D01*
X138997767Y-55148791D01*
X138556539Y-55148791D01*
X138159740Y-54751992D01*
X137908312Y-54583993D01*
X137611732Y-54525000D01*
X135300000Y-54525000D01*
X135300000Y-53904827D01*
X135349839Y-53784801D01*
X135350160Y-53416813D01*
X135209634Y-53076714D01*
X134949655Y-52816280D01*
X134609801Y-52675161D01*
X134241813Y-52674840D01*
X133901714Y-52815366D01*
X133641280Y-53075345D01*
X133500161Y-53415199D01*
X133499840Y-53783187D01*
X133550000Y-53904584D01*
X133550000Y-55116366D01*
X133437799Y-55284286D01*
X133375000Y-55600000D01*
X133375000Y-58323631D01*
X133325000Y-58575000D01*
X133325000Y-61295173D01*
X133275161Y-61415199D01*
X133274840Y-61783187D01*
X133385080Y-62049989D01*
X130367894Y-62049989D01*
X130367889Y-62049988D01*
X130126479Y-62098008D01*
X130071309Y-62108982D01*
X129836305Y-62266007D01*
X129819881Y-62276981D01*
X127975000Y-64121862D01*
X127975000Y-63121016D01*
X128623008Y-62473008D01*
X128791007Y-62221580D01*
X128850000Y-61925000D01*
X128850000Y-61871016D01*
X129648008Y-61073008D01*
X129816007Y-60821580D01*
X129875000Y-60525000D01*
X129875000Y-57722450D01*
X129816007Y-57425870D01*
X129648008Y-57174442D01*
X129267504Y-56793938D01*
X129056740Y-56653110D01*
X129056740Y-56641946D01*
X129013159Y-56410335D01*
X128876277Y-56197614D01*
X128677241Y-56061618D01*
X128813828Y-55973727D01*
X128956534Y-55764870D01*
X129006740Y-55516946D01*
X129006740Y-54766946D01*
X128963159Y-54535335D01*
X128826277Y-54322614D01*
X128617420Y-54179908D01*
X128369496Y-54129702D01*
X127169496Y-54129702D01*
X126937885Y-54173283D01*
X126829476Y-54243042D01*
X126823530Y-54237096D01*
X126593816Y-54141946D01*
X126150746Y-54141946D01*
X125994496Y-54298196D01*
X125994496Y-55016946D01*
X126014496Y-55016946D01*
X126014496Y-55266946D01*
X125994496Y-55266946D01*
X125994496Y-55286946D01*
X125744496Y-55286946D01*
X125744496Y-55266946D01*
X124800746Y-55266946D01*
X124644496Y-55423196D01*
X124644496Y-55641266D01*
X124739647Y-55870980D01*
X124915462Y-56046796D01*
X125145176Y-56141946D01*
X125242328Y-56141946D01*
X125175164Y-56185165D01*
X125032458Y-56394022D01*
X125023701Y-56437267D01*
X124948530Y-56362097D01*
X124718816Y-56266946D01*
X124500746Y-56266946D01*
X124344496Y-56423196D01*
X124344496Y-57366946D01*
X124364496Y-57366946D01*
X124364496Y-57616946D01*
X124344496Y-57616946D01*
X124344496Y-57636946D01*
X124094496Y-57636946D01*
X124094496Y-57616946D01*
X123375746Y-57616946D01*
X123219496Y-57773196D01*
X123219496Y-58216266D01*
X123314646Y-58445980D01*
X123320469Y-58451803D01*
X123257458Y-58544022D01*
X123207252Y-58791946D01*
X123207252Y-58811236D01*
X122448030Y-58052014D01*
X122196602Y-57884015D01*
X121900022Y-57825022D01*
X120718777Y-57825022D01*
X120799839Y-57629801D01*
X120800160Y-57261813D01*
X120659634Y-56921714D01*
X120505816Y-56767626D01*
X123219496Y-56767626D01*
X123219496Y-57210696D01*
X123375746Y-57366946D01*
X124094496Y-57366946D01*
X124094496Y-56423196D01*
X123938246Y-56266946D01*
X123720176Y-56266946D01*
X123490462Y-56362097D01*
X123314646Y-56537912D01*
X123219496Y-56767626D01*
X120505816Y-56767626D01*
X120399655Y-56661280D01*
X120059801Y-56520161D01*
X119691813Y-56519840D01*
X119351714Y-56660366D01*
X119091280Y-56920345D01*
X118950161Y-57260199D01*
X118950149Y-57273835D01*
X118898973Y-57325011D01*
X115188872Y-57325011D01*
X115269849Y-57244034D01*
X115365000Y-57014320D01*
X115365000Y-56721250D01*
X115208750Y-56565000D01*
X114265000Y-56565000D01*
X114265000Y-56585000D01*
X114015000Y-56585000D01*
X114015000Y-56565000D01*
X113995000Y-56565000D01*
X113995000Y-56315000D01*
X114015000Y-56315000D01*
X114015000Y-55521250D01*
X114265000Y-55521250D01*
X114265000Y-56315000D01*
X115208750Y-56315000D01*
X115365000Y-56158750D01*
X115365000Y-55865680D01*
X115269849Y-55635966D01*
X115094034Y-55460150D01*
X114864320Y-55365000D01*
X114421250Y-55365000D01*
X114265000Y-55521250D01*
X114015000Y-55521250D01*
X113858750Y-55365000D01*
X113415680Y-55365000D01*
X113185966Y-55460150D01*
X113037371Y-55608746D01*
X112996781Y-55545668D01*
X112875000Y-55462459D01*
X112875000Y-54718735D01*
X112988905Y-54642626D01*
X124644496Y-54642626D01*
X124644496Y-54860696D01*
X124800746Y-55016946D01*
X125744496Y-55016946D01*
X125744496Y-54298196D01*
X125588246Y-54141946D01*
X125145176Y-54141946D01*
X124915462Y-54237096D01*
X124739647Y-54412912D01*
X124644496Y-54642626D01*
X112988905Y-54642626D01*
X113178338Y-54516051D01*
X113508916Y-54021305D01*
X113625000Y-53437713D01*
X113625000Y-52562287D01*
X113508916Y-51978695D01*
X113178338Y-51483949D01*
X112683592Y-51153371D01*
X112100000Y-51037287D01*
X111516408Y-51153371D01*
X111021662Y-51483949D01*
X110830000Y-51770792D01*
X110638338Y-51483949D01*
X110143592Y-51153371D01*
X109560000Y-51037287D01*
X108976408Y-51153371D01*
X108481662Y-51483949D01*
X108290000Y-51770792D01*
X108098338Y-51483949D01*
X107603592Y-51153371D01*
X107020000Y-51037287D01*
X106436408Y-51153371D01*
X105941662Y-51483949D01*
X105750000Y-51770792D01*
X105558338Y-51483949D01*
X105063592Y-51153371D01*
X104480000Y-51037287D01*
X103896408Y-51153371D01*
X103401662Y-51483949D01*
X103210000Y-51770792D01*
X103018338Y-51483949D01*
X102523592Y-51153371D01*
X101940000Y-51037287D01*
X101356408Y-51153371D01*
X100861662Y-51483949D01*
X100670000Y-51770792D01*
X100478338Y-51483949D01*
X99983592Y-51153371D01*
X99400000Y-51037287D01*
X98816408Y-51153371D01*
X98321662Y-51483949D01*
X98130000Y-51770792D01*
X97938338Y-51483949D01*
X97443592Y-51153371D01*
X96860000Y-51037287D01*
X96276408Y-51153371D01*
X95781662Y-51483949D01*
X95590000Y-51770792D01*
X95398338Y-51483949D01*
X94903592Y-51153371D01*
X94320000Y-51037287D01*
X93736408Y-51153371D01*
X93241662Y-51483949D01*
X93050000Y-51770792D01*
X92858338Y-51483949D01*
X92363592Y-51153371D01*
X91780000Y-51037287D01*
X91196408Y-51153371D01*
X90701662Y-51483949D01*
X90510000Y-51770792D01*
X90318338Y-51483949D01*
X89823592Y-51153371D01*
X89240000Y-51037287D01*
X88656408Y-51153371D01*
X88161662Y-51483949D01*
X87970000Y-51770792D01*
X87778338Y-51483949D01*
X87283592Y-51153371D01*
X86700000Y-51037287D01*
X86116408Y-51153371D01*
X85621662Y-51483949D01*
X85424427Y-51779133D01*
X85149950Y-51433274D01*
X84628108Y-51143248D01*
X84521221Y-51118398D01*
X84285000Y-51236970D01*
X84285000Y-52875000D01*
X84305000Y-52875000D01*
X84305000Y-53125000D01*
X84285000Y-53125000D01*
X84285000Y-53145000D01*
X84035000Y-53145000D01*
X84035000Y-53125000D01*
X84015000Y-53125000D01*
X84015000Y-52875000D01*
X84035000Y-52875000D01*
X84035000Y-51236970D01*
X83798779Y-51118398D01*
X83691892Y-51143248D01*
X83170050Y-51433274D01*
X82895573Y-51779133D01*
X82698338Y-51483949D01*
X82203592Y-51153371D01*
X81620000Y-51037287D01*
X81036408Y-51153371D01*
X80541662Y-51483949D01*
X80350000Y-51770792D01*
X80158338Y-51483949D01*
X79663592Y-51153371D01*
X79080000Y-51037287D01*
X78496408Y-51153371D01*
X78001662Y-51483949D01*
X77810000Y-51770792D01*
X77618338Y-51483949D01*
X77123592Y-51153371D01*
X76540000Y-51037287D01*
X75956408Y-51153371D01*
X75461662Y-51483949D01*
X75264427Y-51779133D01*
X74989950Y-51433274D01*
X74468108Y-51143248D01*
X74361221Y-51118398D01*
X74125000Y-51236970D01*
X74125000Y-52875000D01*
X74145000Y-52875000D01*
X74145000Y-53125000D01*
X74125000Y-53125000D01*
X74125000Y-54763030D01*
X74361221Y-54881602D01*
X74468108Y-54856752D01*
X74989950Y-54566726D01*
X75264427Y-54220867D01*
X75461662Y-54516051D01*
X75956408Y-54846629D01*
X76540000Y-54962713D01*
X76929267Y-54885283D01*
X77334851Y-55290867D01*
X77334840Y-55303187D01*
X77475366Y-55643286D01*
X77735345Y-55903720D01*
X78075199Y-56044839D01*
X78443187Y-56045160D01*
X78783286Y-55904634D01*
X79043720Y-55644655D01*
X79085390Y-55544301D01*
X79290000Y-55585000D01*
X79776640Y-55585000D01*
X79785345Y-55593720D01*
X80125199Y-55734839D01*
X80493187Y-55735160D01*
X80833286Y-55594634D01*
X81093720Y-55334655D01*
X81142108Y-55218124D01*
X81651992Y-55728008D01*
X81903420Y-55896007D01*
X82200000Y-55955000D01*
X83078984Y-55955000D01*
X88421991Y-61298007D01*
X88673419Y-61466006D01*
X88969999Y-61524999D01*
X106895419Y-61524999D01*
X106676714Y-61615366D01*
X106636875Y-61655135D01*
X106445174Y-61575534D01*
X106077186Y-61575213D01*
X105737087Y-61715739D01*
X105476653Y-61975718D01*
X105335534Y-62315572D01*
X105335213Y-62683560D01*
X105475739Y-63023659D01*
X105701299Y-63249614D01*
X105562962Y-63452076D01*
X105512756Y-63700000D01*
X105512756Y-64900000D01*
X105556337Y-65131611D01*
X105693219Y-65344332D01*
X105773790Y-65399384D01*
X105705668Y-65443219D01*
X105562962Y-65652076D01*
X105512756Y-65900000D01*
X105512756Y-67084801D01*
X105496580Y-67073993D01*
X105200000Y-67015000D01*
X100600000Y-67015000D01*
X100303420Y-67073993D01*
X100051992Y-67241992D01*
X98078984Y-69215000D01*
X96533360Y-69215000D01*
X96524655Y-69206280D01*
X96184801Y-69065161D01*
X95816813Y-69064840D01*
X95476714Y-69205366D01*
X95216280Y-69465345D01*
X95075161Y-69805199D01*
X95075022Y-69964990D01*
X94749842Y-69964990D01*
X94696413Y-69835682D01*
X94436434Y-69575248D01*
X94096580Y-69434129D01*
X93728592Y-69433808D01*
X93388493Y-69574334D01*
X93188664Y-69773814D01*
X93139849Y-69655966D01*
X93073139Y-69589256D01*
X93197038Y-69407924D01*
X93210677Y-69340573D01*
X93235000Y-69316250D01*
X93235000Y-69235680D01*
X93232930Y-69230683D01*
X93247244Y-69160000D01*
X93247244Y-68710000D01*
X93227737Y-68606329D01*
X93247244Y-68510000D01*
X93247244Y-68060000D01*
X93227737Y-67956329D01*
X93247244Y-67860000D01*
X93247244Y-67410000D01*
X93227737Y-67306329D01*
X93247244Y-67210000D01*
X93247244Y-66760000D01*
X93227737Y-66656329D01*
X93247244Y-66560000D01*
X93247244Y-66110000D01*
X93203663Y-65878389D01*
X93066781Y-65665668D01*
X92857924Y-65522962D01*
X92610000Y-65472756D01*
X91110000Y-65472756D01*
X90878389Y-65516337D01*
X90665668Y-65653219D01*
X90522962Y-65862076D01*
X90472756Y-66110000D01*
X90472756Y-66560000D01*
X90492263Y-66663671D01*
X90472756Y-66760000D01*
X90472756Y-67210000D01*
X90492263Y-67313671D01*
X90472756Y-67410000D01*
X90472756Y-67860000D01*
X90492263Y-67963671D01*
X90472756Y-68060000D01*
X90472756Y-68510000D01*
X90492263Y-68613671D01*
X90472756Y-68710000D01*
X90472756Y-69160000D01*
X90486373Y-69232366D01*
X90485000Y-69235680D01*
X90485000Y-69316250D01*
X90506133Y-69337383D01*
X90516337Y-69391611D01*
X90644827Y-69591290D01*
X90580151Y-69655966D01*
X90507578Y-69831172D01*
X90485000Y-69853750D01*
X90485000Y-69966250D01*
X90507578Y-69988828D01*
X90580151Y-70164034D01*
X90651117Y-70235000D01*
X90580151Y-70305966D01*
X90507578Y-70481172D01*
X90485000Y-70503750D01*
X90485000Y-70616250D01*
X90507578Y-70638828D01*
X90580151Y-70814034D01*
X90755966Y-70989850D01*
X90774435Y-70997500D01*
X90641250Y-70997500D01*
X90573750Y-71065000D01*
X89981726Y-71065000D01*
X89805000Y-70888274D01*
X89805000Y-68205000D01*
X89742201Y-67889286D01*
X89563363Y-67621637D01*
X87693363Y-65751637D01*
X87425714Y-65572799D01*
X87110000Y-65510000D01*
X86893916Y-65510000D01*
X86710000Y-65472756D01*
X85210000Y-65472756D01*
X85012067Y-65510000D01*
X84745000Y-65510000D01*
X84429286Y-65572799D01*
X84161637Y-65751637D01*
X83978274Y-65935000D01*
X83938486Y-65935000D01*
X83737924Y-65797962D01*
X83715000Y-65793320D01*
X83715000Y-65440000D01*
X83652201Y-65124286D01*
X83473363Y-64856637D01*
X82963363Y-64346637D01*
X82695714Y-64167799D01*
X82380000Y-64105000D01*
X75205000Y-64105000D01*
X74889286Y-64167799D01*
X74621637Y-64346637D01*
X74455336Y-64512938D01*
X74352924Y-64442962D01*
X74105000Y-64392756D01*
X73355000Y-64392756D01*
X73123389Y-64436337D01*
X72910668Y-64573219D01*
X72767962Y-64782076D01*
X72763320Y-64805000D01*
X72729907Y-64805000D01*
X72728663Y-64798389D01*
X72591781Y-64585668D01*
X72382924Y-64442962D01*
X72135000Y-64392756D01*
X71385000Y-64392756D01*
X71153389Y-64436337D01*
X70940668Y-64573219D01*
X70797962Y-64782076D01*
X70793320Y-64805000D01*
X64201726Y-64805000D01*
X58823363Y-59426637D01*
X58555714Y-59247799D01*
X58240000Y-59185000D01*
X55998777Y-59185000D01*
X56172225Y-58989028D01*
X56301407Y-58677124D01*
X56179124Y-58484100D01*
X55217540Y-58484100D01*
X55217540Y-58504100D01*
X54967540Y-58504100D01*
X54967540Y-58484100D01*
X54947540Y-58484100D01*
X54947540Y-58234100D01*
X54967540Y-58234100D01*
X54967540Y-57271604D01*
X55217540Y-57271604D01*
X55217540Y-58234100D01*
X56179124Y-58234100D01*
X56301407Y-58041076D01*
X56172225Y-57729172D01*
X55848976Y-57363945D01*
X55410566Y-57150221D01*
X55217540Y-57271604D01*
X54967540Y-57271604D01*
X54774514Y-57150221D01*
X54365000Y-57349858D01*
X54365000Y-56360000D01*
X54302201Y-56044286D01*
X54123363Y-55776637D01*
X53434053Y-55087327D01*
X53334634Y-54846714D01*
X53074655Y-54586280D01*
X52734801Y-54445161D01*
X52366813Y-54444840D01*
X52026714Y-54585366D01*
X51766280Y-54845345D01*
X51625161Y-55185199D01*
X51624840Y-55553187D01*
X51765366Y-55893286D01*
X52025345Y-56153720D01*
X52267577Y-56254303D01*
X52715000Y-56701726D01*
X52715000Y-57887036D01*
X52517540Y-57996647D01*
X52517540Y-59234100D01*
X52537540Y-59234100D01*
X52537540Y-59484100D01*
X52517540Y-59484100D01*
X52517540Y-60721553D01*
X52734135Y-60841786D01*
X53215440Y-60616724D01*
X53586237Y-60215598D01*
X53603117Y-60169843D01*
X54026637Y-60593363D01*
X54294286Y-60772201D01*
X54610000Y-60835000D01*
X57898274Y-60835000D01*
X63276637Y-66213363D01*
X63544286Y-66392201D01*
X63860000Y-66455000D01*
X70790093Y-66455000D01*
X70791337Y-66461611D01*
X70861096Y-66570020D01*
X70855150Y-66575966D01*
X70760000Y-66805680D01*
X70760000Y-67248750D01*
X70916250Y-67405000D01*
X71635000Y-67405000D01*
X71635000Y-67385000D01*
X71885000Y-67385000D01*
X71885000Y-67405000D01*
X72603750Y-67405000D01*
X72745000Y-67263750D01*
X72886250Y-67405000D01*
X73605000Y-67405000D01*
X73605000Y-67385000D01*
X73855000Y-67385000D01*
X73855000Y-67405000D01*
X74573750Y-67405000D01*
X74730000Y-67248750D01*
X74730000Y-67041250D01*
X79765000Y-67041250D01*
X79765000Y-67259320D01*
X79860151Y-67489034D01*
X80035966Y-67664850D01*
X80265680Y-67760000D01*
X80708750Y-67760000D01*
X80865000Y-67603750D01*
X80865000Y-66885000D01*
X79921250Y-66885000D01*
X79765000Y-67041250D01*
X74730000Y-67041250D01*
X74730000Y-66805680D01*
X74634850Y-66575966D01*
X74629027Y-66570143D01*
X74692038Y-66477924D01*
X74704725Y-66415272D01*
X74820714Y-66392201D01*
X75017548Y-66260680D01*
X79765000Y-66260680D01*
X79765000Y-66478750D01*
X79921250Y-66635000D01*
X80865000Y-66635000D01*
X80865000Y-65916250D01*
X80708750Y-65760000D01*
X80265680Y-65760000D01*
X80035966Y-65855150D01*
X79860151Y-66030966D01*
X79765000Y-66260680D01*
X75017548Y-66260680D01*
X75088363Y-66213363D01*
X75546726Y-65755000D01*
X82038274Y-65755000D01*
X82065000Y-65781726D01*
X82065000Y-65790093D01*
X82058389Y-65791337D01*
X81949980Y-65861096D01*
X81944034Y-65855150D01*
X81714320Y-65760000D01*
X81271250Y-65760000D01*
X81115000Y-65916250D01*
X81115000Y-66635000D01*
X81135000Y-66635000D01*
X81135000Y-66885000D01*
X81115000Y-66885000D01*
X81115000Y-67603750D01*
X81271250Y-67760000D01*
X81295618Y-67760000D01*
X81295618Y-67948355D01*
X80965789Y-67948067D01*
X80935768Y-67960472D01*
X80892427Y-67917055D01*
X80552573Y-67775936D01*
X80184585Y-67775615D01*
X79844486Y-67916141D01*
X79795552Y-67964990D01*
X74730000Y-67964990D01*
X74730000Y-67811250D01*
X74573750Y-67655000D01*
X73855000Y-67655000D01*
X73855000Y-67675000D01*
X73605000Y-67675000D01*
X73605000Y-67655000D01*
X72886250Y-67655000D01*
X72745000Y-67796250D01*
X72603750Y-67655000D01*
X71885000Y-67655000D01*
X71885000Y-67675000D01*
X71635000Y-67675000D01*
X71635000Y-67655000D01*
X70916250Y-67655000D01*
X70760000Y-67811250D01*
X70760000Y-67964990D01*
X70450010Y-67964990D01*
X70153430Y-68023983D01*
X69902002Y-68191982D01*
X67051228Y-71042756D01*
X66460000Y-71042756D01*
X66228389Y-71086337D01*
X66015668Y-71223219D01*
X65960616Y-71303790D01*
X65916781Y-71235668D01*
X65707924Y-71092962D01*
X65460000Y-71042756D01*
X64260000Y-71042756D01*
X64028389Y-71086337D01*
X63815668Y-71223219D01*
X63672962Y-71432076D01*
X63622756Y-71680000D01*
X63622756Y-72365860D01*
X63570265Y-72365860D01*
X63568951Y-72362680D01*
X63527120Y-72320776D01*
X63527120Y-71421476D01*
X63567592Y-71381075D01*
X63777451Y-70875678D01*
X63777928Y-70328443D01*
X63568951Y-69822680D01*
X63182335Y-69435388D01*
X62676938Y-69225529D01*
X62129703Y-69225052D01*
X61623940Y-69434029D01*
X61236648Y-69820645D01*
X61026789Y-70326042D01*
X61026312Y-70873277D01*
X61235289Y-71379040D01*
X61277120Y-71420944D01*
X61277120Y-72320244D01*
X61236648Y-72360645D01*
X61026789Y-72866042D01*
X61026312Y-73413277D01*
X61235289Y-73919040D01*
X61472769Y-74156936D01*
X61236648Y-74392645D01*
X61026789Y-74898042D01*
X61026312Y-75445277D01*
X61235289Y-75951040D01*
X61621905Y-76338332D01*
X61873632Y-76442858D01*
X61623940Y-76546029D01*
X61236648Y-76932645D01*
X61026789Y-77438042D01*
X61026312Y-77985277D01*
X61235289Y-78491040D01*
X61621905Y-78878332D01*
X62127302Y-79088191D01*
X62674537Y-79088668D01*
X63180300Y-78879691D01*
X63567592Y-78493075D01*
X63569757Y-78487860D01*
X63702532Y-78487860D01*
X63803219Y-78644332D01*
X64012076Y-78787038D01*
X64260000Y-78837244D01*
X65460000Y-78837244D01*
X65691611Y-78793663D01*
X65904332Y-78656781D01*
X65959384Y-78576210D01*
X66003219Y-78644332D01*
X66212076Y-78787038D01*
X66357262Y-78816439D01*
X66511992Y-79048008D01*
X67331992Y-79868008D01*
X67583420Y-80036007D01*
X67880000Y-80095000D01*
X68828605Y-80095000D01*
X68873219Y-80164332D01*
X69082076Y-80307038D01*
X69330000Y-80357244D01*
X71230000Y-80357244D01*
X71461611Y-80313663D01*
X71674332Y-80176781D01*
X71763106Y-80046856D01*
X71861250Y-80145000D01*
X73155000Y-80145000D01*
X73155000Y-80125000D01*
X73405000Y-80125000D01*
X73405000Y-80145000D01*
X74698750Y-80145000D01*
X74855000Y-79988750D01*
X74855000Y-79745680D01*
X74780160Y-79565001D01*
X78959999Y-79565001D01*
X79256579Y-79506008D01*
X79508007Y-79338009D01*
X80833772Y-78012244D01*
X81480000Y-78012244D01*
X81619903Y-77985919D01*
X82371990Y-78738005D01*
X82371992Y-78738008D01*
X82614190Y-78899840D01*
X82623420Y-78906007D01*
X82920000Y-78965000D01*
X84800000Y-78965000D01*
X85096580Y-78906007D01*
X85348008Y-78738008D01*
X86748008Y-77338008D01*
X86916007Y-77086580D01*
X86975000Y-76790000D01*
X86975000Y-74911016D01*
X87500000Y-74386016D01*
X87789931Y-74675947D01*
X87476714Y-74805366D01*
X87216280Y-75065345D01*
X87075161Y-75405199D01*
X87074840Y-75773187D01*
X87215366Y-76113286D01*
X87475345Y-76373720D01*
X87815199Y-76514839D01*
X88183187Y-76515160D01*
X88523286Y-76374634D01*
X88532937Y-76365000D01*
X93165039Y-76365000D01*
X93164840Y-76593187D01*
X93305366Y-76933286D01*
X93565345Y-77193720D01*
X93905199Y-77334839D01*
X94273187Y-77335160D01*
X94613286Y-77194634D01*
X94873720Y-76934655D01*
X95014839Y-76594801D01*
X95015160Y-76226813D01*
X94900578Y-75949502D01*
X94931611Y-75943663D01*
X95144332Y-75806781D01*
X95199384Y-75726210D01*
X95243219Y-75794332D01*
X95452076Y-75937038D01*
X95700000Y-75987244D01*
X96900000Y-75987244D01*
X97131611Y-75943663D01*
X97275878Y-75850830D01*
X97368219Y-75994332D01*
X97577076Y-76137038D01*
X97825000Y-76187244D01*
X98575000Y-76187244D01*
X98806611Y-76143663D01*
X99019332Y-76006781D01*
X99162038Y-75797924D01*
X99200094Y-75610000D01*
X99727245Y-75610000D01*
X99687756Y-75805000D01*
X99687756Y-76405000D01*
X99731337Y-76636611D01*
X99868219Y-76849332D01*
X100077076Y-76992038D01*
X100325000Y-77042244D01*
X101875000Y-77042244D01*
X101925000Y-77032836D01*
X101925000Y-77345685D01*
X101868389Y-77356337D01*
X101655668Y-77493219D01*
X101512962Y-77702076D01*
X101462756Y-77950000D01*
X101462756Y-78850000D01*
X101506337Y-79081611D01*
X101643219Y-79294332D01*
X101852076Y-79437038D01*
X102100000Y-79487244D01*
X103300000Y-79487244D01*
X103531611Y-79443663D01*
X103744332Y-79306781D01*
X103799384Y-79226210D01*
X103843219Y-79294332D01*
X104052076Y-79437038D01*
X104300000Y-79487244D01*
X105500000Y-79487244D01*
X105731611Y-79443663D01*
X105944332Y-79306781D01*
X106087038Y-79097924D01*
X106137244Y-78850000D01*
X106137244Y-77950000D01*
X106093663Y-77718389D01*
X105956781Y-77505668D01*
X105747924Y-77362962D01*
X105675000Y-77348194D01*
X105675000Y-77032119D01*
X105725000Y-77042244D01*
X107275000Y-77042244D01*
X107462756Y-77006915D01*
X107462756Y-77150000D01*
X107506337Y-77381611D01*
X107643219Y-77594332D01*
X107852076Y-77737038D01*
X108100000Y-77787244D01*
X109300000Y-77787244D01*
X109531611Y-77743663D01*
X109744332Y-77606781D01*
X109799384Y-77526210D01*
X109843219Y-77594332D01*
X110052076Y-77737038D01*
X110125000Y-77751806D01*
X110125000Y-78400000D01*
X110183993Y-78696580D01*
X110212756Y-78739627D01*
X110212756Y-79400000D01*
X110256337Y-79631611D01*
X110393219Y-79844332D01*
X110473790Y-79899384D01*
X110405668Y-79943219D01*
X110262962Y-80152076D01*
X110212756Y-80400000D01*
X110212756Y-81600000D01*
X110255258Y-81825879D01*
X110093389Y-81856337D01*
X109910483Y-81974034D01*
X109747924Y-81862962D01*
X109500000Y-81812756D01*
X108300000Y-81812756D01*
X108068389Y-81856337D01*
X107855668Y-81993219D01*
X107800616Y-82073790D01*
X107756781Y-82005668D01*
X107547924Y-81862962D01*
X107300000Y-81812756D01*
X106100000Y-81812756D01*
X105868389Y-81856337D01*
X105655668Y-81993219D01*
X105512962Y-82202076D01*
X105462756Y-82450000D01*
X105462756Y-83350000D01*
X105506337Y-83581611D01*
X105643219Y-83794332D01*
X105723790Y-83849384D01*
X105655668Y-83893219D01*
X105531462Y-84075000D01*
X105363360Y-84075000D01*
X105354655Y-84066280D01*
X105014801Y-83925161D01*
X104646813Y-83924840D01*
X104306714Y-84065366D01*
X104046280Y-84325345D01*
X103905161Y-84665199D01*
X103904840Y-85033187D01*
X104045366Y-85373286D01*
X104305345Y-85633720D01*
X104645199Y-85774839D01*
X105013187Y-85775160D01*
X105353286Y-85634634D01*
X105362937Y-85625000D01*
X105598605Y-85625000D01*
X105643219Y-85694332D01*
X105852076Y-85837038D01*
X105979075Y-85862756D01*
X105850000Y-85862756D01*
X105618389Y-85906337D01*
X105405668Y-86043219D01*
X105262962Y-86252076D01*
X105258049Y-86276338D01*
X105134801Y-86225161D01*
X104766813Y-86224840D01*
X104426714Y-86365366D01*
X104166280Y-86625345D01*
X104025161Y-86965199D01*
X104024840Y-87333187D01*
X104165366Y-87673286D01*
X104425345Y-87933720D01*
X104765199Y-88074839D01*
X105133187Y-88075160D01*
X105303441Y-88004813D01*
X105393219Y-88144332D01*
X105473790Y-88199384D01*
X105405668Y-88243219D01*
X105262962Y-88452076D01*
X105212756Y-88700000D01*
X105212756Y-89900000D01*
X105256337Y-90131611D01*
X105393219Y-90344332D01*
X105602076Y-90487038D01*
X105850000Y-90537244D01*
X106750000Y-90537244D01*
X106981611Y-90493663D01*
X107194332Y-90356781D01*
X107337038Y-90147924D01*
X107348633Y-90090667D01*
X107356337Y-90131611D01*
X107493219Y-90344332D01*
X107702076Y-90487038D01*
X107950000Y-90537244D01*
X108850000Y-90537244D01*
X109081611Y-90493663D01*
X109294332Y-90356781D01*
X109437038Y-90147924D01*
X109482181Y-89925000D01*
X109520685Y-89925000D01*
X109531337Y-89981611D01*
X109668219Y-90194332D01*
X109877076Y-90337038D01*
X110125000Y-90387244D01*
X110875000Y-90387244D01*
X111106611Y-90343663D01*
X111319332Y-90206781D01*
X111462038Y-89997924D01*
X111476806Y-89925000D01*
X112029905Y-89925000D01*
X112248420Y-90071007D01*
X112545000Y-90130001D01*
X112545005Y-90130000D01*
X113263103Y-90130000D01*
X113427076Y-90242038D01*
X113675000Y-90292244D01*
X115225000Y-90292244D01*
X115456611Y-90248663D01*
X115641019Y-90130000D01*
X115645000Y-90130000D01*
X115941580Y-90071007D01*
X116193008Y-89903008D01*
X116648008Y-89448008D01*
X116816007Y-89196580D01*
X116875000Y-88900000D01*
X116875000Y-87371016D01*
X117706884Y-88202900D01*
X117676714Y-88215366D01*
X117416280Y-88475345D01*
X117275161Y-88815199D01*
X117274840Y-89183187D01*
X117415366Y-89523286D01*
X117675345Y-89783720D01*
X118015199Y-89924839D01*
X118039696Y-89924860D01*
X118258420Y-90071007D01*
X118555000Y-90130000D01*
X118663103Y-90130000D01*
X118827076Y-90242038D01*
X119075000Y-90292244D01*
X120625000Y-90292244D01*
X120856611Y-90248663D01*
X120963316Y-90180000D01*
X121323274Y-90180000D01*
X121402756Y-90259482D01*
X121402756Y-90465000D01*
X112600000Y-90465000D01*
X112554568Y-90473549D01*
X112512841Y-90500399D01*
X112484848Y-90541368D01*
X112475000Y-90590000D01*
X112475000Y-91865000D01*
X96925000Y-91865000D01*
X96925000Y-88390000D01*
X96916451Y-88344568D01*
X96889601Y-88302841D01*
X96848632Y-88274848D01*
X96800000Y-88265000D01*
X84925000Y-88265000D01*
X84925000Y-85990000D01*
X84916451Y-85944568D01*
X84889601Y-85902841D01*
X84848632Y-85874848D01*
X84800000Y-85865000D01*
X78174436Y-85865000D01*
X77770718Y-85461282D01*
X77486848Y-85271605D01*
X77454406Y-85265152D01*
X77152000Y-85205000D01*
X73280000Y-85205000D01*
X72977594Y-85265152D01*
X72945152Y-85271605D01*
X72661282Y-85461282D01*
X72257564Y-85865000D01*
X69553567Y-85865000D01*
X69703043Y-85803238D01*
X70301337Y-85205987D01*
X70625530Y-84425243D01*
X70626268Y-83579866D01*
X70566102Y-83434251D01*
X94648831Y-83434251D01*
X94648831Y-84831251D01*
X94692412Y-85062862D01*
X94829294Y-85275583D01*
X95038151Y-85418289D01*
X95286075Y-85468495D01*
X96683075Y-85468495D01*
X96914686Y-85424914D01*
X97127407Y-85288032D01*
X97270113Y-85079175D01*
X97320319Y-84831251D01*
X97320319Y-84684003D01*
X97401912Y-84881474D01*
X97773894Y-85254106D01*
X98260160Y-85456021D01*
X98786680Y-85456480D01*
X99273298Y-85255414D01*
X99645930Y-84883432D01*
X99847845Y-84397166D01*
X99848304Y-83870646D01*
X99647238Y-83384028D01*
X99275256Y-83011396D01*
X98788990Y-82809481D01*
X98262470Y-82809022D01*
X97775852Y-83010088D01*
X97403220Y-83382070D01*
X97320319Y-83581718D01*
X97320319Y-83434251D01*
X97276738Y-83202640D01*
X97139856Y-82989919D01*
X96930999Y-82847213D01*
X96683075Y-82797007D01*
X95286075Y-82797007D01*
X95054464Y-82840588D01*
X94841743Y-82977470D01*
X94699037Y-83186327D01*
X94648831Y-83434251D01*
X70566102Y-83434251D01*
X70303438Y-82798557D01*
X69706187Y-82200263D01*
X68925443Y-81876070D01*
X68080066Y-81875332D01*
X67298757Y-82198162D01*
X66700463Y-82795413D01*
X66376270Y-83576157D01*
X66375532Y-84421534D01*
X66698362Y-85202843D01*
X67295613Y-85801137D01*
X67449412Y-85865000D01*
X65525000Y-85865000D01*
X65525000Y-82590000D01*
X65516451Y-82544568D01*
X65489601Y-82502841D01*
X65448632Y-82474848D01*
X65400000Y-82465000D01*
X61035650Y-82465000D01*
X61535447Y-81966074D01*
X61859621Y-81185377D01*
X61860173Y-80551250D01*
X71705000Y-80551250D01*
X71705000Y-80794320D01*
X71800151Y-81024034D01*
X71975966Y-81199850D01*
X72205680Y-81295000D01*
X72998750Y-81295000D01*
X73155000Y-81138750D01*
X73155000Y-80395000D01*
X73405000Y-80395000D01*
X73405000Y-81138750D01*
X73561250Y-81295000D01*
X74354320Y-81295000D01*
X74584034Y-81199850D01*
X74759849Y-81024034D01*
X74855000Y-80794320D01*
X74855000Y-80551250D01*
X74698750Y-80395000D01*
X73405000Y-80395000D01*
X73155000Y-80395000D01*
X71861250Y-80395000D01*
X71705000Y-80551250D01*
X61860173Y-80551250D01*
X61860358Y-80340051D01*
X61537548Y-79558790D01*
X60940334Y-78960533D01*
X60159637Y-78636359D01*
X59314311Y-78635622D01*
X58533050Y-78958432D01*
X57934793Y-79555646D01*
X57610619Y-80336343D01*
X57609882Y-81181669D01*
X57932692Y-81962930D01*
X58433887Y-82465000D01*
X50700000Y-82465000D01*
X50700000Y-67465669D01*
X57609882Y-67465669D01*
X57932692Y-68246930D01*
X58529906Y-68845187D01*
X59310603Y-69169361D01*
X60155929Y-69170098D01*
X60937190Y-68847288D01*
X61535447Y-68250074D01*
X61859621Y-67469377D01*
X61860358Y-66624051D01*
X61537548Y-65842790D01*
X60940334Y-65244533D01*
X60159637Y-64920359D01*
X59314311Y-64919622D01*
X58533050Y-65242432D01*
X57934793Y-65839646D01*
X57610619Y-66620343D01*
X57609882Y-67465669D01*
X50700000Y-67465669D01*
X50700000Y-59703108D01*
X51009776Y-59703108D01*
X51198843Y-60215598D01*
X51569640Y-60616724D01*
X52050945Y-60841786D01*
X52267540Y-60721553D01*
X52267540Y-59484100D01*
X51148790Y-59484100D01*
X51009776Y-59703108D01*
X50700000Y-59703108D01*
X50700000Y-59015092D01*
X51009776Y-59015092D01*
X51148790Y-59234100D01*
X52267540Y-59234100D01*
X52267540Y-57996647D01*
X52050945Y-57876414D01*
X51569640Y-58101476D01*
X51198843Y-58502602D01*
X51009776Y-59015092D01*
X50700000Y-59015092D01*
X50700000Y-52703108D01*
X51009776Y-52703108D01*
X51198843Y-53215598D01*
X51569640Y-53616724D01*
X52050945Y-53841786D01*
X52267540Y-53721553D01*
X52267540Y-52484100D01*
X52517540Y-52484100D01*
X52517540Y-53721553D01*
X52734135Y-53841786D01*
X53086271Y-53677124D01*
X53883673Y-53677124D01*
X54012855Y-53989028D01*
X54336104Y-54354255D01*
X54774514Y-54567979D01*
X54967540Y-54446596D01*
X54967540Y-53484100D01*
X55217540Y-53484100D01*
X55217540Y-54446596D01*
X55410566Y-54567979D01*
X55848976Y-54354255D01*
X56172225Y-53989028D01*
X56301407Y-53677124D01*
X56179124Y-53484100D01*
X55217540Y-53484100D01*
X54967540Y-53484100D01*
X54005956Y-53484100D01*
X53883673Y-53677124D01*
X53086271Y-53677124D01*
X53215440Y-53616724D01*
X53396518Y-53420834D01*
X66375532Y-53420834D01*
X66698362Y-54202143D01*
X67295613Y-54800437D01*
X68076357Y-55124630D01*
X68921734Y-55125368D01*
X69703043Y-54802538D01*
X70301337Y-54205287D01*
X70625530Y-53424543D01*
X70625791Y-53125000D01*
X72475000Y-53125000D01*
X72475000Y-53525000D01*
X72638919Y-54099077D01*
X73010050Y-54566726D01*
X73531892Y-54856752D01*
X73638779Y-54881602D01*
X73875000Y-54763030D01*
X73875000Y-53125000D01*
X72475000Y-53125000D01*
X70625791Y-53125000D01*
X70626268Y-52579166D01*
X70583228Y-52475000D01*
X72475000Y-52475000D01*
X72475000Y-52875000D01*
X73875000Y-52875000D01*
X73875000Y-51236970D01*
X73638779Y-51118398D01*
X73531892Y-51143248D01*
X73010050Y-51433274D01*
X72638919Y-51900923D01*
X72475000Y-52475000D01*
X70583228Y-52475000D01*
X70303438Y-51797857D01*
X69706187Y-51199563D01*
X68925443Y-50875370D01*
X68080066Y-50874632D01*
X67298757Y-51197462D01*
X66700463Y-51794713D01*
X66376270Y-52575457D01*
X66375532Y-53420834D01*
X53396518Y-53420834D01*
X53586237Y-53215598D01*
X53650621Y-53041076D01*
X53883673Y-53041076D01*
X54005956Y-53234100D01*
X54967540Y-53234100D01*
X54967540Y-52271604D01*
X55217540Y-52271604D01*
X55217540Y-53234100D01*
X56179124Y-53234100D01*
X56301407Y-53041076D01*
X56172225Y-52729172D01*
X55848976Y-52363945D01*
X55410566Y-52150221D01*
X55217540Y-52271604D01*
X54967540Y-52271604D01*
X54774514Y-52150221D01*
X54336104Y-52363945D01*
X54012855Y-52729172D01*
X53883673Y-53041076D01*
X53650621Y-53041076D01*
X53775304Y-52703108D01*
X53636290Y-52484100D01*
X52517540Y-52484100D01*
X52267540Y-52484100D01*
X51148790Y-52484100D01*
X51009776Y-52703108D01*
X50700000Y-52703108D01*
X50700000Y-52015092D01*
X51009776Y-52015092D01*
X51148790Y-52234100D01*
X52267540Y-52234100D01*
X52267540Y-50996647D01*
X52517540Y-50996647D01*
X52517540Y-52234100D01*
X53636290Y-52234100D01*
X53775304Y-52015092D01*
X53586237Y-51502602D01*
X53215440Y-51101476D01*
X52734135Y-50876414D01*
X52517540Y-50996647D01*
X52267540Y-50996647D01*
X52050945Y-50876414D01*
X51569640Y-51101476D01*
X51198843Y-51502602D01*
X51009776Y-52015092D01*
X50700000Y-52015092D01*
X50700000Y-50700000D01*
X147608539Y-50700000D01*
X147278645Y-51029319D01*
G36*
X147277337Y-88088723D02*
X147649319Y-88461355D01*
X148068387Y-88635367D01*
X147773197Y-88757337D01*
X147424926Y-89105000D01*
X145965546Y-89105000D01*
X145848008Y-88987462D01*
X145596580Y-88819463D01*
X145300000Y-88760470D01*
X140320885Y-88760470D01*
X139330885Y-87770470D01*
X147145838Y-87770470D01*
X147277337Y-88088723D01*
X147277337Y-88088723D01*
G37*
X147277337Y-88088723D02*
X147649319Y-88461355D01*
X148068387Y-88635367D01*
X147773197Y-88757337D01*
X147424926Y-89105000D01*
X145965546Y-89105000D01*
X145848008Y-88987462D01*
X145596580Y-88819463D01*
X145300000Y-88760470D01*
X140320885Y-88760470D01*
X139330885Y-87770470D01*
X147145838Y-87770470D01*
X147277337Y-88088723D01*
G36*
X113431853Y-76119288D02*
X113445489Y-76119300D01*
X113974990Y-76648801D01*
X113974990Y-76658260D01*
X113966270Y-76666965D01*
X113825151Y-77006819D01*
X113824830Y-77374807D01*
X113965356Y-77714906D01*
X113974990Y-77724557D01*
X113974990Y-79349990D01*
X114033983Y-79646570D01*
X114201982Y-79897998D01*
X114651992Y-80348008D01*
X114813072Y-80455638D01*
X114765966Y-80475150D01*
X114590151Y-80650966D01*
X114495000Y-80880680D01*
X114495000Y-81098750D01*
X114651250Y-81255000D01*
X115595000Y-81255000D01*
X115595000Y-81235000D01*
X115845000Y-81235000D01*
X115845000Y-81255000D01*
X115865000Y-81255000D01*
X115865000Y-81505000D01*
X115845000Y-81505000D01*
X115845000Y-81525000D01*
X115595000Y-81525000D01*
X115595000Y-81505000D01*
X114651250Y-81505000D01*
X114495000Y-81661250D01*
X114495000Y-81879320D01*
X114590151Y-82109034D01*
X114765966Y-82284850D01*
X114822842Y-82308408D01*
X114775000Y-82356250D01*
X114775000Y-83075000D01*
X114795000Y-83075000D01*
X114795000Y-83325000D01*
X114775000Y-83325000D01*
X114775000Y-84043750D01*
X114931250Y-84200000D01*
X115374320Y-84200000D01*
X115404123Y-84187655D01*
X115316280Y-84275345D01*
X115175161Y-84615199D01*
X115175157Y-84620000D01*
X114731250Y-84620000D01*
X114575000Y-84776250D01*
X114575000Y-85420000D01*
X114595000Y-85420000D01*
X114595000Y-85670000D01*
X114575000Y-85670000D01*
X114575000Y-85690000D01*
X114325000Y-85690000D01*
X114325000Y-85670000D01*
X114305000Y-85670000D01*
X114305000Y-85420000D01*
X114325000Y-85420000D01*
X114325000Y-84776250D01*
X114168750Y-84620000D01*
X113550680Y-84620000D01*
X113320966Y-84715150D01*
X113145151Y-84890966D01*
X113076068Y-85057745D01*
X113068663Y-85018389D01*
X113027997Y-84955193D01*
X113133720Y-84849655D01*
X113274839Y-84509801D01*
X113275160Y-84141813D01*
X113134634Y-83801714D01*
X112874655Y-83541280D01*
X112730086Y-83481250D01*
X113425000Y-83481250D01*
X113425000Y-83699320D01*
X113520151Y-83929034D01*
X113695966Y-84104850D01*
X113925680Y-84200000D01*
X114368750Y-84200000D01*
X114525000Y-84043750D01*
X114525000Y-83325000D01*
X113581250Y-83325000D01*
X113425000Y-83481250D01*
X112730086Y-83481250D01*
X112534801Y-83400161D01*
X112521165Y-83400149D01*
X112362207Y-83241191D01*
X112523286Y-83174634D01*
X112783720Y-82914655D01*
X112872569Y-82700680D01*
X113425000Y-82700680D01*
X113425000Y-82918750D01*
X113581250Y-83075000D01*
X114525000Y-83075000D01*
X114525000Y-82356250D01*
X114368750Y-82200000D01*
X113925680Y-82200000D01*
X113695966Y-82295150D01*
X113520151Y-82470966D01*
X113425000Y-82700680D01*
X112872569Y-82700680D01*
X112924839Y-82574801D01*
X112925160Y-82206813D01*
X112784634Y-81866714D01*
X112524655Y-81606280D01*
X112387244Y-81549222D01*
X112387244Y-80400000D01*
X112343663Y-80168389D01*
X112206781Y-79955668D01*
X112126210Y-79900616D01*
X112194332Y-79856781D01*
X112337038Y-79647924D01*
X112387244Y-79400000D01*
X112387244Y-78200000D01*
X112343663Y-77968389D01*
X112206781Y-77755668D01*
X111997924Y-77612962D01*
X111947136Y-77602677D01*
X112071238Y-77421048D01*
X112096580Y-77416007D01*
X112348008Y-77248008D01*
X112998010Y-76598006D01*
X113013382Y-76575000D01*
X113166009Y-76346578D01*
X113180247Y-76275000D01*
X113225003Y-76049998D01*
X113225002Y-76049993D01*
X113225002Y-76033396D01*
X113431853Y-76119288D01*
X113431853Y-76119288D01*
G37*
X113431853Y-76119288D02*
X113445489Y-76119300D01*
X113974990Y-76648801D01*
X113974990Y-76658260D01*
X113966270Y-76666965D01*
X113825151Y-77006819D01*
X113824830Y-77374807D01*
X113965356Y-77714906D01*
X113974990Y-77724557D01*
X113974990Y-79349990D01*
X114033983Y-79646570D01*
X114201982Y-79897998D01*
X114651992Y-80348008D01*
X114813072Y-80455638D01*
X114765966Y-80475150D01*
X114590151Y-80650966D01*
X114495000Y-80880680D01*
X114495000Y-81098750D01*
X114651250Y-81255000D01*
X115595000Y-81255000D01*
X115595000Y-81235000D01*
X115845000Y-81235000D01*
X115845000Y-81255000D01*
X115865000Y-81255000D01*
X115865000Y-81505000D01*
X115845000Y-81505000D01*
X115845000Y-81525000D01*
X115595000Y-81525000D01*
X115595000Y-81505000D01*
X114651250Y-81505000D01*
X114495000Y-81661250D01*
X114495000Y-81879320D01*
X114590151Y-82109034D01*
X114765966Y-82284850D01*
X114822842Y-82308408D01*
X114775000Y-82356250D01*
X114775000Y-83075000D01*
X114795000Y-83075000D01*
X114795000Y-83325000D01*
X114775000Y-83325000D01*
X114775000Y-84043750D01*
X114931250Y-84200000D01*
X115374320Y-84200000D01*
X115404123Y-84187655D01*
X115316280Y-84275345D01*
X115175161Y-84615199D01*
X115175157Y-84620000D01*
X114731250Y-84620000D01*
X114575000Y-84776250D01*
X114575000Y-85420000D01*
X114595000Y-85420000D01*
X114595000Y-85670000D01*
X114575000Y-85670000D01*
X114575000Y-85690000D01*
X114325000Y-85690000D01*
X114325000Y-85670000D01*
X114305000Y-85670000D01*
X114305000Y-85420000D01*
X114325000Y-85420000D01*
X114325000Y-84776250D01*
X114168750Y-84620000D01*
X113550680Y-84620000D01*
X113320966Y-84715150D01*
X113145151Y-84890966D01*
X113076068Y-85057745D01*
X113068663Y-85018389D01*
X113027997Y-84955193D01*
X113133720Y-84849655D01*
X113274839Y-84509801D01*
X113275160Y-84141813D01*
X113134634Y-83801714D01*
X112874655Y-83541280D01*
X112730086Y-83481250D01*
X113425000Y-83481250D01*
X113425000Y-83699320D01*
X113520151Y-83929034D01*
X113695966Y-84104850D01*
X113925680Y-84200000D01*
X114368750Y-84200000D01*
X114525000Y-84043750D01*
X114525000Y-83325000D01*
X113581250Y-83325000D01*
X113425000Y-83481250D01*
X112730086Y-83481250D01*
X112534801Y-83400161D01*
X112521165Y-83400149D01*
X112362207Y-83241191D01*
X112523286Y-83174634D01*
X112783720Y-82914655D01*
X112872569Y-82700680D01*
X113425000Y-82700680D01*
X113425000Y-82918750D01*
X113581250Y-83075000D01*
X114525000Y-83075000D01*
X114525000Y-82356250D01*
X114368750Y-82200000D01*
X113925680Y-82200000D01*
X113695966Y-82295150D01*
X113520151Y-82470966D01*
X113425000Y-82700680D01*
X112872569Y-82700680D01*
X112924839Y-82574801D01*
X112925160Y-82206813D01*
X112784634Y-81866714D01*
X112524655Y-81606280D01*
X112387244Y-81549222D01*
X112387244Y-80400000D01*
X112343663Y-80168389D01*
X112206781Y-79955668D01*
X112126210Y-79900616D01*
X112194332Y-79856781D01*
X112337038Y-79647924D01*
X112387244Y-79400000D01*
X112387244Y-78200000D01*
X112343663Y-77968389D01*
X112206781Y-77755668D01*
X111997924Y-77612962D01*
X111947136Y-77602677D01*
X112071238Y-77421048D01*
X112096580Y-77416007D01*
X112348008Y-77248008D01*
X112998010Y-76598006D01*
X113013382Y-76575000D01*
X113166009Y-76346578D01*
X113180247Y-76275000D01*
X113225003Y-76049998D01*
X113225002Y-76049993D01*
X113225002Y-76033396D01*
X113431853Y-76119288D01*
G36*
X141374112Y-84421534D02*
X141696942Y-85202843D01*
X142018537Y-85525000D01*
X138499660Y-85525000D01*
X137374659Y-84399999D01*
X140826247Y-84399999D01*
X141122827Y-84341006D01*
X141374255Y-84173007D01*
X141374329Y-84172933D01*
X141374112Y-84421534D01*
X141374112Y-84421534D01*
G37*
X141374112Y-84421534D02*
X141696942Y-85202843D01*
X142018537Y-85525000D01*
X138499660Y-85525000D01*
X137374659Y-84399999D01*
X140826247Y-84399999D01*
X141122827Y-84341006D01*
X141374255Y-84173007D01*
X141374329Y-84172933D01*
X141374112Y-84421534D01*
G36*
X145447950Y-82976007D02*
X145497156Y-82985795D01*
X145744530Y-83035001D01*
X145744535Y-83035000D01*
X147303568Y-83035000D01*
X147649319Y-83381355D01*
X148068387Y-83555367D01*
X147773197Y-83677337D01*
X147424926Y-84025000D01*
X146800030Y-84025000D01*
X146503450Y-84083993D01*
X146252022Y-84251992D01*
X145301259Y-85202755D01*
X145624110Y-84425243D01*
X145624848Y-83579866D01*
X145347646Y-82908986D01*
X145447950Y-82976007D01*
X145447950Y-82976007D01*
G37*
X145447950Y-82976007D02*
X145497156Y-82985795D01*
X145744530Y-83035001D01*
X145744535Y-83035000D01*
X147303568Y-83035000D01*
X147649319Y-83381355D01*
X148068387Y-83555367D01*
X147773197Y-83677337D01*
X147424926Y-84025000D01*
X146800030Y-84025000D01*
X146503450Y-84083993D01*
X146252022Y-84251992D01*
X145301259Y-85202755D01*
X145624110Y-84425243D01*
X145624848Y-83579866D01*
X145347646Y-82908986D01*
X145447950Y-82976007D01*
G36*
X120517728Y-83688008D02*
X120769156Y-83856007D01*
X120818362Y-83865795D01*
X120929611Y-83887924D01*
X120965345Y-83923720D01*
X121305199Y-84064839D01*
X121673187Y-84065160D01*
X121796133Y-84014360D01*
X121040493Y-84770000D01*
X121036897Y-84770000D01*
X120872924Y-84657962D01*
X120625000Y-84607756D01*
X119515307Y-84607756D01*
X119524839Y-84584801D01*
X119525160Y-84216813D01*
X119384634Y-83876714D01*
X119124655Y-83616280D01*
X119075001Y-83595662D01*
X119075000Y-82734999D01*
X119016007Y-82438419D01*
X118848008Y-82186992D01*
X118748952Y-82087936D01*
X118807038Y-82002924D01*
X118811350Y-81981630D01*
X120517728Y-83688008D01*
X120517728Y-83688008D01*
G37*
X120517728Y-83688008D02*
X120769156Y-83856007D01*
X120818362Y-83865795D01*
X120929611Y-83887924D01*
X120965345Y-83923720D01*
X121305199Y-84064839D01*
X121673187Y-84065160D01*
X121796133Y-84014360D01*
X121040493Y-84770000D01*
X121036897Y-84770000D01*
X120872924Y-84657962D01*
X120625000Y-84607756D01*
X119515307Y-84607756D01*
X119524839Y-84584801D01*
X119525160Y-84216813D01*
X119384634Y-83876714D01*
X119124655Y-83616280D01*
X119075001Y-83595662D01*
X119075000Y-82734999D01*
X119016007Y-82438419D01*
X118848008Y-82186992D01*
X118748952Y-82087936D01*
X118807038Y-82002924D01*
X118811350Y-81981630D01*
X120517728Y-83688008D01*
G36*
X128925488Y-83549989D02*
X128837018Y-83549989D01*
X128837013Y-83549988D01*
X128602833Y-83596570D01*
X128540433Y-83608982D01*
X128441629Y-83675001D01*
X127822483Y-83675001D01*
X124938084Y-80790601D01*
X125133710Y-80595317D01*
X125274829Y-80255463D01*
X125274841Y-80241827D01*
X125348008Y-80168660D01*
X125426575Y-80051077D01*
X128925488Y-83549989D01*
X128925488Y-83549989D01*
G37*
X128925488Y-83549989D02*
X128837018Y-83549989D01*
X128837013Y-83549988D01*
X128602833Y-83596570D01*
X128540433Y-83608982D01*
X128441629Y-83675001D01*
X127822483Y-83675001D01*
X124938084Y-80790601D01*
X125133710Y-80595317D01*
X125274829Y-80255463D01*
X125274841Y-80241827D01*
X125348008Y-80168660D01*
X125426575Y-80051077D01*
X128925488Y-83549989D01*
G36*
X147771239Y-70681355D02*
X148000374Y-70776500D01*
X147577180Y-70776500D01*
X147347466Y-70871651D01*
X147171650Y-71047466D01*
X147076500Y-71277180D01*
X147076500Y-71818750D01*
X147232750Y-71975000D01*
X148275000Y-71975000D01*
X148275000Y-71955000D01*
X148525000Y-71955000D01*
X148525000Y-71975000D01*
X148545000Y-71975000D01*
X148545000Y-72225000D01*
X148525000Y-72225000D01*
X148525000Y-73267250D01*
X148681250Y-73423500D01*
X149222820Y-73423500D01*
X149300000Y-73391531D01*
X149300000Y-76208225D01*
X149150681Y-76058645D01*
X148664415Y-75856730D01*
X148137895Y-75856271D01*
X147651277Y-76057337D01*
X147303006Y-76405000D01*
X145857002Y-76405000D01*
X145560422Y-76463993D01*
X145308994Y-76631992D01*
X144288994Y-77651992D01*
X144288992Y-77651995D01*
X142565228Y-79375758D01*
X142534634Y-79301714D01*
X142274655Y-79041280D01*
X141934801Y-78900161D01*
X141566813Y-78899840D01*
X141236024Y-79036519D01*
X141236024Y-78476920D01*
X141192443Y-78245309D01*
X141055561Y-78032588D01*
X140846704Y-77889882D01*
X140598780Y-77839676D01*
X139801220Y-77839676D01*
X139569609Y-77883257D01*
X139390926Y-77998236D01*
X139354548Y-77941703D01*
X139145691Y-77798997D01*
X138897767Y-77748791D01*
X137997767Y-77748791D01*
X137766156Y-77792372D01*
X137553435Y-77929254D01*
X137549201Y-77935451D01*
X137548750Y-77935000D01*
X136605000Y-77935000D01*
X136605000Y-78653750D01*
X136761250Y-78810000D01*
X137204320Y-78810000D01*
X137360523Y-78745299D01*
X137360523Y-79586035D01*
X137404104Y-79817646D01*
X137540986Y-80030367D01*
X137621557Y-80085419D01*
X137553435Y-80129254D01*
X137410729Y-80338111D01*
X137360523Y-80586035D01*
X137360523Y-81786035D01*
X137372555Y-81849977D01*
X136945994Y-81849977D01*
X135173009Y-80076992D01*
X135113522Y-80037244D01*
X134921581Y-79908993D01*
X134625001Y-79850000D01*
X131246016Y-79850000D01*
X130771016Y-79375000D01*
X130799320Y-79375000D01*
X130820735Y-79366130D01*
X130925000Y-79387244D01*
X131475000Y-79387244D01*
X131706611Y-79343663D01*
X131919332Y-79206781D01*
X132062038Y-78997924D01*
X132112244Y-78750000D01*
X132112244Y-78746706D01*
X132266580Y-78716007D01*
X132356686Y-78655800D01*
X132595199Y-78754839D01*
X132963187Y-78755160D01*
X133303286Y-78614634D01*
X133332972Y-78585000D01*
X133494692Y-78585000D01*
X133523219Y-78629332D01*
X133732076Y-78772038D01*
X133980000Y-78822244D01*
X135180000Y-78822244D01*
X135411611Y-78778663D01*
X135520020Y-78708904D01*
X135525966Y-78714850D01*
X135755680Y-78810000D01*
X136198750Y-78810000D01*
X136355000Y-78653750D01*
X136355000Y-77935000D01*
X136335000Y-77935000D01*
X136335000Y-77685000D01*
X136355000Y-77685000D01*
X136355000Y-77665000D01*
X136605000Y-77665000D01*
X136605000Y-77685000D01*
X137548750Y-77685000D01*
X137705000Y-77528750D01*
X137705000Y-77310680D01*
X137609849Y-77080966D01*
X137434034Y-76905150D01*
X137204320Y-76810000D01*
X137193894Y-76810000D01*
X137328905Y-76674989D01*
X139428973Y-76674989D01*
X139581992Y-76828008D01*
X139833420Y-76996007D01*
X139862147Y-77001721D01*
X139973219Y-77174332D01*
X140182076Y-77317038D01*
X140430000Y-77367244D01*
X141630000Y-77367244D01*
X141861611Y-77323663D01*
X142074332Y-77186781D01*
X142126519Y-77110402D01*
X142275966Y-77259850D01*
X142505680Y-77355000D01*
X142948750Y-77355000D01*
X143105000Y-77198750D01*
X143105000Y-76405000D01*
X143355000Y-76405000D01*
X143355000Y-77198750D01*
X143511250Y-77355000D01*
X143954320Y-77355000D01*
X144184034Y-77259850D01*
X144359849Y-77084034D01*
X144455000Y-76854320D01*
X144455000Y-76561250D01*
X144298750Y-76405000D01*
X143355000Y-76405000D01*
X143105000Y-76405000D01*
X143085000Y-76405000D01*
X143085000Y-76155000D01*
X143105000Y-76155000D01*
X143105000Y-75361250D01*
X143355000Y-75361250D01*
X143355000Y-76155000D01*
X144298750Y-76155000D01*
X144455000Y-75998750D01*
X144455000Y-75705680D01*
X144359849Y-75475966D01*
X144184034Y-75300150D01*
X143954320Y-75205000D01*
X143511250Y-75205000D01*
X143355000Y-75361250D01*
X143105000Y-75361250D01*
X142948750Y-75205000D01*
X142566016Y-75205000D01*
X143323008Y-74448008D01*
X143491007Y-74196580D01*
X143550000Y-73900000D01*
X143550000Y-72381250D01*
X147076500Y-72381250D01*
X147076500Y-72922820D01*
X147171650Y-73152534D01*
X147347466Y-73328349D01*
X147577180Y-73423500D01*
X148118750Y-73423500D01*
X148275000Y-73267250D01*
X148275000Y-72225000D01*
X147232750Y-72225000D01*
X147076500Y-72381250D01*
X143550000Y-72381250D01*
X143550000Y-71900000D01*
X145675000Y-71900000D01*
X145971580Y-71841007D01*
X146223008Y-71673008D01*
X147493193Y-70402823D01*
X147771239Y-70681355D01*
X147771239Y-70681355D01*
G37*
X147771239Y-70681355D02*
X148000374Y-70776500D01*
X147577180Y-70776500D01*
X147347466Y-70871651D01*
X147171650Y-71047466D01*
X147076500Y-71277180D01*
X147076500Y-71818750D01*
X147232750Y-71975000D01*
X148275000Y-71975000D01*
X148275000Y-71955000D01*
X148525000Y-71955000D01*
X148525000Y-71975000D01*
X148545000Y-71975000D01*
X148545000Y-72225000D01*
X148525000Y-72225000D01*
X148525000Y-73267250D01*
X148681250Y-73423500D01*
X149222820Y-73423500D01*
X149300000Y-73391531D01*
X149300000Y-76208225D01*
X149150681Y-76058645D01*
X148664415Y-75856730D01*
X148137895Y-75856271D01*
X147651277Y-76057337D01*
X147303006Y-76405000D01*
X145857002Y-76405000D01*
X145560422Y-76463993D01*
X145308994Y-76631992D01*
X144288994Y-77651992D01*
X144288992Y-77651995D01*
X142565228Y-79375758D01*
X142534634Y-79301714D01*
X142274655Y-79041280D01*
X141934801Y-78900161D01*
X141566813Y-78899840D01*
X141236024Y-79036519D01*
X141236024Y-78476920D01*
X141192443Y-78245309D01*
X141055561Y-78032588D01*
X140846704Y-77889882D01*
X140598780Y-77839676D01*
X139801220Y-77839676D01*
X139569609Y-77883257D01*
X139390926Y-77998236D01*
X139354548Y-77941703D01*
X139145691Y-77798997D01*
X138897767Y-77748791D01*
X137997767Y-77748791D01*
X137766156Y-77792372D01*
X137553435Y-77929254D01*
X137549201Y-77935451D01*
X137548750Y-77935000D01*
X136605000Y-77935000D01*
X136605000Y-78653750D01*
X136761250Y-78810000D01*
X137204320Y-78810000D01*
X137360523Y-78745299D01*
X137360523Y-79586035D01*
X137404104Y-79817646D01*
X137540986Y-80030367D01*
X137621557Y-80085419D01*
X137553435Y-80129254D01*
X137410729Y-80338111D01*
X137360523Y-80586035D01*
X137360523Y-81786035D01*
X137372555Y-81849977D01*
X136945994Y-81849977D01*
X135173009Y-80076992D01*
X135113522Y-80037244D01*
X134921581Y-79908993D01*
X134625001Y-79850000D01*
X131246016Y-79850000D01*
X130771016Y-79375000D01*
X130799320Y-79375000D01*
X130820735Y-79366130D01*
X130925000Y-79387244D01*
X131475000Y-79387244D01*
X131706611Y-79343663D01*
X131919332Y-79206781D01*
X132062038Y-78997924D01*
X132112244Y-78750000D01*
X132112244Y-78746706D01*
X132266580Y-78716007D01*
X132356686Y-78655800D01*
X132595199Y-78754839D01*
X132963187Y-78755160D01*
X133303286Y-78614634D01*
X133332972Y-78585000D01*
X133494692Y-78585000D01*
X133523219Y-78629332D01*
X133732076Y-78772038D01*
X133980000Y-78822244D01*
X135180000Y-78822244D01*
X135411611Y-78778663D01*
X135520020Y-78708904D01*
X135525966Y-78714850D01*
X135755680Y-78810000D01*
X136198750Y-78810000D01*
X136355000Y-78653750D01*
X136355000Y-77935000D01*
X136335000Y-77935000D01*
X136335000Y-77685000D01*
X136355000Y-77685000D01*
X136355000Y-77665000D01*
X136605000Y-77665000D01*
X136605000Y-77685000D01*
X137548750Y-77685000D01*
X137705000Y-77528750D01*
X137705000Y-77310680D01*
X137609849Y-77080966D01*
X137434034Y-76905150D01*
X137204320Y-76810000D01*
X137193894Y-76810000D01*
X137328905Y-76674989D01*
X139428973Y-76674989D01*
X139581992Y-76828008D01*
X139833420Y-76996007D01*
X139862147Y-77001721D01*
X139973219Y-77174332D01*
X140182076Y-77317038D01*
X140430000Y-77367244D01*
X141630000Y-77367244D01*
X141861611Y-77323663D01*
X142074332Y-77186781D01*
X142126519Y-77110402D01*
X142275966Y-77259850D01*
X142505680Y-77355000D01*
X142948750Y-77355000D01*
X143105000Y-77198750D01*
X143105000Y-76405000D01*
X143355000Y-76405000D01*
X143355000Y-77198750D01*
X143511250Y-77355000D01*
X143954320Y-77355000D01*
X144184034Y-77259850D01*
X144359849Y-77084034D01*
X144455000Y-76854320D01*
X144455000Y-76561250D01*
X144298750Y-76405000D01*
X143355000Y-76405000D01*
X143105000Y-76405000D01*
X143085000Y-76405000D01*
X143085000Y-76155000D01*
X143105000Y-76155000D01*
X143105000Y-75361250D01*
X143355000Y-75361250D01*
X143355000Y-76155000D01*
X144298750Y-76155000D01*
X144455000Y-75998750D01*
X144455000Y-75705680D01*
X144359849Y-75475966D01*
X144184034Y-75300150D01*
X143954320Y-75205000D01*
X143511250Y-75205000D01*
X143355000Y-75361250D01*
X143105000Y-75361250D01*
X142948750Y-75205000D01*
X142566016Y-75205000D01*
X143323008Y-74448008D01*
X143491007Y-74196580D01*
X143550000Y-73900000D01*
X143550000Y-72381250D01*
X147076500Y-72381250D01*
X147076500Y-72922820D01*
X147171650Y-73152534D01*
X147347466Y-73328349D01*
X147577180Y-73423500D01*
X148118750Y-73423500D01*
X148275000Y-73267250D01*
X148275000Y-72225000D01*
X147232750Y-72225000D01*
X147076500Y-72381250D01*
X143550000Y-72381250D01*
X143550000Y-71900000D01*
X145675000Y-71900000D01*
X145971580Y-71841007D01*
X146223008Y-71673008D01*
X147493193Y-70402823D01*
X147771239Y-70681355D01*
G36*
X147771239Y-80841355D02*
X148068688Y-80964867D01*
X147651277Y-81137337D01*
X147303006Y-81485000D01*
X146065546Y-81485000D01*
X145432538Y-80851992D01*
X145181110Y-80683993D01*
X144884530Y-80625000D01*
X144215140Y-80625000D01*
X144345139Y-80495000D01*
X147425488Y-80495000D01*
X147771239Y-80841355D01*
X147771239Y-80841355D01*
G37*
X147771239Y-80841355D02*
X148068688Y-80964867D01*
X147651277Y-81137337D01*
X147303006Y-81485000D01*
X146065546Y-81485000D01*
X145432538Y-80851992D01*
X145181110Y-80683993D01*
X144884530Y-80625000D01*
X144215140Y-80625000D01*
X144345139Y-80495000D01*
X147425488Y-80495000D01*
X147771239Y-80841355D01*
G36*
X147649319Y-78301355D02*
X148068387Y-78475367D01*
X147773197Y-78597337D01*
X147424926Y-78945000D01*
X145188017Y-78945000D01*
X145385007Y-78748010D01*
X145385010Y-78748008D01*
X146178018Y-77955000D01*
X147303568Y-77955000D01*
X147649319Y-78301355D01*
X147649319Y-78301355D01*
G37*
X147649319Y-78301355D02*
X148068387Y-78475367D01*
X147773197Y-78597337D01*
X147424926Y-78945000D01*
X145188017Y-78945000D01*
X145385007Y-78748010D01*
X145385010Y-78748008D01*
X146178018Y-77955000D01*
X147303568Y-77955000D01*
X147649319Y-78301355D01*
G36*
X102025000Y-70118750D02*
X102181250Y-70275000D01*
X103125000Y-70275000D01*
X103125000Y-70255000D01*
X103375000Y-70255000D01*
X103375000Y-70275000D01*
X103395000Y-70275000D01*
X103395000Y-70525000D01*
X103375000Y-70525000D01*
X103375000Y-71243750D01*
X103531250Y-71400000D01*
X103974320Y-71400000D01*
X104034970Y-71374878D01*
X104025000Y-71425000D01*
X104025000Y-74600000D01*
X104083993Y-74896580D01*
X104251992Y-75148008D01*
X104486992Y-75383008D01*
X104738420Y-75551007D01*
X104858994Y-75574990D01*
X104351992Y-76081992D01*
X104183993Y-76333420D01*
X104125000Y-76630000D01*
X104125000Y-77345685D01*
X104068389Y-77356337D01*
X103855668Y-77493219D01*
X103800616Y-77573790D01*
X103756781Y-77505668D01*
X103547924Y-77362962D01*
X103475000Y-77348194D01*
X103475000Y-76630000D01*
X103416007Y-76333420D01*
X103248008Y-76081992D01*
X102723008Y-75556992D01*
X102471580Y-75388993D01*
X102459529Y-75386596D01*
X102462038Y-75382924D01*
X102512244Y-75135000D01*
X102512244Y-74535000D01*
X102468663Y-74303389D01*
X102402332Y-74200307D01*
X102462038Y-74112924D01*
X102512244Y-73865000D01*
X102512244Y-73265000D01*
X102468663Y-73033389D01*
X102408582Y-72940021D01*
X102500000Y-72719320D01*
X102500000Y-72576250D01*
X102343750Y-72420000D01*
X101225000Y-72420000D01*
X101225000Y-72440000D01*
X100975000Y-72440000D01*
X100975000Y-72420000D01*
X99856250Y-72420000D01*
X99700000Y-72576250D01*
X99700000Y-72603984D01*
X99598008Y-72501992D01*
X99346580Y-72333993D01*
X99301369Y-72325000D01*
X99310000Y-72325000D01*
X99625714Y-72262201D01*
X99819180Y-72132930D01*
X99856250Y-72170000D01*
X100975000Y-72170000D01*
X100975000Y-71526250D01*
X101225000Y-71526250D01*
X101225000Y-72170000D01*
X102343750Y-72170000D01*
X102500000Y-72013750D01*
X102500000Y-71870680D01*
X102404849Y-71640966D01*
X102229034Y-71465150D01*
X101999320Y-71370000D01*
X101381250Y-71370000D01*
X101225000Y-71526250D01*
X100975000Y-71526250D01*
X100818750Y-71370000D01*
X100606726Y-71370000D01*
X101295476Y-70681250D01*
X102025000Y-70681250D01*
X102025000Y-70899320D01*
X102120151Y-71129034D01*
X102295966Y-71304850D01*
X102525680Y-71400000D01*
X102968750Y-71400000D01*
X103125000Y-71243750D01*
X103125000Y-70525000D01*
X102181250Y-70525000D01*
X102025000Y-70681250D01*
X101295476Y-70681250D01*
X102025000Y-69951726D01*
X102025000Y-70118750D01*
X102025000Y-70118750D01*
G37*
X102025000Y-70118750D02*
X102181250Y-70275000D01*
X103125000Y-70275000D01*
X103125000Y-70255000D01*
X103375000Y-70255000D01*
X103375000Y-70275000D01*
X103395000Y-70275000D01*
X103395000Y-70525000D01*
X103375000Y-70525000D01*
X103375000Y-71243750D01*
X103531250Y-71400000D01*
X103974320Y-71400000D01*
X104034970Y-71374878D01*
X104025000Y-71425000D01*
X104025000Y-74600000D01*
X104083993Y-74896580D01*
X104251992Y-75148008D01*
X104486992Y-75383008D01*
X104738420Y-75551007D01*
X104858994Y-75574990D01*
X104351992Y-76081992D01*
X104183993Y-76333420D01*
X104125000Y-76630000D01*
X104125000Y-77345685D01*
X104068389Y-77356337D01*
X103855668Y-77493219D01*
X103800616Y-77573790D01*
X103756781Y-77505668D01*
X103547924Y-77362962D01*
X103475000Y-77348194D01*
X103475000Y-76630000D01*
X103416007Y-76333420D01*
X103248008Y-76081992D01*
X102723008Y-75556992D01*
X102471580Y-75388993D01*
X102459529Y-75386596D01*
X102462038Y-75382924D01*
X102512244Y-75135000D01*
X102512244Y-74535000D01*
X102468663Y-74303389D01*
X102402332Y-74200307D01*
X102462038Y-74112924D01*
X102512244Y-73865000D01*
X102512244Y-73265000D01*
X102468663Y-73033389D01*
X102408582Y-72940021D01*
X102500000Y-72719320D01*
X102500000Y-72576250D01*
X102343750Y-72420000D01*
X101225000Y-72420000D01*
X101225000Y-72440000D01*
X100975000Y-72440000D01*
X100975000Y-72420000D01*
X99856250Y-72420000D01*
X99700000Y-72576250D01*
X99700000Y-72603984D01*
X99598008Y-72501992D01*
X99346580Y-72333993D01*
X99301369Y-72325000D01*
X99310000Y-72325000D01*
X99625714Y-72262201D01*
X99819180Y-72132930D01*
X99856250Y-72170000D01*
X100975000Y-72170000D01*
X100975000Y-71526250D01*
X101225000Y-71526250D01*
X101225000Y-72170000D01*
X102343750Y-72170000D01*
X102500000Y-72013750D01*
X102500000Y-71870680D01*
X102404849Y-71640966D01*
X102229034Y-71465150D01*
X101999320Y-71370000D01*
X101381250Y-71370000D01*
X101225000Y-71526250D01*
X100975000Y-71526250D01*
X100818750Y-71370000D01*
X100606726Y-71370000D01*
X101295476Y-70681250D01*
X102025000Y-70681250D01*
X102025000Y-70899320D01*
X102120151Y-71129034D01*
X102295966Y-71304850D01*
X102525680Y-71400000D01*
X102968750Y-71400000D01*
X103125000Y-71243750D01*
X103125000Y-70525000D01*
X102181250Y-70525000D01*
X102025000Y-70681250D01*
X101295476Y-70681250D01*
X102025000Y-69951726D01*
X102025000Y-70118750D01*
G36*
X76371990Y-75698005D02*
X76371992Y-75698008D01*
X76596483Y-75848008D01*
X76623420Y-75866007D01*
X76646934Y-75870684D01*
X76751250Y-75975000D01*
X76844692Y-75975000D01*
X76972076Y-76062038D01*
X77157318Y-76099551D01*
X76988389Y-76131337D01*
X76926140Y-76171393D01*
X76814801Y-76125161D01*
X76446813Y-76124840D01*
X76106714Y-76265366D01*
X75846626Y-76525000D01*
X74925000Y-76525000D01*
X74925000Y-76471250D01*
X74768750Y-76315000D01*
X73475000Y-76315000D01*
X73475000Y-76335000D01*
X73225000Y-76335000D01*
X73225000Y-76315000D01*
X71931250Y-76315000D01*
X71775000Y-76471250D01*
X71775000Y-76525000D01*
X70861015Y-76525000D01*
X70613260Y-76277244D01*
X71300000Y-76277244D01*
X71531611Y-76233663D01*
X71744332Y-76096781D01*
X71833106Y-75966856D01*
X71931250Y-76065000D01*
X73225000Y-76065000D01*
X73225000Y-76045000D01*
X73475000Y-76045000D01*
X73475000Y-76065000D01*
X74768750Y-76065000D01*
X74925000Y-75908750D01*
X74925000Y-75812471D01*
X75075199Y-75874839D01*
X75443187Y-75875160D01*
X75783286Y-75734634D01*
X76043720Y-75474655D01*
X76074504Y-75400519D01*
X76371990Y-75698005D01*
X76371990Y-75698005D01*
G37*
X76371990Y-75698005D02*
X76371992Y-75698008D01*
X76596483Y-75848008D01*
X76623420Y-75866007D01*
X76646934Y-75870684D01*
X76751250Y-75975000D01*
X76844692Y-75975000D01*
X76972076Y-76062038D01*
X77157318Y-76099551D01*
X76988389Y-76131337D01*
X76926140Y-76171393D01*
X76814801Y-76125161D01*
X76446813Y-76124840D01*
X76106714Y-76265366D01*
X75846626Y-76525000D01*
X74925000Y-76525000D01*
X74925000Y-76471250D01*
X74768750Y-76315000D01*
X73475000Y-76315000D01*
X73475000Y-76335000D01*
X73225000Y-76335000D01*
X73225000Y-76315000D01*
X71931250Y-76315000D01*
X71775000Y-76471250D01*
X71775000Y-76525000D01*
X70861015Y-76525000D01*
X70613260Y-76277244D01*
X71300000Y-76277244D01*
X71531611Y-76233663D01*
X71744332Y-76096781D01*
X71833106Y-75966856D01*
X71931250Y-76065000D01*
X73225000Y-76065000D01*
X73225000Y-76045000D01*
X73475000Y-76045000D01*
X73475000Y-76065000D01*
X74768750Y-76065000D01*
X74925000Y-75908750D01*
X74925000Y-75812471D01*
X75075199Y-75874839D01*
X75443187Y-75875160D01*
X75783286Y-75734634D01*
X76043720Y-75474655D01*
X76074504Y-75400519D01*
X76371990Y-75698005D01*
G36*
X114815199Y-71324839D02*
X115125010Y-71325109D01*
X115125010Y-74428995D01*
X114632450Y-73936434D01*
X114729849Y-73839034D01*
X114825000Y-73609320D01*
X114825000Y-73391250D01*
X114668750Y-73235000D01*
X113725000Y-73235000D01*
X113725000Y-73255000D01*
X113475000Y-73255000D01*
X113475000Y-73235000D01*
X113455000Y-73235000D01*
X113455000Y-72985000D01*
X113475000Y-72985000D01*
X113475000Y-72266250D01*
X113725000Y-72266250D01*
X113725000Y-72985000D01*
X114668750Y-72985000D01*
X114825000Y-72828750D01*
X114825000Y-72610680D01*
X114729849Y-72380966D01*
X114554034Y-72205150D01*
X114324320Y-72110000D01*
X113881250Y-72110000D01*
X113725000Y-72266250D01*
X113475000Y-72266250D01*
X113318750Y-72110000D01*
X112923789Y-72110000D01*
X112944332Y-72096781D01*
X113087038Y-71887924D01*
X113137244Y-71640000D01*
X113137244Y-71449222D01*
X113325000Y-71487244D01*
X114075000Y-71487244D01*
X114306611Y-71443663D01*
X114519332Y-71306781D01*
X114575111Y-71225146D01*
X114815199Y-71324839D01*
X114815199Y-71324839D01*
G37*
X114815199Y-71324839D02*
X115125010Y-71325109D01*
X115125010Y-74428995D01*
X114632450Y-73936434D01*
X114729849Y-73839034D01*
X114825000Y-73609320D01*
X114825000Y-73391250D01*
X114668750Y-73235000D01*
X113725000Y-73235000D01*
X113725000Y-73255000D01*
X113475000Y-73255000D01*
X113475000Y-73235000D01*
X113455000Y-73235000D01*
X113455000Y-72985000D01*
X113475000Y-72985000D01*
X113475000Y-72266250D01*
X113725000Y-72266250D01*
X113725000Y-72985000D01*
X114668750Y-72985000D01*
X114825000Y-72828750D01*
X114825000Y-72610680D01*
X114729849Y-72380966D01*
X114554034Y-72205150D01*
X114324320Y-72110000D01*
X113881250Y-72110000D01*
X113725000Y-72266250D01*
X113475000Y-72266250D01*
X113318750Y-72110000D01*
X112923789Y-72110000D01*
X112944332Y-72096781D01*
X113087038Y-71887924D01*
X113137244Y-71640000D01*
X113137244Y-71449222D01*
X113325000Y-71487244D01*
X114075000Y-71487244D01*
X114306611Y-71443663D01*
X114519332Y-71306781D01*
X114575111Y-71225146D01*
X114815199Y-71324839D01*
G36*
X78502756Y-70310000D02*
X78502756Y-70824953D01*
X78496781Y-70815668D01*
X78287924Y-70672962D01*
X78040000Y-70622756D01*
X76140000Y-70622756D01*
X75908389Y-70666337D01*
X75695668Y-70803219D01*
X75552962Y-71012076D01*
X75502756Y-71260000D01*
X75502756Y-72060000D01*
X75546337Y-72291611D01*
X75683219Y-72504332D01*
X75892076Y-72647038D01*
X76140000Y-72697244D01*
X76358212Y-72697244D01*
X76373993Y-72776580D01*
X76474880Y-72927568D01*
X76474840Y-72973187D01*
X76615366Y-73313286D01*
X76875345Y-73573720D01*
X77215199Y-73714839D01*
X77583187Y-73715160D01*
X77923286Y-73574634D01*
X78183720Y-73314655D01*
X78324839Y-72974801D01*
X78325149Y-72619212D01*
X78484332Y-72516781D01*
X78540211Y-72435000D01*
X78621250Y-72435000D01*
X78671250Y-72485000D01*
X79965000Y-72485000D01*
X79965000Y-72465000D01*
X80215000Y-72465000D01*
X80215000Y-72485000D01*
X80235000Y-72485000D01*
X80235000Y-72735000D01*
X80215000Y-72735000D01*
X80215000Y-72755000D01*
X79965000Y-72755000D01*
X79965000Y-72735000D01*
X78671250Y-72735000D01*
X78515000Y-72891250D01*
X78515000Y-73134320D01*
X78610151Y-73364034D01*
X78663588Y-73417471D01*
X78581992Y-73471992D01*
X77866228Y-74187756D01*
X77220000Y-74187756D01*
X77080096Y-74214081D01*
X75228008Y-72361992D01*
X74976580Y-72193993D01*
X74680000Y-72135000D01*
X72151016Y-72135000D01*
X74121015Y-70165000D01*
X78532119Y-70165000D01*
X78502756Y-70310000D01*
X78502756Y-70310000D01*
G37*
X78502756Y-70310000D02*
X78502756Y-70824953D01*
X78496781Y-70815668D01*
X78287924Y-70672962D01*
X78040000Y-70622756D01*
X76140000Y-70622756D01*
X75908389Y-70666337D01*
X75695668Y-70803219D01*
X75552962Y-71012076D01*
X75502756Y-71260000D01*
X75502756Y-72060000D01*
X75546337Y-72291611D01*
X75683219Y-72504332D01*
X75892076Y-72647038D01*
X76140000Y-72697244D01*
X76358212Y-72697244D01*
X76373993Y-72776580D01*
X76474880Y-72927568D01*
X76474840Y-72973187D01*
X76615366Y-73313286D01*
X76875345Y-73573720D01*
X77215199Y-73714839D01*
X77583187Y-73715160D01*
X77923286Y-73574634D01*
X78183720Y-73314655D01*
X78324839Y-72974801D01*
X78325149Y-72619212D01*
X78484332Y-72516781D01*
X78540211Y-72435000D01*
X78621250Y-72435000D01*
X78671250Y-72485000D01*
X79965000Y-72485000D01*
X79965000Y-72465000D01*
X80215000Y-72465000D01*
X80215000Y-72485000D01*
X80235000Y-72485000D01*
X80235000Y-72735000D01*
X80215000Y-72735000D01*
X80215000Y-72755000D01*
X79965000Y-72755000D01*
X79965000Y-72735000D01*
X78671250Y-72735000D01*
X78515000Y-72891250D01*
X78515000Y-73134320D01*
X78610151Y-73364034D01*
X78663588Y-73417471D01*
X78581992Y-73471992D01*
X77866228Y-74187756D01*
X77220000Y-74187756D01*
X77080096Y-74214081D01*
X75228008Y-72361992D01*
X74976580Y-72193993D01*
X74680000Y-72135000D01*
X72151016Y-72135000D01*
X74121015Y-70165000D01*
X78532119Y-70165000D01*
X78502756Y-70310000D01*
G36*
X147649319Y-68141355D02*
X148068387Y-68315367D01*
X147773197Y-68437337D01*
X147424926Y-68785000D01*
X147240000Y-68785000D01*
X146943420Y-68843993D01*
X146691992Y-69011992D01*
X145353984Y-70350000D01*
X143308360Y-70350000D01*
X143299655Y-70341280D01*
X142959801Y-70200161D01*
X142591813Y-70199840D01*
X142251714Y-70340366D01*
X141991280Y-70600345D01*
X141850161Y-70940199D01*
X141849840Y-71308187D01*
X141990366Y-71648286D01*
X142000000Y-71657937D01*
X142000000Y-72702234D01*
X141934801Y-72675161D01*
X141566813Y-72674840D01*
X141445416Y-72725000D01*
X141188768Y-72725000D01*
X141163592Y-72685877D01*
X141233585Y-72583439D01*
X141283791Y-72335515D01*
X141283791Y-71537955D01*
X141240210Y-71306344D01*
X141103328Y-71093623D01*
X140894471Y-70950917D01*
X140646547Y-70900711D01*
X139848987Y-70900711D01*
X139617376Y-70944292D01*
X139535011Y-70997292D01*
X139535011Y-70986035D01*
X139491430Y-70754424D01*
X139354548Y-70541703D01*
X139166824Y-70413436D01*
X141785260Y-67795000D01*
X147303568Y-67795000D01*
X147649319Y-68141355D01*
X147649319Y-68141355D01*
G37*
X147649319Y-68141355D02*
X148068387Y-68315367D01*
X147773197Y-68437337D01*
X147424926Y-68785000D01*
X147240000Y-68785000D01*
X146943420Y-68843993D01*
X146691992Y-69011992D01*
X145353984Y-70350000D01*
X143308360Y-70350000D01*
X143299655Y-70341280D01*
X142959801Y-70200161D01*
X142591813Y-70199840D01*
X142251714Y-70340366D01*
X141991280Y-70600345D01*
X141850161Y-70940199D01*
X141849840Y-71308187D01*
X141990366Y-71648286D01*
X142000000Y-71657937D01*
X142000000Y-72702234D01*
X141934801Y-72675161D01*
X141566813Y-72674840D01*
X141445416Y-72725000D01*
X141188768Y-72725000D01*
X141163592Y-72685877D01*
X141233585Y-72583439D01*
X141283791Y-72335515D01*
X141283791Y-71537955D01*
X141240210Y-71306344D01*
X141103328Y-71093623D01*
X140894471Y-70950917D01*
X140646547Y-70900711D01*
X139848987Y-70900711D01*
X139617376Y-70944292D01*
X139535011Y-70997292D01*
X139535011Y-70986035D01*
X139491430Y-70754424D01*
X139354548Y-70541703D01*
X139166824Y-70413436D01*
X141785260Y-67795000D01*
X147303568Y-67795000D01*
X147649319Y-68141355D01*
G36*
X91985000Y-70380000D02*
X91735000Y-70380000D01*
X91735000Y-70090000D01*
X91985000Y-70090000D01*
X91985000Y-70380000D01*
X91985000Y-70380000D01*
G37*
X91985000Y-70380000D02*
X91735000Y-70380000D01*
X91735000Y-70090000D01*
X91985000Y-70090000D01*
X91985000Y-70380000D01*
G36*
X116654870Y-68451992D02*
X116654868Y-68451995D01*
X115500579Y-69606283D01*
X115184801Y-69475161D01*
X114816813Y-69474840D01*
X114689206Y-69527566D01*
X114668663Y-69418389D01*
X114598904Y-69309980D01*
X114604850Y-69304034D01*
X114700000Y-69074320D01*
X114700000Y-68631250D01*
X114543750Y-68475000D01*
X113825000Y-68475000D01*
X113825000Y-68495000D01*
X113575000Y-68495000D01*
X113575000Y-68475000D01*
X113555000Y-68475000D01*
X113555000Y-68225000D01*
X113575000Y-68225000D01*
X113575000Y-68205000D01*
X113825000Y-68205000D01*
X113825000Y-68225000D01*
X114543750Y-68225000D01*
X114700000Y-68068750D01*
X114700000Y-67625680D01*
X114604850Y-67395966D01*
X114573884Y-67365000D01*
X117741862Y-67365000D01*
X116654870Y-68451992D01*
X116654870Y-68451992D01*
G37*
X116654870Y-68451992D02*
X116654868Y-68451995D01*
X115500579Y-69606283D01*
X115184801Y-69475161D01*
X114816813Y-69474840D01*
X114689206Y-69527566D01*
X114668663Y-69418389D01*
X114598904Y-69309980D01*
X114604850Y-69304034D01*
X114700000Y-69074320D01*
X114700000Y-68631250D01*
X114543750Y-68475000D01*
X113825000Y-68475000D01*
X113825000Y-68495000D01*
X113575000Y-68495000D01*
X113575000Y-68475000D01*
X113555000Y-68475000D01*
X113555000Y-68225000D01*
X113575000Y-68225000D01*
X113575000Y-68205000D01*
X113825000Y-68205000D01*
X113825000Y-68225000D01*
X114543750Y-68225000D01*
X114700000Y-68068750D01*
X114700000Y-67625680D01*
X114604850Y-67395966D01*
X114573884Y-67365000D01*
X117741862Y-67365000D01*
X116654870Y-68451992D01*
G36*
X134222342Y-65540222D02*
X134032665Y-65824092D01*
X133966060Y-66158940D01*
X133966060Y-67479421D01*
X133774320Y-67400000D01*
X133181250Y-67400000D01*
X133025000Y-67556250D01*
X133025000Y-68175000D01*
X133045000Y-68175000D01*
X133045000Y-68187756D01*
X132755000Y-68187756D01*
X132755000Y-68175000D01*
X132775000Y-68175000D01*
X132775000Y-67556250D01*
X132618750Y-67400000D01*
X132102119Y-67400000D01*
X132112244Y-67350000D01*
X132112244Y-67288836D01*
X132323008Y-67148008D01*
X132606084Y-66864932D01*
X132855471Y-66865150D01*
X133195570Y-66724624D01*
X133456004Y-66464645D01*
X133597123Y-66124791D01*
X133597444Y-65756803D01*
X133456918Y-65416704D01*
X133315452Y-65274990D01*
X134487574Y-65274990D01*
X134222342Y-65540222D01*
X134222342Y-65540222D01*
G37*
X134222342Y-65540222D02*
X134032665Y-65824092D01*
X133966060Y-66158940D01*
X133966060Y-67479421D01*
X133774320Y-67400000D01*
X133181250Y-67400000D01*
X133025000Y-67556250D01*
X133025000Y-68175000D01*
X133045000Y-68175000D01*
X133045000Y-68187756D01*
X132755000Y-68187756D01*
X132755000Y-68175000D01*
X132775000Y-68175000D01*
X132775000Y-67556250D01*
X132618750Y-67400000D01*
X132102119Y-67400000D01*
X132112244Y-67350000D01*
X132112244Y-67288836D01*
X132323008Y-67148008D01*
X132606084Y-66864932D01*
X132855471Y-66865150D01*
X133195570Y-66724624D01*
X133456004Y-66464645D01*
X133597123Y-66124791D01*
X133597444Y-65756803D01*
X133456918Y-65416704D01*
X133315452Y-65274990D01*
X134487574Y-65274990D01*
X134222342Y-65540222D01*
G36*
X147771239Y-65601355D02*
X148068688Y-65724867D01*
X147651277Y-65897337D01*
X147303006Y-66245000D01*
X142628137Y-66245000D01*
X143618137Y-65255000D01*
X147425488Y-65255000D01*
X147771239Y-65601355D01*
X147771239Y-65601355D01*
G37*
X147771239Y-65601355D02*
X148068688Y-65724867D01*
X147651277Y-65897337D01*
X147303006Y-66245000D01*
X142628137Y-66245000D01*
X143618137Y-65255000D01*
X147425488Y-65255000D01*
X147771239Y-65601355D01*
G36*
X124825000Y-62621016D02*
X124825000Y-62866640D01*
X124816280Y-62875345D01*
X124675161Y-63215199D01*
X124674840Y-63583187D01*
X124815366Y-63923286D01*
X125075345Y-64183720D01*
X125415199Y-64324839D01*
X125625000Y-64325022D01*
X125625000Y-65474692D01*
X125599866Y-65511476D01*
X125531781Y-65405668D01*
X125429602Y-65335852D01*
X125318750Y-65225000D01*
X125200680Y-65225000D01*
X125179265Y-65233870D01*
X125075000Y-65212756D01*
X124688836Y-65212756D01*
X124548008Y-65001992D01*
X124287496Y-64741480D01*
X124414839Y-64434801D01*
X124415160Y-64066813D01*
X124274634Y-63726714D01*
X124014655Y-63466280D01*
X123674801Y-63325161D01*
X123400000Y-63324921D01*
X123400000Y-61196016D01*
X124825000Y-62621016D01*
X124825000Y-62621016D01*
G37*
X124825000Y-62621016D02*
X124825000Y-62866640D01*
X124816280Y-62875345D01*
X124675161Y-63215199D01*
X124674840Y-63583187D01*
X124815366Y-63923286D01*
X125075345Y-64183720D01*
X125415199Y-64324839D01*
X125625000Y-64325022D01*
X125625000Y-65474692D01*
X125599866Y-65511476D01*
X125531781Y-65405668D01*
X125429602Y-65335852D01*
X125318750Y-65225000D01*
X125200680Y-65225000D01*
X125179265Y-65233870D01*
X125075000Y-65212756D01*
X124688836Y-65212756D01*
X124548008Y-65001992D01*
X124287496Y-64741480D01*
X124414839Y-64434801D01*
X124415160Y-64066813D01*
X124274634Y-63726714D01*
X124014655Y-63466280D01*
X123674801Y-63325161D01*
X123400000Y-63324921D01*
X123400000Y-61196016D01*
X124825000Y-62621016D01*
G36*
X147076271Y-57122105D02*
X147277337Y-57608723D01*
X147649319Y-57981355D01*
X148068387Y-58155367D01*
X147773197Y-58277337D01*
X147400565Y-58649319D01*
X147198650Y-59135585D01*
X147198191Y-59662105D01*
X147399257Y-60148723D01*
X147771239Y-60521355D01*
X148052575Y-60638176D01*
X147711364Y-60779510D01*
X147649326Y-61012550D01*
X148400000Y-61763223D01*
X148414142Y-61749081D01*
X148590919Y-61925858D01*
X148576777Y-61940000D01*
X148590919Y-61954142D01*
X148414142Y-62130919D01*
X148400000Y-62116777D01*
X147649326Y-62867450D01*
X147711364Y-63100490D01*
X148080012Y-63230564D01*
X147773197Y-63357337D01*
X147424926Y-63705000D01*
X143297122Y-63705000D01*
X143000542Y-63763993D01*
X142749114Y-63931992D01*
X142749112Y-63931995D01*
X141275980Y-65405127D01*
X141270044Y-65395902D01*
X141276397Y-65389549D01*
X141371547Y-65159835D01*
X141371547Y-64917985D01*
X141215297Y-64761735D01*
X140472767Y-64761735D01*
X140472767Y-64781735D01*
X140222767Y-64781735D01*
X140222767Y-64761735D01*
X140202767Y-64761735D01*
X140202767Y-64511735D01*
X140222767Y-64511735D01*
X140222767Y-63769205D01*
X140472767Y-63769205D01*
X140472767Y-64511735D01*
X141215297Y-64511735D01*
X141371547Y-64355485D01*
X141371547Y-64113635D01*
X141276397Y-63883921D01*
X141100581Y-63708106D01*
X140870867Y-63612955D01*
X140629017Y-63612955D01*
X140472767Y-63769205D01*
X140222767Y-63769205D01*
X140066517Y-63612955D01*
X139824667Y-63612955D01*
X139594953Y-63708106D01*
X139532162Y-63770896D01*
X139491430Y-63554424D01*
X139440315Y-63474989D01*
X141807131Y-63474989D01*
X142103711Y-63415996D01*
X142355139Y-63247997D01*
X143855253Y-61747883D01*
X147064318Y-61747883D01*
X147092470Y-62273651D01*
X147239510Y-62628636D01*
X147472550Y-62690674D01*
X148223223Y-61940000D01*
X147472550Y-61189326D01*
X147239510Y-61251364D01*
X147064318Y-61747883D01*
X143855253Y-61747883D01*
X146448018Y-59155118D01*
X146616017Y-58903690D01*
X146675010Y-58607110D01*
X146675010Y-57262926D01*
X147076498Y-56861438D01*
X147076271Y-57122105D01*
X147076271Y-57122105D01*
G37*
X147076271Y-57122105D02*
X147277337Y-57608723D01*
X147649319Y-57981355D01*
X148068387Y-58155367D01*
X147773197Y-58277337D01*
X147400565Y-58649319D01*
X147198650Y-59135585D01*
X147198191Y-59662105D01*
X147399257Y-60148723D01*
X147771239Y-60521355D01*
X148052575Y-60638176D01*
X147711364Y-60779510D01*
X147649326Y-61012550D01*
X148400000Y-61763223D01*
X148414142Y-61749081D01*
X148590919Y-61925858D01*
X148576777Y-61940000D01*
X148590919Y-61954142D01*
X148414142Y-62130919D01*
X148400000Y-62116777D01*
X147649326Y-62867450D01*
X147711364Y-63100490D01*
X148080012Y-63230564D01*
X147773197Y-63357337D01*
X147424926Y-63705000D01*
X143297122Y-63705000D01*
X143000542Y-63763993D01*
X142749114Y-63931992D01*
X142749112Y-63931995D01*
X141275980Y-65405127D01*
X141270044Y-65395902D01*
X141276397Y-65389549D01*
X141371547Y-65159835D01*
X141371547Y-64917985D01*
X141215297Y-64761735D01*
X140472767Y-64761735D01*
X140472767Y-64781735D01*
X140222767Y-64781735D01*
X140222767Y-64761735D01*
X140202767Y-64761735D01*
X140202767Y-64511735D01*
X140222767Y-64511735D01*
X140222767Y-63769205D01*
X140472767Y-63769205D01*
X140472767Y-64511735D01*
X141215297Y-64511735D01*
X141371547Y-64355485D01*
X141371547Y-64113635D01*
X141276397Y-63883921D01*
X141100581Y-63708106D01*
X140870867Y-63612955D01*
X140629017Y-63612955D01*
X140472767Y-63769205D01*
X140222767Y-63769205D01*
X140066517Y-63612955D01*
X139824667Y-63612955D01*
X139594953Y-63708106D01*
X139532162Y-63770896D01*
X139491430Y-63554424D01*
X139440315Y-63474989D01*
X141807131Y-63474989D01*
X142103711Y-63415996D01*
X142355139Y-63247997D01*
X143855253Y-61747883D01*
X147064318Y-61747883D01*
X147092470Y-62273651D01*
X147239510Y-62628636D01*
X147472550Y-62690674D01*
X148223223Y-61940000D01*
X147472550Y-61189326D01*
X147239510Y-61251364D01*
X147064318Y-61747883D01*
X143855253Y-61747883D01*
X146448018Y-59155118D01*
X146616017Y-58903690D01*
X146675010Y-58607110D01*
X146675010Y-57262926D01*
X147076498Y-56861438D01*
X147076271Y-57122105D01*
G36*
X137460523Y-56244807D02*
X137460523Y-56986035D01*
X137504104Y-57217646D01*
X137640986Y-57430367D01*
X137721557Y-57485419D01*
X137653435Y-57529254D01*
X137510729Y-57738111D01*
X137460523Y-57986035D01*
X137460523Y-59186035D01*
X137504104Y-59417646D01*
X137640986Y-59630367D01*
X137849843Y-59773073D01*
X138097767Y-59823279D01*
X138997767Y-59823279D01*
X139229378Y-59779698D01*
X139442099Y-59642816D01*
X139584805Y-59433959D01*
X139599573Y-59361035D01*
X139998006Y-59361035D01*
X140048987Y-59371359D01*
X140846547Y-59371359D01*
X141075754Y-59328230D01*
X139979025Y-60424958D01*
X135771564Y-60424958D01*
X135771559Y-60424957D01*
X135474979Y-60483950D01*
X135223551Y-60651949D01*
X135075000Y-60800500D01*
X135075000Y-58575000D01*
X135025000Y-58323631D01*
X135025000Y-56075000D01*
X137290716Y-56075000D01*
X137460523Y-56244807D01*
X137460523Y-56244807D01*
G37*
X137460523Y-56244807D02*
X137460523Y-56986035D01*
X137504104Y-57217646D01*
X137640986Y-57430367D01*
X137721557Y-57485419D01*
X137653435Y-57529254D01*
X137510729Y-57738111D01*
X137460523Y-57986035D01*
X137460523Y-59186035D01*
X137504104Y-59417646D01*
X137640986Y-59630367D01*
X137849843Y-59773073D01*
X138097767Y-59823279D01*
X138997767Y-59823279D01*
X139229378Y-59779698D01*
X139442099Y-59642816D01*
X139584805Y-59433959D01*
X139599573Y-59361035D01*
X139998006Y-59361035D01*
X140048987Y-59371359D01*
X140846547Y-59371359D01*
X141075754Y-59328230D01*
X139979025Y-60424958D01*
X135771564Y-60424958D01*
X135771559Y-60424957D01*
X135474979Y-60483950D01*
X135223551Y-60651949D01*
X135075000Y-60800500D01*
X135075000Y-58575000D01*
X135025000Y-58323631D01*
X135025000Y-56075000D01*
X137290716Y-56075000D01*
X137460523Y-56244807D01*
G36*
X85621662Y-54516051D02*
X85952238Y-54736934D01*
X85983993Y-54896580D01*
X86151992Y-55148008D01*
X87151990Y-56148005D01*
X87151992Y-56148008D01*
X87403420Y-56316007D01*
X87452626Y-56325795D01*
X87700000Y-56375001D01*
X87700005Y-56375000D01*
X88578984Y-56375000D01*
X92178983Y-59974999D01*
X89291015Y-59974999D01*
X84241016Y-54925000D01*
X84285002Y-54925000D01*
X84285002Y-54763031D01*
X84521221Y-54881602D01*
X84628108Y-54856752D01*
X85149950Y-54566726D01*
X85424427Y-54220867D01*
X85621662Y-54516051D01*
X85621662Y-54516051D01*
G37*
X85621662Y-54516051D02*
X85952238Y-54736934D01*
X85983993Y-54896580D01*
X86151992Y-55148008D01*
X87151990Y-56148005D01*
X87151992Y-56148008D01*
X87403420Y-56316007D01*
X87452626Y-56325795D01*
X87700000Y-56375001D01*
X87700005Y-56375000D01*
X88578984Y-56375000D01*
X92178983Y-59974999D01*
X89291015Y-59974999D01*
X84241016Y-54925000D01*
X84285002Y-54925000D01*
X84285002Y-54763031D01*
X84521221Y-54881602D01*
X84628108Y-54856752D01*
X85149950Y-54566726D01*
X85424427Y-54220867D01*
X85621662Y-54516051D01*
G36*
X98321662Y-54516051D02*
X98652238Y-54736934D01*
X98683993Y-54896580D01*
X98851992Y-55148008D01*
X99451992Y-55748008D01*
X99703420Y-55916007D01*
X100000000Y-55975000D01*
X100878984Y-55975000D01*
X104378972Y-59474988D01*
X93871004Y-59474988D01*
X89448008Y-55051992D01*
X89297327Y-54951310D01*
X89823592Y-54846629D01*
X90318338Y-54516051D01*
X90510000Y-54229208D01*
X90701662Y-54516051D01*
X91196408Y-54846629D01*
X91780000Y-54962713D01*
X92363592Y-54846629D01*
X92858338Y-54516051D01*
X93050000Y-54229208D01*
X93241662Y-54516051D01*
X93736408Y-54846629D01*
X94320000Y-54962713D01*
X94903592Y-54846629D01*
X95398338Y-54516051D01*
X95590000Y-54229208D01*
X95781662Y-54516051D01*
X96276408Y-54846629D01*
X96860000Y-54962713D01*
X97443592Y-54846629D01*
X97938338Y-54516051D01*
X98130000Y-54229208D01*
X98321662Y-54516051D01*
X98321662Y-54516051D01*
G37*
X98321662Y-54516051D02*
X98652238Y-54736934D01*
X98683993Y-54896580D01*
X98851992Y-55148008D01*
X99451992Y-55748008D01*
X99703420Y-55916007D01*
X100000000Y-55975000D01*
X100878984Y-55975000D01*
X104378972Y-59474988D01*
X93871004Y-59474988D01*
X89448008Y-55051992D01*
X89297327Y-54951310D01*
X89823592Y-54846629D01*
X90318338Y-54516051D01*
X90510000Y-54229208D01*
X90701662Y-54516051D01*
X91196408Y-54846629D01*
X91780000Y-54962713D01*
X92363592Y-54846629D01*
X92858338Y-54516051D01*
X93050000Y-54229208D01*
X93241662Y-54516051D01*
X93736408Y-54846629D01*
X94320000Y-54962713D01*
X94903592Y-54846629D01*
X95398338Y-54516051D01*
X95590000Y-54229208D01*
X95781662Y-54516051D01*
X96276408Y-54846629D01*
X96860000Y-54962713D01*
X97443592Y-54846629D01*
X97938338Y-54516051D01*
X98130000Y-54229208D01*
X98321662Y-54516051D01*
M02*
