G04 #@! TF.FileFunction,Paste,Top*
%FSLAX46Y46*%
G04 Gerber Fmt 4.6, Leading zero omitted, Abs format (unit mm)*
G04 Created by KiCad (PCBNEW 4.0.5+dfsg1-4) date Fri Oct  5 16:33:36 2018*
%MOMM*%
%LPD*%
G01*
G04 APERTURE LIST*
%ADD10C,0.100000*%
%ADD11R,0.300000X1.140000*%
%ADD12R,0.500380X2.301240*%
%ADD13R,1.998980X2.499360*%
%ADD14R,0.400000X1.350000*%
%ADD15R,1.350000X0.400000*%
%ADD16R,3.200000X1.000000*%
G04 APERTURE END LIST*
D10*
D11*
X117330000Y-92840000D03*
X117830000Y-92840000D03*
X118330000Y-92840000D03*
X118830000Y-92840000D03*
X119330000Y-92840000D03*
X119830000Y-92840000D03*
X120330000Y-92840000D03*
X120830000Y-92840000D03*
X115730000Y-92840000D03*
X116030000Y-92840000D03*
X116530000Y-92840000D03*
X116830000Y-92840000D03*
X121330000Y-92840000D03*
X121630000Y-92840000D03*
X122130000Y-92840000D03*
X122430000Y-92840000D03*
D12*
X87899800Y-92150680D03*
X88699900Y-92150680D03*
X89500000Y-92150680D03*
X90300100Y-92150680D03*
X91100200Y-92150680D03*
D13*
X85049920Y-92249740D03*
X85049920Y-97748840D03*
X93950080Y-92249740D03*
X93950080Y-97748840D03*
D14*
X109800000Y-94637460D03*
X109150000Y-94637460D03*
X101799100Y-94637460D03*
X107850000Y-94637460D03*
X107200000Y-94637460D03*
X100499100Y-94637460D03*
X101149100Y-94637460D03*
X108500000Y-94637460D03*
X102449100Y-94637460D03*
X103099100Y-94637460D03*
D15*
X55092540Y-54559100D03*
X55092540Y-55209100D03*
X55092540Y-55859100D03*
X55092540Y-56509100D03*
X55092540Y-57159100D03*
D16*
X134130000Y-94400000D03*
X127330000Y-94400000D03*
X127330000Y-98400000D03*
X134130000Y-98400000D03*
M02*
