G04 #@! TF.FileFunction,Soldermask,Top*
%FSLAX46Y46*%
G04 Gerber Fmt 4.6, Leading zero omitted, Abs format (unit mm)*
G04 Created by KiCad (PCBNEW 4.0.5+dfsg1-4) date Fri Oct  5 16:33:36 2018*
%MOMM*%
%LPD*%
G01*
G04 APERTURE LIST*
%ADD10C,0.100000*%
%ADD11O,1.400000X2.200000*%
%ADD12O,1.400000X2.500000*%
%ADD13C,1.050000*%
%ADD14R,0.700000X1.540000*%
%ADD15R,1.797000X1.797000*%
%ADD16C,1.797000*%
%ADD17R,0.900380X2.701240*%
%ADD18R,2.398980X2.899360*%
%ADD19C,1.299160*%
%ADD20R,0.800000X1.750000*%
%ADD21O,2.200000X1.950000*%
%ADD22C,1.901140*%
%ADD23C,3.399740*%
%ADD24C,1.924000*%
%ADD25C,3.100020*%
%ADD26R,1.750000X0.800000*%
%ADD27O,1.650000X1.650000*%
%ADD28O,1.950000X2.200000*%
%ADD29R,3.600000X1.400000*%
%ADD30O,2.200000X3.000000*%
%ADD31C,3.400000*%
G04 APERTURE END LIST*
D10*
D11*
X114760000Y-97590000D03*
X123400000Y-97590000D03*
D12*
X114760000Y-93410000D03*
X123400000Y-93410000D03*
D13*
X116190000Y-93910000D03*
X121970000Y-93910000D03*
D14*
X117330000Y-92840000D03*
X117830000Y-92840000D03*
X118330000Y-92840000D03*
X118830000Y-92840000D03*
X119330000Y-92840000D03*
X119830000Y-92840000D03*
X120330000Y-92840000D03*
X120830000Y-92840000D03*
X115730000Y-92840000D03*
X116030000Y-92840000D03*
X116530000Y-92840000D03*
X116830000Y-92840000D03*
X121330000Y-92840000D03*
X121630000Y-92840000D03*
X122130000Y-92840000D03*
X122430000Y-92840000D03*
D15*
X140140000Y-92750000D03*
D16*
X142680000Y-92750000D03*
X140140000Y-95290000D03*
X142680000Y-95290000D03*
X140140000Y-97830000D03*
X142680000Y-97830000D03*
D15*
X95984575Y-84132751D03*
D16*
X98524575Y-84132751D03*
D17*
X87899800Y-92150680D03*
X88699900Y-92150680D03*
X89500000Y-92150680D03*
X90300100Y-92150680D03*
X91100200Y-92150680D03*
D18*
X85049920Y-92249740D03*
X85049920Y-97748840D03*
X93950080Y-92249740D03*
X93950080Y-97748840D03*
D19*
X87300360Y-94749100D03*
X91699640Y-94749100D03*
D20*
X109800000Y-94637460D03*
X109150000Y-94637460D03*
X101799100Y-94637460D03*
X107850000Y-94637460D03*
X107200000Y-94637460D03*
X100499100Y-94637460D03*
X101149100Y-94637460D03*
X108500000Y-94637460D03*
X102449100Y-94637460D03*
X103099100Y-94637460D03*
D21*
X98299100Y-97337460D03*
X110850000Y-97337460D03*
D22*
X78772000Y-87700000D03*
X76232000Y-87700000D03*
X74200000Y-87700000D03*
X71660000Y-87700000D03*
D23*
X81820000Y-90367000D03*
X68104000Y-90367000D03*
D22*
X62402120Y-77712860D03*
X62402120Y-75172860D03*
X62402120Y-73140860D03*
X62402120Y-70600860D03*
D23*
X59735120Y-80760860D03*
X59735120Y-67044860D03*
D24*
X57000000Y-85600000D03*
X59540000Y-85600000D03*
X59540000Y-87598980D03*
X57000000Y-87598980D03*
D25*
X52270520Y-90299000D03*
X64269480Y-90299000D03*
D16*
X148400000Y-92420000D03*
X148521920Y-89880000D03*
X148400000Y-87340000D03*
X148521920Y-84800000D03*
X148400000Y-82260000D03*
X148521920Y-94960000D03*
X148521920Y-79720000D03*
D15*
X148400000Y-97500000D03*
D16*
X148400000Y-77180000D03*
X148400000Y-67020000D03*
X148521920Y-64480000D03*
X148400000Y-61940000D03*
X148521920Y-59400000D03*
X148400000Y-56860000D03*
X148521920Y-69560000D03*
X148521920Y-54320000D03*
D15*
X148400000Y-72100000D03*
D16*
X148400000Y-51780000D03*
D26*
X55092540Y-54559100D03*
X55092540Y-55209100D03*
X55092540Y-55859100D03*
X55092540Y-56509100D03*
X55092540Y-57159100D03*
D27*
X55092540Y-53359100D03*
X55092540Y-58359100D03*
D28*
X52392540Y-52359100D03*
X52392540Y-59359100D03*
D29*
X134130000Y-94400000D03*
X127330000Y-94400000D03*
X127330000Y-98400000D03*
X134130000Y-98400000D03*
D30*
X74000000Y-53000000D03*
X76540000Y-53000000D03*
X79080000Y-53000000D03*
X81620000Y-53000000D03*
X84160000Y-53000000D03*
X86700000Y-53000000D03*
X89240000Y-53000000D03*
X91780000Y-53000000D03*
X94320000Y-53000000D03*
X96860000Y-53000000D03*
X99400000Y-53000000D03*
X101940000Y-53000000D03*
X104480000Y-53000000D03*
X107020000Y-53000000D03*
X109560000Y-53000000D03*
X112100000Y-53000000D03*
D31*
X68500900Y-53000000D03*
X68500900Y-84000700D03*
X143499480Y-84000700D03*
X143499480Y-53000000D03*
M02*
